<svg xmlns="http://www.w3.org/2000/svg" xmlns:xlink="http://www.w3.org/1999/xlink" width="108" height="108" viewBox="0 0 108 108">
  <defs>
    <filter id="Trazado_904820" x="0" y="0" width="108" height="108" filterUnits="userSpaceOnUse">
      <feOffset dy="3" input="SourceAlpha"/>
      <feGaussianBlur stdDeviation="3" result="blur"/>
      <feFlood flood-opacity="0.161"/>
      <feComposite operator="in" in2="blur"/>
      <feComposite in="SourceGraphic"/>
    </filter>
  </defs>
  <g id="Grupo_1230712" data-name="Grupo 1230712" transform="translate(-200 -6059.124)">
    <g id="Grupo_1230332" data-name="Grupo 1230332" transform="translate(209 6065.124)">
      <g id="Grupo_1173585" data-name="Grupo 1173585" transform="translate(0 0)">
        <g id="Grupo_1173428" data-name="Grupo 1173428">
          <g id="Grupo_1171958" data-name="Grupo 1171958">
            <g id="Grupo_1167341" data-name="Grupo 1167341">
              <g id="Grupo_1166792" data-name="Grupo 1166792">
                <g transform="matrix(1, 0, 0, 1, -9, -6)" filter="url(#Trazado_904820)">
                  <g id="Trazado_904820-2" data-name="Trazado 904820" transform="translate(9 6)" fill="#e7f2f8">
                    <path d="M 44.99999618530273 88.50002288818359 C 39.12687301635742 88.50002288818359 33.43022155761719 87.35009765625 28.06829643249512 85.08218383789062 C 22.88852119445801 82.89133453369141 18.23629570007324 79.75460815429688 14.24084663391113 75.7591552734375 C 10.24540901184082 71.76371002197266 7.108683586120605 67.11148071289062 4.917821407318115 61.93170928955078 C 2.649921178817749 56.56978225708008 1.499996185302734 50.87313079833984 1.499996185302734 45.00000762939453 C 1.499996185302734 39.12688446044922 2.649921178817749 33.43023300170898 4.917821407318115 28.06830787658691 C 7.108683586120605 22.8885326385498 10.24540901184082 18.23630714416504 14.24084663391113 14.24085807800293 C 18.23629570007324 10.24542045593262 22.88852119445801 7.108695030212402 28.06829643249512 4.917832851409912 C 33.43022155761719 2.649932622909546 39.12687301635742 1.500007629394531 44.99999618530273 1.500007629394531 C 50.87311935424805 1.500007629394531 56.56977081298828 2.649932622909546 61.93169784545898 4.917832851409912 C 67.11147308349609 7.108695030212402 71.76369476318359 10.24542045593262 75.75914764404297 14.24085807800293 C 79.75458526611328 18.23630714416504 82.89131164550781 22.8885326385498 85.08216857910156 28.06830787658691 C 87.35007476806641 33.43023300170898 88.5 39.12688446044922 88.5 45.00000762939453 C 88.5 50.87313079833984 87.35007476806641 56.56978225708008 85.08216857910156 61.93170928955078 C 82.89131164550781 67.11148071289062 79.75458526611328 71.76371002197266 75.75914764404297 75.7591552734375 C 71.76369476318359 79.75460815429688 67.11147308349609 82.89133453369141 61.93169784545898 85.08218383789062 C 56.56977081298828 87.35009765625 50.87311935424805 88.50002288818359 44.99999618530273 88.50002288818359 Z" stroke="none"/>
                    <path d="M 44.99999618530273 2.999992370605469 C 39.32870864868164 2.999992370605469 33.82865142822266 4.110054016113281 28.65262603759766 6.299339294433594 C 23.65165710449219 8.414566040039062 19.15968322753906 11.44333648681641 15.301513671875 15.30150604248047 C 11.44333648681641 19.15967559814453 8.414566040039062 23.65164947509766 6.299339294433594 28.65262222290039 C 4.110054016113281 33.82866287231445 2.999992370605469 39.32872009277344 2.999992370605469 45.00000762939453 C 2.999992370605469 50.67129516601562 4.110054016113281 56.17133712768555 6.299339294433594 61.34738159179688 C 8.414566040039062 66.34835052490234 11.44333648681641 70.84030914306641 15.301513671875 74.69849395751953 C 19.15968322753906 78.55666351318359 23.65165710449219 81.58543395996094 28.65262603759766 83.70066833496094 C 33.82865142822266 85.88995361328125 39.32870864868164 87.00000762939453 44.99999618530273 87.00000762939453 C 50.67128372192383 87.00000762939453 56.17134094238281 85.88995361328125 61.34736633300781 83.70066833496094 C 66.34834289550781 81.58543395996094 70.84030914306641 78.55666351318359 74.69847869873047 74.69849395751953 C 78.55665588378906 70.84030914306641 81.58542633056641 66.34835052490234 83.70065307617188 61.34738159179688 C 85.88993835449219 56.17133712768555 87 50.67129516601562 87 45.00000762939453 C 87 39.32872009277344 85.88993835449219 33.82866287231445 83.70065307617188 28.65262222290039 C 81.58542633056641 23.65164947509766 78.55665588378906 19.15967559814453 74.69847869873047 15.30150604248047 C 70.84030914306641 11.44333648681641 66.34834289550781 8.414566040039062 61.34736633300781 6.299339294433594 C 56.17134094238281 4.110054016113281 50.67128372192383 2.999992370605469 44.99999618530273 2.999992370605469 M 44.99999618530273 -7.62939453125e-06 C 69.85281372070312 -7.62939453125e-06 90 20.14717864990234 90 45.00000762939453 C 90 69.85280609130859 69.85281372070312 90.00000762939453 44.99999618530273 90.00000762939453 C 20.14717864990234 90.00000762939453 -7.62939453125e-06 69.85280609130859 -7.62939453125e-06 45.00000762939453 C -7.62939453125e-06 20.14717864990234 20.14717864990234 -7.62939453125e-06 44.99999618530273 -7.62939453125e-06 Z" stroke="none" fill="#248abf"/>
                  </g>
                </g>
              </g>
            </g>
          </g>
        </g>
      </g>
    </g>
    <g id="justice_5736549" transform="translate(219.02 6073.124)">
      <g id="Grupo_1230694" data-name="Grupo 1230694">
        <g id="Grupo_1230661" data-name="Grupo 1230661">
          <g id="Grupo_1230656" data-name="Grupo 1230656">
            <path id="Trazado_1181316" data-name="Trazado 1181316" d="M43.77,24.68H14.13a14.82,14.82,0,0,1,29.64,0Z" fill="#dce6eb"/>
          </g>
          <g id="Grupo_1230657" data-name="Grupo 1230657">
            <path id="Trazado_1181317" data-name="Trazado 1181317" d="M29.39,24.68H43.77A14.817,14.817,0,0,0,29.39,9.89Z" fill="#c7d3d8"/>
          </g>
          <g id="Grupo_1230658" data-name="Grupo 1230658">
            <path id="Trazado_1181318" data-name="Trazado 1181318" d="M43.77,25.43H14.13a.755.755,0,0,1-.75-.75,15.565,15.565,0,0,1,31.13,0A.741.741,0,0,1,43.77,25.43ZM14.9,23.93H43a14.071,14.071,0,0,0-28.1,0Z"/>
          </g>
          <g id="Grupo_1230659" data-name="Grupo 1230659">
            <path id="Trazado_1181319" data-name="Trazado 1181319" d="M35.54,25.43H22.36a.755.755,0,0,1-.75-.75c0-8.73,3.22-15.56,7.34-15.56s7.35,6.84,7.35,15.56A.764.764,0,0,1,35.54,25.43Zm-12.42-1.5H34.79c-.17-8-3.1-13.31-5.84-13.31S23.29,15.93,23.12,23.93Z"/>
          </g>
          <g id="Grupo_1230660" data-name="Grupo 1230660">
            <path id="Trazado_1181320" data-name="Trazado 1181320" d="M28.95,10.62a.755.755,0,0,1-.75-.75V5.75a.75.75,0,0,1,1.5,0V9.87A.749.749,0,0,1,28.95,10.62Z"/>
          </g>
        </g>
        <g id="Grupo_1230662" data-name="Grupo 1230662">
          <path id="Trazado_1181321" data-name="Trazado 1181321" d="M49.87,25.43H8.04a.75.75,0,0,1,0-1.5H49.87a.75.75,0,0,1,0,1.5Z"/>
        </g>
        <g id="Grupo_1230663" data-name="Grupo 1230663">
          <path id="Trazado_1181322" data-name="Trazado 1181322" d="M10.7,24.68H47.21v8.25H10.7Z" fill="#dce6eb"/>
        </g>
        <g id="Grupo_1230664" data-name="Grupo 1230664">
          <path id="Trazado_1181323" data-name="Trazado 1181323" d="M29.39,24.68H47.21v8.25H29.39Z" fill="#c7d3d8"/>
        </g>
        <g id="Grupo_1230665" data-name="Grupo 1230665">
          <path id="Trazado_1181324" data-name="Trazado 1181324" d="M47.21,33.68H10.7a.755.755,0,0,1-.75-.75V24.68a.755.755,0,0,1,.75-.75H47.21a.755.755,0,0,1,.75.75v8.25A.755.755,0,0,1,47.21,33.68Zm-35.76-1.5H46.46V25.43H11.45Z"/>
        </g>
        <g id="Grupo_1230666" data-name="Grupo 1230666">
          <path id="Trazado_1181325" data-name="Trazado 1181325" d="M39.84,28.8V58.67H18.07V28.8l10.88-6.7Z" fill="#dce6eb"/>
        </g>
        <g id="Grupo_1230667" data-name="Grupo 1230667">
          <path id="Trazado_1181326" data-name="Trazado 1181326" d="M29.1,22.19V58.67H39.84V28.8Z" fill="#c7d3d8"/>
        </g>
        <g id="Grupo_1230668" data-name="Grupo 1230668">
          <path id="Trazado_1181327" data-name="Trazado 1181327" d="M39.84,59.42H18.07a.755.755,0,0,1-.75-.75V28.8a.742.742,0,0,1,.36-.64l10.88-6.7a.75.75,0,0,1,.79,0l10.88,6.7a.764.764,0,0,1,.36.64V58.67a.755.755,0,0,1-.75.75Zm-21.02-1.5H39.09V29.22L28.96,22.98,18.83,29.22v28.7Z"/>
        </g>
        <g id="Grupo_1230669" data-name="Grupo 1230669">
          <path id="Trazado_1181328" data-name="Trazado 1181328" d="M24.45,44.47h9.01v14.2H24.45Z" fill="#5f6c75"/>
        </g>
        <g id="Grupo_1230670" data-name="Grupo 1230670">
          <path id="Trazado_1181329" data-name="Trazado 1181329" d="M28.95,44.47h4.51v14.2H28.95Z" fill="#505e66"/>
        </g>
        <g id="Grupo_1230671" data-name="Grupo 1230671">
          <path id="Trazado_1181330" data-name="Trazado 1181330" d="M33.46,59.42H24.45a.755.755,0,0,1-.75-.75V44.47a.755.755,0,0,1,.75-.75h9.01a.755.755,0,0,1,.75.75v14.2A.755.755,0,0,1,33.46,59.42Zm-8.26-1.5h7.51V45.22H25.2Z"/>
        </g>
        <g id="Grupo_1230672" data-name="Grupo 1230672">
          <path id="Trazado_1181331" data-name="Trazado 1181331" d="M35.54,45.22H22.36a.75.75,0,1,1,0-1.5H35.55a.75.75,0,1,1-.01,1.5Z"/>
        </g>
        <g id="Grupo_1230673" data-name="Grupo 1230673">
          <path id="Trazado_1181332" data-name="Trazado 1181332" d="M39.84,32.93H52.18V58.67H39.84Z" fill="#dce6eb"/>
        </g>
        <g id="Grupo_1230674" data-name="Grupo 1230674">
          <path id="Trazado_1181333" data-name="Trazado 1181333" d="M46.01,32.93h6.17V58.67H46.01Z" fill="#c7d3d8"/>
        </g>
        <g id="Grupo_1230675" data-name="Grupo 1230675">
          <path id="Trazado_1181334" data-name="Trazado 1181334" d="M52.18,59.42H39.84a.755.755,0,0,1-.75-.75V32.93a.755.755,0,0,1,.75-.75H52.18a.755.755,0,0,1,.75.75V58.67A.755.755,0,0,1,52.18,59.42Zm-11.59-1.5H51.43V33.68H40.59Z"/>
        </g>
        <g id="Grupo_1230676" data-name="Grupo 1230676">
          <path id="Trazado_1181335" data-name="Trazado 1181335" d="M43.28,36.5h5.46V40H43.28Z" fill="#5f6c75"/>
        </g>
        <g id="Grupo_1230677" data-name="Grupo 1230677">
          <path id="Trazado_1181336" data-name="Trazado 1181336" d="M48.74,40.75H43.28a.755.755,0,0,1-.75-.75V36.5a.755.755,0,0,1,.75-.75h5.46a.755.755,0,0,1,.75.75V40A.755.755,0,0,1,48.74,40.75Zm-4.71-1.5h3.96v-2H44.03Z"/>
        </g>
        <g id="Grupo_1230678" data-name="Grupo 1230678">
          <path id="Trazado_1181337" data-name="Trazado 1181337" d="M43.28,43.4h5.46v3.5H43.28Z" fill="#5f6c75"/>
        </g>
        <g id="Grupo_1230679" data-name="Grupo 1230679">
          <path id="Trazado_1181338" data-name="Trazado 1181338" d="M48.74,47.65H43.28a.755.755,0,0,1-.75-.75V43.4a.755.755,0,0,1,.75-.75h5.46a.755.755,0,0,1,.75.75v3.5A.755.755,0,0,1,48.74,47.65Zm-4.71-1.5h3.96v-2H44.03Z"/>
        </g>
        <g id="Grupo_1230680" data-name="Grupo 1230680">
          <path id="Trazado_1181339" data-name="Trazado 1181339" d="M43.28,50.31h5.46v3.5H43.28Z" fill="#5f6c75"/>
        </g>
        <g id="Grupo_1230681" data-name="Grupo 1230681">
          <path id="Trazado_1181340" data-name="Trazado 1181340" d="M48.74,54.55H43.28a.755.755,0,0,1-.75-.75V50.3a.755.755,0,0,1,.75-.75h5.46a.755.755,0,0,1,.75.75v3.5A.749.749,0,0,1,48.74,54.55Zm-4.71-1.5h3.96v-2H44.03Z"/>
        </g>
        <g id="Grupo_1230682" data-name="Grupo 1230682">
          <path id="Trazado_1181341" data-name="Trazado 1181341" d="M5.73,32.93H18.07V58.67H5.73Z" fill="#dce6eb"/>
        </g>
        <g id="Grupo_1230683" data-name="Grupo 1230683">
          <path id="Trazado_1181342" data-name="Trazado 1181342" d="M5.73,32.93H11.9V58.67H5.73Z" fill="#c7d3d8"/>
        </g>
        <g id="Grupo_1230684" data-name="Grupo 1230684">
          <path id="Trazado_1181343" data-name="Trazado 1181343" d="M18.07,59.42H5.73a.755.755,0,0,1-.75-.75V32.93a.755.755,0,0,1,.75-.75H18.07a.755.755,0,0,1,.75.75V58.67A.755.755,0,0,1,18.07,59.42ZM6.48,57.92H17.32V33.68H6.48Z"/>
        </g>
        <g id="Grupo_1230685" data-name="Grupo 1230685">
          <path id="Trazado_1181344" data-name="Trazado 1181344" d="M9.17,36.5h5.46V40H9.17Z" fill="#5f6c75"/>
        </g>
        <g id="Grupo_1230686" data-name="Grupo 1230686">
          <path id="Trazado_1181345" data-name="Trazado 1181345" d="M14.63,40.75H9.17A.755.755,0,0,1,8.42,40V36.5a.755.755,0,0,1,.75-.75h5.46a.755.755,0,0,1,.75.75V40A.755.755,0,0,1,14.63,40.75Zm-4.71-1.5h3.96v-2H9.92Z"/>
        </g>
        <g id="Grupo_1230687" data-name="Grupo 1230687">
          <path id="Trazado_1181346" data-name="Trazado 1181346" d="M9.17,43.4h5.46v3.5H9.17Z" fill="#5f6c75"/>
        </g>
        <g id="Grupo_1230688" data-name="Grupo 1230688">
          <path id="Trazado_1181347" data-name="Trazado 1181347" d="M14.63,47.65H9.17a.755.755,0,0,1-.75-.75V43.4a.755.755,0,0,1,.75-.75h5.46a.755.755,0,0,1,.75.75v3.5A.755.755,0,0,1,14.63,47.65Zm-4.71-1.5h3.96v-2H9.92Z"/>
        </g>
        <g id="Grupo_1230689" data-name="Grupo 1230689">
          <path id="Trazado_1181348" data-name="Trazado 1181348" d="M9.17,50.31h5.46v3.5H9.17Z" fill="#5f6c75"/>
        </g>
        <g id="Grupo_1230690" data-name="Grupo 1230690">
          <path id="Trazado_1181349" data-name="Trazado 1181349" d="M14.63,54.55H9.17a.755.755,0,0,1-.75-.75V50.3a.755.755,0,0,1,.75-.75h5.46a.755.755,0,0,1,.75.75v3.5A.749.749,0,0,1,14.63,54.55Zm-4.71-1.5h3.96v-2H9.92Z"/>
        </g>
        <g id="Grupo_1230691" data-name="Grupo 1230691">
          <path id="Trazado_1181350" data-name="Trazado 1181350" d="M33.37,34.49a4.42,4.42,0,1,1-4.42-4.42,4.421,4.421,0,0,1,4.42,4.42Z" fill="#5f6c75"/>
        </g>
        <g id="Grupo_1230692" data-name="Grupo 1230692">
          <path id="Trazado_1181351" data-name="Trazado 1181351" d="M29.02,30.07V38.9a4.415,4.415,0,0,0,0-8.83Z" fill="#505e66"/>
        </g>
        <g id="Grupo_1230693" data-name="Grupo 1230693">
          <path id="Trazado_1181352" data-name="Trazado 1181352" d="M28.96,39.65a5.17,5.17,0,1,1,5.17-5.17,5.177,5.177,0,0,1-5.17,5.17Zm0-8.84a3.67,3.67,0,1,0,3.67,3.67,3.672,3.672,0,0,0-3.67-3.67Z"/>
        </g>
      </g>
      <g id="Grupo_1230711" data-name="Grupo 1230711">
        <g id="Grupo_1230695" data-name="Grupo 1230695">
          <path id="Trazado_1181353" data-name="Trazado 1181353" d="M46.24,32.99H59.8V50.65H46.24Z" transform="translate(-14.043 49.738) rotate(-45)" fill="#f2bb88"/>
        </g>
        <g id="Grupo_1230696" data-name="Grupo 1230696">
          <path id="Trazado_1181354" data-name="Trazado 1181354" d="M49.47,40.8H63.03v8.51H49.47Z" transform="translate(-15.383 52.973) rotate(-45)" fill="#dda67a"/>
        </g>
        <g id="Grupo_1230697" data-name="Grupo 1230697">
          <path id="Trazado_1181355" data-name="Trazado 1181355" d="M54.47,53.61a.742.742,0,0,1-.53-.22L41.45,40.9a.754.754,0,0,1,0-1.06l9.59-9.59a.754.754,0,0,1,1.06,0L64.59,42.74a.754.754,0,0,1,0,1.06L55,53.39a.786.786,0,0,1-.53.22ZM43.04,40.37,54.47,51.8,63,43.27,51.57,31.84Z"/>
        </g>
        <g id="Grupo_1230704" data-name="Grupo 1230704">
          <g id="Grupo_1230698" data-name="Grupo 1230698">
            <path id="Trazado_1181356" data-name="Trazado 1181356" d="M67.63,45.95,57.14,56.43a2.206,2.206,0,0,1-3.12-3.12L64.5,42.82a2.213,2.213,0,0,1,3.13,3.13Z" fill="#f2bb88"/>
          </g>
          <g id="Grupo_1230699" data-name="Grupo 1230699">
            <path id="Trazado_1181357" data-name="Trazado 1181357" d="M67.96,43.26l-13.5,13.5a2.213,2.213,0,0,0,2.68-.33L67.63,45.94a2.2,2.2,0,0,0,.33-2.68Z" fill="#dda67a"/>
          </g>
          <g id="Grupo_1230700" data-name="Grupo 1230700">
            <path id="Trazado_1181358" data-name="Trazado 1181358" d="M55.58,57.83a2.921,2.921,0,0,1-2.09-.87,2.976,2.976,0,0,1,0-4.19L63.98,42.29a3.033,3.033,0,0,1,4.19,0,2.976,2.976,0,0,1,0,4.19L57.67,56.96a2.921,2.921,0,0,1-2.09.87ZM66.06,42.92a1.42,1.42,0,0,0-1.03.43L54.55,53.84a1.455,1.455,0,0,0,0,2.06,1.492,1.492,0,0,0,2.06,0L67.1,45.41a1.437,1.437,0,0,0,.43-1.03,1.42,1.42,0,0,0-.43-1.03,1.46,1.46,0,0,0-1.04-.43Z"/>
          </g>
          <g id="Grupo_1230701" data-name="Grupo 1230701">
            <path id="Trazado_1181359" data-name="Trazado 1181359" d="M52.02,30.33,41.53,40.82a2.206,2.206,0,1,1-3.12-3.12L48.9,27.21a2.206,2.206,0,0,1,3.12,3.12Z" fill="#f2bb88"/>
          </g>
          <g id="Grupo_1230702" data-name="Grupo 1230702">
            <path id="Trazado_1181360" data-name="Trazado 1181360" d="M52.35,27.65l-13.5,13.5a2.213,2.213,0,0,0,2.68-.33L52.02,30.33A2.211,2.211,0,0,0,52.35,27.65Z" fill="#dda67a"/>
          </g>
          <g id="Grupo_1230703" data-name="Grupo 1230703">
            <path id="Trazado_1181361" data-name="Trazado 1181361" d="M39.97,42.22a2.921,2.921,0,0,1-2.09-.87,2.976,2.976,0,0,1,0-4.19L48.37,26.68a3.033,3.033,0,0,1,4.19,0,2.976,2.976,0,0,1,0,4.19L42.06,41.35a2.938,2.938,0,0,1-2.09.87ZM50.45,27.31a1.42,1.42,0,0,0-1.03.43L38.94,38.23a1.455,1.455,0,0,0,0,2.06,1.492,1.492,0,0,0,2.06,0L51.49,29.8a1.437,1.437,0,0,0,.43-1.03,1.42,1.42,0,0,0-.43-1.03,1.46,1.46,0,0,0-1.04-.43Z"/>
          </g>
        </g>
        <g id="Grupo_1230705" data-name="Grupo 1230705">
          <path id="Trazado_1181362" data-name="Trazado 1181362" d="M44.97,43.41h3.81V52.5H44.97Z" transform="translate(-20.182 47.195) rotate(-45)" fill="#c0694e"/>
        </g>
        <g id="Grupo_1230706" data-name="Grupo 1230706">
          <path id="Trazado_1181363" data-name="Trazado 1181363" d="M46.7,47.57h3.81v4.22H46.7Z" transform="translate(-20.894 48.916) rotate(-45)" fill="#a5513a"/>
        </g>
        <g id="Grupo_1230707" data-name="Grupo 1230707">
          <path id="Trazado_1181364" data-name="Trazado 1181364" d="M48.75,53.27a.742.742,0,0,1-.53-.22l-6.43-6.43a.754.754,0,0,1,0-1.06l2.69-2.69a.754.754,0,0,1,1.06,0l6.43,6.43a.754.754,0,0,1,0,1.06l-2.69,2.69a.742.742,0,0,1-.53.22Zm-5.37-7.18,5.37,5.37,1.63-1.63-5.37-5.37Z"/>
        </g>
        <g id="Grupo_1230708" data-name="Grupo 1230708">
          <path id="Trazado_1181365" data-name="Trazado 1181365" d="M27.37,67.46a2.7,2.7,0,0,1,0-3.81L43.63,47.4l3.81,3.81L31.18,67.46a2.68,2.68,0,0,1-3.81,0Z" fill="#c0694e"/>
        </g>
        <g id="Grupo_1230709" data-name="Grupo 1230709">
          <path id="Trazado_1181366" data-name="Trazado 1181366" d="M45.76,49.53,27.62,67.67a2.689,2.689,0,0,0,3.56-.2L47.43,51.22Z" fill="#a5513a"/>
        </g>
        <g id="Grupo_1230710" data-name="Grupo 1230710">
          <path id="Trazado_1181367" data-name="Trazado 1181367" d="M29.28,69a3.445,3.445,0,0,1-2.44-5.88L43.1,46.87a.754.754,0,0,1,1.06,0l3.81,3.81a.754.754,0,0,1,0,1.06L31.71,67.99A3.39,3.39,0,0,1,29.28,69ZM27.9,66.93a1.943,1.943,0,0,0,2.75,0L46.37,51.21l-2.75-2.75L27.9,64.18A1.962,1.962,0,0,0,27.9,66.93Z"/>
        </g>
      </g>
    </g>
  </g>
</svg>
