<svg xmlns="http://www.w3.org/2000/svg" xmlns:xlink="http://www.w3.org/1999/xlink" width="103" height="103" viewBox="0 0 103 103">
  <defs>
    <filter id="Trazado_982547" x="0" y="0" width="103" height="103" filterUnits="userSpaceOnUse">
      <feOffset dy="3" input="SourceAlpha"/>
      <feGaussianBlur stdDeviation="3" result="blur"/>
      <feFlood flood-opacity="0.161"/>
      <feComposite operator="in" in2="blur"/>
      <feComposite in="SourceGraphic"/>
    </filter>
  </defs>
  <g id="Grupo_1230740" data-name="Grupo 1230740" transform="translate(-194 -7317)">
    <g id="Grupo_1230340" data-name="Grupo 1230340" transform="translate(0 1524)">
      <g id="Grupo_1224201" data-name="Grupo 1224201" transform="translate(-0.13 5367)">
        <g id="Grupo_1224080" data-name="Grupo 1224080" transform="translate(0 -1582)">
          <g id="Grupo_1206686" data-name="Grupo 1206686" transform="translate(-2.87 300.583)">
            <g id="Grupo_1201889" data-name="Grupo 1201889" transform="translate(206 1713.417)">
              <g id="Grupo_1201680" data-name="Grupo 1201680">
                <g id="Grupo_1201330" data-name="Grupo 1201330">
                  <g id="Grupo_1172010" data-name="Grupo 1172010">
                    <g id="Grupo_1171046" data-name="Grupo 1171046">
                      <g id="Grupo_1148525" data-name="Grupo 1148525">
                        <g transform="matrix(1, 0, 0, 1, -9, -6)" filter="url(#Trazado_982547)">
                          <g id="Trazado_982547-2" data-name="Trazado 982547" transform="translate(9 6)" fill="#f2f4f0">
                            <path d="M 42.5 83.5 C 36.96437835693359 83.5 31.59512901306152 82.41617584228516 26.54141235351562 80.27863311767578 C 21.65934181213379 78.21369171142578 17.27447128295898 75.25723266601562 13.50862312316895 71.49137878417969 C 9.742764472961426 67.72553253173828 6.786305904388428 63.34066009521484 4.721364498138428 58.45858764648438 C 2.583823442459106 53.40486907958984 1.5 48.03562164306641 1.5 42.5 C 1.5 36.96437835693359 2.583823442459106 31.59512901306152 4.721364498138428 26.54141235351562 C 6.786305904388428 21.65934181213379 9.742764472961426 17.27448272705078 13.50862312316895 13.50862312316895 C 17.27447128295898 9.742776870727539 21.65934181213379 6.786305904388428 26.54141235351562 4.721364498138428 C 31.59512901306152 2.583823442459106 36.96437835693359 1.5 42.5 1.5 C 48.03562164306641 1.5 53.40486907958984 2.583823442459106 58.45858764648438 4.721364498138428 C 63.34066009521484 6.786305904388428 67.72553253173828 9.742776870727539 71.49137878417969 13.50862312316895 C 75.25723266601562 17.27448272705078 78.21369171142578 21.65934181213379 80.27863311767578 26.54141235351562 C 82.41617584228516 31.59512901306152 83.5 36.96437835693359 83.5 42.5 C 83.5 48.03562164306641 82.41617584228516 53.40486907958984 80.27863311767578 58.45858764648438 C 78.21369171142578 63.34066009521484 75.25723266601562 67.72553253173828 71.49137878417969 71.49137878417969 C 67.72553253173828 75.25723266601562 63.34066009521484 78.21369171142578 58.45858764648438 80.27863311767578 C 53.40486907958984 82.41617584228516 48.03562164306641 83.5 42.5 83.5 Z" stroke="none"/>
                            <path d="M 42.5 3 C 37.16621398925781 3 31.99356079101562 4.043960571289062 27.125732421875 6.102882385253906 C 22.42246627807617 8.092185974121094 18.19785308837891 10.94070434570312 14.56928253173828 14.56928253173828 C 10.94070434570312 18.19785308837891 8.092185974121094 22.42246627807617 6.102882385253906 27.125732421875 C 4.043960571289062 31.99356079101562 3 37.16621398925781 3 42.5 C 3 47.83378601074219 4.043960571289062 53.00643920898438 6.102882385253906 57.87425231933594 C 8.092185974121094 62.57753372192383 10.94070434570312 66.80213165283203 14.56928253173828 70.43071746826172 C 18.19786834716797 74.05929565429688 22.42246627807617 76.90781402587891 27.125732421875 78.89711761474609 C 31.99356079101562 80.95603942871094 37.16621398925781 82 42.5 82 C 47.83378601074219 82 53.00642395019531 80.95603942871094 57.87425231933594 78.89711761474609 C 62.57753372192383 76.90781402587891 66.80213165283203 74.05929565429688 70.43071746826172 70.43071746826172 C 74.05929565429688 66.80213165283203 76.90781402587891 62.57753372192383 78.89711761474609 57.87425231933594 C 80.95603942871094 53.00642395019531 82 47.83378601074219 82 42.5 C 82 37.16621398925781 80.95603942871094 31.99356079101562 78.89711761474609 27.125732421875 C 76.90781402587891 22.42246627807617 74.05929565429688 18.19786834716797 70.43071746826172 14.56928253173828 C 66.80213165283203 10.94070434570312 62.57753372192383 8.092185974121094 57.87425231933594 6.102882385253906 C 53.00643920898438 4.043960571289062 47.83378601074219 3 42.5 3 M 42.5 0 C 65.97209167480469 0 85 19.02789306640625 85 42.5 C 85 65.97209167480469 65.97209167480469 85 42.5 85 C 19.02789306640625 85 0 65.97209167480469 0 42.5 C 0 19.02789306640625 19.02789306640625 0 42.5 0 Z" stroke="none" fill="#899e78"/>
                          </g>
                        </g>
                      </g>
                    </g>
                  </g>
                </g>
              </g>
            </g>
          </g>
        </g>
      </g>
    </g>
    <g id="agreement_2649717" transform="translate(216.427 7336.428)">
      <g id="Grupo_1230738" data-name="Grupo 1230738" transform="translate(1.922 1.922)">
        <g id="Grupo_1230715" data-name="Grupo 1230715" transform="translate(40.555 31.338)">
          <path id="Trazado_1181368" data-name="Trazado 1181368" d="M60.747,37.843V47.06A1.849,1.849,0,0,1,58.9,48.9H55.217l-3.309,3.309a1.3,1.3,0,0,1-2.221-.922V48.9H47.843A1.849,1.849,0,0,1,46,47.06V37.843A1.849,1.849,0,0,1,47.843,36H58.9A1.849,1.849,0,0,1,60.747,37.843Z" transform="translate(-46 -36)" fill="#ff826e"/>
        </g>
        <g id="Grupo_1230716" data-name="Grupo 1230716" transform="translate(46.085 12.904)">
          <path id="Trazado_1181369" data-name="Trazado 1181369" d="M52,16h9.217V28.9H52Z" transform="translate(-52 -16)" fill="#fcd770"/>
        </g>
        <g id="Grupo_1230717" data-name="Grupo 1230717" transform="translate(42.398 12.904)">
          <path id="Trazado_1181370" data-name="Trazado 1181370" d="M48,16h3.687V28.9H48Z" transform="translate(-48 -16)" fill="#ffeaa7"/>
        </g>
        <g id="Grupo_1230718" data-name="Grupo 1230718" transform="translate(38.711 12.904)">
          <path id="Trazado_1181371" data-name="Trazado 1181371" d="M44,16h3.687V28.9H44Z" transform="translate(-44 -16)" fill="#b4dd7f"/>
        </g>
        <g id="Grupo_1230719" data-name="Grupo 1230719" transform="translate(20.277 9.217)">
          <path id="Trazado_1181372" data-name="Trazado 1181372" d="M42.434,15.687v12.9a17.022,17.022,0,0,1-5.53,1.687v-11A4.5,4.5,0,0,1,33.825,16.9a2.2,2.2,0,0,0-1.963-1.217h-5.1A2.769,2.769,0,0,1,24,12.922.924.924,0,0,1,24.922,12H33.53a12.519,12.519,0,0,1,3.373.461,12.747,12.747,0,0,1,1.447.5,12.6,12.6,0,0,1,4.083,2.728Z" transform="translate(-24 -12)" fill="#f0d0b4"/>
        </g>
        <g id="Grupo_1230720" data-name="Grupo 1230720" transform="translate(27.651 31.338)">
          <path id="Trazado_1181373" data-name="Trazado 1181373" d="M39.374,36a1.849,1.849,0,0,1,1.843,1.843,1.857,1.857,0,0,1-1.843,1.843h-5.53A1.849,1.849,0,0,1,32,37.843,1.857,1.857,0,0,1,33.843,36h5.53Z" transform="translate(-32 -36)" fill="#f0d0b4"/>
        </g>
        <g id="Grupo_1230721" data-name="Grupo 1230721" transform="translate(27.651 35.024)">
          <path id="Trazado_1181374" data-name="Trazado 1181374" d="M39.374,40a1.849,1.849,0,0,1,1.843,1.843,1.857,1.857,0,0,1-1.843,1.843h-5.53A1.849,1.849,0,0,1,32,41.843,1.857,1.857,0,0,1,33.843,40Z" transform="translate(-32 -40)" fill="#f0d0b4"/>
        </g>
        <g id="Grupo_1230722" data-name="Grupo 1230722" transform="translate(27.651 38.711)">
          <path id="Trazado_1181375" data-name="Trazado 1181375" d="M39.374,44a1.849,1.849,0,0,1,1.843,1.843,1.857,1.857,0,0,1-1.843,1.843h-5.53A1.849,1.849,0,0,1,32,45.843,1.857,1.857,0,0,1,33.843,44Z" transform="translate(-32 -44)" fill="#f0d0b4"/>
        </g>
        <g id="Grupo_1230723" data-name="Grupo 1230723" transform="translate(27.651 42.398)">
          <path id="Trazado_1181376" data-name="Trazado 1181376" d="M37.53,48a1.849,1.849,0,0,1,1.843,1.843,1.857,1.857,0,0,1-1.843,1.843H33.843A1.849,1.849,0,0,1,32,49.843,1.857,1.857,0,0,1,33.843,48Z" transform="translate(-32 -48)" fill="#f0d0b4"/>
        </g>
        <g id="Grupo_1230724" data-name="Grupo 1230724" transform="translate(16.59 27.651)">
          <path id="Trazado_1181377" data-name="Trazado 1181377" d="M38.434,32.922a2.761,2.761,0,0,1-2.765,2.765h-5.1A2.2,2.2,0,0,0,28.609,36.9a4.5,4.5,0,0,1-3.078,2.378V50.286A17.74,17.74,0,0,1,20,48.59v-12.9A12.584,12.584,0,0,1,28.9,32h8.609A.924.924,0,0,1,38.434,32.922Z" transform="translate(-20 -32)" fill="#f0d0b4"/>
        </g>
        <g id="Grupo_1230725" data-name="Grupo 1230725" transform="translate(25.807 12.904)">
          <path id="Trazado_1181378" data-name="Trazado 1181378" d="M37.374,19.595v11a15.573,15.573,0,0,1-2.277.157H30A1.849,1.849,0,0,0,31.843,28.9,1.857,1.857,0,0,0,30,27.06a1.849,1.849,0,0,0,1.843-1.843A1.857,1.857,0,0,0,30,23.374a1.849,1.849,0,0,0,1.843-1.843A1.857,1.857,0,0,0,30,19.687a1.849,1.849,0,0,0,1.843-1.843A1.857,1.857,0,0,0,30,16h2.332A2.2,2.2,0,0,1,34.3,17.217,4.5,4.5,0,0,0,37.374,19.595Z" transform="translate(-30 -16)" fill="#fcd770"/>
        </g>
        <g id="Grupo_1230726" data-name="Grupo 1230726" transform="translate(22.121 5.53)">
          <path id="Trazado_1181379" data-name="Trazado 1181379" d="M37.06,8v4.148a12.519,12.519,0,0,0-3.373-.461H26V8Z" transform="translate(-26 -8)" fill="#fcd770"/>
        </g>
        <g id="Grupo_1230727" data-name="Grupo 1230727" transform="translate(22.121 0)">
          <path id="Trazado_1181380" data-name="Trazado 1181380" d="M37.06,5.687V7.53H26V5.687A3.686,3.686,0,0,1,29.687,2h3.687A3.686,3.686,0,0,1,37.06,5.687Z" transform="translate(-26 -2)" fill="#ccd1d9"/>
        </g>
        <g id="Grupo_1230728" data-name="Grupo 1230728" transform="translate(22.121 46.085)">
          <path id="Trazado_1181381" data-name="Trazado 1181381" d="M37.06,52,34.3,57.53h-5.53L26,52H37.06Z" transform="translate(-26 -52)" fill="#b27946"/>
        </g>
        <g id="Grupo_1230729" data-name="Grupo 1230729" transform="translate(24.886 51.615)">
          <path id="Trazado_1181382" data-name="Trazado 1181382" d="M34.53,58,33.1,60.866a1.5,1.5,0,0,1-2.673,0L29,58Z" transform="translate(-29 -58)" fill="#5b6570"/>
        </g>
        <g id="Grupo_1230730" data-name="Grupo 1230730" transform="translate(22.121 31.338)">
          <path id="Trazado_1181383" data-name="Trazado 1181383" d="M31.042,36h2.332a1.857,1.857,0,0,0-1.843,1.843,1.849,1.849,0,0,0,1.843,1.843A1.857,1.857,0,0,0,31.53,41.53a1.849,1.849,0,0,0,1.843,1.843,1.857,1.857,0,0,0-1.843,1.843,1.849,1.849,0,0,0,1.843,1.843A1.857,1.857,0,0,0,31.53,48.9a1.849,1.849,0,0,0,1.843,1.843H26V39.595a4.5,4.5,0,0,0,3.078-2.378A2.2,2.2,0,0,1,31.042,36Z" transform="translate(-26 -36)" fill="#fcd770"/>
        </g>
        <g id="Grupo_1230731" data-name="Grupo 1230731" transform="translate(18.434 12.904)">
          <path id="Trazado_1181384" data-name="Trazado 1181384" d="M30.673,16.544a1.8,1.8,0,0,1,.544,1.3,1.849,1.849,0,0,1-1.843,1.843h-5.53A1.857,1.857,0,0,1,22,17.843,1.849,1.849,0,0,1,23.843,16h5.53A1.8,1.8,0,0,1,30.673,16.544Z" transform="translate(-22 -16)" fill="#f0d0b4"/>
        </g>
        <g id="Grupo_1230732" data-name="Grupo 1230732" transform="translate(18.434 16.59)">
          <path id="Trazado_1181385" data-name="Trazado 1181385" d="M30.673,20.544a1.8,1.8,0,0,1,.544,1.3,1.849,1.849,0,0,1-1.843,1.843h-5.53A1.857,1.857,0,0,1,22,21.843,1.849,1.849,0,0,1,23.843,20h5.53A1.8,1.8,0,0,1,30.673,20.544Z" transform="translate(-22 -20)" fill="#f0d0b4"/>
        </g>
        <g id="Grupo_1230733" data-name="Grupo 1230733" transform="translate(18.434 20.277)">
          <path id="Trazado_1181386" data-name="Trazado 1181386" d="M30.673,24.544a1.8,1.8,0,0,1,.544,1.3,1.849,1.849,0,0,1-1.843,1.843h-5.53A1.857,1.857,0,0,1,22,25.843,1.849,1.849,0,0,1,23.843,24h5.53A1.8,1.8,0,0,1,30.673,24.544Z" transform="translate(-22 -24)" fill="#f0d0b4"/>
        </g>
        <g id="Grupo_1230734" data-name="Grupo 1230734" transform="translate(20.277 23.964)">
          <path id="Trazado_1181387" data-name="Trazado 1181387" d="M30.83,28.544a1.8,1.8,0,0,1,.544,1.3,1.849,1.849,0,0,1-1.843,1.843H25.843A1.857,1.857,0,0,1,24,29.843,1.849,1.849,0,0,1,25.843,28H29.53A1.8,1.8,0,0,1,30.83,28.544Z" transform="translate(-24 -28)" fill="#f0d0b4"/>
        </g>
        <g id="Grupo_1230735" data-name="Grupo 1230735" transform="translate(7.374 31.338)">
          <path id="Trazado_1181388" data-name="Trazado 1181388" d="M19.217,36V48.9H16.452a6.452,6.452,0,1,1,0-12.9Z" transform="translate(-10 -36)" fill="#8cc152"/>
        </g>
        <g id="Grupo_1230736" data-name="Grupo 1230736" transform="translate(0 9.217)">
          <path id="Trazado_1181389" data-name="Trazado 1181389" d="M16.747,13.843V23.06A1.849,1.849,0,0,1,14.9,24.9H13.06v2.387a1.3,1.3,0,0,1-2.221.922L7.53,24.9H3.843A1.849,1.849,0,0,1,2,23.06V13.843A1.849,1.849,0,0,1,3.843,12H14.9A1.849,1.849,0,0,1,16.747,13.843Z" transform="translate(-2 -12)" fill="#ff826e"/>
        </g>
        <g id="Grupo_1230737" data-name="Grupo 1230737" transform="translate(0 31.338)">
          <path id="Trazado_1181390" data-name="Trazado 1181390" d="M2,36H15.825a6.452,6.452,0,1,0,0,12.9H2Z" transform="translate(-2 -36)" fill="#b4dd7f"/>
        </g>
      </g>
      <g id="Grupo_1230739" data-name="Grupo 1230739" transform="translate(1 1)">
        <path id="Trazado_1181391" data-name="Trazado 1181391" d="M41.007,13.9a13.4,13.4,0,0,0-4.983-2.979V5.608A4.614,4.614,0,0,0,31.416,1H27.729a4.614,4.614,0,0,0-4.608,4.608v4.608a1.845,1.845,0,0,0-1.843,1.843,3.649,3.649,0,0,0,.534,1.882,2.743,2.743,0,0,0-1.658,4.57,2.723,2.723,0,0,0,0,3.687,2.741,2.741,0,0,0,1.327,4.5,2.733,2.733,0,0,0,.66,3.026,13.462,13.462,0,0,0-4,2.611H1V47.085H18.3a18.3,18.3,0,0,0,5.046,1.586l4.07,8.14a2.414,2.414,0,0,0,4.317,0l3.977-7.954a2.75,2.75,0,0,0,1.957-3.723,2.741,2.741,0,0,0,1.327-4.5,2.723,2.723,0,0,0,0-3.687,2.743,2.743,0,0,0-1.658-4.57,3.649,3.649,0,0,0,.534-1.882,1.812,1.812,0,0,0-.133-.676,18.339,18.339,0,0,0,3.113-1.168h17.3V13.9Zm.547,1.843H43.4v11.06H41.555Zm3.687,0h1.843v11.06H45.241ZM27.729,2.843h3.687a2.768,2.768,0,0,1,2.765,2.765V6.53H24.964V5.608A2.768,2.768,0,0,1,27.729,2.843Zm-2.765,5.53h9.217v2.068a13.659,13.659,0,0,0-2.449-.225H24.964Zm6.768,3.687a11.577,11.577,0,0,1,7.979,3.172V27.141a16.638,16.638,0,0,1-3.687,1.189V17.669l-.731-.154a3.535,3.535,0,0,1-2.446-1.889A3.1,3.1,0,0,0,30.059,13.9h-5.1a1.845,1.845,0,0,1-1.843-1.843Zm-10.455,8.3a.923.923,0,0,1,.922-.922h5.53a.922.922,0,0,1,0,1.843H22.2A.923.923,0,0,1,21.277,20.356Zm8.5,5.53a2.723,2.723,0,0,0,0-3.687,2.723,2.723,0,0,0,0-3.687,2.669,2.669,0,0,0,.561-2.726,1.258,1.258,0,0,1,.862.665,5.367,5.367,0,0,0,2.983,2.66v9.477c-.452.037-.9.063-1.357.063h-2.5a2.68,2.68,0,0,0-.549-2.765ZM22.2,15.747h5.53a.922.922,0,0,1,0,1.843H22.2a.922.922,0,0,1,0-1.843Zm0,7.374h5.53a.922.922,0,0,1,0,1.843H22.2a.922.922,0,0,1,0-1.843Zm1.843,5.53a.922.922,0,1,1,0-1.843h3.687a.922.922,0,0,1,0,1.843H24.042Zm-21.2,16.59V34.181h8.043a7.342,7.342,0,0,0,0,11.06Zm7.374-5.53a5.536,5.536,0,0,1,5.53-5.53H17.59v11.06H15.747A5.536,5.536,0,0,1,10.217,39.711Zm27.651-.922a.923.923,0,0,1-.922.922h-5.53a.922.922,0,1,1,0-1.843h5.53A.923.923,0,0,1,37.868,38.789ZM25.534,48.928h8.078l-1.843,3.687H27.377ZM29.37,36.946a2.723,2.723,0,0,0,0,3.687,2.723,2.723,0,0,0,0,3.687,2.68,2.68,0,0,0-.549,2.765H24.964v-9.54a5.364,5.364,0,0,0,2.983-2.66,1.258,1.258,0,0,1,.862-.665,2.671,2.671,0,0,0,.561,2.727Zm-.307,19.04L28.3,54.458h2.548l-.764,1.528A.591.591,0,0,1,29.063,55.986Zm6.04-8.9H31.416a.922.922,0,1,1,0-1.843H35.1a.922.922,0,0,1,0,1.843ZM36.946,43.4h-5.53a.922.922,0,1,1,0-1.843h5.53a.922.922,0,0,1,0,1.843Zm.922-8.3a.923.923,0,0,1-.922.922h-5.53a.922.922,0,1,1,0-1.843h5.53A.923.923,0,0,1,37.868,35.1Zm-1.843-4.608a1.845,1.845,0,0,1-1.843,1.843h-5.1A3.1,3.1,0,0,0,26.3,34.06a3.535,3.535,0,0,1-2.446,1.889l-.731.154V46.762a16.54,16.54,0,0,1-3.687-1.195v-11.9a11.575,11.575,0,0,1,7.979-3.172h8.611ZM56.3,26.807H48.928V15.747H56.3Z" transform="translate(-1 -1)"/>
        <path id="Trazado_1181392" data-name="Trazado 1181392" d="M58.825,35H47.765A2.768,2.768,0,0,0,45,37.765v9.217a2.768,2.768,0,0,0,2.765,2.765h.922v1.462a2.225,2.225,0,0,0,3.8,1.573l3.035-3.035h3.305a2.768,2.768,0,0,0,2.765-2.765V37.765A2.768,2.768,0,0,0,58.825,35Zm.922,11.982a.923.923,0,0,1-.922.922H54.757l-3.574,3.574a.4.4,0,0,1-.653-.269V47.9H47.765a.923.923,0,0,1-.922-.922V37.765a.923.923,0,0,1,.922-.922h11.06a.923.923,0,0,1,.922.922Z" transform="translate(-4.445 -3.662)"/>
        <path id="Trazado_1181393" data-name="Trazado 1181393" d="M51.788,44.172,50.6,42.98l-1.3,1.3,2.5,2.5L57.97,40.6l-1.3-1.3Z" transform="translate(-4.782 -3.999)"/>
        <path id="Trazado_1181394" data-name="Trazado 1181394" d="M3.765,25.747H7.07l3.035,3.036a2.226,2.226,0,0,0,3.8-1.574V25.747h.922a2.768,2.768,0,0,0,2.765-2.765V13.765A2.768,2.768,0,0,0,14.825,11H3.765A2.768,2.768,0,0,0,1,13.765v9.217A2.768,2.768,0,0,0,3.765,25.747ZM2.843,13.765a.923.923,0,0,1,.922-.922h11.06a.923.923,0,0,1,.922.922v9.217a.923.923,0,0,1-.922.922H12.06v3.305a.4.4,0,0,1-.652.27L7.833,23.9H3.765a.923.923,0,0,1-.922-.922Z" transform="translate(-1 -1.783)"/>
        <path id="Trazado_1181395" data-name="Trazado 1181395" d="M13.97,16.6l-1.3-1.3L7.788,20.172,6.6,18.98l-1.3,1.3,2.5,2.5Z" transform="translate(-1.336 -2.119)"/>
      </g>
    </g>
  </g>
</svg>
