<svg xmlns="http://www.w3.org/2000/svg" xmlns:xlink="http://www.w3.org/1999/xlink" width="103" height="103" viewBox="0 0 103 103">
  <defs>
    <filter id="Trazado_982547" x="0" y="0" width="103" height="103" filterUnits="userSpaceOnUse">
      <feOffset dy="3" input="SourceAlpha"/>
      <feGaussianBlur stdDeviation="3" result="blur"/>
      <feFlood flood-opacity="0.161"/>
      <feComposite operator="in" in2="blur"/>
      <feComposite in="SourceGraphic"/>
    </filter>
  </defs>
  <g id="Grupo_1230349" data-name="Grupo 1230349" transform="translate(-194 -5793)">
    <g id="Grupo_1224201" data-name="Grupo 1224201" transform="translate(-0.13 5367)">
      <g id="Grupo_1224080" data-name="Grupo 1224080" transform="translate(0 -1582)">
        <g id="Grupo_1206686" data-name="Grupo 1206686" transform="translate(-2.87 300.583)">
          <g id="Grupo_1201889" data-name="Grupo 1201889" transform="translate(206 1713.417)">
            <g id="Grupo_1201680" data-name="Grupo 1201680">
              <g id="Grupo_1201330" data-name="Grupo 1201330">
                <g id="Grupo_1172010" data-name="Grupo 1172010">
                  <g id="Grupo_1171046" data-name="Grupo 1171046">
                    <g id="Grupo_1148525" data-name="Grupo 1148525">
                      <g transform="matrix(1, 0, 0, 1, -9, -6)" filter="url(#Trazado_982547)">
                        <g id="Trazado_982547-2" data-name="Trazado 982547" transform="translate(9 6)" fill="#f2f4f0">
                          <path d="M 42.5 83.5 C 36.96437835693359 83.5 31.59512901306152 82.41617584228516 26.54141235351562 80.27863311767578 C 21.65934181213379 78.21369171142578 17.27447128295898 75.25723266601562 13.50862312316895 71.49137878417969 C 9.742764472961426 67.72553253173828 6.786305904388428 63.34066009521484 4.721364498138428 58.45858764648438 C 2.583823442459106 53.40486907958984 1.5 48.03562164306641 1.5 42.5 C 1.5 36.96437835693359 2.583823442459106 31.59512901306152 4.721364498138428 26.54141235351562 C 6.786305904388428 21.65934181213379 9.742764472961426 17.27448272705078 13.50862312316895 13.50862312316895 C 17.27447128295898 9.742776870727539 21.65934181213379 6.786305904388428 26.54141235351562 4.721364498138428 C 31.59512901306152 2.583823442459106 36.96437835693359 1.5 42.5 1.5 C 48.03562164306641 1.5 53.40486907958984 2.583823442459106 58.45858764648438 4.721364498138428 C 63.34066009521484 6.786305904388428 67.72553253173828 9.742776870727539 71.49137878417969 13.50862312316895 C 75.25723266601562 17.27448272705078 78.21369171142578 21.65934181213379 80.27863311767578 26.54141235351562 C 82.41617584228516 31.59512901306152 83.5 36.96437835693359 83.5 42.5 C 83.5 48.03562164306641 82.41617584228516 53.40486907958984 80.27863311767578 58.45858764648438 C 78.21369171142578 63.34066009521484 75.25723266601562 67.72553253173828 71.49137878417969 71.49137878417969 C 67.72553253173828 75.25723266601562 63.34066009521484 78.21369171142578 58.45858764648438 80.27863311767578 C 53.40486907958984 82.41617584228516 48.03562164306641 83.5 42.5 83.5 Z" stroke="none"/>
                          <path d="M 42.5 3 C 37.16621398925781 3 31.99356079101562 4.043960571289062 27.125732421875 6.102882385253906 C 22.42246627807617 8.092185974121094 18.19785308837891 10.94070434570312 14.56928253173828 14.56928253173828 C 10.94070434570312 18.19785308837891 8.092185974121094 22.42246627807617 6.102882385253906 27.125732421875 C 4.043960571289062 31.99356079101562 3 37.16621398925781 3 42.5 C 3 47.83378601074219 4.043960571289062 53.00643920898438 6.102882385253906 57.87425231933594 C 8.092185974121094 62.57753372192383 10.94070434570312 66.80213165283203 14.56928253173828 70.43071746826172 C 18.19786834716797 74.05929565429688 22.42246627807617 76.90781402587891 27.125732421875 78.89711761474609 C 31.99356079101562 80.95603942871094 37.16621398925781 82 42.5 82 C 47.83378601074219 82 53.00642395019531 80.95603942871094 57.87425231933594 78.89711761474609 C 62.57753372192383 76.90781402587891 66.80213165283203 74.05929565429688 70.43071746826172 70.43071746826172 C 74.05929565429688 66.80213165283203 76.90781402587891 62.57753372192383 78.89711761474609 57.87425231933594 C 80.95603942871094 53.00642395019531 82 47.83378601074219 82 42.5 C 82 37.16621398925781 80.95603942871094 31.99356079101562 78.89711761474609 27.125732421875 C 76.90781402587891 22.42246627807617 74.05929565429688 18.19786834716797 70.43071746826172 14.56928253173828 C 66.80213165283203 10.94070434570312 62.57753372192383 8.092185974121094 57.87425231933594 6.102882385253906 C 53.00643920898438 4.043960571289062 47.83378601074219 3 42.5 3 M 42.5 0 C 65.97209167480469 0 85 19.02789306640625 85 42.5 C 85 65.97209167480469 65.97209167480469 85 42.5 85 C 19.02789306640625 85 0 65.97209167480469 0 42.5 C 0 19.02789306640625 19.02789306640625 0 42.5 0 Z" stroke="none" fill="#899e78"/>
                        </g>
                      </g>
                    </g>
                  </g>
                </g>
              </g>
            </g>
          </g>
        </g>
      </g>
    </g>
    <g id="sermon_5019483" transform="translate(212.786 5806.598)">
      <g id="Grupo_1230610" data-name="Grupo 1230610" transform="translate(7.878 6.332)">
        <path id="Trazado_1181098" data-name="Trazado 1181098" d="M59.29,81.977H46.2L43.523,56.121h18.44Z" transform="translate(-27.907 -34.14)" fill="#da8657"/>
        <path id="Trazado_1181099" data-name="Trazado 1181099" d="M39.727,46.121H61.585v4.5H39.727Z" transform="translate(-25.82 -28.642)" fill="#bd7047"/>
        <g id="Grupo_1230605" data-name="Grupo 1230605" transform="translate(18.737)">
          <path id="Trazado_1181100" data-name="Trazado 1181100" d="M62.652,36.276h-12.2V34.311a6.1,6.1,0,0,1,12.2,0Z" transform="translate(-50.454 -18.797)" fill="#545b73"/>
          <circle id="Elipse_14783" data-name="Elipse 14783" cx="4.707" cy="4.707" r="4.707" transform="translate(1.392)" fill="#f9d1b8"/>
        </g>
        <g id="Grupo_1230609" data-name="Grupo 1230609" transform="translate(0 26.204)">
          <g id="Grupo_1230606" data-name="Grupo 1230606" transform="translate(0 1.252)">
            <path id="Trazado_1181101" data-name="Trazado 1181101" d="M24.456,108.094H8.84v-2.517a7.808,7.808,0,0,1,15.616,0Z" transform="translate(-8.84 -84.492)" fill="#545b73"/>
            <circle id="Elipse_14784" data-name="Elipse 14784" cx="6.026" cy="6.026" r="6.026" transform="matrix(0.226, -0.974, 0.974, 0.226, 0.57, 11.739)" fill="#f9d1b8"/>
          </g>
          <g id="Grupo_1230607" data-name="Grupo 1230607" transform="translate(17.028 1.615)">
            <path id="Trazado_1181102" data-name="Trazado 1181102" d="M62.275,108.094H46.658v-2.517a7.808,7.808,0,0,1,15.617,0Z" transform="translate(-46.658 -84.855)" fill="#545b73"/>
            <circle id="Elipse_14785" data-name="Elipse 14785" cx="6.026" cy="6.026" r="6.026" transform="translate(0.93 11.908) rotate(-81.027)" fill="#f9d1b8"/>
          </g>
          <g id="Grupo_1230608" data-name="Grupo 1230608" transform="translate(33.385)">
            <path id="Trazado_1181103" data-name="Trazado 1181103" d="M100.093,108.094H84.477v-2.517a7.808,7.808,0,0,1,15.616,0Z" transform="translate(-83.806 -83.239)" fill="#545b73"/>
            <circle id="Elipse_14786" data-name="Elipse 14786" cx="6.026" cy="6.026" r="6.026" transform="translate(0 7.677) rotate(-39.564)" fill="#f9d1b8"/>
          </g>
        </g>
      </g>
      <path id="Trazado_1181104" data-name="Trazado 1181104" d="M55.82,48.8A8.578,8.578,0,0,0,53.1,46.961a6.814,6.814,0,1,0-6.717,0,8.613,8.613,0,0,0-5.153,6.771,8.6,8.6,0,0,0-.849-2.741L42.646,29.1h1a.788.788,0,0,0,.788-.788v-4.5a.788.788,0,0,0-.788-.788H39.6V21.846a6.889,6.889,0,0,0-3.9-6.2,5.5,5.5,0,1,0-5.966,0,6.889,6.889,0,0,0-3.9,6.2v1.177H21.785a.788.788,0,0,0-.788.788v4.5a.788.788,0,0,0,.788.788h1l2.263,21.892A8.589,8.589,0,0,0,24.2,53.73,8.5,8.5,0,0,0,21.763,48.8a8.585,8.585,0,0,0-2.718-1.835,6.815,6.815,0,1,0-6.717,0A8.608,8.608,0,0,0,7.09,54.873V57.39a.788.788,0,0,0,.788.788h7.807a.788.788,0,1,0,0-1.576H8.666V54.873a7.02,7.02,0,1,1,14.039,0V56.6H20.724a.788.788,0,1,0,0,1.576h2.769a.785.785,0,0,0,.707-.446.785.785,0,0,0,.707.446h3.026a.788.788,0,1,0,0-1.576H25.695V54.873a7.02,7.02,0,1,1,14.039,0V56.6H32.971a.788.788,0,0,0,0,1.576h7.551a.786.786,0,0,0,.707-.446.785.785,0,0,0,.707.446h4.8a.788.788,0,1,0,0-1.576H42.723V54.873a7.02,7.02,0,1,1,14.039,0V56.6H51.778a.788.788,0,1,0,0,1.576H57.55a.788.788,0,0,0,.788-.788V54.873A8.522,8.522,0,0,0,55.82,48.8ZM10.448,41.039a5.239,5.239,0,1,1,5.239,5.239,5.239,5.239,0,0,1-5.239-5.239Zm18.349-30a3.917,3.917,0,1,1,3.917,3.917A3.917,3.917,0,0,1,28.8,11.039ZM27.406,21.846a5.313,5.313,0,0,1,10.622,0v1.177H27.4ZM22.573,24.6H42.855v2.927H22.573Zm4.9,16.44a5.238,5.238,0,1,1,5.238,5.239,5.238,5.238,0,0,1-5.238-5.239Zm8.6,5.922a6.814,6.814,0,1,0-6.718,0,8.606,8.606,0,0,0-2.931,2.055L24.366,29.1h16.7L39,49.023c-.071-.076-.138-.154-.212-.225a8.588,8.588,0,0,0-2.718-1.838ZM44.5,41.039a5.239,5.239,0,1,1,5.239,5.239A5.239,5.239,0,0,1,44.5,41.039Z" transform="translate(0)"/>
    </g>
  </g>
</svg>
