<svg xmlns="http://www.w3.org/2000/svg" xmlns:xlink="http://www.w3.org/1999/xlink" width="103" height="103" viewBox="0 0 103 103">
  <defs>
    <filter id="Trazado_982547" x="0" y="0" width="103" height="103" filterUnits="userSpaceOnUse">
      <feOffset dy="3" input="SourceAlpha"/>
      <feGaussianBlur stdDeviation="3" result="blur"/>
      <feFlood flood-opacity="0.161"/>
      <feComposite operator="in" in2="blur"/>
      <feComposite in="SourceGraphic"/>
    </filter>
  </defs>
  <g id="Grupo_1230805" data-name="Grupo 1230805" transform="translate(-614.13 -9530)">
    <g id="Grupo_1230348" data-name="Grupo 1230348" transform="translate(0 3737)">
      <g id="Grupo_1224203" data-name="Grupo 1224203" transform="translate(0 5367)">
        <g id="Grupo_1224081" data-name="Grupo 1224081" transform="translate(420 -1582)">
          <g id="Grupo_1206686" data-name="Grupo 1206686" transform="translate(-2.87 300.583)">
            <g id="Grupo_1201889" data-name="Grupo 1201889" transform="translate(206 1713.417)">
              <g id="Grupo_1201680" data-name="Grupo 1201680">
                <g id="Grupo_1201330" data-name="Grupo 1201330">
                  <g id="Grupo_1172010" data-name="Grupo 1172010">
                    <g id="Grupo_1171046" data-name="Grupo 1171046">
                      <g id="Grupo_1148525" data-name="Grupo 1148525">
                        <g transform="matrix(1, 0, 0, 1, -9, -6)" filter="url(#Trazado_982547)">
                          <g id="Trazado_982547-2" data-name="Trazado 982547" transform="translate(9 6)" fill="#f2f4f0">
                            <path d="M 42.5 83.5 C 36.96437835693359 83.5 31.59512901306152 82.41617584228516 26.54141235351562 80.27863311767578 C 21.65934181213379 78.21369171142578 17.27447128295898 75.25723266601562 13.50862312316895 71.49137878417969 C 9.742764472961426 67.72553253173828 6.786305904388428 63.34066009521484 4.721364498138428 58.45858764648438 C 2.583823442459106 53.40486907958984 1.5 48.03562164306641 1.5 42.5 C 1.5 36.96437835693359 2.583823442459106 31.59512901306152 4.721364498138428 26.54141235351562 C 6.786305904388428 21.65934181213379 9.742764472961426 17.27448272705078 13.50862312316895 13.50862312316895 C 17.27447128295898 9.742776870727539 21.65934181213379 6.786305904388428 26.54141235351562 4.721364498138428 C 31.59512901306152 2.583823442459106 36.96437835693359 1.5 42.5 1.5 C 48.03562164306641 1.5 53.40486907958984 2.583823442459106 58.45858764648438 4.721364498138428 C 63.34066009521484 6.786305904388428 67.72553253173828 9.742776870727539 71.49137878417969 13.50862312316895 C 75.25723266601562 17.27448272705078 78.21369171142578 21.65934181213379 80.27863311767578 26.54141235351562 C 82.41617584228516 31.59512901306152 83.5 36.96437835693359 83.5 42.5 C 83.5 48.03562164306641 82.41617584228516 53.40486907958984 80.27863311767578 58.45858764648438 C 78.21369171142578 63.34066009521484 75.25723266601562 67.72553253173828 71.49137878417969 71.49137878417969 C 67.72553253173828 75.25723266601562 63.34066009521484 78.21369171142578 58.45858764648438 80.27863311767578 C 53.40486907958984 82.41617584228516 48.03562164306641 83.5 42.5 83.5 Z" stroke="none"/>
                            <path d="M 42.5 3 C 37.16621398925781 3 31.99356079101562 4.043960571289062 27.125732421875 6.102882385253906 C 22.42246627807617 8.092185974121094 18.19785308837891 10.94070434570312 14.56928253173828 14.56928253173828 C 10.94070434570312 18.19785308837891 8.092185974121094 22.42246627807617 6.102882385253906 27.125732421875 C 4.043960571289062 31.99356079101562 3 37.16621398925781 3 42.5 C 3 47.83378601074219 4.043960571289062 53.00643920898438 6.102882385253906 57.87425231933594 C 8.092185974121094 62.57753372192383 10.94070434570312 66.80213165283203 14.56928253173828 70.43071746826172 C 18.19786834716797 74.05929565429688 22.42246627807617 76.90781402587891 27.125732421875 78.89711761474609 C 31.99356079101562 80.95603942871094 37.16621398925781 82 42.5 82 C 47.83378601074219 82 53.00642395019531 80.95603942871094 57.87425231933594 78.89711761474609 C 62.57753372192383 76.90781402587891 66.80213165283203 74.05929565429688 70.43071746826172 70.43071746826172 C 74.05929565429688 66.80213165283203 76.90781402587891 62.57753372192383 78.89711761474609 57.87425231933594 C 80.95603942871094 53.00642395019531 82 47.83378601074219 82 42.5 C 82 37.16621398925781 80.95603942871094 31.99356079101562 78.89711761474609 27.125732421875 C 76.90781402587891 22.42246627807617 74.05929565429688 18.19786834716797 70.43071746826172 14.56928253173828 C 66.80213165283203 10.94070434570312 62.57753372192383 8.092185974121094 57.87425231933594 6.102882385253906 C 53.00643920898438 4.043960571289062 47.83378601074219 3 42.5 3 M 42.5 0 C 65.97209167480469 0 85 19.02789306640625 85 42.5 C 85 65.97209167480469 65.97209167480469 85 42.5 85 C 19.02789306640625 85 0 65.97209167480469 0 42.5 C 0 19.02789306640625 19.02789306640625 0 42.5 0 Z" stroke="none" fill="#899e78"/>
                          </g>
                        </g>
                      </g>
                    </g>
                  </g>
                </g>
              </g>
            </g>
          </g>
        </g>
      </g>
    </g>
    <g id="jury_2861271" transform="translate(638.5 9550.5)">
      <g id="Grupo_1230803" data-name="Grupo 1230803" transform="translate(1.855 1.855)">
        <g id="Grupo_1230775" data-name="Grupo 1230775" transform="translate(23.32 30.774)">
          <path id="Trazado_1181474" data-name="Trazado 1181474" d="M32.46,38H57.242v3.419H29.887A11.727,11.727,0,0,0,29.28,38h3.18Z" transform="translate(-29.28 -38)" fill="#d3a06c"/>
        </g>
        <g id="Grupo_1230776" data-name="Grupo 1230776" transform="translate(23.927 34.194)">
          <path id="Trazado_1181475" data-name="Trazado 1181475" d="M57.345,42H29.99L30,59.1H57.353Z" transform="translate(-29.99 -42)" fill="#cf9e76"/>
        </g>
        <g id="Grupo_1230777" data-name="Grupo 1230777" transform="translate(44.452 37.613)">
          <path id="Trazado_1181476" data-name="Trazado 1181476" d="M54,46h3.419V59.677H54Z" transform="translate(-54 -46)" fill="#ccd1d9"/>
        </g>
        <g id="Grupo_1230778" data-name="Grupo 1230778" transform="translate(37.613 37.613)">
          <path id="Trazado_1181477" data-name="Trazado 1181477" d="M46,46h3.419V59.677H46Z" transform="translate(-46 -46)" fill="#ccd1d9"/>
        </g>
        <g id="Grupo_1230779" data-name="Grupo 1230779" transform="translate(30.774 37.613)">
          <path id="Trazado_1181478" data-name="Trazado 1181478" d="M38,46h3.419V59.677H38Z" transform="translate(-38 -46)" fill="#ccd1d9"/>
        </g>
        <g id="Grupo_1230780" data-name="Grupo 1230780" transform="translate(23.935 37.613)">
          <path id="Trazado_1181479" data-name="Trazado 1181479" d="M30,46h3.419V59.677H30Z" transform="translate(-30 -46)" fill="#ccd1d9"/>
        </g>
        <g id="Grupo_1230781" data-name="Grupo 1230781" transform="translate(25.645 8.548)">
          <path id="Trazado_1181480" data-name="Trazado 1181480" d="M38.505,19.847a6.6,6.6,0,0,1-1.71,2.684l-.607.581-.026-.009a3.065,3.065,0,0,0,.111-.846v-2.8a.866.866,0,0,0-.581-.812,8.83,8.83,0,0,1-3.462-2.137L32,16.274V12h1.71A5.131,5.131,0,0,1,36,12.539a4.991,4.991,0,0,1,1.812,1.513,5.122,5.122,0,0,1,1.026,3.077v.641a6.564,6.564,0,0,1-.333,2.077Z" transform="translate(-32 -12)" fill="#b27946"/>
        </g>
        <g id="Grupo_1230782" data-name="Grupo 1230782" transform="translate(20.516 8.548)">
          <path id="Trazado_1181481" data-name="Trazado 1181481" d="M30.9,16.505a8.83,8.83,0,0,1-3.462,2.137.866.866,0,0,0-.581.812v2.582a2.308,2.308,0,0,1-.855-1.8,2.277,2.277,0,0,1,.248-1.034l.376-.769a10.151,10.151,0,0,0,1.086-4.582V13.71a10.563,10.563,0,0,0-.094-1.385,5.144,5.144,0,0,1,1.8-.325h1.71v4.274Z" transform="translate(-26 -12)" fill="#b27946"/>
        </g>
        <g id="Grupo_1230783" data-name="Grupo 1230783" transform="translate(26.5 24.944)">
          <path id="Trazado_1181482" data-name="Trazado 1181482" d="M40.694,35.762V37.01H33l5-5.83a5.462,5.462,0,0,1,1.154.872,5.248,5.248,0,0,1,1.539,3.71Z" transform="translate(-33 -31.18)" fill="#b4dd7f"/>
        </g>
        <g id="Grupo_1230784" data-name="Grupo 1230784" transform="translate(21.456 24.491)">
          <path id="Trazado_1181483" data-name="Trazado 1181483" d="M31.289,32.659v4.274H28.964a12.038,12.038,0,0,0-1.752-3.368,1.561,1.561,0,0,0-.111-.137l1.111-1.111A4.605,4.605,0,0,0,29.28,30.65Z" transform="translate(-27.1 -30.65)" fill="#a0d468"/>
        </g>
        <g id="Grupo_1230785" data-name="Grupo 1230785" transform="translate(25.645 23.935)">
          <path id="Trazado_1181484" data-name="Trazado 1181484" d="M37.856,31.009l-5,5.83H32V32.565L34.565,30l2.009.5A5.2,5.2,0,0,1,37.856,31.009Z" transform="translate(-32 -30)" fill="#a0d468"/>
        </g>
        <g id="Grupo_1230786" data-name="Grupo 1230786" transform="translate(35.895 25.166)">
          <path id="Trazado_1181485" data-name="Trazado 1181485" d="M47.615,31.44l4.069,5.608H43.99V35.834a4.487,4.487,0,0,1,.744-2.479A4.533,4.533,0,0,1,47.375,31.5Z" transform="translate(-43.99 -31.44)" fill="#ff826e"/>
        </g>
        <g id="Grupo_1230787" data-name="Grupo 1230787" transform="translate(43.588 25.166)">
          <path id="Trazado_1181486" data-name="Trazado 1181486" d="M60.684,35.834v1.214H52.99l4.06-5.608.239.06a4.466,4.466,0,0,1,3.394,4.334Z" transform="translate(-52.99 -31.44)" fill="#ff826e"/>
        </g>
        <g id="Grupo_1230788" data-name="Grupo 1230788" transform="translate(35.895 8.548)">
          <path id="Trazado_1181487" data-name="Trazado 1181487" d="M47.409,23.113A3.409,3.409,0,0,0,49.6,26.3v.009l-.111.436a2.543,2.543,0,0,1-1.043,1.5H48.11a5.823,5.823,0,0,1-4.12-1.71V19.694a7.694,7.694,0,0,1,15.387,0l.009,6.839-.017.017a5.838,5.838,0,0,1-4.112,1.693h-.342a2.543,2.543,0,0,1-1.043-1.5l-.111-.436V26.3a3.408,3.408,0,0,0,2.2-3.189V21.779a2.57,2.57,0,0,0-.966-2l-3.308-2.65a10.124,10.124,0,0,1-4.009,2.47l-.265.094Z" transform="translate(-43.99 -12)" fill="#fcd770"/>
        </g>
        <g id="Grupo_1230789" data-name="Grupo 1230789" transform="translate(1.71 41.887)">
          <path id="Trazado_1181488" data-name="Trazado 1181488" d="M21.1,56.984V60.4H4V51a4.224,4.224,0,0,0,2.565.855h.855v4.274a.857.857,0,0,0,.855.855Z" transform="translate(-4 -51)" fill="#aab2bd"/>
        </g>
        <g id="Grupo_1230790" data-name="Grupo 1230790" transform="translate(0 23.081)">
          <path id="Trazado_1181489" data-name="Trazado 1181489" d="M7.129,43.532h5.129v5.129H6.274a4.224,4.224,0,0,1-2.565-.855A4.282,4.282,0,0,1,2,44.387v-3.9a12.022,12.022,0,0,1,2.368-7.164,1.56,1.56,0,0,1,.111-.137A11.945,11.945,0,0,1,10.548,29l.573,2.565,1.137,5.129H7.984a.857.857,0,0,0-.855.855Z" transform="translate(-2 -29)" fill="#aab2bd"/>
        </g>
        <g id="Grupo_1230791" data-name="Grupo 1230791" transform="translate(13.677 23.081)">
          <path id="Trazado_1181490" data-name="Trazado 1181490" d="M28.258,43.532V57.21H23.129V37.548a.857.857,0,0,0-.855-.855H18l1.137-5.129L19.71,29a11.945,11.945,0,0,1,6.069,4.189,1.56,1.56,0,0,1,.111.137,12.038,12.038,0,0,1,1.752,3.368,11.727,11.727,0,0,1,.607,3.419c.009.128.009.248.009.376Z" transform="translate(-18 -29)" fill="#aab2bd"/>
        </g>
        <g id="Grupo_1230792" data-name="Grupo 1230792" transform="translate(5.129 30.774)">
          <path id="Trazado_1181491" data-name="Trazado 1181491" d="M21.677,38.855V55.1H8.855A.857.857,0,0,1,8,54.242V49.968h7.694a2.565,2.565,0,0,0,0-5.129H8V38.855A.857.857,0,0,1,8.855,38H20.823A.857.857,0,0,1,21.677,38.855Z" transform="translate(-8 -38)" fill="#ffeaa7"/>
        </g>
        <g id="Grupo_1230793" data-name="Grupo 1230793" transform="translate(9.121 25.645)">
          <path id="Trazado_1181492" data-name="Trazado 1181492" d="M18.363,32l-1.137,5.129H13.807L12.67,32Z" transform="translate(-12.67 -32)" fill="#e6e9ed"/>
        </g>
        <g id="Grupo_1230794" data-name="Grupo 1230794" transform="translate(0 0.145)">
          <path id="Trazado_1181493" data-name="Trazado 1181493" d="M12.788,6.743l-2.334.872a5.133,5.133,0,0,0-3.325,4.8v.667a10.372,10.372,0,0,0,4.992,8.873v.009l-1.573,3.137a11.945,11.945,0,0,0-6.069,4.189L3.368,28.183a4.673,4.673,0,0,1,.5-7.044l.615-.462a2.324,2.324,0,0,0,.932-1.864,2.277,2.277,0,0,0-.248-1.034L4.8,17.01A10.151,10.151,0,0,1,3.71,12.428v-.145A10.235,10.235,0,0,1,12.258,2.17V4.914a3.367,3.367,0,0,0,.53,1.829Z" transform="translate(-2 -2.17)" fill="#656d78"/>
        </g>
        <g id="Grupo_1230795" data-name="Grupo 1230795" transform="translate(10.258)">
          <path id="Trazado_1181494" data-name="Trazado 1181494" d="M27.609,24.1l.068.752a4.651,4.651,0,0,1-.3,1.641,4.605,4.605,0,0,1-1.069,1.667L25.2,29.269a11.945,11.945,0,0,0-6.069-4.189l-1.573-3.137v-.009a10.366,10.366,0,0,0,4.992-8.873V11.933a3.415,3.415,0,0,0-3.077-3.4l-2.394-.239A3.418,3.418,0,0,1,14,4.889V2.145a10.247,10.247,0,0,1,11.874,8.728,10.563,10.563,0,0,1,.094,1.385V12.4a10.151,10.151,0,0,1-1.086,4.582l-.376.769a2.277,2.277,0,0,0-.248,1.034,2.308,2.308,0,0,0,.855,1.8v.009c.026.017.051.043.077.06l.615.462a4.635,4.635,0,0,1,1.8,2.983Z" transform="translate(-14 -2)" fill="#656d78"/>
        </g>
        <g id="Grupo_1230796" data-name="Grupo 1230796" transform="translate(39.519 22.85)">
          <path id="Trazado_1181495" data-name="Trazado 1181495" d="M55.53,30.67a2.48,2.48,0,0,0,.821.376h.009L52.3,36.654,48.23,31.047h.009a2.481,2.481,0,0,0,.821-.376,2.543,2.543,0,0,0,1.043-1.5l.111-.436V28.73a3.252,3.252,0,0,0,1.231.231h1.71a3.208,3.208,0,0,0,1.222-.231v.009l.111.436a2.543,2.543,0,0,0,1.043,1.5Z" transform="translate(-48.23 -28.73)" fill="#f0d0b4"/>
        </g>
        <g id="Grupo_1230797" data-name="Grupo 1230797" transform="translate(39.314 13.677)">
          <path id="Trazado_1181496" data-name="Trazado 1181496" d="M56.538,22.65v1.334a3.408,3.408,0,0,1-2.2,3.189,3.208,3.208,0,0,1-1.222.231h-1.71a3.252,3.252,0,0,1-1.231-.231,3.409,3.409,0,0,1-2.188-3.189V20.565l.265-.094A10.124,10.124,0,0,0,52.264,18l3.308,2.65A2.57,2.57,0,0,1,56.538,22.65Z" transform="translate(-47.99 -18)" fill="#f0d0b4"/>
        </g>
        <g id="Grupo_1230798" data-name="Grupo 1230798" transform="translate(23.636 21.995)">
          <path id="Trazado_1181497" data-name="Trazado 1181497" d="M32.514,27.961a3.239,3.239,0,0,0,1.222-.231v.009l.487,1.932-2.565,2.565L29.65,30.226a4.651,4.651,0,0,0,.3-1.641l-.068-.752h.009a3.24,3.24,0,0,0,.915.128Z" transform="translate(-29.65 -27.73)" fill="#f0d0b4"/>
        </g>
        <g id="Grupo_1230799" data-name="Grupo 1230799" transform="translate(21.371 12.823)">
          <path id="Trazado_1181498" data-name="Trazado 1181498" d="M35.548,20.18v2.8a3.064,3.064,0,0,1-.111.846,3.416,3.416,0,0,1-2.086,2.342,3.239,3.239,0,0,1-1.222.231h-1.71a3.24,3.24,0,0,1-.915-.128H29.5a4.635,4.635,0,0,0-1.8-2.983l-.615-.462c-.026-.017-.051-.043-.077-.06V20.18a.866.866,0,0,1,.581-.812,8.83,8.83,0,0,0,3.462-2.137L31.274,17l.231.231a8.83,8.83,0,0,0,3.462,2.137A.866.866,0,0,1,35.548,20.18Z" transform="translate(-27 -17)" fill="#f0d0b4"/>
        </g>
        <g id="Grupo_1230800" data-name="Grupo 1230800" transform="translate(10.258 37.613)">
          <path id="Trazado_1181499" data-name="Trazado 1181499" d="M18.377,46.752a2.563,2.563,0,0,1-1.812,4.377H14V46h2.565a2.558,2.558,0,0,1,1.812.752Z" transform="translate(-14 -46)" fill="#f0d0b4"/>
        </g>
        <g id="Grupo_1230801" data-name="Grupo 1230801" transform="translate(8.548 19.935)">
          <path id="Trazado_1181500" data-name="Trazado 1181500" d="M17.266,25.329l1.573,3.137-.573,2.565H12.573L12,28.466l1.573-3.137V25.32a2.413,2.413,0,0,0,.248.154,3.2,3.2,0,0,0,3.2,0,2.413,2.413,0,0,0,.248-.154Z" transform="translate(-12 -25.32)" fill="#f0d0b4"/>
        </g>
        <g id="Grupo_1230802" data-name="Grupo 1230802" transform="translate(5.129 4.719)">
          <path id="Trazado_1181501" data-name="Trazado 1181501" d="M21.677,12.735v1.128a10.366,10.366,0,0,1-4.992,8.873,2.413,2.413,0,0,1-.248.154,3.2,3.2,0,0,1-3.2,0,2.413,2.413,0,0,1-.248-.154A10.372,10.372,0,0,1,8,13.863V13.2a5.133,5.133,0,0,1,3.325-4.8l2.334-.872a3.371,3.371,0,0,0,2.547,1.573l2.394.239a3.415,3.415,0,0,1,3.077,3.4Z" transform="translate(-8 -7.52)" fill="#f0d0b4"/>
        </g>
      </g>
      <g id="Grupo_1230804" data-name="Grupo 1230804" transform="translate(1 1)">
        <path id="Trazado_1181503" data-name="Trazado 1181503" d="M53.093,28.464a5.322,5.322,0,0,0-1.5-1.479A6.754,6.754,0,0,0,53.75,25.54L54,25.289,53.988,18.1a8.548,8.548,0,0,0-17.1,0v7.193l.25.25a6.7,6.7,0,0,0,2.147,1.444A5.237,5.237,0,0,0,36.9,31.309a6.1,6.1,0,0,0-4.619-5.845l-1.512-.378-.2-.788a4.269,4.269,0,0,0,1.81-2.26l.506-.483a7.436,7.436,0,0,0,2.306-5.38v-.643A5.985,5.985,0,0,0,29.21,9.548H25.79a5.941,5.941,0,0,0-1.136.115A11.109,11.109,0,0,0,2.71,12.113v.143a11.18,11.18,0,0,0,1.173,4.97l.381.763a1.46,1.46,0,0,1,.156.657,1.477,1.477,0,0,1-.587,1.175l-.621.465A5.556,5.556,0,0,0,1,24.708a5.49,5.49,0,0,0,1.62,3.91l.587.587A12.824,12.824,0,0,0,1,36.425v3.9a5.114,5.114,0,0,0,1.71,3.813V54H54l-.013-22.581a5.305,5.305,0,0,0-.9-2.954Zm-.815,2.955v.355H47.115l2.725-3.759a3.576,3.576,0,0,1,2.438,3.4Zm-25.7,3.774a13.1,13.1,0,0,0-.274-1.71H52.28v1.71Zm1.773,17.1h-1.71V40.323h1.71ZM7.839,45.452h6.839a3.419,3.419,0,0,0,0-6.839H7.839V33.484H19.806V48.871H7.839Zm6.839-5.129a1.71,1.71,0,0,1,0,3.419h-1.71V40.323Zm-.855-17.1a4.085,4.085,0,0,0,1.469-.279l1.05,2.1-.355,1.6H11.659l-.356-1.6,1.05-2.1a4.086,4.086,0,0,0,1.469.279ZM15,21.2a2.4,2.4,0,0,1-2.346,0,9.57,9.57,0,0,1-4.811-8.29v-.666a4.294,4.294,0,0,1,2.774-4l1.73-.65A4.264,4.264,0,0,0,15.106,9l2.39.239a2.557,2.557,0,0,1,2.311,2.552v1.126A9.57,9.57,0,0,1,15,21.2Zm.61,7.15-.76,3.419H12.8l-.76-3.419Zm4.2,3.419H16.6l1.271-5.719a11.063,11.063,0,0,1,7.066,10.369V52.29H21.516V33.484A1.711,1.711,0,0,0,19.806,31.774Zm5.219-3.155a5.583,5.583,0,0,0,.69-.839l.93.929v3.065H25.78a12.691,12.691,0,0,0-1.341-2.568ZM45.482,16.661l2.735,2.189a1.7,1.7,0,0,1,.642,1.334v1.332a2.568,2.568,0,0,1-2.565,2.565h-1.71a2.568,2.568,0,0,1-2.565-2.565V18.708a11.164,11.164,0,0,0,3.462-2.047Zm-1.523,9.066a4.2,4.2,0,0,0,.626.063h1.71a4.206,4.206,0,0,0,.627-.063,3.4,3.4,0,0,0,1.285,1.629L45.44,31.172l-2.767-3.816a3.409,3.409,0,0,0,1.287-1.629ZM38.6,18.1a6.839,6.839,0,1,1,13.677,0l.011,6.467a4.945,4.945,0,0,1-3.271,1.225h-.042a1.69,1.69,0,0,1-.439-.652,4.264,4.264,0,0,0,2.031-3.622V20.183a3.4,3.4,0,0,0-1.283-2.669l-2.991-2.393V12.968h-1.71V15.15A9.418,9.418,0,0,1,41.167,17.2l-.857.285v4.036a4.264,4.264,0,0,0,2.031,3.622,1.7,1.7,0,0,1-.439.652h-.029A4.942,4.942,0,0,1,38.6,24.564V18.1Zm.607,11.316a3.593,3.593,0,0,1,1.831-1.4l2.725,3.759H38.6v-.356a3.606,3.606,0,0,1,.607-2.006Zm-4.014,1.971v.391h-4.98l3.3-3.845a4.266,4.266,0,0,1,.4.348A4.366,4.366,0,0,1,35.194,31.384Zm-3.327-4.261c.022.006.044.015.066.021l-3.578,4.172V28.709l1.972-1.972Zm-2.748-1.594L27.5,27.146l-1.039-1.039a5.471,5.471,0,0,0,.173-1.173h1.721a4.223,4.223,0,0,0,.6-.061Zm1.8-4.867a2.568,2.568,0,0,1-2.565,2.565h-1.71c-.075,0-.147-.024-.222-.03a5.546,5.546,0,0,0-1.99-2.911l-.352-.265V17.858A9.737,9.737,0,0,0,27.5,15.867a9.737,9.737,0,0,0,3.419,1.991Zm1.71-7.693a4.294,4.294,0,0,1,.855,2.564v.643a5.643,5.643,0,0,1-.855,3V17.858a1.706,1.706,0,0,0-1.169-1.621,8.034,8.034,0,0,1-3.106-1.915V11.258h.855a4.294,4.294,0,0,1,3.419,1.711ZM25.79,11.258h.855v3.064a8.015,8.015,0,0,1-2.342,1.61,11.177,11.177,0,0,0,.633-3.676v-.143c0-.253-.021-.5-.038-.751a4.279,4.279,0,0,1,.892-.1Zm-2.565.855v.143a9.454,9.454,0,0,1-.992,4.206l-.38.762a3.176,3.176,0,0,0,.934,3.965l.62.465a3.839,3.839,0,0,1,1.528,3.056,3.8,3.8,0,0,1-1.119,2.7l-.439.439a12.831,12.831,0,0,0-5.533-3.619l-1.071-2.141a11.285,11.285,0,0,0,4.743-9.173V11.788a4.263,4.263,0,0,0-3.849-4.254L15.277,7.3a2.556,2.556,0,0,1-2.309-2.552V2.753c.282-.026.566-.044.855-.044a9.414,9.414,0,0,1,9.4,9.4Zm-19.4,15.3a3.8,3.8,0,0,1-1.119-2.7,3.841,3.841,0,0,1,1.528-3.056l.621-.465a3.176,3.176,0,0,0,.934-3.962l-.381-.763a9.454,9.454,0,0,1-.992-4.206v-.143a9.415,9.415,0,0,1,6.839-9.039v1.67A4.317,4.317,0,0,0,11.474,6.1l-1.462.549a6.009,6.009,0,0,0-3.884,5.6v.666a11.283,11.283,0,0,0,4.743,9.173L9.8,24.229a12.823,12.823,0,0,0-5.533,3.619ZM2.71,36.425a11.064,11.064,0,0,1,7.066-10.37l1.271,5.72H7.839a1.711,1.711,0,0,0-1.71,1.71v5.129H4.419v1.71h6.839v3.419H6.129A3.423,3.423,0,0,1,2.71,40.323Zm1.71,8.728a5.108,5.108,0,0,0,1.71.3v3.419a1.711,1.711,0,0,0,1.71,1.71H19.806v1.71H4.419ZM35.194,52.29h-1.71V40.323h1.71Zm6.839,0h-1.71V40.323h1.71Zm6.839,0h-1.71V40.323h1.71Zm1.71,0V38.613H45.452V52.29h-1.71V38.613H38.613V52.29H36.9V38.613H31.774V52.29h-1.71V38.613H26.645V36.9H52.282l.008,15.387Z" transform="translate(-1 -1)"/>
      </g>
    </g>
  </g>
</svg>
