<svg xmlns="http://www.w3.org/2000/svg" xmlns:xlink="http://www.w3.org/1999/xlink" width="103" height="103" viewBox="0 0 103 103">
  <defs>
    <filter id="Trazado_982547" x="0" y="0" width="103" height="103" filterUnits="userSpaceOnUse">
      <feOffset dy="3" input="SourceAlpha"/>
      <feGaussianBlur stdDeviation="3" result="blur"/>
      <feFlood flood-opacity="0.161"/>
      <feComposite operator="in" in2="blur"/>
      <feComposite in="SourceGraphic"/>
    </filter>
  </defs>
  <g id="Grupo_1230807" data-name="Grupo 1230807" transform="translate(-1033.12 -9530)">
    <g id="Grupo_1230350" data-name="Grupo 1230350" transform="translate(0 3737)">
      <g id="Grupo_1224204" data-name="Grupo 1224204" transform="translate(0 5367)">
        <g id="Grupo_1224082" data-name="Grupo 1224082" transform="translate(838.99 -1582)">
          <g id="Grupo_1206686" data-name="Grupo 1206686" transform="translate(-2.87 300.583)">
            <g id="Grupo_1201889" data-name="Grupo 1201889" transform="translate(206 1713.417)">
              <g id="Grupo_1201680" data-name="Grupo 1201680">
                <g id="Grupo_1201330" data-name="Grupo 1201330">
                  <g id="Grupo_1172010" data-name="Grupo 1172010">
                    <g id="Grupo_1171046" data-name="Grupo 1171046">
                      <g id="Grupo_1148525" data-name="Grupo 1148525">
                        <g transform="matrix(1, 0, 0, 1, -9, -6)" filter="url(#Trazado_982547)">
                          <g id="Trazado_982547-2" data-name="Trazado 982547" transform="translate(9 6)" fill="#f2f4f0">
                            <path d="M 42.5 83.5 C 36.96437835693359 83.5 31.59512901306152 82.41617584228516 26.54141235351562 80.27863311767578 C 21.65934181213379 78.21369171142578 17.27447128295898 75.25723266601562 13.50862312316895 71.49137878417969 C 9.742764472961426 67.72553253173828 6.786305904388428 63.34066009521484 4.721364498138428 58.45858764648438 C 2.583823442459106 53.40486907958984 1.5 48.03562164306641 1.5 42.5 C 1.5 36.96437835693359 2.583823442459106 31.59512901306152 4.721364498138428 26.54141235351562 C 6.786305904388428 21.65934181213379 9.742764472961426 17.27448272705078 13.50862312316895 13.50862312316895 C 17.27447128295898 9.742776870727539 21.65934181213379 6.786305904388428 26.54141235351562 4.721364498138428 C 31.59512901306152 2.583823442459106 36.96437835693359 1.5 42.5 1.5 C 48.03562164306641 1.5 53.40486907958984 2.583823442459106 58.45858764648438 4.721364498138428 C 63.34066009521484 6.786305904388428 67.72553253173828 9.742776870727539 71.49137878417969 13.50862312316895 C 75.25723266601562 17.27448272705078 78.21369171142578 21.65934181213379 80.27863311767578 26.54141235351562 C 82.41617584228516 31.59512901306152 83.5 36.96437835693359 83.5 42.5 C 83.5 48.03562164306641 82.41617584228516 53.40486907958984 80.27863311767578 58.45858764648438 C 78.21369171142578 63.34066009521484 75.25723266601562 67.72553253173828 71.49137878417969 71.49137878417969 C 67.72553253173828 75.25723266601562 63.34066009521484 78.21369171142578 58.45858764648438 80.27863311767578 C 53.40486907958984 82.41617584228516 48.03562164306641 83.5 42.5 83.5 Z" stroke="none"/>
                            <path d="M 42.5 3 C 37.16621398925781 3 31.99356079101562 4.043960571289062 27.125732421875 6.102882385253906 C 22.42246627807617 8.092185974121094 18.19785308837891 10.94070434570312 14.56928253173828 14.56928253173828 C 10.94070434570312 18.19785308837891 8.092185974121094 22.42246627807617 6.102882385253906 27.125732421875 C 4.043960571289062 31.99356079101562 3 37.16621398925781 3 42.5 C 3 47.83378601074219 4.043960571289062 53.00643920898438 6.102882385253906 57.87425231933594 C 8.092185974121094 62.57753372192383 10.94070434570312 66.80213165283203 14.56928253173828 70.43071746826172 C 18.19786834716797 74.05929565429688 22.42246627807617 76.90781402587891 27.125732421875 78.89711761474609 C 31.99356079101562 80.95603942871094 37.16621398925781 82 42.5 82 C 47.83378601074219 82 53.00642395019531 80.95603942871094 57.87425231933594 78.89711761474609 C 62.57753372192383 76.90781402587891 66.80213165283203 74.05929565429688 70.43071746826172 70.43071746826172 C 74.05929565429688 66.80213165283203 76.90781402587891 62.57753372192383 78.89711761474609 57.87425231933594 C 80.95603942871094 53.00642395019531 82 47.83378601074219 82 42.5 C 82 37.16621398925781 80.95603942871094 31.99356079101562 78.89711761474609 27.125732421875 C 76.90781402587891 22.42246627807617 74.05929565429688 18.19786834716797 70.43071746826172 14.56928253173828 C 66.80213165283203 10.94070434570312 62.57753372192383 8.092185974121094 57.87425231933594 6.102882385253906 C 53.00643920898438 4.043960571289062 47.83378601074219 3 42.5 3 M 42.5 0 C 65.97209167480469 0 85 19.02789306640625 85 42.5 C 85 65.97209167480469 65.97209167480469 85 42.5 85 C 19.02789306640625 85 0 65.97209167480469 0 42.5 C 0 19.02789306640625 19.02789306640625 0 42.5 0 Z" stroke="none" fill="#899e78"/>
                          </g>
                        </g>
                      </g>
                    </g>
                  </g>
                </g>
              </g>
            </g>
          </g>
        </g>
      </g>
    </g>
    <g id="Layer_29" data-name="Layer 29" transform="translate(1057.468 9547.465)">
      <path id="Trazado_1181504" data-name="Trazado 1181504" d="M50.769,53.4l7.241-7.275a1.814,1.814,0,0,0,0-2.568,1.789,1.789,0,0,0-2.568,0l-1.181,1.2V35.423a1.712,1.712,0,1,0-3.423,0V33.712a1.712,1.712,0,0,0-3.423,0v1.712a1.712,1.712,0,1,0-3.423,0v1.712a1.712,1.712,0,0,0-3.423,0v10.27h-.856L38,49.117v7.7H49.126V53.4Z" transform="translate(-5.333 -4.485)" fill="#fdd9a1"/>
      <ellipse id="Elipse_14789" data-name="Elipse 14789" cx="14" cy="15" rx="14" ry="15" transform="translate(13.532 0.523)" fill="#bce4f8"/>
      <path id="Trazado_1181505" data-name="Trazado 1181505" d="M29.55,1A14.55,14.55,0,0,0,15,15.55a14.4,14.4,0,0,0,.95,5.135H35.541a4.279,4.279,0,0,0,4.279-4.279V5.279A14.55,14.55,0,0,0,29.55,1Z" transform="translate(-2.018 -0.017)" fill="#e4f5fd"/>
      <path id="Trazado_1181506" data-name="Trazado 1181506" d="M36.833,26.479,32.982,26l-2.568,1.712L27.847,26,24,26.479A3.423,3.423,0,0,0,21,29.9v.377a14.55,14.55,0,0,0,18.829,0V29.92A3.423,3.423,0,0,0,36.833,26.479Z" transform="translate(-2.883 -3.62)" fill="#ccc"/>
      <path id="Trazado_1181507" data-name="Trazado 1181507" d="M34.135,25.595v-2.4a5.135,5.135,0,0,1-5.135,0v2.4l2.568,1.712Z" transform="translate(-4.036 -3.215)" fill="#fddfb1"/>
      <path id="Trazado_1181508" data-name="Trazado 1181508" d="M32.982,26l-2.568,1.712L27.847,26,24,26.479A3.423,3.423,0,0,0,21,29.9v.377c.377.317.762.616,1.173.9H33.838a3.423,3.423,0,0,0,3.423-3.423V26.573a3.834,3.834,0,0,0-.428-.094Z" transform="translate(-2.883 -3.62)" fill="#f2f2f2"/>
      <g id="Grupo_1230806" data-name="Grupo 1230806" transform="translate(18.973 8.686)">
        <path id="Trazado_1181509" data-name="Trazado 1181509" d="M32.847,10a2.568,2.568,0,0,0,2.568,2.568h.856v4.279a5.135,5.135,0,0,1-10.27,0V12.568h4.279A2.568,2.568,0,0,0,32.847,10Z" transform="translate(-22.577 -10)" fill="#fddfb1"/>
        <path id="Trazado_1181510" data-name="Trazado 1181510" d="M25.423,17.568V15H23.712a1.712,1.712,0,0,0,0,3.423H25.5a5.683,5.683,0,0,1-.077-.856Z" transform="translate(-22 -10.721)" fill="#fddfb1"/>
        <path id="Trazado_1181511" data-name="Trazado 1181511" d="M39.7,15H37.987v2.568a5.682,5.682,0,0,1-.077.856H39.7A1.712,1.712,0,0,0,39.7,15Z" transform="translate(-24.293 -10.721)" fill="#fddfb1"/>
      </g>
      <path id="Trazado_1181512" data-name="Trazado 1181512" d="M30.847,5A6.847,6.847,0,0,0,24,11.847v1.712h1.712V11.847h4.279a2.568,2.568,0,0,0,2.568-2.568,2.568,2.568,0,0,0,2.568,2.568h.856v1.712h1.712V11.847A6.847,6.847,0,0,0,30.847,5Z" transform="translate(-3.315 -0.593)" fill="#474747"/>
      <path id="Trazado_1181513" data-name="Trazado 1181513" d="M28.729,29.423,31.3,27.712,28.729,26l-1.609.2Z" transform="translate(-3.765 -3.62)" fill="#2763bb"/>
      <path id="Trazado_1181514" data-name="Trazado 1181514" d="M31.725,28,30.09,29.087l.779,2.337h1.712l.779-2.337Z" transform="translate(-4.193 -3.908)" fill="#3079e6"/>
      <path id="Trazado_1181515" data-name="Trazado 1181515" d="M36.177,26.2,34.568,26,32,27.712l2.568,1.712Z" transform="translate(-4.468 -3.62)" fill="#2763bb"/>
      <path id="Trazado_1181516" data-name="Trazado 1181516" d="M30.42,34.5c.445,0,.856.068,1.352.068a8.617,8.617,0,0,0,1.352-.068l-.5-2.5H30.916Z" transform="translate(-4.241 -4.485)" fill="#2763bb"/>
      <path id="Trazado_1181517" data-name="Trazado 1181517" d="M32.847,10a2.568,2.568,0,0,1-2.568,2.568H26v4.279a5.135,5.135,0,0,0,.693,2.568h5.3a2.568,2.568,0,0,0,2.568-2.568V12.414A2.568,2.568,0,0,1,32.847,10Z" transform="translate(-3.603 -1.314)" fill="#feecd0"/>
      <path id="Trazado_1181518" data-name="Trazado 1181518" d="M11.411,53.4V56.82H22.538v-7.7l-1.712-1.712H19.97V37.135a1.712,1.712,0,0,0-3.423,0V35.423a1.712,1.712,0,1,0-3.423,0V33.712a1.712,1.712,0,0,0-3.423,0v1.712a1.712,1.712,0,1,0-3.423,0v9.329l-1.2-1.2a1.789,1.789,0,0,0-2.568,0,1.814,1.814,0,0,0,0,2.568L9.76,53.4Z" transform="translate(-0.141 -4.485)" fill="#fdd9a1"/>
      <path id="Trazado_1181519" data-name="Trazado 1181519" d="M29.406,31.811A15.406,15.406,0,1,0,14,16.406,15.406,15.406,0,0,0,29.406,31.811ZM23.414,16.406h-.856a.856.856,0,0,1,0-1.712h.856Zm0-4.279a5.991,5.991,0,0,1,11.982,0,.856.856,0,0,0-.856-.856h-.856a1.712,1.712,0,0,1-1.712-1.712.856.856,0,1,0-1.712,0A1.712,1.712,0,0,1,28.55,11.27H24.27A.856.856,0,0,0,23.414,12.126ZM35.4,14.694h.856a.856.856,0,1,1,0,1.712H35.4Zm-10.27-1.712H28.55a3.423,3.423,0,0,0,2.568-1.164,3.423,3.423,0,0,0,2.568,1.164v3.423a4.279,4.279,0,1,1-8.559,0Zm1.5,11.126,1.241.856-.693.462-.642-1.275Zm5.563,0h.094l-.642,1.275-.693-.419Zm-3.021,3.423-.377-1.13.616-.411.616.411-.377,1.13Zm1.951.907.351-1.053a.856.856,0,0,0,.5.145.984.984,0,0,0,.223,0,.856.856,0,0,0,.539-.445l1.344-2.679,1.635.2a2.568,2.568,0,0,1,2.251,2.473,13.608,13.608,0,0,1-6.513,2.85ZM29.406,22.4a6.222,6.222,0,0,0,1.712-.248v.642l-1.712,1.147L27.694,22.79v-.642a6.222,6.222,0,0,0,1.712.248Zm-4.673,1.986,1.344,2.679a.856.856,0,0,0,.539.445.984.984,0,0,0,.223.026.856.856,0,0,0,.471-.145l.385,1.053-.3,1.489a13.608,13.608,0,0,1-6.547-2.85,2.568,2.568,0,0,1,2.242-2.5ZM29.08,30.1l.171-.856h.308l.171.856h-.65Zm.325-27.388a13.694,13.694,0,0,1,10.014,23,4.279,4.279,0,0,0-3.492-2.824l-3.1-.385V21.318a6.051,6.051,0,0,0,2.319-3.2h1.1a2.568,2.568,0,0,0,.856-4.981v-1.01a7.7,7.7,0,1,0-15.406,0v1.01a2.568,2.568,0,0,0,.856,4.981h1.1a6.051,6.051,0,0,0,2.319,3.2V22.5l-3.1.385a4.279,4.279,0,0,0-3.492,2.824,13.694,13.694,0,0,1,10.014-23Z" transform="translate(-1.874 -0.017)"/>
      <path id="Trazado_1181520" data-name="Trazado 1181520" d="M44.649,56.829V55.117h.787a.856.856,0,0,0,.608-.257l7.241-7.266a2.687,2.687,0,0,0,0-3.783,2.635,2.635,0,0,0-3.5-.214V36.288a2.568,2.568,0,0,0-3.526-2.379,2.568,2.568,0,0,0-4.93,0A2.568,2.568,0,0,0,37.9,35.62,2.568,2.568,0,0,0,34.379,38v9.414a.856.856,0,0,0-.608.248l-1.712,1.712a.856.856,0,0,0-.248.608v6.847H23.252V49.982A.856.856,0,0,0,23,49.374l-1.712-1.712a.856.856,0,0,0-.608-.248V38a2.568,2.568,0,0,0-3.526-2.379,2.568,2.568,0,0,0-3.423-1.712,2.568,2.568,0,0,0-4.93,0,2.568,2.568,0,0,0-3.526,2.379V43.6a2.635,2.635,0,0,0-3.5.214,2.679,2.679,0,0,0,0,3.774L9.019,54.86a.856.856,0,0,0,.608.257h.787v1.712H1V58.54H54.063V56.829Zm2.568-21.4a.856.856,0,0,1,.856.856v8.978l-1.712,1.712V36.288A.856.856,0,0,1,47.217,35.432Zm-4.279-.856a.856.856,0,0,1,1.712,0V47.414H42.937Zm-3.423,1.712a.856.856,0,0,1,1.712,0V47.414H39.514ZM36.09,38A.856.856,0,1,1,37.8,38v9.414H36.09ZM33.523,50.333l1.207-1.207H46.292a.856.856,0,0,0,.608-.248l3.834-3.86a.924.924,0,0,1,.668-.274.941.941,0,0,1,.668.274.959.959,0,0,1,0,1.361l-6.984,7.027H39.514v1.712h3.423v1.712H33.523ZM18.117,37.144a.856.856,0,0,1,.856.856v9.414H17.261V38A.856.856,0,0,1,18.117,37.144Zm-3.423-1.712a.856.856,0,0,1,.856.856V47.414H13.838V36.288A.856.856,0,0,1,14.694,35.432Zm-4.279-.856a.856.856,0,0,1,1.712,0V47.414H10.414Zm-2.568.856a.856.856,0,0,1,.856.856v10.7L6.991,45.275V36.288A.856.856,0,0,1,7.847,35.432Zm4.279,19.685H15.55V53.405H9.978L2.994,46.379a.959.959,0,0,1,0-1.361.941.941,0,0,1,.668-.274.924.924,0,0,1,.668.274l3.834,3.86a.856.856,0,0,0,.608.248H20.334l1.207,1.207v6.5H12.126Z" transform="translate(0 -4.494)"/>
    </g>
  </g>
</svg>
