<svg xmlns="http://www.w3.org/2000/svg" xmlns:xlink="http://www.w3.org/1999/xlink" width="103" height="103" viewBox="0 0 103 103">
  <defs>
    <filter id="Trazado_982547" x="0" y="0" width="103" height="103" filterUnits="userSpaceOnUse">
      <feOffset dy="3" input="SourceAlpha"/>
      <feGaussianBlur stdDeviation="3" result="blur"/>
      <feFlood flood-opacity="0.161"/>
      <feComposite operator="in" in2="blur"/>
      <feComposite in="SourceGraphic"/>
    </filter>
  </defs>
  <g id="Grupo_1230621" data-name="Grupo 1230621" transform="translate(-614.13 -2049)">
    <g id="Grupo_1230620" data-name="Grupo 1230620">
      <g id="Grupo_1224594" data-name="Grupo 1224594" transform="translate(0 -3744)">
        <g id="Grupo_1224203" data-name="Grupo 1224203" transform="translate(0 5367)">
          <g id="Grupo_1224081" data-name="Grupo 1224081" transform="translate(420 -1582)">
            <g id="Grupo_1206686" data-name="Grupo 1206686" transform="translate(-2.87 300.583)">
              <g id="Grupo_1201889" data-name="Grupo 1201889" transform="translate(206 1713.417)">
                <g id="Grupo_1201680" data-name="Grupo 1201680">
                  <g id="Grupo_1201330" data-name="Grupo 1201330">
                    <g id="Grupo_1172010" data-name="Grupo 1172010">
                      <g id="Grupo_1171046" data-name="Grupo 1171046">
                        <g id="Grupo_1148525" data-name="Grupo 1148525">
                          <g transform="matrix(1, 0, 0, 1, -9, -6)" filter="url(#Trazado_982547)">
                            <g id="Trazado_982547-2" data-name="Trazado 982547" transform="translate(9 6)" fill="#f2f4f0">
                              <path d="M 42.5 83.5 C 36.96437835693359 83.5 31.59512901306152 82.41617584228516 26.54141235351562 80.27863311767578 C 21.65934181213379 78.21369171142578 17.27447128295898 75.25723266601562 13.50862312316895 71.49137878417969 C 9.742764472961426 67.72553253173828 6.786305904388428 63.34066009521484 4.721364498138428 58.45858764648438 C 2.583823442459106 53.40486907958984 1.5 48.03562164306641 1.5 42.5 C 1.5 36.96437835693359 2.583823442459106 31.59512901306152 4.721364498138428 26.54141235351562 C 6.786305904388428 21.65934181213379 9.742764472961426 17.27448272705078 13.50862312316895 13.50862312316895 C 17.27447128295898 9.742776870727539 21.65934181213379 6.786305904388428 26.54141235351562 4.721364498138428 C 31.59512901306152 2.583823442459106 36.96437835693359 1.5 42.5 1.5 C 48.03562164306641 1.5 53.40486907958984 2.583823442459106 58.45858764648438 4.721364498138428 C 63.34066009521484 6.786305904388428 67.72553253173828 9.742776870727539 71.49137878417969 13.50862312316895 C 75.25723266601562 17.27448272705078 78.21369171142578 21.65934181213379 80.27863311767578 26.54141235351562 C 82.41617584228516 31.59512901306152 83.5 36.96437835693359 83.5 42.5 C 83.5 48.03562164306641 82.41617584228516 53.40486907958984 80.27863311767578 58.45858764648438 C 78.21369171142578 63.34066009521484 75.25723266601562 67.72553253173828 71.49137878417969 71.49137878417969 C 67.72553253173828 75.25723266601562 63.34066009521484 78.21369171142578 58.45858764648438 80.27863311767578 C 53.40486907958984 82.41617584228516 48.03562164306641 83.5 42.5 83.5 Z" stroke="none"/>
                              <path d="M 42.5 3 C 37.16621398925781 3 31.99356079101562 4.043960571289062 27.125732421875 6.102882385253906 C 22.42246627807617 8.092185974121094 18.19785308837891 10.94070434570312 14.56928253173828 14.56928253173828 C 10.94070434570312 18.19785308837891 8.092185974121094 22.42246627807617 6.102882385253906 27.125732421875 C 4.043960571289062 31.99356079101562 3 37.16621398925781 3 42.5 C 3 47.83378601074219 4.043960571289062 53.00643920898438 6.102882385253906 57.87425231933594 C 8.092185974121094 62.57753372192383 10.94070434570312 66.80213165283203 14.56928253173828 70.43071746826172 C 18.19786834716797 74.05929565429688 22.42246627807617 76.90781402587891 27.125732421875 78.89711761474609 C 31.99356079101562 80.95603942871094 37.16621398925781 82 42.5 82 C 47.83378601074219 82 53.00642395019531 80.95603942871094 57.87425231933594 78.89711761474609 C 62.57753372192383 76.90781402587891 66.80213165283203 74.05929565429688 70.43071746826172 70.43071746826172 C 74.05929565429688 66.80213165283203 76.90781402587891 62.57753372192383 78.89711761474609 57.87425231933594 C 80.95603942871094 53.00642395019531 82 47.83378601074219 82 42.5 C 82 37.16621398925781 80.95603942871094 31.99356079101562 78.89711761474609 27.125732421875 C 76.90781402587891 22.42246627807617 74.05929565429688 18.19786834716797 70.43071746826172 14.56928253173828 C 66.80213165283203 10.94070434570312 62.57753372192383 8.092185974121094 57.87425231933594 6.102882385253906 C 53.00643920898438 4.043960571289062 47.83378601074219 3 42.5 3 M 42.5 0 C 65.97209167480469 0 85 19.02789306640625 85 42.5 C 85 65.97209167480469 65.97209167480469 85 42.5 85 C 19.02789306640625 85 0 65.97209167480469 0 42.5 C 0 19.02789306640625 19.02789306640625 0 42.5 0 Z" stroke="none" fill="#899e78"/>
                            </g>
                          </g>
                        </g>
                      </g>
                    </g>
                  </g>
                </g>
              </g>
            </g>
          </g>
        </g>
      </g>
      <g id="tribune_9394684" transform="translate(590.142 2058.082)">
        <g id="Grupo_1230615" data-name="Grupo 1230615" transform="translate(50.78 7.5)">
          <path id="Trazado_1181105" data-name="Trazado 1181105" d="M202.242,233.42l-7.608,1.068-7.607-1.068-.724,5.2,2.688,6.469h11.861l2.085-6.685Z" transform="translate(-169.987 -206.22)" fill="#dae6ed"/>
          <path id="Trazado_1181106" data-name="Trazado 1181106" d="M219.371,174.893v6.312l4.35,1.8,4.35-1.8v-6.1Z" transform="translate(-199.073 -154.74)" fill="#c86f5c"/>
          <path id="Trazado_1181107" data-name="Trazado 1181107" d="M178.009,18.5l-.019-3.759A7.243,7.243,0,0,1,185.233,7.5h1.622l2.686.2a7,7,0,0,1,6.923,7.263l-.691,3.161Z" transform="translate(-162.675 -7.5)" fill="#746f6f"/>
          <path id="Trazado_1181108" data-name="Trazado 1181108" d="M255.468,14.743V18.5l-1.366.392a2.407,2.407,0,0,1-2.408-2.408l.269-1.6a2.629,2.629,0,0,0-.036-.439A7.243,7.243,0,0,0,244.69,7.5h3.535A7.243,7.243,0,0,1,255.468,14.743Z" transform="translate(-221.344 -7.5)" fill="#5b5555"/>
          <path id="Trazado_1181109" data-name="Trazado 1181109" d="M196.939,53.053v1.33a10.931,10.931,0,0,1-2.118,6.267C193.143,63.257,188.828,65,187.548,65s-5.595-1.746-7.273-4.354a10.93,10.93,0,0,1-2.118-6.267l-.007-1.33h1.079a2.409,2.409,0,0,0,2.407-2.408V49.438a2.657,2.657,0,0,1,3.187-2.6l.029.006a13.443,13.443,0,0,0,5.394,0,2.657,2.657,0,0,1,3.189,2.6v1.2a2.407,2.407,0,0,0,2.408,2.408Z" transform="translate(-162.815 -42.051)" fill="#d5877a"/>
          <path id="Trazado_1181110" data-name="Trazado 1181110" d="M106.868,246.369,104.9,233.416l-6.113,1.214-5.24,2.006L92.939,245Z" transform="translate(-87.863 -206.217)" fill="#5b5555"/>
          <path id="Trazado_1181111" data-name="Trazado 1181111" d="M199.927,215.955l-3.329,3.2a.6.6,0,0,1-.887-.056l-3.391-4.216,3.257-2.537Z" transform="translate(-175.279 -187.687)" fill="#f5f8f9"/>
          <path id="Trazado_1181112" data-name="Trazado 1181112" d="M302.369,246.369l1.965-12.953,5.949,2,6.984,2.175-.19,6.735Z" transform="translate(-272.079 -206.217)" fill="#5b5555"/>
          <path id="Trazado_1181113" data-name="Trazado 1181113" d="M331.623,237.592l-.19,6.735-7.259,1.01v-3.263a9.888,9.888,0,0,0-5.484-8.654l6.112,1.214Z" transform="translate(-286.435 -206.22)" fill="#434443"/>
          <path id="Trazado_1181114" data-name="Trazado 1181114" d="M263.108,214.887l-3.392,4.216a.6.6,0,0,1-.887.056l-3.329-3.2,4.35-3.6Z" transform="translate(-230.853 -187.687)" fill="#f5f8f9"/>
          <g id="Grupo_1230612" data-name="Grupo 1230612" transform="translate(2.85 26.196)">
            <path id="Trazado_1181115" data-name="Trazado 1181115" d="M76.021,237a1.567,1.567,0,0,1-1.567-1.567v-4.208a4.246,4.246,0,0,1,1.252-3.022l2.655-2.655a1.567,1.567,0,1,1,2.215,2.215l-2.655,2.655a1.134,1.134,0,0,0-.334.807v4.208A1.566,1.566,0,0,1,76.021,237Z" transform="translate(-74.454 -225.085)" fill="#c7dae5"/>
          </g>
          <g id="Grupo_1230613" data-name="Grupo 1230613" transform="translate(39.984 26.197)">
            <path id="Trazado_1181116" data-name="Trazado 1181116" d="M387.9,237a1.567,1.567,0,0,1-1.567-1.567v-4.208a1.134,1.134,0,0,0-.334-.807l-2.655-2.655a1.567,1.567,0,1,1,2.215-2.215l2.655,2.655a4.246,4.246,0,0,1,1.252,3.022v4.208A1.567,1.567,0,0,1,387.9,237Z" transform="translate(-382.885 -225.086)" fill="#c7dae5"/>
          </g>
          <path id="Trazado_1181117" data-name="Trazado 1181117" d="M124.74,388.712l1.577-11.876-19.835-2.6-19.548,2.6-.667,2.648,1.849,10.039a.482.482,0,0,0,.474.394h14.9l2.684-1.27,3.738,1.27h11.931l2.422-.812A.482.482,0,0,0,124.74,388.712Z" transform="translate(-81.995 -330.081)" fill="#fcc16d"/>
          <path id="Trazado_1181118" data-name="Trazado 1181118" d="M124.057,376.832l-2.338,12.687a.481.481,0,0,1-.473.395h-2.97l1.636-8.877a1.318,1.318,0,0,0-1.3-1.557h-1.233a1.31,1.31,0,0,0-1.266.95,13.532,13.532,0,0,1-9.772,9.483H99.923a13.533,13.533,0,0,1-9.745-9.385,1.45,1.45,0,0,0-1.4-1.049H82.7l-.488-2.649,20.7-2.6Z" transform="translate(-78.426 -330.077)" fill="#fbb44d"/>
          <path id="Trazado_1181119" data-name="Trazado 1181119" d="M99.811,312.253l-.413,7.7a.913.913,0,0,1-.913.913l-2.991.353H87.046a.758.758,0,0,0-.758.706,10.823,10.823,0,0,1-21.6,0,.758.758,0,0,0-.758-.706H51.694a.913.913,0,0,1-.913-.913v-8.389a.913.913,0,0,1,.913-.913H97.346l1.553.34A.913.913,0,0,1,99.811,312.253Z" transform="translate(-50.781 -274.46)" fill="#ffd497"/>
          <path id="Trazado_1181120" data-name="Trazado 1181120" d="M423.467,311.913V320.3a.913.913,0,0,1-.913.913H418.3a2.318,2.318,0,0,0,2.318-2.316V311h1.937A.912.912,0,0,1,423.467,311.913Z" transform="translate(-374.052 -274.46)" fill="#fcc16d"/>
          <path id="Trazado_1181121" data-name="Trazado 1181121" d="M98.057,196.657h0a3.3,3.3,0,0,1,0-4.668l1.667-1.667a3.3,3.3,0,0,1,4.668,0h0a3.3,3.3,0,0,1,0,4.668l-1.667,1.667A3.3,3.3,0,0,1,98.057,196.657Z" transform="translate(-91.515 -167.46)" fill="#746f6f"/>
          <g id="Grupo_1230614" data-name="Grupo 1230614" transform="translate(17.826 39.873)">
            <path id="Trazado_1181122" data-name="Trazado 1181122" d="M205.723,351.738a7.259,7.259,0,0,1-6.311-3.433,6.881,6.881,0,0,1,6.311-9.623,7.189,7.189,0,0,1,2.742.57,6.749,6.749,0,0,1,3.7,6.232C212.164,349.28,209.517,351.738,205.723,351.738Z" transform="translate(-198.841 -338.682)" fill="#f5f8f9"/>
            <path id="Trazado_1181123" data-name="Trazado 1181123" d="M216.771,349.731a6.881,6.881,0,0,1-13.193,2.741,6.88,6.88,0,0,0,9.053-9.053A6.893,6.893,0,0,1,216.771,349.731Z" transform="translate(-203.008 -342.849)" fill="#dae6ed"/>
          </g>
          <path id="Trazado_1181124" data-name="Trazado 1181124" d="M353.529,196.657h0a3.3,3.3,0,0,0,0-4.668l-1.667-1.667a3.3,3.3,0,0,0-4.668,0h0a3.3,3.3,0,0,0,0,4.668l1.667,1.667A3.3,3.3,0,0,0,353.529,196.657Z" transform="translate(-310.656 -167.46)" fill="#746f6f"/>
        </g>
        <g id="Grupo_1230619" data-name="Grupo 1230619" transform="translate(50.78 7.5)">
          <path id="Trazado_1181125" data-name="Trazado 1181125" d="M215.278,34.3a7.2,7.2,0,0,1,1.215,4.016v5.089a10.931,10.931,0,0,1-2.118,6.267c-1.678,2.608-5.993,4.354-7.273,4.354A12.333,12.333,0,0,1,200.38,50.4" transform="translate(-182.369 -31.073)" fill="none" stroke="#000" stroke-linecap="round" stroke-linejoin="round" stroke-miterlimit="10" stroke-width="1.2"/>
          <path id="Trazado_1181126" data-name="Trazado 1181126" d="M178.594,23.144a10.249,10.249,0,0,1-.578-3.312l-.026-5.089A7.243,7.243,0,0,1,185.233,7.5h4.322a7.2,7.2,0,0,1,2.773.551" transform="translate(-162.674 -7.5)" fill="none" stroke="#000" stroke-linecap="round" stroke-linejoin="round" stroke-miterlimit="10" stroke-width="1.2"/>
          <g id="Grupo_1230616" data-name="Grupo 1230616" transform="translate(12.258 24.664)">
            <path id="Trazado_1181127" data-name="Trazado 1181127" d="M152.6,234.366l4.782-.95,1.387,9.148" transform="translate(-152.596 -230.88)" fill="none" stroke="#000" stroke-linecap="round" stroke-linejoin="round" stroke-miterlimit="10" stroke-width="1.2"/>
            <path id="Trazado_1181128" data-name="Trazado 1181128" d="M192.315,214.891l3.258-2.536,4.35,3.6" transform="translate(-187.533 -212.355)" fill="none" stroke="#000" stroke-linecap="round" stroke-linejoin="round" stroke-miterlimit="10" stroke-width="1.2"/>
            <path id="Trazado_1181129" data-name="Trazado 1181129" d="M192.315,233.416l3.8,4.73,3.8-3.661" transform="translate(-187.533 -230.88)" fill="none" stroke="#000" stroke-linecap="round" stroke-linejoin="round" stroke-miterlimit="10" stroke-width="1.2"/>
          </g>
          <path id="Trazado_1181130" data-name="Trazado 1181130" d="M313.481,234.4l-4.932-.98-1.388,9.148" transform="translate(-276.295 -206.217)" fill="none" stroke="#000" stroke-linecap="round" stroke-linejoin="round" stroke-miterlimit="10" stroke-width="1.2"/>
          <path id="Trazado_1181131" data-name="Trazado 1181131" d="M263.108,214.891l-3.258-2.536-4.35,3.6" transform="translate(-230.853 -187.691)" fill="none" stroke="#000" stroke-linecap="round" stroke-linejoin="round" stroke-miterlimit="10" stroke-width="1.2"/>
          <path id="Trazado_1181132" data-name="Trazado 1181132" d="M263.108,233.416l-3.8,4.73-3.8-3.661" transform="translate(-230.853 -206.217)" fill="none" stroke="#000" stroke-linecap="round" stroke-linejoin="round" stroke-miterlimit="10" stroke-width="1.2"/>
          <path id="Trazado_1181133" data-name="Trazado 1181133" d="M197.56,53.055h-.976a2.408,2.408,0,0,1-2.408-2.408v-1.2a2.657,2.657,0,0,0-3.19-2.6h0a13.487,13.487,0,0,1-5.394,0l-.028-.006a2.657,2.657,0,0,0-3.187,2.6v1.206a2.408,2.408,0,0,1-2.407,2.408h-.977" transform="translate(-163.557 -42.053)" fill="none" stroke="#000" stroke-linecap="round" stroke-linejoin="round" stroke-miterlimit="10" stroke-width="1.2"/>
          <line id="Línea_3763" data-name="Línea 3763" y2="8.152" transform="translate(24.648 28.268)" fill="none" stroke="#000" stroke-linecap="round" stroke-linejoin="round" stroke-miterlimit="10" stroke-width="1.2"/>
          <line id="Línea_3764" data-name="Línea 3764" y1="3.315" transform="translate(28.997 21.349)" fill="none" stroke="#000" stroke-linecap="round" stroke-linejoin="round" stroke-miterlimit="10" stroke-width="1.2"/>
          <g id="Grupo_1230617" data-name="Grupo 1230617" transform="translate(2.85 27.823)">
            <path id="Trazado_1181135" data-name="Trazado 1181135" d="M102.232,257.561l-1.419,1.419a1.134,1.134,0,0,0-.334.807V263.8" transform="translate(-97.346 -255.277)" fill="none" stroke="#000" stroke-linecap="round" stroke-linejoin="round" stroke-miterlimit="10" stroke-width="1.2"/>
            <path id="Trazado_1181136" data-name="Trazado 1181136" d="M74.455,247.118V243.1a4.246,4.246,0,0,1,1.252-3.022l1.487-1.487" transform="translate(-74.455 -238.594)" fill="none" stroke="#000" stroke-linecap="round" stroke-linejoin="round" stroke-miterlimit="10" stroke-width="1.2"/>
          </g>
          <g id="Grupo_1230618" data-name="Grupo 1230618" transform="translate(41.658 27.78)">
            <path id="Trazado_1181137" data-name="Trazado 1181137" d="M398.565,263.71v-4.07a1.134,1.134,0,0,0-.334-.807l-1.439-1.439" transform="translate(-396.791 -255.088)" fill="none" stroke="#000" stroke-linecap="round" stroke-linejoin="round" stroke-miterlimit="10" stroke-width="1.2"/>
            <path id="Trazado_1181138" data-name="Trazado 1181138" d="M414.439,238.239l1.53,1.53a4.246,4.246,0,0,1,1.252,3.022v4.07" transform="translate(-412.314 -238.239)" fill="none" stroke="#000" stroke-linecap="round" stroke-linejoin="round" stroke-miterlimit="10" stroke-width="1.2"/>
          </g>
          <line id="Línea_3765" data-name="Línea 3765" x1="0.736" y1="3.994" transform="translate(5.459 55.843)" fill="none" stroke="#000" stroke-linecap="round" stroke-linejoin="round" stroke-miterlimit="10" stroke-width="1.2"/>
          <line id="Línea_3766" data-name="Línea 3766" x1="0.851" y1="4.62" transform="translate(3.843 47.07)" fill="none" stroke="#000" stroke-linecap="round" stroke-linejoin="round" stroke-miterlimit="10" stroke-width="1.2"/>
          <line id="Línea_3767" data-name="Línea 3767" y1="12.935" x2="2.383" transform="translate(43.221 46.902)" fill="none" stroke="#000" stroke-linecap="round" stroke-linejoin="round" stroke-miterlimit="10" stroke-width="1.2"/>
          <path id="Trazado_1181139" data-name="Trazado 1181139" d="M80.29,330.915a10.826,10.826,0,0,1-15.6-8.995.757.757,0,0,0-.757-.706H51.693a.913.913,0,0,1-.913-.913v-8.389a.912.912,0,0,1,.913-.913h47.59a.912.912,0,0,1,.913.913V320.3a.913.913,0,0,1-.913.913H87.045a.757.757,0,0,0-.757.706,10.777,10.777,0,0,1-2.584,6.339" transform="translate(-50.78 -274.46)" fill="none" stroke="#000" stroke-linecap="round" stroke-linejoin="round" stroke-miterlimit="10" stroke-width="1.2"/>
          <path id="Trazado_1181140" data-name="Trazado 1181140" d="M98.057,196.657h0a3.3,3.3,0,0,1,0-4.668l1.667-1.667a3.3,3.3,0,0,1,4.668,0h0a3.3,3.3,0,0,1,0,4.668l-1.667,1.667A3.3,3.3,0,0,1,98.057,196.657Z" transform="translate(-91.514 -167.46)" fill="none" stroke="#000" stroke-linecap="round" stroke-linejoin="round" stroke-miterlimit="10" stroke-width="1.2"/>
          <path id="Trazado_1181141" data-name="Trazado 1181141" d="M353.529,196.657h0a3.3,3.3,0,0,0,0-4.668l-1.667-1.667a3.3,3.3,0,0,0-4.668,0h0a3.3,3.3,0,0,0,0,4.668l1.667,1.667A3.3,3.3,0,0,0,353.529,196.657Z" transform="translate(-310.656 -167.46)" fill="none" stroke="#000" stroke-linecap="round" stroke-linejoin="round" stroke-miterlimit="10" stroke-width="1.2"/>
          <circle id="Elipse_14787" data-name="Elipse 14787" cx="6.882" cy="6.882" r="6.882" transform="translate(17.826 39.873)" fill="none" stroke="#000" stroke-linecap="round" stroke-linejoin="round" stroke-miterlimit="10" stroke-width="1.2"/>
          <line id="Línea_3768" data-name="Línea 3768" y1="3.43" transform="translate(20.298 21.234)" fill="none" stroke="#000" stroke-linecap="round" stroke-linejoin="round" stroke-miterlimit="10" stroke-width="1.2"/>
        </g>
      </g>
    </g>
  </g>
</svg>
