<svg xmlns="http://www.w3.org/2000/svg" xmlns:xlink="http://www.w3.org/1999/xlink" width="108" height="108" viewBox="0 0 108 108">
  <defs>
    <filter id="Trazado_904820" x="0" y="0" width="108" height="108" filterUnits="userSpaceOnUse">
      <feOffset dy="3" input="SourceAlpha"/>
      <feGaussianBlur stdDeviation="3" result="blur"/>
      <feFlood flood-opacity="0.161"/>
      <feComposite operator="in" in2="blur"/>
      <feComposite in="SourceGraphic"/>
    </filter>
  </defs>
  <g id="Grupo_1230322" data-name="Grupo 1230322" transform="translate(-200 -4741.527)">
    <g id="Grupo_1224601" data-name="Grupo 1224601" transform="translate(209 4747.527)">
      <g id="Grupo_1173585" data-name="Grupo 1173585" transform="translate(0 0)">
        <g id="Grupo_1173428" data-name="Grupo 1173428">
          <g id="Grupo_1171958" data-name="Grupo 1171958">
            <g id="Grupo_1167341" data-name="Grupo 1167341">
              <g id="Grupo_1166792" data-name="Grupo 1166792">
                <g transform="matrix(1, 0, 0, 1, -9, -6)" filter="url(#Trazado_904820)">
                  <g id="Trazado_904820-2" data-name="Trazado 904820" transform="translate(9 6)" fill="#f2f4f0">
                    <path d="M 44.99999618530273 88.50002288818359 C 39.12687301635742 88.50002288818359 33.43022155761719 87.35009765625 28.06829643249512 85.08218383789062 C 22.88852119445801 82.89133453369141 18.23629570007324 79.75460815429688 14.24084663391113 75.7591552734375 C 10.24540901184082 71.76371002197266 7.108683586120605 67.11148071289062 4.917821407318115 61.93170928955078 C 2.649921178817749 56.56978225708008 1.499996185302734 50.87313079833984 1.499996185302734 45.00000762939453 C 1.499996185302734 39.12688446044922 2.649921178817749 33.43023300170898 4.917821407318115 28.06830787658691 C 7.108683586120605 22.8885326385498 10.24540901184082 18.23630714416504 14.24084663391113 14.24085807800293 C 18.23629570007324 10.24542045593262 22.88852119445801 7.108695030212402 28.06829643249512 4.917832851409912 C 33.43022155761719 2.649932622909546 39.12687301635742 1.500007629394531 44.99999618530273 1.500007629394531 C 50.87311935424805 1.500007629394531 56.56977081298828 2.649932622909546 61.93169784545898 4.917832851409912 C 67.11147308349609 7.108695030212402 71.76369476318359 10.24542045593262 75.75914764404297 14.24085807800293 C 79.75458526611328 18.23630714416504 82.89131164550781 22.8885326385498 85.08216857910156 28.06830787658691 C 87.35007476806641 33.43023300170898 88.5 39.12688446044922 88.5 45.00000762939453 C 88.5 50.87313079833984 87.35007476806641 56.56978225708008 85.08216857910156 61.93170928955078 C 82.89131164550781 67.11148071289062 79.75458526611328 71.76371002197266 75.75914764404297 75.7591552734375 C 71.76369476318359 79.75460815429688 67.11147308349609 82.89133453369141 61.93169784545898 85.08218383789062 C 56.56977081298828 87.35009765625 50.87311935424805 88.50002288818359 44.99999618530273 88.50002288818359 Z" stroke="none"/>
                    <path d="M 44.99999618530273 2.999992370605469 C 39.32870864868164 2.999992370605469 33.82865142822266 4.110054016113281 28.65262603759766 6.299339294433594 C 23.65165710449219 8.414566040039062 19.15968322753906 11.44333648681641 15.301513671875 15.30150604248047 C 11.44333648681641 19.15967559814453 8.414566040039062 23.65164947509766 6.299339294433594 28.65262222290039 C 4.110054016113281 33.82866287231445 2.999992370605469 39.32872009277344 2.999992370605469 45.00000762939453 C 2.999992370605469 50.67129516601562 4.110054016113281 56.17133712768555 6.299339294433594 61.34738159179688 C 8.414566040039062 66.34835052490234 11.44333648681641 70.84030914306641 15.301513671875 74.69849395751953 C 19.15968322753906 78.55666351318359 23.65165710449219 81.58543395996094 28.65262603759766 83.70066833496094 C 33.82865142822266 85.88995361328125 39.32870864868164 87.00000762939453 44.99999618530273 87.00000762939453 C 50.67128372192383 87.00000762939453 56.17134094238281 85.88995361328125 61.34736633300781 83.70066833496094 C 66.34834289550781 81.58543395996094 70.84030914306641 78.55666351318359 74.69847869873047 74.69849395751953 C 78.55665588378906 70.84030914306641 81.58542633056641 66.34835052490234 83.70065307617188 61.34738159179688 C 85.88993835449219 56.17133712768555 87 50.67129516601562 87 45.00000762939453 C 87 39.32872009277344 85.88993835449219 33.82866287231445 83.70065307617188 28.65262222290039 C 81.58542633056641 23.65164947509766 78.55665588378906 19.15967559814453 74.69847869873047 15.30150604248047 C 70.84030914306641 11.44333648681641 66.34834289550781 8.414566040039062 61.34736633300781 6.299339294433594 C 56.17134094238281 4.110054016113281 50.67128372192383 2.999992370605469 44.99999618530273 2.999992370605469 M 44.99999618530273 -7.62939453125e-06 C 69.85281372070312 -7.62939453125e-06 90 20.14717864990234 90 45.00000762939453 C 90 69.85280609130859 69.85281372070312 90.00000762939453 44.99999618530273 90.00000762939453 C 20.14717864990234 90.00000762939453 -7.62939453125e-06 69.85280609130859 -7.62939453125e-06 45.00000762939453 C -7.62939453125e-06 20.14717864990234 20.14717864990234 -7.62939453125e-06 44.99999618530273 -7.62939453125e-06 Z" stroke="none" fill="#4a5641"/>
                  </g>
                </g>
              </g>
            </g>
          </g>
        </g>
      </g>
    </g>
    <g id="law_3122425" transform="translate(224.621 4735.225)">
      <g id="Grupo_1230318" data-name="Grupo 1230318" transform="translate(0.85 30.133)">
        <g id="Grupo_1230314" data-name="Grupo 1230314" transform="translate(0 20.053)">
          <g id="Grupo_1230312" data-name="Grupo 1230312" transform="translate(0 6.675)">
            <path id="Trazado_1181116" data-name="Trazado 1181116" d="M30.473,275.381l-2.817-2.817-19.178,17.7a3.037,3.037,0,1,0,4.291,4.291Z" transform="translate(-7.5 -272.564)" fill="#873f30"/>
            <path id="Trazado_1181117" data-name="Trazado 1181117" d="M13.85,301.425a3.038,3.038,0,0,1-4.294,0,3.008,3.008,0,0,1-.741-1.21,3.032,3.032,0,0,0,3.082-.738c.029-.029.058-.06.086-.09l17.7-19.178,1.951,1.951-17.7,19.179C13.907,301.366,13.879,301.4,13.85,301.425Z" transform="translate(-8.667 -279.341)" fill="#6c3328"/>
          </g>
          <path id="Trazado_1181118" data-name="Trazado 1181118" d="M183.887,213.677l-6.487,7.738,2.65,2.65,7.738-6.487Z" transform="translate(-158.141 -213.677)" fill="#873f30"/>
          <path id="Trazado_1181119" data-name="Trazado 1181119" d="M192.051,213.677l-2.1,2.5.629.629a1.186,1.186,0,0,1,0,1.677l-3.976,3.976,1.606,1.606,7.738-6.487Z" transform="translate(-166.305 -213.677)" fill="#6c3328"/>
          <g id="Grupo_1230313" data-name="Grupo 1230313" transform="translate(17.203 6.063)">
            <path id="Trazado_1181120" data-name="Trazado 1181120" d="M162.393,272.986l-2.573-2.573a1.9,1.9,0,0,1,2.693-2.693l2.573,2.573a1.9,1.9,0,1,1-2.693,2.693Z" transform="translate(-159.262 -267.162)" fill="#ba5d4f"/>
            <path id="Trazado_1181121" data-name="Trazado 1181121" d="M174.312,282.219a1.9,1.9,0,0,1-2.693,0l-1.95-1.95a1.9,1.9,0,1,0,2.693-2.693l1.95,1.95A1.9,1.9,0,0,1,174.312,282.219Z" transform="translate(-168.489 -276.396)" fill="#a34f41"/>
          </g>
        </g>
        <g id="Grupo_1230315" data-name="Grupo 1230315" transform="translate(20.14 2.367)">
          <path id="Trazado_1181122" data-name="Trazado 1181122" d="M0,0H8.079V12.684H0Z" transform="translate(8.968 0) rotate(45)" fill="#ba5d4f"/>
          <path id="Trazado_1181123" data-name="Trazado 1181123" d="M0,0H8.079V12.684H0Z" transform="translate(18.224 27.2) rotate(-135)" fill="#a34f41"/>
        </g>
        <g id="Grupo_1230317" data-name="Grupo 1230317" transform="translate(17.771 0)">
          <path id="Trazado_1181124" data-name="Trazado 1181124" d="M165.031,50.075l-.2-.2a1.927,1.927,0,0,1,0-2.725l9.816-9.816a1.927,1.927,0,0,1,2.725,0l.2.2a1.927,1.927,0,0,1,0,2.725l-9.816,9.816A1.926,1.926,0,0,1,165.031,50.075Z" transform="translate(-164.268 -36.772)" fill="#873f30"/>
          <path id="Trazado_1181125" data-name="Trazado 1181125" d="M324.18,209.225l.2.2a1.927,1.927,0,0,0,2.725,0l9.816-9.816a1.927,1.927,0,0,0,0-2.725l-.2-.2a1.927,1.927,0,0,0-2.725,0L324.18,206.5A1.926,1.926,0,0,0,324.18,209.225Z" transform="translate(-305.552 -178.057)" fill="#6c3328"/>
          <g id="Grupo_1230316" data-name="Grupo 1230316" transform="translate(4.961 4.961)">
            <path id="Trazado_1181126" data-name="Trazado 1181126" d="M0,0H9.073V19.157H0Z" transform="translate(14.568 1.02) rotate(45)" fill="#fcc16d"/>
            <path id="Trazado_1181127" data-name="Trazado 1181127" d="M0,0H19.157V4.592H0Z" transform="translate(4.187 17.739) rotate(-45)" fill="#fca62f"/>
            <path id="Trazado_1181128" data-name="Trazado 1181128" d="M222.628,81.284l-1.572-.643a1.445,1.445,0,0,0-1.569.316L208.453,91.992a1.445,1.445,0,0,0-.316,1.569l.643,1.572a.963.963,0,0,0,1.573.317l12.592-12.592A.963.963,0,0,0,222.628,81.284Z" transform="translate(-208.03 -80.534)" fill="#873f30"/>
            <path id="Trazado_1181129" data-name="Trazado 1181129" d="M282.565,141.221l.643,1.572a1.445,1.445,0,0,1-.316,1.569L271.856,155.4a1.445,1.445,0,0,1-1.569.316l-1.572-.643a.963.963,0,0,1-.317-1.573L280.992,140.9a.963.963,0,0,1,1.573.317Z" transform="translate(-261.306 -133.81)" fill="#6c3328"/>
          </g>
        </g>
      </g>
      <g id="Grupo_1230321" data-name="Grupo 1230321" transform="translate(0 29.285)">
        <g id="Grupo_1230319" data-name="Grupo 1230319" transform="translate(27.26 39.593)">
          <path id="Trazado_1181130" data-name="Trazado 1181130" d="M263.875,383.075h-23.4v-3.284a1.227,1.227,0,0,1,1.227-1.227h20.944a1.227,1.227,0,0,1,1.227,1.227Z" transform="translate(-240.477 -378.564)" fill="#ba5d4f"/>
          <path id="Trazado_1181131" data-name="Trazado 1181131" d="M417.2,379.793v3.283h-2.568v-3.283a1.228,1.228,0,0,0-1.227-1.227h2.568A1.228,1.228,0,0,1,417.2,379.793Z" transform="translate(-393.805 -378.566)" fill="#a34f41"/>
        </g>
        <path id="Trazado_1181132" data-name="Trazado 1181132" d="M219.086,412.327H185.374a1.228,1.228,0,0,1-1.116-1.739l1.192-2.6a6.339,6.339,0,0,1,5.763-3.7h22.034a6.339,6.339,0,0,1,5.763,3.7l1.192,2.6A1.227,1.227,0,0,1,219.086,412.327Z" transform="translate(-163.271 -361.778)" fill="#873f30"/>
        <path id="Trazado_1181133" data-name="Trazado 1181133" d="M421.046,412.324h-3.282a1.227,1.227,0,0,0,1.116-1.738l-1.192-2.6a6.34,6.34,0,0,0-5.763-3.7h3.281a6.341,6.341,0,0,1,5.764,3.7l1.192,2.6A1.227,1.227,0,0,1,421.046,412.324Z" transform="translate(-365.23 -361.774)" fill="#6c3328"/>
        <g id="Grupo_1230320" data-name="Grupo 1230320" transform="translate(0 0)">
          <path id="Trazado_1181134" data-name="Trazado 1181134" d="M39.594,36.378A1.81,1.81,0,0,0,38.5,35.057l-1.572-.643a2.29,2.29,0,0,0-2.491.5l-.432.432-1.313-1.313a2.78,2.78,0,0,0-.169-3.74l-.2-.2a2.78,2.78,0,0,0-3.927,0l-9.816,9.816a2.78,2.78,0,0,0,0,3.927l.2.2a2.776,2.776,0,0,0,3.741.17l1.312,1.312-.432.432a2.29,2.29,0,0,0-.5,2.491l.643,1.571a1.809,1.809,0,0,0,1.2,1.062l-3.784,4.513a2.75,2.75,0,0,0-3.6,3.478L1.25,73.941a3.887,3.887,0,0,0,2.634,6.743h.08a3.854,3.854,0,0,0,2.779-1.25l8.069-8.74a.85.85,0,1,0-1.249-1.153l-8.069,8.74a2.187,2.187,0,1,1-3.09-3.09L18.365,60.457l1.863,1.863-3.944,4.272a.85.85,0,1,0,1.249,1.153l4.08-4.42a2.756,2.756,0,0,0,3.484-3.6l4.511-3.782a1.809,1.809,0,0,0,1.062,1.2l1.572.643a2.29,2.29,0,0,0,2.491-.5l.432-.432,1.313,1.313a2.78,2.78,0,0,0,.169,3.74l.2.2a2.78,2.78,0,0,0,3.927,0l9.816-9.816a2.78,2.78,0,0,0,0-3.927l-.2-.2a2.78,2.78,0,0,0-3.74-.169l-1.313-1.313.432-.432a2.29,2.29,0,0,0,.5-2.491l-.642-1.572a1.81,1.81,0,0,0-1.321-1.092c-.035-.058-4.655-4.678-4.714-4.713ZM25.982,52.243,28.442,54.7l-4.374,3.667-1.752-1.752Zm22.444-3.2a1.07,1.07,0,0,1,.761.315l.2.2a1.078,1.078,0,0,1,0,1.522L39.57,60.9a1.078,1.078,0,0,1-1.522,0l-.2-.2a1.078,1.078,0,0,1,0-1.522l9.816-9.816a1.07,1.07,0,0,1,.761-.315Zm-2.988.137-7.767,7.767-1.3-1.3,7.767-7.767Zm-.872-4.141L33.531,56.079a.593.593,0,0,1-.646.13l-1.572-.643a.113.113,0,0,1-.037-.185L43.869,42.789a.105.105,0,0,1,.077-.034l.025,0a.106.106,0,0,1,.082.068L44.7,44.4a.593.593,0,0,1-.13.646Zm-2.024-3.332L30.2,54.055,26.63,50.486,38.974,38.143Zm-21.8,1.439a1.069,1.069,0,0,1-.761-.315h0l-.2-.2a1.078,1.078,0,0,1,0-1.522L29.6,31.3a1.078,1.078,0,0,1,1.522,0l.2.2a1.077,1.077,0,0,1,0,1.522l-9.816,9.816a1.07,1.07,0,0,1-.761.315Zm3.86,4,6.069-6.069a.85.85,0,0,0-1.2-1.2l-4.435,4.435-1.3-1.3L31.5,35.246l1.3,1.3-.495.495a.85.85,0,0,0,1.2,1.2l2.129-2.129a.593.593,0,0,1,.646-.13l1.572.643a.113.113,0,0,1,.037.185L25.3,49.408a.113.113,0,0,1-.185-.037L24.476,47.8a.593.593,0,0,1,.13-.646ZM19.213,57.409a1.056,1.056,0,0,1,1.491,0l2.572,2.573a1.054,1.054,0,0,1-1.491,1.491L19.212,58.9A1.056,1.056,0,0,1,19.213,57.409Z" transform="translate(0 -29.285)"/>
          <path id="Trazado_1181135" data-name="Trazado 1181135" d="M213.135,378.176a7.211,7.211,0,0,0-5-4.029v-1a2.08,2.08,0,0,0-2.078-2.078H191.487a.85.85,0,1,0,0,1.7h14.566a.378.378,0,0,1,.377.377v.838h-21.7v-.838a.378.378,0,0,1,.377-.377h2.366a.85.85,0,0,0,0-1.7H185.11a2.08,2.08,0,0,0-2.078,2.078v1a7.211,7.211,0,0,0-5,4.029l-1.192,2.6a2.078,2.078,0,0,0,1.889,2.943h33.712a2.078,2.078,0,0,0,1.889-2.943Zm-.38,3.671a.367.367,0,0,1-.318.173H178.725a.377.377,0,0,1-.343-.534l1.192-2.6a5.5,5.5,0,0,1,4.99-3.2H206.6a5.5,5.5,0,0,1,4.99,3.2l1.192,2.6A.367.367,0,0,1,212.755,381.847Z" transform="translate(-156.622 -332.321)"/>
          <path id="Trazado_1181136" data-name="Trazado 1181136" d="M469.962,340.182a.848.848,0,0,0,.6-.247l.92-.915a.85.85,0,0,0-1.2-1.206l-.92.915a.85.85,0,0,0,.6,1.453Z" transform="translate(-415.935 -302.621)"/>
          <path id="Trazado_1181137" data-name="Trazado 1181137" d="M445.781,318.277l-.319,1.272a.85.85,0,1,0,1.649.414l.319-1.272a.85.85,0,0,0-1.649-.414Z" transform="translate(-394.942 -284.947)"/>
          <path id="Trazado_1181138" data-name="Trazado 1181138" d="M485.78,368.012a.849.849,0,0,0,1.028.624l1.275-.312a.85.85,0,1,0-.4-1.652l-1.274.312A.85.85,0,0,0,485.78,368.012Z" transform="translate(-430.691 -328.406)"/>
        </g>
      </g>
    </g>
  </g>
</svg>
