<svg xmlns="http://www.w3.org/2000/svg" xmlns:xlink="http://www.w3.org/1999/xlink" width="113" height="113" viewBox="0 0 113 113">
  <defs>
    <filter id="Trazado_982547" x="0" y="0" width="113" height="113" filterUnits="userSpaceOnUse">
      <feOffset dy="3" input="SourceAlpha"/>
      <feGaussianBlur stdDeviation="3" result="blur"/>
      <feFlood flood-opacity="0.161"/>
      <feComposite operator="in" in2="blur"/>
      <feComposite in="SourceGraphic"/>
    </filter>
  </defs>
  <g id="Grupo_1230343" data-name="Grupo 1230343" transform="translate(-375.51 -5785.251)">
    <g id="Grupo_1224583" data-name="Grupo 1224583" transform="translate(384.51 5791.251)">
      <g id="Grupo_1224455" data-name="Grupo 1224455" transform="translate(0 0)">
        <g id="Grupo_1224084" data-name="Grupo 1224084">
          <g id="Grupo_1223183" data-name="Grupo 1223183">
            <g id="Grupo_1211217" data-name="Grupo 1211217">
              <g id="Grupo_1210736" data-name="Grupo 1210736">
                <g id="Grupo_1210537" data-name="Grupo 1210537">
                  <g id="Grupo_1164202" data-name="Grupo 1164202">
                    <g id="Grupo_1158168" data-name="Grupo 1158168">
                      <g id="Grupo_1152576" data-name="Grupo 1152576">
                        <g id="Grupo_1148633" data-name="Grupo 1148633">
                          <g id="Grupo_1148525" data-name="Grupo 1148525">
                            <g transform="matrix(1, 0, 0, 1, -9, -6)" filter="url(#Trazado_982547)">
                              <g id="Trazado_982547-2" data-name="Trazado 982547" transform="translate(9 6)" fill="#fcf5f0">
                                <path d="M 47.49999618530273 93.5 C 41.28936767578125 93.5 35.26533126831055 92.28396606445312 29.59518241882324 89.88570404052734 C 24.11771583557129 87.56893157958984 19.19812965393066 84.251953125 14.97308921813965 80.02690124511719 C 10.74803638458252 75.80186462402344 7.431062698364258 70.88227844238281 5.114289283752441 65.40480804443359 C 2.716022968292236 59.73466110229492 1.499996185302734 53.71062469482422 1.499996185302734 47.49999618530273 C 1.499996185302734 41.28936767578125 2.716022968292236 35.26533126831055 5.114289283752441 29.59518241882324 C 7.431062698364258 24.11771583557129 10.74803638458252 19.19812965393066 14.97308921813965 14.97308921813965 C 19.19812965393066 10.74803638458252 24.11771583557129 7.431062698364258 29.59518241882324 5.114289283752441 C 35.26533126831055 2.716022968292236 41.28936767578125 1.499996185302734 47.49999618530273 1.499996185302734 C 53.71062469482422 1.499996185302734 59.73466110229492 2.716022968292236 65.40480804443359 5.114289283752441 C 70.88227844238281 7.431062698364258 75.80186462402344 10.74803638458252 80.02690124511719 14.97308921813965 C 84.251953125 19.19812965393066 87.56893157958984 24.11771583557129 89.88570404052734 29.59518241882324 C 92.28396606445312 35.26533126831055 93.5 41.28936767578125 93.5 47.49999618530273 C 93.5 53.71062469482422 92.28396606445312 59.73466110229492 89.88570404052734 65.40480804443359 C 87.56893157958984 70.88227844238281 84.251953125 75.80186462402344 80.02690124511719 80.02690124511719 C 75.80186462402344 84.251953125 70.88227844238281 87.56893157958984 65.40480804443359 89.88570404052734 C 59.73466110229492 92.28396606445312 53.71062469482422 93.5 47.49999618530273 93.5 Z" stroke="none"/>
                                <path d="M 47.49999618530273 2.999992370605469 C 41.4912109375 2.999992370605469 35.66376495361328 4.1761474609375 30.17950439453125 6.495796203613281 C 24.88084411621094 8.736953735351562 20.12152099609375 11.94598388671875 16.03375244140625 16.03375244140625 C 11.94598388671875 20.12152099609375 8.736953735351562 24.88084411621094 6.495796203613281 30.17950439453125 C 4.1761474609375 35.66376495361328 2.999992370605469 41.4912109375 2.999992370605469 47.49999618530273 C 2.999992370605469 53.50878143310547 4.1761474609375 59.33622741699219 6.495796203613281 64.82048797607422 C 8.736953735351562 70.11914825439453 11.94598388671875 74.87847137451172 16.03375244140625 78.96623992919922 C 20.12152099609375 83.05400848388672 24.88084411621094 86.26304626464844 30.17950439453125 88.50419616699219 C 35.66376495361328 90.82384490966797 41.4912109375 92 47.49999618530273 92 C 53.50878143310547 92 59.33622741699219 90.82384490966797 64.82048797607422 88.50419616699219 C 70.11914825439453 86.26304626464844 74.87847137451172 83.05400848388672 78.96623992919922 78.96623992919922 C 83.05400848388672 74.87847137451172 86.26304626464844 70.11914825439453 88.50419616699219 64.82048797607422 C 90.82384490966797 59.33622741699219 92 53.50878143310547 92 47.49999618530273 C 92 41.4912109375 90.82384490966797 35.66376495361328 88.50419616699219 30.17950439453125 C 86.26304626464844 24.88084411621094 83.05400848388672 20.12152099609375 78.96623992919922 16.03375244140625 C 74.87847137451172 11.94598388671875 70.11914825439453 8.736953735351562 64.82048797607422 6.495796203613281 C 59.33622741699219 4.1761474609375 53.50878143310547 2.999992370605469 47.49999618530273 2.999992370605469 M 47.49999618530273 -7.62939453125e-06 C 73.7335205078125 -7.62939453125e-06 95 21.26647186279297 95 47.49999618530273 C 95 73.7335205078125 73.7335205078125 95 47.49999618530273 95 C 21.26647186279297 95 -7.62939453125e-06 73.7335205078125 -7.62939453125e-06 47.49999618530273 C -7.62939453125e-06 21.26647186279297 21.26647186279297 -7.62939453125e-06 47.49999618530273 -7.62939453125e-06 Z" stroke="none" fill="#eca675"/>
                              </g>
                            </g>
                          </g>
                        </g>
                      </g>
                    </g>
                  </g>
                </g>
              </g>
            </g>
          </g>
        </g>
      </g>
    </g>
    <g id="deposition_10295690" transform="translate(393.114 5770.7)">
      <g id="Grupo_1230342" data-name="Grupo 1230342" transform="translate(7.5 36.803)">
        <g id="Grupo_1230330" data-name="Grupo 1230330" transform="translate(3.064 15.327)">
          <path id="Trazado_1181139" data-name="Trazado 1181139" d="M449.585,300.011h3.851V291.25a1.9,1.9,0,0,0-1.9-1.9h-1.983a3.566,3.566,0,0,1,.027.414v10.242Z" transform="translate(-396.772 -272.774)" fill="#d8aa5e"/>
          <path id="Trazado_1181140" data-name="Trazado 1181140" d="M450.594,289.769v10.116h3.725V291.25a1.9,1.9,0,0,0-1.9-1.9h-1.855A3.768,3.768,0,0,1,450.594,289.769Z" transform="translate(-397.654 -272.775)" fill="none" stroke="#000" stroke-linecap="round" stroke-linejoin="round" stroke-miterlimit="10" stroke-width="1.2"/>
          <g id="Grupo_1230325" data-name="Grupo 1230325" transform="translate(32.154)">
            <g id="Grupo_1230324" data-name="Grupo 1230324">
              <path id="Trazado_1181141" data-name="Trazado 1181141" d="M304.6,253.285l-4.458-1.669a6.344,6.344,0,0,1-7,0l-4.2,1.571a6.7,6.7,0,0,1-2.7,7.1v.259l4.5,1.685a3.8,3.8,0,0,1,2.453,3.155l.013.112h.329a1.77,1.77,0,0,1,1.753,1.542h11.737V256.8A3.751,3.751,0,0,0,304.6,253.285Z" transform="translate(-286.25 -239.803)" fill="#0067c5"/>
              <g id="Grupo_1230323" data-name="Grupo 1230323" transform="translate(10.299 11.813)">
                <path id="Trazado_1181142" data-name="Trazado 1181142" d="M375.819,253.285l-4.458-1.669a6.324,6.324,0,0,1-3.5,1.052l-.094,0,5.174,2.309a3.751,3.751,0,0,1,2.436,3.513v8.551h2.877V256.8A3.751,3.751,0,0,0,375.819,253.285Z" transform="translate(-367.768 -251.616)" fill="#0055a3"/>
              </g>
              <path id="Trazado_1181143" data-name="Trazado 1181143" d="M404.227,267.336V257.221a3.751,3.751,0,0,0-2.436-3.513L397.5,252.1" transform="translate(-383.441 -240.226)" fill="none" stroke="#000" stroke-linecap="round" stroke-linejoin="round" stroke-miterlimit="10" stroke-width="1.2"/>
              <line id="Línea_3743" data-name="Línea 3743" x1="3.913" y2="1.465" transform="translate(2.818 11.874)" fill="none" stroke="#000" stroke-linecap="round" stroke-linejoin="round" stroke-miterlimit="10" stroke-width="1.2"/>
              <circle id="Elipse_14783" data-name="Elipse 14783" cx="6.502" cy="6.502" r="6.502" transform="translate(3.891)" fill="#c96e59"/>
              <path id="Trazado_1181144" data-name="Trazado 1181144" d="M354.947,158.119a6.494,6.494,0,0,0-1.961.3,6.5,6.5,0,0,1,0,12.4,6.5,6.5,0,1,0,1.961-12.7Z" transform="translate(-344.555 -158.119)" fill="#bb5d4c"/>
              <path id="Trazado_1181145" data-name="Trazado 1181145" d="M323.885,158.119a6.5,6.5,0,0,0-6.453,5.72h6.113a.632.632,0,0,0,.486-.229l.981-1.184a.379.379,0,0,1,.584,0l.981,1.184a.632.632,0,0,0,.486.229h3.275A6.5,6.5,0,0,0,323.885,158.119Z" transform="translate(-313.492 -158.119)" fill="#554e56"/>
              <path id="Trazado_1181146" data-name="Trazado 1181146" d="M354.947,158.119a6.494,6.494,0,0,0-1.961.3,6.512,6.512,0,0,1,4.409,4.895l.245.3a.632.632,0,0,0,.486.229H361.4A6.5,6.5,0,0,0,354.947,158.119Z" transform="translate(-344.555 -158.119)" fill="#433f43"/>
              <circle id="Elipse_14784" data-name="Elipse 14784" cx="6.502" cy="6.502" r="6.502" transform="translate(3.891)" fill="none" stroke="#000" stroke-linecap="round" stroke-linejoin="round" stroke-miterlimit="10" stroke-width="1.2"/>
            </g>
          </g>
          <g id="Grupo_1230329" data-name="Grupo 1230329">
            <path id="Trazado_1181147" data-name="Trazado 1181147" d="M35.6,300.011V289.769a3.568,3.568,0,0,1,.027-.414H33.645a1.9,1.9,0,0,0-1.9,1.9v8.761H35.6Z" transform="translate(-31.75 -272.775)" fill="#d8aa5e"/>
            <path id="Trazado_1181148" data-name="Trazado 1181148" d="M35.475,299.885V289.769a3.742,3.742,0,0,1,.026-.414H33.645a1.9,1.9,0,0,0-1.9,1.9v8.634h3.725Z" transform="translate(-31.75 -272.775)" fill="none" stroke="#000" stroke-linecap="round" stroke-linejoin="round" stroke-miterlimit="10" stroke-width="1.2"/>
            <g id="Grupo_1230328" data-name="Grupo 1230328" transform="translate(3.725)">
              <g id="Grupo_1230327" data-name="Grupo 1230327">
                <path id="Trazado_1181149" data-name="Trazado 1181149" d="M75.035,265.807a3.835,3.835,0,0,1,2.479-3.576l4.5-1.685v-.259a6.7,6.7,0,0,1-2.7-7.1l-4.2-1.571a6.344,6.344,0,0,1-7,0l-4.458,1.669A3.751,3.751,0,0,0,61.23,256.8V267.04H75.035Z" transform="translate(-61.23 -239.803)" fill="#0067c5"/>
                <g id="Grupo_1230326" data-name="Grupo 1230326" transform="translate(10.276 11.813)">
                  <path id="Trazado_1181150" data-name="Trazado 1181150" d="M150.186,254.773a6.7,6.7,0,0,1,.191-1.586l-4.2-1.571a6.324,6.324,0,0,1-3.5,1.052l-.117,0,3.244,1.415a3.751,3.751,0,0,1,2.436,3.513v4.781c.107-.052.216-.1.329-.144l4.5-1.685v-.259A6.71,6.71,0,0,1,150.186,254.773Z" transform="translate(-142.565 -251.616)" fill="#0055a3"/>
                </g>
                <line id="Línea_3744" data-name="Línea 3744" x1="3.913" y1="1.465" transform="translate(14.055 11.874)" fill="none" stroke="#000" stroke-linecap="round" stroke-linejoin="round" stroke-miterlimit="10" stroke-width="1.2"/>
                <path id="Trazado_1181151" data-name="Trazado 1181151" d="M67.961,252.1l-4.295,1.608a3.751,3.751,0,0,0-2.436,3.513v10.116" transform="translate(-61.23 -240.226)" fill="none" stroke="#000" stroke-linecap="round" stroke-linejoin="round" stroke-miterlimit="10" stroke-width="1.2"/>
                <circle id="Elipse_14785" data-name="Elipse 14785" cx="6.502" cy="6.502" r="6.502" transform="translate(3.891)" fill="#ffcebf"/>
                <path id="Trazado_1181152" data-name="Trazado 1181152" d="M129.935,158.119a6.5,6.5,0,0,0-1.96.3,6.5,6.5,0,0,1,0,12.4,6.5,6.5,0,1,0,1.96-12.7Z" transform="translate(-119.542 -158.119)" fill="#ffb09e"/>
                <path id="Trazado_1181153" data-name="Trazado 1181153" d="M92.12,164.248a6.5,6.5,0,0,0,9.745-5.253,6.5,6.5,0,0,0-9.745,5.253Z" transform="translate(-88.217 -158.12)" fill="#d8aa5e"/>
                <path id="Trazado_1181154" data-name="Trazado 1181154" d="M129.935,158.119a6.5,6.5,0,0,0-1.96.3,6.519,6.519,0,0,1,4.1,3.849,6.466,6.466,0,0,0,1.112-3.277A6.469,6.469,0,0,0,129.935,158.119Z" transform="translate(-119.542 -158.119)" fill="#c99c56"/>
                <path id="Trazado_1181155" data-name="Trazado 1181155" d="M153.051,169.409a6.483,6.483,0,0,0,2.047-4.371" transform="translate(-141.45 -164.164)" fill="none" stroke="#000" stroke-linecap="round" stroke-linejoin="round" stroke-miterlimit="10" stroke-width="1.2"/>
                <path id="Trazado_1181156" data-name="Trazado 1181156" d="M92.12,206.62a6.469,6.469,0,0,0,3.255.874c.127,0,.253,0,.378-.012" transform="translate(-88.217 -200.492)" fill="none" stroke="#000" stroke-linecap="round" stroke-linejoin="round" stroke-miterlimit="10" stroke-width="1.2"/>
                <circle id="Elipse_14786" data-name="Elipse 14786" cx="6.502" cy="6.502" r="6.502" transform="translate(3.891)" fill="none" stroke="#000" stroke-linecap="round" stroke-linejoin="round" stroke-miterlimit="10" stroke-width="1.2"/>
              </g>
            </g>
          </g>
        </g>
        <g id="Grupo_1230331" data-name="Grupo 1230331" transform="translate(2.085 47.68)">
          <path id="Trazado_1181157" data-name="Trazado 1181157" d="M42.509,414.2H24v7.075a.632.632,0,0,0,.632.632H42.509Z" transform="translate(-24 -414.197)" fill="#a44f3e"/>
          <rect id="Rectángulo_423287" data-name="Rectángulo 423287" width="4.359" height="7.707" transform="translate(14.15)" fill="#883f2e"/>
          <path id="Trazado_1181158" data-name="Trazado 1181158" d="M24,415.2v6.949a.632.632,0,0,0,.632.632H42.383" transform="translate(-24 -415.071)" fill="none" stroke="#000" stroke-linecap="round" stroke-linejoin="round" stroke-miterlimit="10" stroke-width="1.2"/>
          <path id="Trazado_1181159" data-name="Trazado 1181159" d="M358,414.2V421.9h15.793a.632.632,0,0,0,.632-.632V414.2Z" transform="translate(-315.802 -414.197)" fill="#a44f3e"/>
          <path id="Trazado_1181160" data-name="Trazado 1181160" d="M443.632,414.2v7.075a.632.632,0,0,1-.632.632h5.054a.632.632,0,0,0,.632-.632V414.2Z" transform="translate(-390.063 -414.197)" fill="#883f2e"/>
          <path id="Trazado_1181161" data-name="Trazado 1181161" d="M367.97,422.777h6.7a.632.632,0,0,0,.632-.632V415.2H359v7.58h4.548" transform="translate(-316.676 -415.071)" fill="none" stroke="#000" stroke-linecap="round" stroke-linejoin="round" stroke-miterlimit="10" stroke-width="1.2"/>
        </g>
        <g id="Grupo_1230332" data-name="Grupo 1230332" transform="translate(0 42.437)">
          <path id="Trazado_1181162" data-name="Trazado 1181162" d="M28.094,372.7H8.132a.632.632,0,0,0-.632.632v4.106a.632.632,0,0,0,.632.632H28.094Z" transform="translate(-7.5 -372.697)" fill="#c96e59"/>
          <rect id="Rectángulo_423288" data-name="Rectángulo 423288" width="4.359" height="5.37" transform="translate(16.235)" fill="#bb5d4c"/>
          <path id="Trazado_1181163" data-name="Trazado 1181163" d="M27.967,372.7H8.132a.632.632,0,0,0-.632.632v4.106a.632.632,0,0,0,.632.632H27.967Z" transform="translate(-7.5 -372.697)" fill="none" stroke="#000" stroke-linecap="round" stroke-linejoin="round" stroke-miterlimit="10" stroke-width="1.2"/>
          <path id="Trazado_1181164" data-name="Trazado 1181164" d="M375.632,372.7H357.719a1.768,1.768,0,0,1,.036.353v5.016h17.877a.632.632,0,0,0,.632-.632v-4.106A.632.632,0,0,0,375.632,372.7Z" transform="translate(-313.472 -372.697)" fill="#c96e59"/>
          <path id="Trazado_1181165" data-name="Trazado 1181165" d="M463.052,372.7h-5.271a.632.632,0,0,1,.632.632v4.106a.632.632,0,0,1-.632.632h5.271a.632.632,0,0,0,.632-.632v-4.106A.632.632,0,0,0,463.052,372.7Z" transform="translate(-400.892 -372.697)" fill="#bb5d4c"/>
          <path id="Trazado_1181166" data-name="Trazado 1181166" d="M358.764,378.066h17.751a.632.632,0,0,0,.632-.632v-4.106a.632.632,0,0,0-.632-.632H358.73" transform="translate(-314.355 -372.697)" fill="none" stroke="#000" stroke-linecap="round" stroke-linejoin="round" stroke-miterlimit="10" stroke-width="1.2"/>
        </g>
        <g id="Grupo_1230337" data-name="Grupo 1230337" transform="translate(20.467 23.46)">
          <g id="Grupo_1230336" data-name="Grupo 1230336">
            <g id="Grupo_1230335" data-name="Grupo 1230335">
              <g id="Grupo_1230334" data-name="Grupo 1230334">
                <path id="Trazado_1181167" data-name="Trazado 1181167" d="M174.869,327.717a1.771,1.771,0,0,1,1.769-1.769h14.707a3.944,3.944,0,0,0-2.549-3.385l-4.688-1.755a6.672,6.672,0,0,1-7.359,0l-4.688,1.755a3.944,3.944,0,0,0-2.561,3.694v14.057h5.37Z" transform="translate(-169.499 -308.387)" fill="#528fd8"/>
                <g id="Grupo_1230333" data-name="Grupo 1230333" transform="translate(12.061 12.421)">
                  <path id="Trazado_1181168" data-name="Trazado 1181168" d="M272.2,322.563l-4.688-1.755a6.657,6.657,0,0,1-2.547,1.009l1.992.746a3.944,3.944,0,0,1,2.549,3.385h5.243A3.944,3.944,0,0,0,272.2,322.563Z" transform="translate(-264.96 -320.808)" fill="#0573ce"/>
                </g>
                <path id="Trazado_1181169" data-name="Trazado 1181169" d="M293.532,326.266A3.943,3.943,0,0,0,291,323.008l-4.516-1.691" transform="translate(-271.701 -308.831)" fill="none" stroke="#000" stroke-linecap="round" stroke-linejoin="round" stroke-miterlimit="10" stroke-width="1.2"/>
                <path id="Trazado_1181170" data-name="Trazado 1181170" d="M176.578,321.317l-4.516,1.691A3.944,3.944,0,0,0,169.5,326.7v14.057h5.243" transform="translate(-169.5 -308.831)" fill="none" stroke="#000" stroke-linecap="round" stroke-linejoin="round" stroke-miterlimit="10" stroke-width="1.2"/>
                <circle id="Elipse_14787" data-name="Elipse 14787" cx="6.837" cy="6.837" r="6.837" transform="translate(4.092)" fill="#b9acac"/>
                <path id="Trazado_1181171" data-name="Trazado 1181171" d="M242.408,222.492a6.835,6.835,0,0,0-1.965.288,6.837,6.837,0,0,1,0,13.1,6.837,6.837,0,1,0,1.965-13.385Z" transform="translate(-231.48 -222.492)" fill="#9e9797"/>
                <circle id="Elipse_14788" data-name="Elipse 14788" cx="6.837" cy="6.837" r="6.837" transform="translate(4.092)" fill="none" stroke="#000" stroke-linecap="round" stroke-linejoin="round" stroke-miterlimit="10" stroke-width="1.2"/>
              </g>
            </g>
            <path id="Trazado_1181172" data-name="Trazado 1181172" d="M229.7,374.984v-12.6a1.9,1.9,0,0,0-1.9-1.9H212.9a1.9,1.9,0,0,0-1.9,1.9v12.6Z" transform="translate(-205.757 -343.057)" fill="#d8aa5e"/>
            <path id="Trazado_1181173" data-name="Trazado 1181173" d="M309.054,360.492H304a1.9,1.9,0,0,1,1.9,1.9v12.6h5.054v-12.6A1.9,1.9,0,0,0,309.054,360.492Z" transform="translate(-287.007 -343.057)" fill="#c99c56"/>
            <path id="Trazado_1181174" data-name="Trazado 1181174" d="M211,369.905v5.079h18.7v-12.6a1.9,1.9,0,0,0-1.9-1.9H212.9a1.9,1.9,0,0,0-1.9,1.9v3.1" transform="translate(-205.757 -343.057)" fill="none" stroke="#000" stroke-linecap="round" stroke-linejoin="round" stroke-miterlimit="10" stroke-width="1.2"/>
          </g>
        </g>
        <g id="Grupo_1230341" data-name="Grupo 1230341" transform="translate(21.159 0)">
          <line id="Línea_3745" data-name="Línea 3745" x2="15.465" transform="translate(2.504 0.968)" fill="none" stroke="#000" stroke-linecap="round" stroke-linejoin="round" stroke-miterlimit="10" stroke-width="1.2"/>
          <g id="Grupo_1230340" data-name="Grupo 1230340" transform="translate(0 0.968)">
            <g id="Grupo_1230338" data-name="Grupo 1230338">
              <path id="Trazado_1181175" data-name="Trazado 1181175" d="M186.135,50.368l-2.6-5.9-2.6,5.9Z" transform="translate(-180.189 -44.468)" fill="none" stroke="#000" stroke-linecap="round" stroke-linejoin="round" stroke-miterlimit="10" stroke-width="1.2"/>
              <path id="Trazado_1181176" data-name="Trazado 1181176" d="M175.355,91.163a.38.38,0,0,0-.377.427,3.374,3.374,0,0,0,6.694,0,.38.38,0,0,0-.377-.427Z" transform="translate(-174.975 -85.263)" fill="#d8aa5e"/>
              <path id="Trazado_1181177" data-name="Trazado 1181177" d="M195.3,91.163h-2.65a.38.38,0,0,1,.377.427A3.377,3.377,0,0,1,191,94.266a3.375,3.375,0,0,0,4.672-2.676A.38.38,0,0,0,195.3,91.163Z" transform="translate(-188.977 -85.263)" fill="#c99c56"/>
            </g>
            <g id="Grupo_1230339" data-name="Grupo 1230339">
              <path id="Trazado_1181178" data-name="Trazado 1181178" d="M295.155,50.368l-2.6-5.9-2.6,5.9Z" transform="translate(-275.435 -44.468)" fill="none" stroke="#000" stroke-linecap="round" stroke-linejoin="round" stroke-miterlimit="10" stroke-width="1.2"/>
              <path id="Trazado_1181179" data-name="Trazado 1181179" d="M284.375,91.163a.38.38,0,0,0-.377.427,3.374,3.374,0,0,0,6.694,0,.38.38,0,0,0-.377-.427Z" transform="translate(-270.221 -85.263)" fill="#d8aa5e"/>
              <path id="Trazado_1181180" data-name="Trazado 1181180" d="M304.308,91.163h-2.653a.38.38,0,0,1,.377.427,3.377,3.377,0,0,1-2.021,2.675,3.375,3.375,0,0,0,4.673-2.675A.38.38,0,0,0,304.308,91.163Z" transform="translate(-284.215 -85.263)" fill="#c99c56"/>
              <path id="Trazado_1181181" data-name="Trazado 1181181" d="M175.355,91.163a.38.38,0,0,0-.377.427,3.374,3.374,0,0,0,6.694,0,.38.38,0,0,0-.377-.427Z" transform="translate(-174.975 -85.263)" fill="none" stroke="#000" stroke-linecap="round" stroke-linejoin="round" stroke-miterlimit="10" stroke-width="1.2"/>
              <path id="Trazado_1181182" data-name="Trazado 1181182" d="M284.375,91.163a.38.38,0,0,0-.377.427,3.374,3.374,0,0,0,6.694,0,.38.38,0,0,0-.377-.427Z" transform="translate(-270.221 -85.263)" fill="none" stroke="#000" stroke-linecap="round" stroke-linejoin="round" stroke-miterlimit="10" stroke-width="1.2"/>
            </g>
          </g>
          <line id="Línea_3746" data-name="Línea 3746" y2="13.559" transform="translate(10.237)" fill="none" stroke="#000" stroke-linecap="round" stroke-linejoin="round" stroke-miterlimit="10" stroke-width="1.2"/>
          <line id="Línea_3747" data-name="Línea 3747" x2="8.178" transform="translate(6.148 13.559)" fill="none" stroke="#000" stroke-linecap="round" stroke-linejoin="round" stroke-miterlimit="10" stroke-width="1.2"/>
        </g>
        <line id="Línea_3748" data-name="Línea 3748" y1="2.195" transform="translate(31.396 21.265)" fill="none" stroke="#000" stroke-linecap="round" stroke-linejoin="round" stroke-miterlimit="10" stroke-width="1.2"/>
        <line id="Línea_3749" data-name="Línea 3749" y1="1.263" transform="translate(31.396 16.843)" fill="none" stroke="#000" stroke-linecap="round" stroke-linejoin="round" stroke-miterlimit="10" stroke-width="1.2"/>
      </g>
      <path id="Trazado_1181183" data-name="Trazado 1181183" d="M317.432,192.684h6.113a.632.632,0,0,0,.486-.229l.981-1.184a.379.379,0,0,1,.584,0l.981,1.184a.632.632,0,0,0,.486.229h3.275" transform="translate(-270.775 -134.833)" fill="none" stroke="#000" stroke-linecap="round" stroke-linejoin="round" stroke-miterlimit="10" stroke-width="1.2"/>
    </g>
  </g>
</svg>
