<svg xmlns="http://www.w3.org/2000/svg" xmlns:xlink="http://www.w3.org/1999/xlink" width="113" height="113" viewBox="0 0 113 113">
  <defs>
    <filter id="Trazado_982547" x="0" y="0" width="113" height="113" filterUnits="userSpaceOnUse">
      <feOffset dy="3" input="SourceAlpha"/>
      <feGaussianBlur stdDeviation="3" result="blur"/>
      <feFlood flood-opacity="0.161"/>
      <feComposite operator="in" in2="blur"/>
      <feComposite in="SourceGraphic"/>
    </filter>
  </defs>
  <g id="Grupo_1230345" data-name="Grupo 1230345" transform="translate(-694.5 -5785.251)">
    <g id="Grupo_1224602" data-name="Grupo 1224602" transform="translate(703.5 5791.251)">
      <g id="Grupo_1224455" data-name="Grupo 1224455" transform="translate(0 0)">
        <g id="Grupo_1224084" data-name="Grupo 1224084">
          <g id="Grupo_1223183" data-name="Grupo 1223183">
            <g id="Grupo_1211217" data-name="Grupo 1211217">
              <g id="Grupo_1210736" data-name="Grupo 1210736">
                <g id="Grupo_1210537" data-name="Grupo 1210537">
                  <g id="Grupo_1164202" data-name="Grupo 1164202">
                    <g id="Grupo_1158168" data-name="Grupo 1158168">
                      <g id="Grupo_1152576" data-name="Grupo 1152576">
                        <g id="Grupo_1148633" data-name="Grupo 1148633">
                          <g id="Grupo_1148525" data-name="Grupo 1148525">
                            <g transform="matrix(1, 0, 0, 1, -9, -6)" filter="url(#Trazado_982547)">
                              <g id="Trazado_982547-2" data-name="Trazado 982547" transform="translate(9 6)" fill="#fcf5f0">
                                <path d="M 47.49999618530273 93.5 C 41.28936767578125 93.5 35.26533126831055 92.28396606445312 29.59518241882324 89.88570404052734 C 24.11771583557129 87.56893157958984 19.19812965393066 84.251953125 14.97308921813965 80.02690124511719 C 10.74803638458252 75.80186462402344 7.431062698364258 70.88227844238281 5.114289283752441 65.40480804443359 C 2.716022968292236 59.73466110229492 1.499996185302734 53.71062469482422 1.499996185302734 47.49999618530273 C 1.499996185302734 41.28936767578125 2.716022968292236 35.26533126831055 5.114289283752441 29.59518241882324 C 7.431062698364258 24.11771583557129 10.74803638458252 19.19812965393066 14.97308921813965 14.97308921813965 C 19.19812965393066 10.74803638458252 24.11771583557129 7.431062698364258 29.59518241882324 5.114289283752441 C 35.26533126831055 2.716022968292236 41.28936767578125 1.499996185302734 47.49999618530273 1.499996185302734 C 53.71062469482422 1.499996185302734 59.73466110229492 2.716022968292236 65.40480804443359 5.114289283752441 C 70.88227844238281 7.431062698364258 75.80186462402344 10.74803638458252 80.02690124511719 14.97308921813965 C 84.251953125 19.19812965393066 87.56893157958984 24.11771583557129 89.88570404052734 29.59518241882324 C 92.28396606445312 35.26533126831055 93.5 41.28936767578125 93.5 47.49999618530273 C 93.5 53.71062469482422 92.28396606445312 59.73466110229492 89.88570404052734 65.40480804443359 C 87.56893157958984 70.88227844238281 84.251953125 75.80186462402344 80.02690124511719 80.02690124511719 C 75.80186462402344 84.251953125 70.88227844238281 87.56893157958984 65.40480804443359 89.88570404052734 C 59.73466110229492 92.28396606445312 53.71062469482422 93.5 47.49999618530273 93.5 Z" stroke="none"/>
                                <path d="M 47.49999618530273 2.999992370605469 C 41.4912109375 2.999992370605469 35.66376495361328 4.1761474609375 30.17950439453125 6.495796203613281 C 24.88084411621094 8.736953735351562 20.12152099609375 11.94598388671875 16.03375244140625 16.03375244140625 C 11.94598388671875 20.12152099609375 8.736953735351562 24.88084411621094 6.495796203613281 30.17950439453125 C 4.1761474609375 35.66376495361328 2.999992370605469 41.4912109375 2.999992370605469 47.49999618530273 C 2.999992370605469 53.50878143310547 4.1761474609375 59.33622741699219 6.495796203613281 64.82048797607422 C 8.736953735351562 70.11914825439453 11.94598388671875 74.87847137451172 16.03375244140625 78.96623992919922 C 20.12152099609375 83.05400848388672 24.88084411621094 86.26304626464844 30.17950439453125 88.50419616699219 C 35.66376495361328 90.82384490966797 41.4912109375 92 47.49999618530273 92 C 53.50878143310547 92 59.33622741699219 90.82384490966797 64.82048797607422 88.50419616699219 C 70.11914825439453 86.26304626464844 74.87847137451172 83.05400848388672 78.96623992919922 78.96623992919922 C 83.05400848388672 74.87847137451172 86.26304626464844 70.11914825439453 88.50419616699219 64.82048797607422 C 90.82384490966797 59.33622741699219 92 53.50878143310547 92 47.49999618530273 C 92 41.4912109375 90.82384490966797 35.66376495361328 88.50419616699219 30.17950439453125 C 86.26304626464844 24.88084411621094 83.05400848388672 20.12152099609375 78.96623992919922 16.03375244140625 C 74.87847137451172 11.94598388671875 70.11914825439453 8.736953735351562 64.82048797607422 6.495796203613281 C 59.33622741699219 4.1761474609375 53.50878143310547 2.999992370605469 47.49999618530273 2.999992370605469 M 47.49999618530273 -7.62939453125e-06 C 73.7335205078125 -7.62939453125e-06 95 21.26647186279297 95 47.49999618530273 C 95 73.7335205078125 73.7335205078125 95 47.49999618530273 95 C 21.26647186279297 95 -7.62939453125e-06 73.7335205078125 -7.62939453125e-06 47.49999618530273 C -7.62939453125e-06 21.26647186279297 21.26647186279297 -7.62939453125e-06 47.49999618530273 -7.62939453125e-06 Z" stroke="none" fill="#eca675"/>
                              </g>
                            </g>
                          </g>
                        </g>
                      </g>
                    </g>
                  </g>
                </g>
              </g>
            </g>
          </g>
        </g>
      </g>
    </g>
    <g id="participation_17785609" transform="translate(695.589 5781.918)">
      <g id="Grupo_1230344" data-name="Grupo 1230344" transform="translate(27.26 36.468)">
        <path id="Trazado_1181184" data-name="Trazado 1181184" d="M355.868,160.4v-1.733a1.735,1.735,0,0,0-3.1-1.078v-2.124c0-2.044-3.373-2.076-3.373,0V157.2a1.735,1.735,0,0,0-3.1,1.082v5.6a2.105,2.105,0,0,0-1.9-2.247,2.221,2.221,0,0,0-1.974,2.313v6.9c0,4.685,1.393,7.971,4.474,9.488V182.6a2.614,2.614,0,0,0,2.733,2.46h3.542a2.614,2.614,0,0,0,2.733-2.46v-2.95a9.255,9.255,0,0,0,3.082-7.062V161.474C358.974,159.5,356.781,158.742,355.868,160.4Z" transform="translate(-302.674 -147.205)" fill="#de8383" fill-rule="evenodd"/>
        <path id="Trazado_1181185" data-name="Trazado 1181185" d="M360.55,374.7h11.535a1.018,1.018,0,0,1,1.016,1.016v3.03a1.018,1.018,0,0,1-1.016,1.016H360.55a1.019,1.019,0,0,1-1.02-1.016v-3.03A1.021,1.021,0,0,1,360.55,374.7Z" transform="translate(-317.586 -339.52)" fill="#fbb13c" fill-rule="evenodd"/>
        <path id="Trazado_1181186" data-name="Trazado 1181186" d="M47.678,231.208v-1.733a1.735,1.735,0,0,0-3.1-1.078v-2.124c0-2.044-3.377-2.076-3.377,0v1.735a1.736,1.736,0,0,0-3.1,1.082v5.6a2.1,2.1,0,0,0-1.9-2.247,2.22,2.22,0,0,0-1.97,2.313v6.9c0,4.685,1.389,7.971,4.47,9.488v2.259a2.619,2.619,0,0,0,2.733,2.464h3.546a2.619,2.619,0,0,0,2.733-2.464v-2.95A9.266,9.266,0,0,0,50.78,243.4V232.284c0-1.979-2.192-2.728-3.1-1.077Z" transform="translate(-34.22 -208.885)" fill="#de8383" fill-rule="evenodd"/>
        <path id="Trazado_1181187" data-name="Trazado 1181187" d="M52.366,445.51H63.9a1.021,1.021,0,0,1,1.02,1.016v3.03a1.025,1.025,0,0,1-1.02,1.02H52.366a1.021,1.021,0,0,1-1.016-1.02v-3.03A1.02,1.02,0,0,1,52.366,445.51Z" transform="translate(-49.141 -401.2)" fill="#d81159" fill-rule="evenodd"/>
        <path id="Trazado_1181188" data-name="Trazado 1181188" d="M373.85,413.96h9.883v8.168a.968.968,0,0,1-.964.964h-7.957a.966.966,0,0,1-.962-.964Z" transform="translate(-330.06 -373.718)" fill="#fbb13c" fill-rule="evenodd"/>
        <path id="Trazado_1181189" data-name="Trazado 1181189" d="M198.8,108.328v-1.733a1.736,1.736,0,0,0-3.1-1.078v-2.124c0-2.044-3.377-2.076-3.377,0v1.739a1.735,1.735,0,0,0-3.1,1.078v5.6a2.1,2.1,0,0,0-1.9-2.243,2.214,2.214,0,0,0-1.97,2.311v6.9c0,4.685,1.389,7.971,4.47,9.492v2.255a2.617,2.617,0,0,0,2.733,2.464h3.542a2.618,2.618,0,0,0,2.737-2.464v-2.951a9.264,9.264,0,0,0,3.078-7.058v-11.11c0-1.984-2.192-2.733-3.1-1.082Z" transform="translate(-165.855 -101.849)" fill="#de8383" fill-rule="evenodd"/>
        <path id="Trazado_1181190" data-name="Trazado 1181190" d="M203.46,322.63h11.535a1.022,1.022,0,0,1,1.02,1.02v3.026a1.025,1.025,0,0,1-1.02,1.02H203.46a1.025,1.025,0,0,1-1.02-1.02V323.65A1.022,1.022,0,0,1,203.46,322.63Z" transform="translate(-180.751 -294.164)" fill="#19cfba" fill-rule="evenodd"/>
        <path id="Trazado_1181191" data-name="Trazado 1181191" d="M216.741,361.92h9.883V376.7a.919.919,0,0,1-.914.914h-8.056a.919.919,0,0,1-.914-.914V361.92Z" transform="translate(-193.207 -328.388)" fill="#19cfba" fill-rule="evenodd"/>
      </g>
      <path id="Trazado_1181192" data-name="Trazado 1181192" d="M71.829,36.865a1.031,1.031,0,0,1,1.458-1.458L75.02,37.14l3.373-5.845a1.029,1.029,0,0,1,1.781,1.03l-4.006,6.941a1.029,1.029,0,0,1-1.659.277ZM57.271,27.092a1.033,1.033,0,0,1,1.462,1.458l-2.127,2.127L58.733,32.8a1.033,1.033,0,0,1-1.462,1.458l-2.124-2.127L53.02,34.263A1.031,1.031,0,0,1,51.562,32.8l2.124-2.127L51.562,28.55a1.031,1.031,0,0,1,1.458-1.458l2.127,2.127ZM31.564,45.33a1.033,1.033,0,0,1,1.458-1.462L34.755,45.6l3.37-5.837a1.027,1.027,0,1,1,1.781,1.022l-3.994,6.923a1.029,1.029,0,0,1-1.667.3ZM61.709,71.02V84.78a1.946,1.946,0,0,1-1.944,1.944H51.709a1.924,1.924,0,0,1-1.371-.574l0,0a1.953,1.953,0,0,1-.57-1.374V71.02a2.051,2.051,0,0,1-1.842-2.04V65.954a2.05,2.05,0,0,1,2.046-2.05h.215v-.4c-3.432-2.036-4.47-6-4.47-10.1V46.5c0-2.09,1.893-3.885,3.874-3.194V40.831a2.809,2.809,0,0,1,3.1-2.777c0-3.512,5.438-3.432,5.438-.04v.428a2.808,2.808,0,0,1,3.1,2.6,2.831,2.831,0,0,1,3.11,2.994v11.11a10.393,10.393,0,0,1-3.082,7.51v1.253H61.5a2.054,2.054,0,0,1,2.05,2.05v3.026a2.048,2.048,0,0,1-1.844,2.038Zm-9.879.01V84.659h7.817V71.03Zm.416-7.126H59.2V62.2a1.032,1.032,0,0,1,.438-.848,7.552,7.552,0,0,0,1.919-2.672,8.888,8.888,0,0,0,.719-3.542V44.029c0-.614-.395-1.089-.845-.924a.6.6,0,0,0-.2.153V50.8a1.03,1.03,0,1,1-2.06,0V41.215a.737.737,0,0,0-1.042-.661v8.728a1.03,1.03,0,1,1-2.06,0V38.014c0-.676-1.313-.709-1.313,0V48.62a1.032,1.032,0,0,1-2.064,0V40.17a.734.734,0,0,0-1.042.661V51.6a5.869,5.869,0,0,1,4.725,5.351,1.03,1.03,0,0,1-2.046.233,4.407,4.407,0,0,0-1.291-2.712,2.954,2.954,0,0,0-2.247-.851,1.031,1.031,0,0,1-1.2-1.016v-6.17c-.008-.936-.807-1.659-1.47-.881a1.467,1.467,0,0,0-.343.946v6.9c0,3.534.8,7.042,3.9,8.566a1.031,1.031,0,0,1,.574.924V63.9Zm9.246,2.062H49.984v3H61.492ZM81.963,77.733v7.146a2,2,0,0,1-2,2H72.015a2,2,0,0,1-2-2V77.733a2.056,2.056,0,0,1-1.845-2.04v-3.03a2.05,2.05,0,0,1,2.05-2.046h.215v-.406c-3.432-2.032-4.47-6-4.47-10.1v-6.9c0-2.09,1.89-3.885,3.874-3.2v-2.47a2.8,2.8,0,0,1,3.1-2.777c0-3.512,5.438-3.432,5.438-.04v.428a2.808,2.808,0,0,1,3.1,2.6,2.827,2.827,0,0,1,3.106,2.99v11.11a10.392,10.392,0,0,1-3.078,7.514v1.253h.245a2.05,2.05,0,0,1,2.05,2.046v3.03A2.054,2.054,0,0,1,81.963,77.733Zm-9.883.012v7.064H79.9V77.745Zm-41.592,2H30.7v-.4c-3.432-2.036-4.47-6-4.47-10.1v-6.9c0-2.09,1.893-3.885,3.874-3.194V56.675a2.8,2.8,0,0,1,3.1-2.777c0-3.512,5.438-3.432,5.438-.04v.428a2.808,2.808,0,0,1,3.1,2.6,2.831,2.831,0,0,1,3.11,2.994V70.982A10.4,10.4,0,0,1,41.774,78.5V79.75h.245a2.054,2.054,0,0,1,2.05,2.05v3.026a2.054,2.054,0,0,1-2.05,2.05H30.489a2.051,2.051,0,0,1-2.05-2.05V81.8A2.052,2.052,0,0,1,30.489,79.747Zm2.277,0h6.948V78.04a1.04,1.04,0,0,1,.438-.845,7.575,7.575,0,0,0,1.919-2.672,8.893,8.893,0,0,0,.719-3.546V59.871c0-.614-.395-1.09-.845-.924a.644.644,0,0,0-.2.15v7.548a1.03,1.03,0,0,1-2.06,0V57.057a.735.735,0,0,0-1.042-.661v8.728a1.03,1.03,0,1,1-2.06,0V53.856c0-.676-1.313-.713-1.313,0V64.462a1.032,1.032,0,0,1-2.064,0V56.008a.735.735,0,0,0-1.038.665V67.441a5.865,5.865,0,0,1,4.722,5.351,1.03,1.03,0,0,1-2.046.233,4.407,4.407,0,0,0-1.291-2.715,2.966,2.966,0,0,0-2.247-.848,1.031,1.031,0,0,1-1.2-1.02V62.275c0-.921-.8-1.67-1.47-.884a1.478,1.478,0,0,0-.343.95v6.9c0,3.534.8,7.04,3.9,8.566a1.031,1.031,0,0,1,.574.924h0v1.015Zm9.243,2.062H30.5v3H42.009ZM72.5,70.618h6.948V68.91a1.028,1.028,0,0,1,.442-.845,7.566,7.566,0,0,0,1.915-2.672,8.9,8.9,0,0,0,.723-3.546V50.738c0-.614-.395-1.09-.845-.924a.618.618,0,0,0-.2.153v7.548a1.03,1.03,0,1,1-2.06,0V47.929a.735.735,0,0,0-1.042-.661v8.724a1.032,1.032,0,1,1-2.064,0V44.726c0-.676-1.313-.713-1.313,0v10.6a1.03,1.03,0,1,1-2.06,0V46.879a.737.737,0,0,0-1.042.665V58.312a5.869,5.869,0,0,1,4.725,5.351,1.03,1.03,0,1,1-2.046.233,4.416,4.416,0,0,0-1.293-2.715,2.945,2.945,0,0,0-2.247-.848,1.03,1.03,0,0,1-1.2-1.02V53.147c-.008-.94-.807-1.663-1.472-.884a1.476,1.476,0,0,0-.34.95v6.9c0,3.534.8,7.04,3.893,8.566a1.025,1.025,0,0,1,.574.921h0v1.017Zm9.243,2.062h-11.5v3h11.5Z" transform="translate(0 0)"/>
    </g>
  </g>
</svg>
