<svg xmlns="http://www.w3.org/2000/svg" xmlns:xlink="http://www.w3.org/1999/xlink" width="113" height="113" viewBox="0 0 113 113">
  <defs>
    <filter id="Trazado_982547" x="0" y="0" width="113" height="113" filterUnits="userSpaceOnUse">
      <feOffset dy="3" input="SourceAlpha"/>
      <feGaussianBlur stdDeviation="3" result="blur"/>
      <feFlood flood-opacity="0.161"/>
      <feComposite operator="in" in2="blur"/>
      <feComposite in="SourceGraphic"/>
    </filter>
  </defs>
  <g id="Grupo_1230365" data-name="Grupo 1230365" transform="translate(-2072.96 -6226.251)">
    <g id="Grupo_1230347" data-name="Grupo 1230347" transform="translate(1258.47 -1622.5)">
      <g id="Grupo_1224455" data-name="Grupo 1224455" transform="translate(823.49 7854.751)">
        <g id="Grupo_1224084" data-name="Grupo 1224084" transform="translate(0 0)">
          <g id="Grupo_1223183" data-name="Grupo 1223183">
            <g id="Grupo_1211217" data-name="Grupo 1211217">
              <g id="Grupo_1210736" data-name="Grupo 1210736">
                <g id="Grupo_1210537" data-name="Grupo 1210537">
                  <g id="Grupo_1164202" data-name="Grupo 1164202">
                    <g id="Grupo_1158168" data-name="Grupo 1158168">
                      <g id="Grupo_1152576" data-name="Grupo 1152576">
                        <g id="Grupo_1148633" data-name="Grupo 1148633">
                          <g id="Grupo_1148525" data-name="Grupo 1148525">
                            <g transform="matrix(1, 0, 0, 1, -9, -6)" filter="url(#Trazado_982547)">
                              <g id="Trazado_982547-2" data-name="Trazado 982547" transform="translate(9 6)" fill="#fcf5f0">
                                <path d="M 47.49999618530273 93.5 C 41.28936767578125 93.5 35.26533126831055 92.28396606445312 29.59518241882324 89.88570404052734 C 24.11771583557129 87.56893157958984 19.19812965393066 84.251953125 14.97308921813965 80.02690124511719 C 10.74803638458252 75.80186462402344 7.431062698364258 70.88227844238281 5.114289283752441 65.40480804443359 C 2.716022968292236 59.73466110229492 1.499996185302734 53.71062469482422 1.499996185302734 47.49999618530273 C 1.499996185302734 41.28936767578125 2.716022968292236 35.26533126831055 5.114289283752441 29.59518241882324 C 7.431062698364258 24.11771583557129 10.74803638458252 19.19812965393066 14.97308921813965 14.97308921813965 C 19.19812965393066 10.74803638458252 24.11771583557129 7.431062698364258 29.59518241882324 5.114289283752441 C 35.26533126831055 2.716022968292236 41.28936767578125 1.499996185302734 47.49999618530273 1.499996185302734 C 53.71062469482422 1.499996185302734 59.73466110229492 2.716022968292236 65.40480804443359 5.114289283752441 C 70.88227844238281 7.431062698364258 75.80186462402344 10.74803638458252 80.02690124511719 14.97308921813965 C 84.251953125 19.19812965393066 87.56893157958984 24.11771583557129 89.88570404052734 29.59518241882324 C 92.28396606445312 35.26533126831055 93.5 41.28936767578125 93.5 47.49999618530273 C 93.5 53.71062469482422 92.28396606445312 59.73466110229492 89.88570404052734 65.40480804443359 C 87.56893157958984 70.88227844238281 84.251953125 75.80186462402344 80.02690124511719 80.02690124511719 C 75.80186462402344 84.251953125 70.88227844238281 87.56893157958984 65.40480804443359 89.88570404052734 C 59.73466110229492 92.28396606445312 53.71062469482422 93.5 47.49999618530273 93.5 Z" stroke="none"/>
                                <path d="M 47.49999618530273 2.999992370605469 C 41.4912109375 2.999992370605469 35.66376495361328 4.1761474609375 30.17950439453125 6.495796203613281 C 24.88084411621094 8.736953735351562 20.12152099609375 11.94598388671875 16.03375244140625 16.03375244140625 C 11.94598388671875 20.12152099609375 8.736953735351562 24.88084411621094 6.495796203613281 30.17950439453125 C 4.1761474609375 35.66376495361328 2.999992370605469 41.4912109375 2.999992370605469 47.49999618530273 C 2.999992370605469 53.50878143310547 4.1761474609375 59.33622741699219 6.495796203613281 64.82048797607422 C 8.736953735351562 70.11914825439453 11.94598388671875 74.87847137451172 16.03375244140625 78.96623992919922 C 20.12152099609375 83.05400848388672 24.88084411621094 86.26304626464844 30.17950439453125 88.50419616699219 C 35.66376495361328 90.82384490966797 41.4912109375 92 47.49999618530273 92 C 53.50878143310547 92 59.33622741699219 90.82384490966797 64.82048797607422 88.50419616699219 C 70.11914825439453 86.26304626464844 74.87847137451172 83.05400848388672 78.96623992919922 78.96623992919922 C 83.05400848388672 74.87847137451172 86.26304626464844 70.11914825439453 88.50419616699219 64.82048797607422 C 90.82384490966797 59.33622741699219 92 53.50878143310547 92 47.49999618530273 C 92 41.4912109375 90.82384490966797 35.66376495361328 88.50419616699219 30.17950439453125 C 86.26304626464844 24.88084411621094 83.05400848388672 20.12152099609375 78.96623992919922 16.03375244140625 C 74.87847137451172 11.94598388671875 70.11914825439453 8.736953735351562 64.82048797607422 6.495796203613281 C 59.33622741699219 4.1761474609375 53.50878143310547 2.999992370605469 47.49999618530273 2.999992370605469 M 47.49999618530273 -7.62939453125e-06 C 73.7335205078125 -7.62939453125e-06 95 21.26647186279297 95 47.49999618530273 C 95 73.7335205078125 73.7335205078125 95 47.49999618530273 95 C 21.26647186279297 95 -7.62939453125e-06 73.7335205078125 -7.62939453125e-06 47.49999618530273 C -7.62939453125e-06 21.26647186279297 21.26647186279297 -7.62939453125e-06 47.49999618530273 -7.62939453125e-06 Z" stroke="none" fill="#eca675"/>
                              </g>
                            </g>
                          </g>
                        </g>
                      </g>
                    </g>
                  </g>
                </g>
              </g>
            </g>
          </g>
        </g>
      </g>
    </g>
    <g id="protest_8499215" transform="translate(2092.418 6241.709)">
      <g id="Grupo_1230363" data-name="Grupo 1230363" transform="translate(34.393 40.728)">
        <rect id="Rectángulo_423294" data-name="Rectángulo 423294" width="5.298" height="25.856" fill="#435f73"/>
      </g>
      <rect id="Rectángulo_423295" data-name="Rectángulo 423295" width="3.692" height="11.081" transform="translate(53.655 55.503)" fill="#435f73"/>
      <rect id="Rectángulo_423296" data-name="Rectángulo 423296" width="3.692" height="11.081" transform="translate(16.737 55.503)" fill="#435f73"/>
      <rect id="Rectángulo_423297" data-name="Rectángulo 423297" width="22.165" height="22.176" transform="translate(7.5 33.333)" fill="#edf5ff"/>
      <rect id="Rectángulo_423298" data-name="Rectángulo 423298" width="3.566" height="22.176" transform="translate(7.5 33.333)" fill="#d0e4e7"/>
      <path id="Trazado_1181234" data-name="Trazado 1181234" d="M62.207,276.906l2.377-2.378a1.861,1.861,0,1,0-2.631-2.632l-2.377,2.378L57.2,271.9a1.861,1.861,0,1,0-2.631,2.632l2.377,2.378-2.377,2.378a1.861,1.861,0,1,0,2.631,2.632l2.377-2.378,2.377,2.378a1.861,1.861,0,1,0,2.631-2.632Z" transform="translate(-40.994 -232.484)" fill="#dd2a4d"/>
      <path id="Trazado_1181235" data-name="Trazado 1181235" d="M65.13,273.187a1.851,1.851,0,0,1-.543,1.339L62.21,276.9l2.377,2.378a1.861,1.861,0,1,1-2.631,2.632l-2.376-2.377L57.2,281.913a1.86,1.86,0,0,1-2.63-2.632L56.95,276.9l-2.377-2.377a1.86,1.86,0,0,1,2.63-2.632l2.377,2.377,1.846-1.847" transform="translate(-40.997 -232.482)" fill="none" stroke="#000" stroke-linecap="round" stroke-linejoin="round" stroke-miterlimit="10" stroke-width="1.2"/>
      <line id="Línea_3761" data-name="Línea 3761" x1="4.061" transform="translate(16.368 33.334)" fill="none" stroke="#000" stroke-linecap="round" stroke-linejoin="round" stroke-miterlimit="10" stroke-width="1.2"/>
      <path id="Trazado_1181236" data-name="Trazado 1181236" d="M29.666,232.178v14.8H7.5V224.807h4.982" transform="translate(0 -191.473)" fill="none" stroke="#000" stroke-linecap="round" stroke-linejoin="round" stroke-miterlimit="10" stroke-width="1.2"/>
      <rect id="Rectángulo_423299" data-name="Rectángulo 423299" width="33.227" height="33.204" transform="translate(20.429 7.501)" fill="#edf5ff"/>
      <rect id="Rectángulo_423300" data-name="Rectángulo 423300" width="3.566" height="33.204" transform="translate(20.429 7.501)" fill="#d0e4e7"/>
      <g id="Grupo_1230364" data-name="Grupo 1230364" transform="translate(34.393 40.728)">
        <path id="Trazado_1181237" data-name="Trazado 1181237" d="M239.015,298.741v14.118h-5.3V287h5.3v7.852" transform="translate(-233.716 -287.003)" fill="none" stroke="#000" stroke-linecap="round" stroke-linejoin="round" stroke-miterlimit="10" stroke-width="1.2"/>
      </g>
      <path id="Trazado_1181238" data-name="Trazado 1181238" d="M140.243,40.705H116.254V7.5h33.227V18.119" transform="translate(-95.825 0)" fill="none" stroke="#000" stroke-linecap="round" stroke-linejoin="round" stroke-miterlimit="10" stroke-width="1.2"/>
      <line id="Línea_3762" data-name="Línea 3762" y1="11.329" transform="translate(53.655 22.005)" fill="none" stroke="#000" stroke-linecap="round" stroke-linejoin="round" stroke-miterlimit="10" stroke-width="1.2"/>
      <path id="Trazado_1181239" data-name="Trazado 1181239" d="M173.912,53.947a11.081,11.081,0,1,0,11.076,11.081A11.078,11.078,0,0,0,173.912,53.947ZM166.5,65.028a7.413,7.413,0,0,1,11.171-6.393L167.522,68.789A7.384,7.384,0,0,1,166.5,65.028Zm7.412,7.416a7.375,7.375,0,0,1-3.759-1.023L180.3,61.267a7.418,7.418,0,0,1-6.389,11.176Z" transform="translate(-136.869 -40.925)" fill="#dd2a4d"/>
      <path id="Trazado_1181240" data-name="Trazado 1181240" d="M173.912,53.947a11.081,11.081,0,1,0,11.076,11.081A11.078,11.078,0,0,0,173.912,53.947ZM166.5,65.028a7.413,7.413,0,0,1,11.171-6.393L167.522,68.789A7.384,7.384,0,0,1,166.5,65.028Zm7.412,7.416a7.375,7.375,0,0,1-3.759-1.023L180.3,61.267a7.418,7.418,0,0,1-6.389,11.176Z" transform="translate(-136.869 -40.925)" fill="none" stroke="#000" stroke-linecap="round" stroke-linejoin="round" stroke-miterlimit="10" stroke-width="1.2"/>
      <rect id="Rectángulo_423301" data-name="Rectángulo 423301" width="3.692" height="11.081" transform="translate(53.655 55.503)" fill="none" stroke="#000" stroke-linecap="round" stroke-linejoin="round" stroke-miterlimit="10" stroke-width="1.2"/>
      <rect id="Rectángulo_423302" data-name="Rectángulo 423302" width="3.692" height="11.081" transform="translate(16.737 55.503)" fill="none" stroke="#000" stroke-linecap="round" stroke-linejoin="round" stroke-miterlimit="10" stroke-width="1.2"/>
      <rect id="Rectángulo_423303" data-name="Rectángulo 423303" width="22.165" height="22.176" transform="translate(44.419 33.333)" fill="#edf5ff"/>
      <rect id="Rectángulo_423304" data-name="Rectángulo 423304" width="3.566" height="22.176" transform="translate(44.419 33.333)" fill="#d0e4e7"/>
      <path id="Trazado_1181241" data-name="Trazado 1181241" d="M372.756,276.906l2.377-2.378A1.861,1.861,0,1,0,372.5,271.9l-2.377,2.378-2.377-2.378a1.861,1.861,0,1,0-2.631,2.632l2.376,2.378-2.376,2.378a1.861,1.861,0,1,0,2.631,2.632l2.377-2.378,2.377,2.378a1.861,1.861,0,1,0,2.631-2.632Z" transform="translate(-314.624 -232.484)" fill="#dd2a4d"/>
      <path id="Trazado_1181242" data-name="Trazado 1181242" d="M372.756,276.906l2.377-2.378A1.861,1.861,0,1,0,372.5,271.9l-2.377,2.378-2.377-2.378a1.861,1.861,0,1,0-2.631,2.632l2.376,2.378-2.376,2.378a1.861,1.861,0,1,0,2.631,2.632l2.377-2.378,2.377,2.378a1.861,1.861,0,1,0,2.631-2.632Z" transform="translate(-314.624 -232.484)" fill="none" stroke="#000" stroke-linecap="round" stroke-linejoin="round" stroke-miterlimit="10" stroke-width="1.2"/>
      <rect id="Rectángulo_423305" data-name="Rectángulo 423305" width="22.165" height="22.176" transform="translate(44.419 33.333)" fill="none" stroke="#000" stroke-linecap="round" stroke-linejoin="round" stroke-miterlimit="10" stroke-width="1.2"/>
    </g>
  </g>
</svg>
