<svg xmlns="http://www.w3.org/2000/svg" xmlns:xlink="http://www.w3.org/1999/xlink" width="103" height="103" viewBox="0 0 103 103">
  <defs>
    <filter id="Trazado_982547" x="0" y="0" width="103" height="103" filterUnits="userSpaceOnUse">
      <feOffset dy="3" input="SourceAlpha"/>
      <feGaussianBlur stdDeviation="3" result="blur"/>
      <feFlood flood-opacity="0.161"/>
      <feComposite operator="in" in2="blur"/>
      <feComposite in="SourceGraphic"/>
    </filter>
  </defs>
  <g id="Grupo_1230397" data-name="Grupo 1230397" transform="translate(-614.13 -8972.723)">
    <g id="Grupo_1224524" data-name="Grupo 1224524" transform="translate(0 3179.723)">
      <g id="Grupo_1224203" data-name="Grupo 1224203" transform="translate(0 5367)">
        <g id="Grupo_1224081" data-name="Grupo 1224081" transform="translate(420 -1582)">
          <g id="Grupo_1206686" data-name="Grupo 1206686" transform="translate(-2.87 300.583)">
            <g id="Grupo_1201889" data-name="Grupo 1201889" transform="translate(206 1713.417)">
              <g id="Grupo_1201680" data-name="Grupo 1201680">
                <g id="Grupo_1201330" data-name="Grupo 1201330">
                  <g id="Grupo_1172010" data-name="Grupo 1172010">
                    <g id="Grupo_1171046" data-name="Grupo 1171046">
                      <g id="Grupo_1148525" data-name="Grupo 1148525">
                        <g transform="matrix(1, 0, 0, 1, -9, -6)" filter="url(#Trazado_982547)">
                          <g id="Trazado_982547-2" data-name="Trazado 982547" transform="translate(9 6)" fill="#f2f4f0">
                            <path d="M 42.5 83.5 C 36.96437835693359 83.5 31.59512901306152 82.41617584228516 26.54141235351562 80.27863311767578 C 21.65934181213379 78.21369171142578 17.27447128295898 75.25723266601562 13.50862312316895 71.49137878417969 C 9.742764472961426 67.72553253173828 6.786305904388428 63.34066009521484 4.721364498138428 58.45858764648438 C 2.583823442459106 53.40486907958984 1.5 48.03562164306641 1.5 42.5 C 1.5 36.96437835693359 2.583823442459106 31.59512901306152 4.721364498138428 26.54141235351562 C 6.786305904388428 21.65934181213379 9.742764472961426 17.27448272705078 13.50862312316895 13.50862312316895 C 17.27447128295898 9.742776870727539 21.65934181213379 6.786305904388428 26.54141235351562 4.721364498138428 C 31.59512901306152 2.583823442459106 36.96437835693359 1.5 42.5 1.5 C 48.03562164306641 1.5 53.40486907958984 2.583823442459106 58.45858764648438 4.721364498138428 C 63.34066009521484 6.786305904388428 67.72553253173828 9.742776870727539 71.49137878417969 13.50862312316895 C 75.25723266601562 17.27448272705078 78.21369171142578 21.65934181213379 80.27863311767578 26.54141235351562 C 82.41617584228516 31.59512901306152 83.5 36.96437835693359 83.5 42.5 C 83.5 48.03562164306641 82.41617584228516 53.40486907958984 80.27863311767578 58.45858764648438 C 78.21369171142578 63.34066009521484 75.25723266601562 67.72553253173828 71.49137878417969 71.49137878417969 C 67.72553253173828 75.25723266601562 63.34066009521484 78.21369171142578 58.45858764648438 80.27863311767578 C 53.40486907958984 82.41617584228516 48.03562164306641 83.5 42.5 83.5 Z" stroke="none"/>
                            <path d="M 42.5 3 C 37.16621398925781 3 31.99356079101562 4.043960571289062 27.125732421875 6.102882385253906 C 22.42246627807617 8.092185974121094 18.19785308837891 10.94070434570312 14.56928253173828 14.56928253173828 C 10.94070434570312 18.19785308837891 8.092185974121094 22.42246627807617 6.102882385253906 27.125732421875 C 4.043960571289062 31.99356079101562 3 37.16621398925781 3 42.5 C 3 47.83378601074219 4.043960571289062 53.00643920898438 6.102882385253906 57.87425231933594 C 8.092185974121094 62.57753372192383 10.94070434570312 66.80213165283203 14.56928253173828 70.43071746826172 C 18.19786834716797 74.05929565429688 22.42246627807617 76.90781402587891 27.125732421875 78.89711761474609 C 31.99356079101562 80.95603942871094 37.16621398925781 82 42.5 82 C 47.83378601074219 82 53.00642395019531 80.95603942871094 57.87425231933594 78.89711761474609 C 62.57753372192383 76.90781402587891 66.80213165283203 74.05929565429688 70.43071746826172 70.43071746826172 C 74.05929565429688 66.80213165283203 76.90781402587891 62.57753372192383 78.89711761474609 57.87425231933594 C 80.95603942871094 53.00642395019531 82 47.83378601074219 82 42.5 C 82 37.16621398925781 80.95603942871094 31.99356079101562 78.89711761474609 27.125732421875 C 76.90781402587891 22.42246627807617 74.05929565429688 18.19786834716797 70.43071746826172 14.56928253173828 C 66.80213165283203 10.94070434570312 62.57753372192383 8.092185974121094 57.87425231933594 6.102882385253906 C 53.00643920898438 4.043960571289062 47.83378601074219 3 42.5 3 M 42.5 0 C 65.97209167480469 0 85 19.02789306640625 85 42.5 C 85 65.97209167480469 65.97209167480469 85 42.5 85 C 19.02789306640625 85 0 65.97209167480469 0 42.5 C 0 19.02789306640625 19.02789306640625 0 42.5 0 Z" stroke="none" fill="#899e78"/>
                          </g>
                        </g>
                      </g>
                    </g>
                  </g>
                </g>
              </g>
            </g>
          </g>
        </g>
      </g>
    </g>
    <g id="servicio-al-cliente" transform="translate(600.238 8989.772)">
      <path id="Trazado_1181357" data-name="Trazado 1181357" d="M260.863,261.412v4.437l-4.967,3.74-4.967-3.74v-4.437Z" transform="translate(-188.109 -231.822)" fill="#fed2a4"/>
      <path id="Trazado_1181358" data-name="Trazado 1181358" d="M253.192,265.849v-4.437h-2.264v4.437l4.967,3.74,1.132-.852Z" transform="translate(-188.108 -231.822)" fill="#ffbd86"/>
      <path id="Trazado_1181359" data-name="Trazado 1181359" d="M55.16,145.186H48.008a1.7,1.7,0,0,1-1.7-1.7V132.74a1.7,1.7,0,0,1,1.7-1.7H55.16a1.7,1.7,0,0,1,1.7,1.7v5.374l3.516,3.556H56.858v1.818A1.7,1.7,0,0,1,55.16,145.186Z" transform="translate(-6.651 -116.209)" fill="#75cc77"/>
      <path id="Trazado_1181360" data-name="Trazado 1181360" d="M69.606,306.11h3.516v-3.74a1.758,1.758,0,0,0-3.516,0Z" transform="translate(-27.31 -266.585)" fill="#fed2a4"/>
      <path id="Trazado_1181361" data-name="Trazado 1181361" d="M72.214,300.831a1.759,1.759,0,0,0-2.608,1.539v3.74h1.7v-3.74A1.758,1.758,0,0,1,72.214,300.831Z" transform="translate(-27.31 -266.585)" fill="#ffbd86"/>
      <path id="Trazado_1181362" data-name="Trazado 1181362" d="M65.417,316.658a1.7,1.7,0,0,0,1.7-1.7v-1.818l6.44-8.36a3.4,3.4,0,0,1,1.5-1.109l8.192-3.062,4.964,3.74,4.964-3.74,11.1,3.5a4.752,4.752,0,0,1,3.279,4.519v15.06h-33.4V314.9l-6.024,7.278a3.4,3.4,0,0,1-2.826,1.512h-.061a3.4,3.4,0,0,1-3.4-3.4v-3.636Z" transform="translate(-20.424 -266.585)" fill="#42a5f5"/>
      <g id="Grupo_1230395" data-name="Grupo 1230395" transform="translate(41.417 34.027)">
        <path id="Trazado_1181363" data-name="Trazado 1181363" d="M305.941,304.352l4.3-3.237-1.6-.5-3.831,2.887Z" transform="translate(-277.307 -300.612)" fill="#0593fc"/>
        <path id="Trazado_1181364" data-name="Trazado 1181364" d="M170.559,411.017h2.264v10.577h-2.264Z" transform="translate(-158.253 -398.52)" fill="#0593fc"/>
        <path id="Trazado_1181365" data-name="Trazado 1181365" d="M64.106,320.295v-3.636h3.576a1.7,1.7,0,0,0,1.7-1.7v-1.818l6.44-8.36a3.4,3.4,0,0,1,1.5-1.109l6.678-2.5-.751-.566-8.192,3.062a3.4,3.4,0,0,0-1.5,1.109l-6.44,8.36v1.818a1.7,1.7,0,0,1-1.7,1.7H61.842v3.636a3.4,3.4,0,0,0,3.4,3.4H65.3a3.4,3.4,0,0,0,1.1-.183A3.4,3.4,0,0,1,64.106,320.295Z" transform="translate(-61.842 -300.612)" fill="#0593fc"/>
      </g>
      <path id="Trazado_1181366" data-name="Trazado 1181366" d="M170.559,411.017h26.37v7.065h-26.37Z" transform="translate(-116.836 -364.493)" fill="#ffca28"/>
      <path id="Trazado_1181367" data-name="Trazado 1181367" d="M170.559,411.017h2.264v7.065h-2.264Z" transform="translate(-116.836 -364.493)" fill="#f9b916"/>
      <path id="Trazado_1181368" data-name="Trazado 1181368" d="M187.671,131.752h-1.7a2.365,2.365,0,0,0-2.365,2.365v1.772a2.365,2.365,0,0,0,2.365,2.365h1.7Z" transform="translate(-128.402 -116.839)" fill="#fed2a4"/>
      <path id="Trazado_1181369" data-name="Trazado 1181369" d="M370.056,131.752h1.7a2.365,2.365,0,0,1,2.365,2.365v1.772a2.365,2.365,0,0,1-2.365,2.365h-1.7Z" transform="translate(-293.751 -116.839)" fill="#fed2a4"/>
      <path id="Trazado_1181370" data-name="Trazado 1181370" d="M219.559,103.582v8.179a7.868,7.868,0,0,0,7.868,7.868h1.3a7.868,7.868,0,0,0,7.868-7.868v-8.1l-8.518-3.585Z" transform="translate(-160.29 -88.749)" fill="#fff3de"/>
      <path id="Trazado_1181371" data-name="Trazado 1181371" d="M221.823,111.761v-8.179l7.373-3.034-1.119-.471-8.518,3.505v8.179a7.868,7.868,0,0,0,7.868,7.868h1.3c.162,0,.323-.006.482-.016A7.867,7.867,0,0,1,221.823,111.761Z" transform="translate(-160.29 -88.749)" fill="#ffe5c2"/>
      <path id="Trazado_1181372" data-name="Trazado 1181372" d="M191.469,49.11h3.906a3.4,3.4,0,0,0,3.4-3.4V38.562h-2.208a5.094,5.094,0,0,0-5.094,5.094Z" transform="translate(-135.379 -34.197)" fill="#546e7a"/>
      <path id="Trazado_1181373" data-name="Trazado 1181373" d="M198.77,38.563h-2.208a5.094,5.094,0,0,0-5.094,5.094V49.11h2.264V43.656A5.093,5.093,0,0,1,198.77,38.563Z" transform="translate(-135.378 -34.197)" fill="#435860"/>
      <path id="Trazado_1181374" data-name="Trazado 1181374" d="M265.137,7.5a6.97,6.97,0,0,1,6.97,6.97v7.094H259.375a3.4,3.4,0,0,1-3.4-3.4V10.9a3.4,3.4,0,0,1,3.4-3.4Z" transform="translate(-192.587 -6.653)" fill="#546e7a"/>
      <path id="Trazado_1181375" data-name="Trazado 1181375" d="M258.243,18.169V10.9a3.4,3.4,0,0,1,3.4-3.4h-2.264a3.4,3.4,0,0,0-3.4,3.4v7.273a3.4,3.4,0,0,0,3.4,3.4h2.264a3.4,3.4,0,0,1-3.4-3.4Z" transform="translate(-192.587 -6.652)" fill="#435860"/>
      <path id="Trazado_1181376" data-name="Trazado 1181376" d="M48.008,359.735h3.636a1.7,1.7,0,0,0,1.7-1.7v-7.152a1.7,1.7,0,0,0-1.7-1.7H48.008a1.7,1.7,0,0,0-1.7,1.7v7.152A1.7,1.7,0,0,0,48.008,359.735Z" transform="translate(-6.651 -309.661)" fill="#fff3de"/>
      <path id="Trazado_1181377" data-name="Trazado 1181377" d="M48.575,358.037v-7.152a1.7,1.7,0,0,1,1.7-1.7H48.009a1.7,1.7,0,0,0-1.7,1.7v7.152a1.7,1.7,0,0,0,1.7,1.7h2.264A1.7,1.7,0,0,1,48.575,358.037Z" transform="translate(-6.652 -309.661)" fill="#ffe5c2"/>
      <g id="Grupo_1230396" data-name="Grupo 1230396" transform="translate(38.81 0)">
        <path id="Trazado_1181378" data-name="Trazado 1181378" d="M320.54,154.409a.849.849,0,0,0,.849-.849v-1.114a.849.849,0,1,0-1.7,0v1.114A.849.849,0,0,0,320.54,154.409Z" transform="translate(-287.897 -134.437)"/>
        <path id="Trazado_1181379" data-name="Trazado 1181379" d="M255.922,154.409a.849.849,0,0,0,.849-.849v-1.114a.849.849,0,1,0-1.7,0v1.114A.849.849,0,0,0,255.922,154.409Z" transform="translate(-230.594 -134.437)"/>
        <path id="Trazado_1181380" data-name="Trazado 1181380" d="M271.478,206.05a2.981,2.981,0,0,0,2.978-2.978.849.849,0,1,0-1.7,0,1.28,1.28,0,1,1-2.56,0,.849.849,0,0,0-1.7,0A2.981,2.981,0,0,0,271.478,206.05Z" transform="translate(-242.501 -179.333)"/>
        <path id="Trazado_1181381" data-name="Trazado 1181381" d="M87.125,45.523a.849.849,0,0,0,.849-.849V42.041A5.591,5.591,0,0,0,84.1,36.713L73.6,33.405V30.028a9.154,9.154,0,0,0,3.551-7.762c1.948.15,4.07-1,4.07-3.214V17.279a3.2,3.2,0,0,0-.871-2.2c.011-.055.017-2.422.017-2.422a.849.849,0,1,0-1.7,0v1.4H66.788a2.55,2.55,0,0,1-2.547-2.547V4.245A2.55,2.55,0,0,1,66.788,1.7H72.55a6.128,6.128,0,0,1,6.121,6.121V8.96a.849.849,0,0,0,1.7,0V7.819A7.828,7.828,0,0,0,72.551,0H66.788a4.251,4.251,0,0,0-4.181,3.516H61.184a5.949,5.949,0,0,0-5.943,5.943s0,5.546.012,5.59a3.2,3.2,0,0,0-.9,2.23v1.772c0,2.175,2.112,3.381,4.07,3.214a9.025,9.025,0,0,0,3.551,7.762v3.411l-7.638,2.855a4.248,4.248,0,0,0-1.875,1.386L47.54,44.065V41.223a2.541,2.541,0,0,0-.879-1.922V35.785a2.607,2.607,0,1,0-5.214,0v2.891a2.343,2.343,0,0,0-2.637,2.547v7.152A2.551,2.551,0,0,0,40.568,50.8V53.71A4.287,4.287,0,0,0,48.379,56.1l4.495-5.431V57.1a.849.849,0,0,0,.849.849h33.4a.849.849,0,0,0,.849-.849V48.374a.849.849,0,0,0-1.7,0v7.878H80.942V44.988a.849.849,0,1,0-1.7,0v.687H54.572V44.8a.849.849,0,1,0-1.7,0v3.21l-5.829,7.043c-1.39,1.678-4.779,1.728-4.779-1.342V50.923h2.7v.909a.849.849,0,0,0,1.7,0V50.3a2.541,2.541,0,0,0,.88-1.923V46.846l6.263-8.13a2.552,2.552,0,0,1,1.126-.832l7.753-2.9,4.594,3.459a.889.889,0,0,0,1.076-.041l4.563-3.436,10.668,3.361a3.894,3.894,0,0,1,2.693,3.711v2.633a.849.849,0,0,0,.849.849Zm-7.881,1.851v5.368H64.67a.849.849,0,0,0,0,1.7H79.244v1.813H54.572V54.439h6.4a.849.849,0,1,0,0-1.7h-6.4V47.374Zm-36.1-11.588a.909.909,0,1,1,1.818,0v2.891H43.145Zm-2.637,5.438a.85.85,0,0,1,.849-.849h3.636a.85.85,0,0,1,.849.849v.969H43.175a.849.849,0,1,0,0,1.7h2.667v1.818H43.175a.849.849,0,1,0,0,1.7h2.667v.969c0,.566-.343.81-.848.848H41.357a.85.85,0,0,1-.849-.849ZM79.526,19.051a1.518,1.518,0,0,1-1.516,1.516h-.856V15.762h.856a1.518,1.518,0,0,1,1.516,1.516ZM56.939,9.459a4.249,4.249,0,0,1,4.245-4.245h1.36v6.3h0A2.55,2.55,0,0,1,60,14.064H56.939Zm.626,11.109a1.518,1.518,0,0,1-1.516-1.516V17.279a1.518,1.518,0,0,1,1.516-1.516h.856v4.805h-.856Zm2.554,2.445V15.759a4.241,4.241,0,0,0,3.274-1.7,4.241,4.241,0,0,0,3.4,1.7h8.668v7.25C75.456,32.341,60.118,32.33,60.118,23.012Zm11.787,8V33.6l-4.118,3.1-4.118-3.1V31.008c2.024,1.215,6.061,1.139,8.236,0Z" transform="translate(-38.81 0)"/>
        <path id="Trazado_1181382" data-name="Trazado 1181382" d="M64.114,175.454a.849.849,0,0,0,1.2,0l3.516-3.516a.849.849,0,0,0-1.2-1.2l-2.916,2.916L63.557,172.5a.849.849,0,0,0-1.2,1.2Z" transform="translate(-59.47 -151.191)"/>
        <path id="Trazado_1181383" data-name="Trazado 1181383" d="M41.358,139.384H48.51a2.55,2.55,0,0,0,2.547-2.547v-.969h2.667c.9-.007,1.293-.691.6-1.446l-3.271-3.308v-5.025a2.55,2.55,0,0,0-2.547-2.547H41.358a2.55,2.55,0,0,0-2.547,2.547v10.749A2.55,2.55,0,0,0,41.358,139.384Zm-.849-13.3a.85.85,0,0,1,.849-.849H48.51a.85.85,0,0,1,.849.849v5.374a.848.848,0,0,0,.245.6l2.087,2.11H50.208a.849.849,0,0,0-.849.849v1.818a.85.85,0,0,1-.849.849H41.358a.85.85,0,0,1-.849-.849Z" transform="translate(-38.811 -109.558)"/>
      </g>
    </g>
  </g>
</svg>
