<svg xmlns="http://www.w3.org/2000/svg" xmlns:xlink="http://www.w3.org/1999/xlink" width="103" height="103" viewBox="0 0 103 103">
  <defs>
    <filter id="Trazado_982547" x="0" y="0" width="103" height="103" filterUnits="userSpaceOnUse">
      <feOffset dy="3" input="SourceAlpha"/>
      <feGaussianBlur stdDeviation="3" result="blur"/>
      <feFlood flood-opacity="0.161"/>
      <feComposite operator="in" in2="blur"/>
      <feComposite in="SourceGraphic"/>
    </filter>
  </defs>
  <g id="Grupo_1230403" data-name="Grupo 1230403" transform="translate(-194 -9132.723)">
    <g id="Grupo_1230294" data-name="Grupo 1230294" transform="translate(0 3339.723)">
      <g id="Grupo_1224201" data-name="Grupo 1224201" transform="translate(-0.13 5367)">
        <g id="Grupo_1224080" data-name="Grupo 1224080" transform="translate(0 -1582)">
          <g id="Grupo_1206686" data-name="Grupo 1206686" transform="translate(-2.87 300.583)">
            <g id="Grupo_1201889" data-name="Grupo 1201889" transform="translate(206 1713.417)">
              <g id="Grupo_1201680" data-name="Grupo 1201680">
                <g id="Grupo_1201330" data-name="Grupo 1201330">
                  <g id="Grupo_1172010" data-name="Grupo 1172010">
                    <g id="Grupo_1171046" data-name="Grupo 1171046">
                      <g id="Grupo_1148525" data-name="Grupo 1148525">
                        <g transform="matrix(1, 0, 0, 1, -9, -6)" filter="url(#Trazado_982547)">
                          <g id="Trazado_982547-2" data-name="Trazado 982547" transform="translate(9 6)" fill="#f2f4f0">
                            <path d="M 42.5 83.5 C 36.96437835693359 83.5 31.59512901306152 82.41617584228516 26.54141235351562 80.27863311767578 C 21.65934181213379 78.21369171142578 17.27447128295898 75.25723266601562 13.50862312316895 71.49137878417969 C 9.742764472961426 67.72553253173828 6.786305904388428 63.34066009521484 4.721364498138428 58.45858764648438 C 2.583823442459106 53.40486907958984 1.5 48.03562164306641 1.5 42.5 C 1.5 36.96437835693359 2.583823442459106 31.59512901306152 4.721364498138428 26.54141235351562 C 6.786305904388428 21.65934181213379 9.742764472961426 17.27448272705078 13.50862312316895 13.50862312316895 C 17.27447128295898 9.742776870727539 21.65934181213379 6.786305904388428 26.54141235351562 4.721364498138428 C 31.59512901306152 2.583823442459106 36.96437835693359 1.5 42.5 1.5 C 48.03562164306641 1.5 53.40486907958984 2.583823442459106 58.45858764648438 4.721364498138428 C 63.34066009521484 6.786305904388428 67.72553253173828 9.742776870727539 71.49137878417969 13.50862312316895 C 75.25723266601562 17.27448272705078 78.21369171142578 21.65934181213379 80.27863311767578 26.54141235351562 C 82.41617584228516 31.59512901306152 83.5 36.96437835693359 83.5 42.5 C 83.5 48.03562164306641 82.41617584228516 53.40486907958984 80.27863311767578 58.45858764648438 C 78.21369171142578 63.34066009521484 75.25723266601562 67.72553253173828 71.49137878417969 71.49137878417969 C 67.72553253173828 75.25723266601562 63.34066009521484 78.21369171142578 58.45858764648438 80.27863311767578 C 53.40486907958984 82.41617584228516 48.03562164306641 83.5 42.5 83.5 Z" stroke="none"/>
                            <path d="M 42.5 3 C 37.16621398925781 3 31.99356079101562 4.043960571289062 27.125732421875 6.102882385253906 C 22.42246627807617 8.092185974121094 18.19785308837891 10.94070434570312 14.56928253173828 14.56928253173828 C 10.94070434570312 18.19785308837891 8.092185974121094 22.42246627807617 6.102882385253906 27.125732421875 C 4.043960571289062 31.99356079101562 3 37.16621398925781 3 42.5 C 3 47.83378601074219 4.043960571289062 53.00643920898438 6.102882385253906 57.87425231933594 C 8.092185974121094 62.57753372192383 10.94070434570312 66.80213165283203 14.56928253173828 70.43071746826172 C 18.19786834716797 74.05929565429688 22.42246627807617 76.90781402587891 27.125732421875 78.89711761474609 C 31.99356079101562 80.95603942871094 37.16621398925781 82 42.5 82 C 47.83378601074219 82 53.00642395019531 80.95603942871094 57.87425231933594 78.89711761474609 C 62.57753372192383 76.90781402587891 66.80213165283203 74.05929565429688 70.43071746826172 70.43071746826172 C 74.05929565429688 66.80213165283203 76.90781402587891 62.57753372192383 78.89711761474609 57.87425231933594 C 80.95603942871094 53.00642395019531 82 47.83378601074219 82 42.5 C 82 37.16621398925781 80.95603942871094 31.99356079101562 78.89711761474609 27.125732421875 C 76.90781402587891 22.42246627807617 74.05929565429688 18.19786834716797 70.43071746826172 14.56928253173828 C 66.80213165283203 10.94070434570312 62.57753372192383 8.092185974121094 57.87425231933594 6.102882385253906 C 53.00643920898438 4.043960571289062 47.83378601074219 3 42.5 3 M 42.5 0 C 65.97209167480469 0 85 19.02789306640625 85 42.5 C 85 65.97209167480469 65.97209167480469 85 42.5 85 C 19.02789306640625 85 0 65.97209167480469 0 42.5 C 0 19.02789306640625 19.02789306640625 0 42.5 0 Z" stroke="none" fill="#899e78"/>
                          </g>
                        </g>
                      </g>
                    </g>
                  </g>
                </g>
              </g>
            </g>
          </g>
        </g>
      </g>
    </g>
    <g id="content-marketing" transform="translate(163.769 9152.447)">
      <g id="Grupo_1230402" data-name="Grupo 1230402" transform="translate(61.713 1.855)">
        <g id="Grupo_1230399" data-name="Grupo 1230399" transform="translate(0 0)">
          <path id="Trazado_1181390" data-name="Trazado 1181390" d="M150.385,103.594h-30.5a2.16,2.16,0,0,1-2.156-2.156V69.949a2.083,2.083,0,0,1,.632-1.525l9.916-9.916a2.083,2.083,0,0,1,1.525-.632h20.58a2.16,2.16,0,0,1,2.156,2.156v41.406A2.16,2.16,0,0,1,150.385,103.594Z" transform="translate(-112.505 -52.648)" fill="#e2e3e3" fill-rule="evenodd"/>
          <path id="Trazado_1181391" data-name="Trazado 1181391" d="M101.506,54.717H71.01a2.16,2.16,0,0,1-2.156-2.156V21.072a2.083,2.083,0,0,1,.632-1.525L79.4,9.631A2.083,2.083,0,0,1,80.926,9h20.58a2.16,2.16,0,0,1,2.156,2.156V52.561A2.16,2.16,0,0,1,101.506,54.717Z" transform="translate(-68.854 -8.999)" fill="#eff4f7" fill-rule="evenodd"/>
          <path id="Trazado_1181392" data-name="Trazado 1181392" d="M80.963,11.191l-9.916,9.917a2.161,2.161,0,0,0-.445.632h9.046a1.951,1.951,0,0,0,1.947-1.947V10.746A2.161,2.161,0,0,0,80.963,11.191Z" transform="translate(-70.415 -10.559)" fill="#e2e3e3" fill-rule="evenodd"/>
          <path id="Trazado_1181393" data-name="Trazado 1181393" d="M225.732,67.286v-4a.858.858,0,0,1,.856-.856h11.189a.858.858,0,0,1,.856.856v4a.858.858,0,0,1-.856.856H226.588A.858.858,0,0,1,225.732,67.286Z" transform="translate(-208.951 -56.712)" fill="#eb3b48" fill-rule="evenodd"/>
        </g>
        <g id="Grupo_1230401" data-name="Grupo 1230401" transform="translate(3.007 26.039)">
          <g id="Grupo_1230400" data-name="Grupo 1230400" transform="translate(0 4.872)">
            <path id="Trazado_1181394" data-name="Trazado 1181394" d="M155.353,406.048,153,408.154l4.553,7.886a.758.758,0,0,0,1.034.277l1.362-.786a.758.758,0,0,0,.277-1.034Z" transform="translate(-147.011 -394.488)" fill="#2d4853" fill-rule="evenodd"/>
            <path id="Trazado_1181395" data-name="Trazado 1181395" d="M103.867,392.491l-3.255-4.773-2.2,1.273a2.881,2.881,0,0,0,2.881,4.989Z" transform="translate(-96.97 -378.119)" fill="#2d4853" fill-rule="evenodd"/>
            <ellipse id="Elipse_14793" data-name="Elipse 14793" cx="2.537" cy="2.537" rx="2.537" ry="2.537" transform="translate(16.702 1.812) rotate(-20.918)" fill="#2d4853"/>
          </g>
          <path id="Trazado_1181396" data-name="Trazado 1181396" d="M113.592,271.892l-3.9,2.252a1.572,1.572,0,0,0-.574,2.144l3.348,5.8a1.572,1.572,0,0,0,2.144.574l3.9-2.252,12.185-2.689a1.046,1.046,0,0,0,.6-1.524l-7.662-13.271a1.046,1.046,0,0,0-1.619-.242Z" transform="translate(-107.631 -261.335)" fill="#ffe600" fill-rule="evenodd"/>
          <path id="Trazado_1181397" data-name="Trazado 1181397" d="M221.808,252.6a1.276,1.276,0,0,0-.466,1.738l8.661,15a1.272,1.272,0,1,0,2.2-1.272l-8.661-15A1.276,1.276,0,0,0,221.808,252.6Z" transform="translate(-207.887 -252.427)" fill="#eb3b48" fill-rule="evenodd"/>
          <path id="Trazado_1181398" data-name="Trazado 1181398" d="M112.466,361.315a1.572,1.572,0,0,0,2.144.574l3.9-2.252-4.918-8.518-3.9,2.252a1.573,1.573,0,0,0-.574,2.144Z" transform="translate(-107.632 -340.563)" fill="#eb3b48" fill-rule="evenodd"/>
        </g>
      </g>
      <path id="Trazado_1181399" data-name="Trazado 1181399" d="M90.619,35.817h2.9a.856.856,0,0,1,0,1.712h-2.9a.856.856,0,1,1,0-1.712ZM89.292,28.51l-1.443,2.507a.864.864,0,0,1-.747.428.856.856,0,0,1-.737-1.284l1.448-2.507a.854.854,0,1,1,1.478.856Zm3.36,2.934a.858.858,0,0,0-1.17-.313L89,32.565a.856.856,0,0,0,.429,1.6.841.841,0,0,0,.424-.115l2.487-1.434a.855.855,0,0,0,.313-1.169ZM65.984,30.429a.856.856,0,0,1,.853-.856h7.421a.856.856,0,1,1,0,1.712H66.836A.855.855,0,0,1,65.984,30.429Zm0-5.715a.855.855,0,0,1,.853-.856H91.4a.856.856,0,0,1,0,1.711H66.836A.855.855,0,0,1,65.984,24.714Zm0,11.429a.855.855,0,0,1,.853-.856h2.744a.856.856,0,1,1,0,1.711H66.836a.855.855,0,0,1-.853-.856Zm0-17.144a.855.855,0,0,1,.853-.856H91.4a.856.856,0,0,1,0,1.711H66.836A.855.855,0,0,1,65.984,19ZM79.348,8.425h11.19v4H79.348ZM78.49,14.14H91.4a.856.856,0,0,0,.853-.856V7.57a.855.855,0,0,0-.853-.856H78.49a.855.855,0,0,0-.853.856v5.714a.856.856,0,0,0,.853.856Zm22.4,36.5V9.24a1.3,1.3,0,0,0-1.3-1.3H97.379V45.416a3.02,3.02,0,0,1-3.017,3.012H76.417l2.033,3.517H99.594A1.3,1.3,0,0,0,100.89,50.644ZM75.958,53.8l-2.623-4.543,1.191-.688,2.623,4.543ZM69.1,51.945a1.3,1.3,0,0,1-1.3-1.3v-.783a3.706,3.706,0,0,0,1.357-.334,2.441,2.441,0,0,0,1.766.757,2.384,2.384,0,0,0,.923-.185l1.065,1.845Zm-2.85-7.319,1.983,3.431a2.024,2.024,0,0,1-1.983-3.431ZM78.178,31.519l7.169,12.42L76.023,46l-4.288-7.432ZM88.3,43.958l-8.662-15a.4.4,0,0,0-.252-.193.428.428,0,0,0-.111-.015.416.416,0,0,0-.207.055.433.433,0,0,0-.192.253.441.441,0,0,0,.04.316l.156.271a.01.01,0,0,1,.005.01l8.339,14.44s.005.006.005.009l.156.271a.425.425,0,0,0,.252.193.42.42,0,0,0,.318-.04.421.421,0,0,0,.151-.569Zm-2.124-7.1-1.448-2.5a1.761,1.761,0,0,1,.419.056,1.666,1.666,0,0,1,1.019.781A1.688,1.688,0,0,1,86.174,36.853ZM74.409,46.665h.005l.015-.01-4.061-7.035L67.21,41.443a.713.713,0,0,0-.262.975l3.35,5.8a.711.711,0,0,0,.974.261l.464-.27h.005l2.669-1.543h0ZM62.568,45.416a1.3,1.3,0,0,0,1.3,1.3h.04a3.74,3.74,0,0,1,1.473-3.6,2.429,2.429,0,0,1,.969-3.161l3.789-2.186,7.159-7.83A2.126,2.126,0,0,1,81.119,28.1l2.689,4.657a3.394,3.394,0,0,1,3.284,5.687L89.781,43.1A2.127,2.127,0,0,1,89,46.009a2.086,2.086,0,0,1-1.054.285,2.18,2.18,0,0,1-.56-.074,2.129,2.129,0,0,1-1.115-.732l-5.565,1.229H94.362a1.3,1.3,0,0,0,1.3-1.3V4.011a1.3,1.3,0,0,0-1.3-1.3H73.748v8.375a2.806,2.806,0,0,1-2.8,2.8H62.568V45.416Zm9.469-41.5v7.167a1.093,1.093,0,0,1-1.095,1.091H63.779ZM99.594,6.228H97.379V4.011A3.02,3.02,0,0,0,94.362,1H73.783a2.954,2.954,0,0,0-2.129.882L61.736,11.8a2.957,2.957,0,0,0-.878,2.129V45.416a3.016,3.016,0,0,0,3.012,3.012h.782a3.686,3.686,0,0,0,1.433,1.116v1.1A3.016,3.016,0,0,0,69.1,53.656h4.8l.631,1.09a1.615,1.615,0,0,0,2.2.59l1.362-.787a1.623,1.623,0,0,0,.721-.893h20.78a3.016,3.016,0,0,0,3.012-3.012V9.24a3.016,3.016,0,0,0-3.012-3.012Z" transform="translate(0 0)" fill-rule="evenodd"/>
    </g>
  </g>
</svg>
