<svg xmlns="http://www.w3.org/2000/svg" xmlns:xlink="http://www.w3.org/1999/xlink" width="113" height="113" viewBox="0 0 113 113">
  <defs>
    <filter id="Trazado_982547" x="0" y="0" width="113" height="113" filterUnits="userSpaceOnUse">
      <feOffset dy="3" input="SourceAlpha"/>
      <feGaussianBlur stdDeviation="3" result="blur"/>
      <feFlood flood-opacity="0.161"/>
      <feComposite operator="in" in2="blur"/>
      <feComposite in="SourceGraphic"/>
    </filter>
  </defs>
  <g id="Grupo_1230410" data-name="Grupo 1230410" transform="translate(-814 -11638.75)">
    <g id="Grupo_1230299" data-name="Grupo 1230299" transform="translate(823 11644.75)">
      <g id="Grupo_1224455" data-name="Grupo 1224455" transform="translate(0 0)">
        <g id="Grupo_1224084" data-name="Grupo 1224084">
          <g id="Grupo_1223183" data-name="Grupo 1223183">
            <g id="Grupo_1211217" data-name="Grupo 1211217">
              <g id="Grupo_1210736" data-name="Grupo 1210736">
                <g id="Grupo_1210537" data-name="Grupo 1210537">
                  <g id="Grupo_1164202" data-name="Grupo 1164202">
                    <g id="Grupo_1158168" data-name="Grupo 1158168">
                      <g id="Grupo_1152576" data-name="Grupo 1152576">
                        <g id="Grupo_1148633" data-name="Grupo 1148633">
                          <g id="Grupo_1148525" data-name="Grupo 1148525">
                            <g transform="matrix(1, 0, 0, 1, -9, -6)" filter="url(#Trazado_982547)">
                              <g id="Trazado_982547-2" data-name="Trazado 982547" transform="translate(9 6)" fill="#fcf5f0">
                                <path d="M 47.49999618530273 93.5 C 41.28936767578125 93.5 35.26533126831055 92.28396606445312 29.59518241882324 89.88570404052734 C 24.11771583557129 87.56893157958984 19.19812965393066 84.251953125 14.97308921813965 80.02690124511719 C 10.74803638458252 75.80186462402344 7.431062698364258 70.88227844238281 5.114289283752441 65.40480804443359 C 2.716022968292236 59.73466110229492 1.499996185302734 53.71062469482422 1.499996185302734 47.49999618530273 C 1.499996185302734 41.28936767578125 2.716022968292236 35.26533126831055 5.114289283752441 29.59518241882324 C 7.431062698364258 24.11771583557129 10.74803638458252 19.19812965393066 14.97308921813965 14.97308921813965 C 19.19812965393066 10.74803638458252 24.11771583557129 7.431062698364258 29.59518241882324 5.114289283752441 C 35.26533126831055 2.716022968292236 41.28936767578125 1.499996185302734 47.49999618530273 1.499996185302734 C 53.71062469482422 1.499996185302734 59.73466110229492 2.716022968292236 65.40480804443359 5.114289283752441 C 70.88227844238281 7.431062698364258 75.80186462402344 10.74803638458252 80.02690124511719 14.97308921813965 C 84.251953125 19.19812965393066 87.56893157958984 24.11771583557129 89.88570404052734 29.59518241882324 C 92.28396606445312 35.26533126831055 93.5 41.28936767578125 93.5 47.49999618530273 C 93.5 53.71062469482422 92.28396606445312 59.73466110229492 89.88570404052734 65.40480804443359 C 87.56893157958984 70.88227844238281 84.251953125 75.80186462402344 80.02690124511719 80.02690124511719 C 75.80186462402344 84.251953125 70.88227844238281 87.56893157958984 65.40480804443359 89.88570404052734 C 59.73466110229492 92.28396606445312 53.71062469482422 93.5 47.49999618530273 93.5 Z" stroke="none"/>
                                <path d="M 47.49999618530273 2.999992370605469 C 41.4912109375 2.999992370605469 35.66376495361328 4.1761474609375 30.17950439453125 6.495796203613281 C 24.88084411621094 8.736953735351562 20.12152099609375 11.94598388671875 16.03375244140625 16.03375244140625 C 11.94598388671875 20.12152099609375 8.736953735351562 24.88084411621094 6.495796203613281 30.17950439453125 C 4.1761474609375 35.66376495361328 2.999992370605469 41.4912109375 2.999992370605469 47.49999618530273 C 2.999992370605469 53.50878143310547 4.1761474609375 59.33622741699219 6.495796203613281 64.82048797607422 C 8.736953735351562 70.11914825439453 11.94598388671875 74.87847137451172 16.03375244140625 78.96623992919922 C 20.12152099609375 83.05400848388672 24.88084411621094 86.26304626464844 30.17950439453125 88.50419616699219 C 35.66376495361328 90.82384490966797 41.4912109375 92 47.49999618530273 92 C 53.50878143310547 92 59.33622741699219 90.82384490966797 64.82048797607422 88.50419616699219 C 70.11914825439453 86.26304626464844 74.87847137451172 83.05400848388672 78.96623992919922 78.96623992919922 C 83.05400848388672 74.87847137451172 86.26304626464844 70.11914825439453 88.50419616699219 64.82048797607422 C 90.82384490966797 59.33622741699219 92 53.50878143310547 92 47.49999618530273 C 92 41.4912109375 90.82384490966797 35.66376495361328 88.50419616699219 30.17950439453125 C 86.26304626464844 24.88084411621094 83.05400848388672 20.12152099609375 78.96623992919922 16.03375244140625 C 74.87847137451172 11.94598388671875 70.11914825439453 8.736953735351562 64.82048797607422 6.495796203613281 C 59.33622741699219 4.1761474609375 53.50878143310547 2.999992370605469 47.49999618530273 2.999992370605469 M 47.49999618530273 -7.62939453125e-06 C 73.7335205078125 -7.62939453125e-06 95 21.26647186279297 95 47.49999618530273 C 95 73.7335205078125 73.7335205078125 95 47.49999618530273 95 C 21.26647186279297 95 -7.62939453125e-06 73.7335205078125 -7.62939453125e-06 47.49999618530273 C -7.62939453125e-06 21.26647186279297 21.26647186279297 -7.62939453125e-06 47.49999618530273 -7.62939453125e-06 Z" stroke="none" fill="#eca675"/>
                              </g>
                            </g>
                          </g>
                        </g>
                      </g>
                    </g>
                  </g>
                </g>
              </g>
            </g>
          </g>
        </g>
      </g>
    </g>
    <g id="puno" transform="translate(846.176 11660.813)">
      <path id="Trazado_1181442" data-name="Trazado 1181442" d="M56.9,50.836h-.432a4.945,4.945,0,0,1-4.945-4.945V32.813a5.161,5.161,0,0,1,10.321,0V45.892A4.944,4.944,0,0,1,56.9,50.836Zm0,0" transform="translate(-45.103 -24.208)" fill="#ffd0a6"/>
      <path id="Trazado_1181443" data-name="Trazado 1181443" d="M19.01,122.092V116.34A23.436,23.436,0,0,0,14.2,102.117L11.18,98.16A17.422,17.422,0,0,1,7.606,87.587,36.748,36.748,0,0,1,8.257,80.7l.372-1.952a4.708,4.708,0,0,1,5.156-3.8V67.7L51.8,70.474l2.565,5.588V89.436a30.076,30.076,0,0,1-8.688,21.145,4.5,4.5,0,0,0-1.3,3.166v8.345" transform="translate(-6.659 -59.263)" fill="#ffd0a6"/>
      <g id="Grupo_1230409" data-name="Grupo 1230409" transform="translate(6.417 3.444)">
        <path id="Trazado_1181444" data-name="Trazado 1181444" d="M54.045,45.892V32.813a5.162,5.162,0,0,1,3.9-5,5.163,5.163,0,0,0-6.424,5V45.892a4.945,4.945,0,0,0,4.945,4.945H56.9a4.98,4.98,0,0,0,1.047-.112,4.946,4.946,0,0,1-3.9-4.833Zm0,0" transform="translate(-51.52 -27.652)" fill="#e8b182"/>
        <path id="Trazado_1181445" data-name="Trazado 1181445" d="M144.7,47.234v13.08a4.946,4.946,0,0,1-4.579,4.931,11.256,11.256,0,0,0-5-2.325,4.9,4.9,0,0,1-.744-2.607V47.234a5.161,5.161,0,0,1,10.322,0Zm0,0" transform="translate(-124.054 -40.278)" fill="#e8b182"/>
        <path id="Trazado_1181446" data-name="Trazado 1181446" d="M222.615,65.258h-.432a4.944,4.944,0,0,1-4.945-4.945V47.235a5.161,5.161,0,0,1,10.321,0v13.08a4.944,4.944,0,0,1-4.945,4.944Zm0,0" transform="translate(-196.596 -40.278)" fill="#e8b182"/>
        <path id="Trazado_1181447" data-name="Trazado 1181447" d="M305.475,84.834h-.433A4.944,4.944,0,0,1,300.1,79.89v-8.6a5.161,5.161,0,1,1,10.321,0v8.6A4.945,4.945,0,0,1,305.475,84.834Zm0,0" transform="translate(-269.134 -61.34)" fill="#e8b182"/>
      </g>
      <path id="Trazado_1181448" data-name="Trazado 1181448" d="M139.756,30.79h-.432a4.944,4.944,0,0,1-4.945-4.944V12.767a5.161,5.161,0,0,1,10.321,0V25.846a4.944,4.944,0,0,1-4.945,4.944Zm0,0" transform="translate(-117.641 -6.659)" fill="#ffd0a6"/>
      <path id="Trazado_1181449" data-name="Trazado 1181449" d="M136.9,25.845V12.766a5.162,5.162,0,0,1,3.9-5,5.163,5.163,0,0,0-6.423,5V25.845a4.944,4.944,0,0,0,4.945,4.945h.432a4.941,4.941,0,0,0,1.047-.112,4.946,4.946,0,0,1-3.9-4.832Zm0,0" transform="translate(-117.641 -6.658)" fill="#e8b182"/>
      <path id="Trazado_1181450" data-name="Trazado 1181450" d="M222.615,30.79h-.432a4.944,4.944,0,0,1-4.945-4.944V12.767a5.161,5.161,0,0,1,10.321,0V25.846a4.944,4.944,0,0,1-4.945,4.944Zm0,0" transform="translate(-190.179 -6.659)" fill="#ffd0a6"/>
      <path id="Trazado_1181451" data-name="Trazado 1181451" d="M219.765,25.845V12.766a5.162,5.162,0,0,1,3.9-5,5.163,5.163,0,0,0-6.423,5V25.845a4.944,4.944,0,0,0,4.945,4.945h.432a4.94,4.94,0,0,0,1.047-.112,4.946,4.946,0,0,1-3.9-4.832Zm0,0" transform="translate(-190.179 -6.658)" fill="#e8b182"/>
      <path id="Trazado_1181452" data-name="Trazado 1181452" d="M305.475,50.361h-.433a4.944,4.944,0,0,1-4.944-4.944v-8.6a5.161,5.161,0,1,1,10.321,0v8.6A4.945,4.945,0,0,1,305.475,50.361Zm0,0" transform="translate(-262.717 -27.717)" fill="#ffd0a6"/>
      <path id="Trazado_1181453" data-name="Trazado 1181453" d="M302.624,45.417v-8.6a5.163,5.163,0,0,1,3.9-5,5.163,5.163,0,0,0-6.423,5v8.6a4.944,4.944,0,0,0,4.944,4.944h.433a4.945,4.945,0,0,0,1.047-.112,4.946,4.946,0,0,1-3.9-4.832Zm0,0" transform="translate(-262.717 -27.717)" fill="#e8b182"/>
      <path id="Trazado_1181454" data-name="Trazado 1181454" d="M19.01,172.847v-5.752A23.436,23.436,0,0,0,14.2,152.872l-3.021-3.957a17.422,17.422,0,0,1-3.575-10.573,36.748,36.748,0,0,1,.651-6.886l.372-1.952a4.708,4.708,0,0,1,5.156-3.8,58.914,58.914,0,0,0,13.343.015,4.858,4.858,0,0,1,5.316,3.918l.018.1a4.863,4.863,0,0,1-4.239,5.742,68.651,68.651,0,0,1-7.959.432" transform="translate(-6.659 -110.018)" fill="#ffd0a6"/>
      <path id="Trazado_1181455" data-name="Trazado 1181455" d="M19.632,152.868a23.435,23.435,0,0,1,4.809,14.223v5.753H19.01v-5.753A23.436,23.436,0,0,0,14.2,152.868l-3.021-3.957a17.423,17.423,0,0,1-3.575-10.573q0-1.733.163-3.459t.489-3.427q.186-.976.373-1.953a4.707,4.707,0,0,1,5.155-3.8q1.6.184,3.216.28a4.713,4.713,0,0,0-2.941,3.52q-.188.977-.372,1.953a36.7,36.7,0,0,0-.652,6.886,17.422,17.422,0,0,0,3.575,10.573Zm0,0" transform="translate(-6.658 -110.015)" fill="#e8b182"/>
      <path id="Trazado_1181456" data-name="Trazado 1181456" d="M42.541,3a6.089,6.089,0,0,0-4.35,1.827A6.1,6.1,0,0,0,27.059,2.847,6.1,6.1,0,0,0,16.028,4.428,6.1,6.1,0,0,0,5.47,8.605v6.219a5.686,5.686,0,0,0-4.43,4.484L.667,21.26A37.825,37.825,0,0,0,0,28.324,18.469,18.469,0,0,0,3.769,39.472a.947.947,0,1,0,1.505-1.149,16.569,16.569,0,0,1-3.381-10,35.928,35.928,0,0,1,.634-6.709L2.9,19.663a3.775,3.775,0,0,1,4.117-3.037,59.958,59.958,0,0,0,13.558.016A3.928,3.928,0,0,1,24.855,19.8l.018.1a3.917,3.917,0,0,1-3.414,4.623,68,68,0,0,1-7.248.425h-.606a.948.948,0,0,0,0,1.9h1.753A10.375,10.375,0,0,1,25.728,37.209a.947.947,0,1,0,1.894,0,12.281,12.281,0,0,0-6.381-10.764l.43-.047a5.8,5.8,0,0,0,5.045-4.615A5.9,5.9,0,0,0,32,25.078h.433a5.9,5.9,0,0,0,5.409-3.558,5.878,5.878,0,0,0,4.48,2.072h.433a5.869,5.869,0,0,0,4-1.569v3.332a.947.947,0,1,0,1.894,0V9.1A6.115,6.115,0,0,0,42.541,3ZM7.364,14.758V8.605a4.213,4.213,0,0,1,8.426,0v6.486a58.026,58.026,0,0,1-8.426-.332Zm13,0q-1.336.151-2.678.238V6.108a4.213,4.213,0,1,1,8.426,0V17.762a5.835,5.835,0,0,0-5.748-3Zm16.07,4.428a4,4,0,0,1-4,4H32a4,4,0,0,1-4-4V6.108a4.213,4.213,0,1,1,8.426,0ZM42.757,21.7h-.433a4,4,0,0,1-4-4V9.1a4.213,4.213,0,0,1,8.427,0v8.6A4,4,0,0,1,42.757,21.7Zm0,0" transform="translate(0)"/>
      <path id="Trazado_1181457" data-name="Trazado 1181457" d="M45.776,325.176a.947.947,0,1,0-1.505,1.15l1.105,1.448a22.616,22.616,0,0,1,4.614,13.648v5.752a.947.947,0,1,0,1.894,0v-5.752a24.519,24.519,0,0,0-5-14.8Zm0,0" transform="translate(-38.587 -284.346)"/>
      <path id="Trazado_1181458" data-name="Trazado 1181458" d="M306.1,225.352a.947.947,0,0,0-.947.947v1.156a29.124,29.124,0,0,1-8.414,20.478,5.418,5.418,0,0,0-1.574,3.832v8.345a.947.947,0,1,0,1.894,0v-8.345a3.533,3.533,0,0,1,1.027-2.5,31.023,31.023,0,0,0,8.962-21.811V226.3a.947.947,0,0,0-.947-.947Zm0,0" transform="translate(-258.401 -197.282)"/>
    </g>
  </g>
</svg>
