<svg xmlns="http://www.w3.org/2000/svg" xmlns:xlink="http://www.w3.org/1999/xlink" width="113" height="113" viewBox="0 0 113 113">
  <defs>
    <filter id="Trazado_982547" x="0" y="0" width="113" height="113" filterUnits="userSpaceOnUse">
      <feOffset dy="3" input="SourceAlpha"/>
      <feGaussianBlur stdDeviation="3" result="blur"/>
      <feFlood flood-opacity="0.161"/>
      <feComposite operator="in" in2="blur"/>
      <feComposite in="SourceGraphic"/>
    </filter>
  </defs>
  <g id="Grupo_1230303" data-name="Grupo 1230303" transform="translate(9 6)">
    <g id="Grupo_1224455" data-name="Grupo 1224455" transform="translate(0 0)">
      <g id="Grupo_1224084" data-name="Grupo 1224084">
        <g id="Grupo_1223183" data-name="Grupo 1223183">
          <g id="Grupo_1211217" data-name="Grupo 1211217">
            <g id="Grupo_1210736" data-name="Grupo 1210736">
              <g id="Grupo_1210537" data-name="Grupo 1210537">
                <g id="Grupo_1164202" data-name="Grupo 1164202">
                  <g id="Grupo_1158168" data-name="Grupo 1158168">
                    <g id="Grupo_1152576" data-name="Grupo 1152576">
                      <g id="Grupo_1148633" data-name="Grupo 1148633">
                        <g id="Grupo_1148525" data-name="Grupo 1148525">
                          <g transform="matrix(1, 0, 0, 1, -9, -6)" filter="url(#Trazado_982547)">
                            <g id="Trazado_982547-2" data-name="Trazado 982547" transform="translate(9 6)" fill="#fcf5f0">
                              <path d="M 47.49999618530273 93.5 C 41.28936767578125 93.5 35.26533126831055 92.28396606445312 29.59518241882324 89.88570404052734 C 24.11771583557129 87.56893157958984 19.19812965393066 84.251953125 14.97308921813965 80.02690124511719 C 10.74803638458252 75.80186462402344 7.431062698364258 70.88227844238281 5.114289283752441 65.40480804443359 C 2.716022968292236 59.73466110229492 1.499996185302734 53.71062469482422 1.499996185302734 47.49999618530273 C 1.499996185302734 41.28936767578125 2.716022968292236 35.26533126831055 5.114289283752441 29.59518241882324 C 7.431062698364258 24.11771583557129 10.74803638458252 19.19812965393066 14.97308921813965 14.97308921813965 C 19.19812965393066 10.74803638458252 24.11771583557129 7.431062698364258 29.59518241882324 5.114289283752441 C 35.26533126831055 2.716022968292236 41.28936767578125 1.499996185302734 47.49999618530273 1.499996185302734 C 53.71062469482422 1.499996185302734 59.73466110229492 2.716022968292236 65.40480804443359 5.114289283752441 C 70.88227844238281 7.431062698364258 75.80186462402344 10.74803638458252 80.02690124511719 14.97308921813965 C 84.251953125 19.19812965393066 87.56893157958984 24.11771583557129 89.88570404052734 29.59518241882324 C 92.28396606445312 35.26533126831055 93.5 41.28936767578125 93.5 47.49999618530273 C 93.5 53.71062469482422 92.28396606445312 59.73466110229492 89.88570404052734 65.40480804443359 C 87.56893157958984 70.88227844238281 84.251953125 75.80186462402344 80.02690124511719 80.02690124511719 C 75.80186462402344 84.251953125 70.88227844238281 87.56893157958984 65.40480804443359 89.88570404052734 C 59.73466110229492 92.28396606445312 53.71062469482422 93.5 47.49999618530273 93.5 Z" stroke="none"/>
                              <path d="M 47.49999618530273 2.999992370605469 C 41.4912109375 2.999992370605469 35.66376495361328 4.1761474609375 30.17950439453125 6.495796203613281 C 24.88084411621094 8.736953735351562 20.12152099609375 11.94598388671875 16.03375244140625 16.03375244140625 C 11.94598388671875 20.12152099609375 8.736953735351562 24.88084411621094 6.495796203613281 30.17950439453125 C 4.1761474609375 35.66376495361328 2.999992370605469 41.4912109375 2.999992370605469 47.49999618530273 C 2.999992370605469 53.50878143310547 4.1761474609375 59.33622741699219 6.495796203613281 64.82048797607422 C 8.736953735351562 70.11914825439453 11.94598388671875 74.87847137451172 16.03375244140625 78.96623992919922 C 20.12152099609375 83.05400848388672 24.88084411621094 86.26304626464844 30.17950439453125 88.50419616699219 C 35.66376495361328 90.82384490966797 41.4912109375 92 47.49999618530273 92 C 53.50878143310547 92 59.33622741699219 90.82384490966797 64.82048797607422 88.50419616699219 C 70.11914825439453 86.26304626464844 74.87847137451172 83.05400848388672 78.96623992919922 78.96623992919922 C 83.05400848388672 74.87847137451172 86.26304626464844 70.11914825439453 88.50419616699219 64.82048797607422 C 90.82384490966797 59.33622741699219 92 53.50878143310547 92 47.49999618530273 C 92 41.4912109375 90.82384490966797 35.66376495361328 88.50419616699219 30.17950439453125 C 86.26304626464844 24.88084411621094 83.05400848388672 20.12152099609375 78.96623992919922 16.03375244140625 C 74.87847137451172 11.94598388671875 70.11914825439453 8.736953735351562 64.82048797607422 6.495796203613281 C 59.33622741699219 4.1761474609375 53.50878143310547 2.999992370605469 47.49999618530273 2.999992370605469 M 47.49999618530273 -7.62939453125e-06 C 73.7335205078125 -7.62939453125e-06 95 21.26647186279297 95 47.49999618530273 C 95 73.7335205078125 73.7335205078125 95 47.49999618530273 95 C 21.26647186279297 95 -7.62939453125e-06 73.7335205078125 -7.62939453125e-06 47.49999618530273 C -7.62939453125e-06 21.26647186279297 21.26647186279297 -7.62939453125e-06 47.49999618530273 -7.62939453125e-06 Z" stroke="none" fill="#eca675"/>
                            </g>
                          </g>
                        </g>
                      </g>
                    </g>
                  </g>
                </g>
              </g>
            </g>
          </g>
        </g>
      </g>
    </g>
    <g id="_x33_2" transform="translate(18.896 18.633)">
      <g id="Grupo_1230467" data-name="Grupo 1230467" transform="translate(3.541 3.4)">
        <g id="Grupo_1230457" data-name="Grupo 1230457" transform="translate(47.389)">
          <path id="Trazado_1181554" data-name="Trazado 1181554" d="M62.341,6.187V8.869H56.978V6.187a2.681,2.681,0,1,1,5.363,0Z" transform="translate(-56.978 -3.506)" fill="#ccd1d9"/>
        </g>
        <g id="Grupo_1230458" data-name="Grupo 1230458" transform="translate(27.725 0)">
          <path id="Trazado_1181555" data-name="Trazado 1181555" d="M54.641,6.187v26.8H34.978V6.187a2.678,2.678,0,0,1,2.681-2.681H57.323a2.677,2.677,0,0,0-2.681,2.681Z" transform="translate(-34.978 -3.506)" fill="#e6e9ed"/>
        </g>
        <g id="Grupo_1230459" data-name="Grupo 1230459" transform="translate(0 48.256)">
          <path id="Trazado_1181556" data-name="Trazado 1181556" d="M3.958,57.5H30.781v2.681H3.958Z" transform="translate(-3.958 -57.496)" fill="#656d78"/>
        </g>
        <g id="Grupo_1230460" data-name="Grupo 1230460" transform="translate(3.584 41.999)">
          <path id="Trazado_1181557" data-name="Trazado 1181557" d="M27.631,50.5v3.575H7.968V50.5H27.631Z" transform="translate(-7.968 -50.496)" fill="#965353"/>
        </g>
        <g id="Grupo_1230461" data-name="Grupo 1230461" transform="translate(25.035 29.486)">
          <path id="Trazado_1181558" data-name="Trazado 1181558" d="M57,36.5a2.681,2.681,0,0,1,0,5.363H31.968V36.5H57Z" transform="translate(-31.968 -36.496)" fill="#844747"/>
        </g>
        <g id="Grupo_1230462" data-name="Grupo 1230462" transform="translate(21.46 28.592)">
          <path id="Trazado_1181559" data-name="Trazado 1181559" d="M31.543,41.753v.894H27.968V35.5h3.575v6.257Z" transform="translate(-27.968 -35.496)" fill="#965353"/>
        </g>
        <g id="Grupo_1230463" data-name="Grupo 1230463" transform="translate(5.372 22.336)">
          <path id="Trazado_1181560" data-name="Trazado 1181560" d="M26.056,41.9v6.257H9.968V28.5H26.056V41.9Zm-3.575-3.575A4.469,4.469,0,1,0,18.012,42.8,4.471,4.471,0,0,0,22.481,38.328Z" transform="translate(-9.968 -28.496)" fill="#844747"/>
        </g>
        <g id="Grupo_1230464" data-name="Grupo 1230464" transform="translate(11.628 30.38)">
          <path id="Trazado_1181561" data-name="Trazado 1181561" d="M18.756,37.5a1.788,1.788,0,1,1-1.788,1.788A1.793,1.793,0,0,1,18.756,37.5Z" transform="translate(-16.968 -37.496)" fill="#844747"/>
        </g>
        <g id="Grupo_1230465" data-name="Grupo 1230465" transform="translate(8.947 27.699)">
          <path id="Trazado_1181562" data-name="Trazado 1181562" d="M13.968,38.965a4.469,4.469,0,1,1,4.469,4.469A4.464,4.464,0,0,1,13.968,38.965Zm4.469-1.788a1.788,1.788,0,1,0,1.788,1.788A1.787,1.787,0,0,0,18.437,37.177Z" transform="translate(-13.968 -34.496)" fill="#965353"/>
        </g>
        <g id="Grupo_1230466" data-name="Grupo 1230466" transform="translate(3.584 18.761)">
          <path id="Trazado_1181563" data-name="Trazado 1181563" d="M27.631,24.5v3.575H7.968V24.5Z" transform="translate(-7.968 -24.496)" fill="#965353"/>
        </g>
      </g>
      <g id="Grupo_1230503" data-name="Grupo 1230503" transform="translate(0.028 2.504)">
        <g id="Grupo_1230473" data-name="Grupo 1230473" transform="translate(35.701 5.365)">
          <g id="Grupo_1230468" data-name="Grupo 1230468" transform="translate(0.894 8.044)">
            <path id="Trazado_1181564" data-name="Trazado 1181564" d="M49.015,19.295h-7.15a.894.894,0,0,1,0-1.788h7.15a.894.894,0,1,1,0,1.788Z" transform="translate(-40.971 -17.507)"/>
          </g>
          <g id="Grupo_1230469" data-name="Grupo 1230469" transform="translate(4.469)">
            <path id="Trazado_1181565" data-name="Trazado 1181565" d="M45.865,18.339a.893.893,0,0,1-.894-.894V9.4a.894.894,0,1,1,1.788,0v8.044A.894.894,0,0,1,45.865,18.339Z" transform="translate(-44.971 -8.507)"/>
          </g>
          <g id="Grupo_1230470" data-name="Grupo 1230470" transform="translate(0.894 0.894)">
            <path id="Trazado_1181566" data-name="Trazado 1181566" d="M49.015,11.295h-7.15a.894.894,0,0,1,0-1.788h7.15a.894.894,0,1,1,0,1.788Z" transform="translate(-40.971 -9.507)"/>
          </g>
          <g id="Grupo_1230471" data-name="Grupo 1230471" transform="translate(7.15 3.575)">
            <path id="Trazado_1181567" data-name="Trazado 1181567" d="M50.652,14.295H48.865a.894.894,0,0,1,0-1.788h1.788a.894.894,0,0,1,0,1.788Z" transform="translate(-47.971 -12.507)"/>
          </g>
          <g id="Grupo_1230472" data-name="Grupo 1230472" transform="translate(0 3.575)">
            <path id="Trazado_1181568" data-name="Trazado 1181568" d="M42.652,14.295H40.865a.894.894,0,0,1,0-1.788h1.788a.894.894,0,1,1,0,1.788Z" transform="translate(-39.971 -12.507)"/>
          </g>
        </g>
        <g id="Grupo_1230474" data-name="Grupo 1230474" transform="translate(0.831 50.939)">
          <path id="Trazado_1181569" data-name="Trazado 1181569" d="M32.244,61.284H1.852a.894.894,0,1,1,0-1.788H32.244a.894.894,0,0,1,0,1.788Z" transform="translate(-0.958 -59.496)"/>
        </g>
        <g id="Grupo_1230475" data-name="Grupo 1230475" transform="translate(2.619 48.258)">
          <path id="Trazado_1181570" data-name="Trazado 1181570" d="M30.669,60.965H3.852a.893.893,0,0,1-.894-.894v-2.68a.893.893,0,0,1,.894-.894H30.669a.893.893,0,0,1,.894.894v2.68A.893.893,0,0,1,30.669,60.965ZM4.746,59.177h25.03v-.893H4.746Z" transform="translate(-2.958 -56.497)"/>
        </g>
        <g id="Grupo_1230487" data-name="Grupo 1230487" transform="translate(6.196 18.763)">
          <g id="Grupo_1230476" data-name="Grupo 1230476" transform="translate(1.788 3.575)">
            <path id="Trazado_1181571" data-name="Trazado 1181571" d="M25.942,48.948H9.854a.893.893,0,0,1-.894-.894V28.391a.893.893,0,0,1,.894-.894H25.942a.893.893,0,0,1,.894.894V48.054A.893.893,0,0,1,25.942,48.948ZM10.748,47.16h14.3V29.285h-14.3Z" transform="translate(-8.96 -27.497)"/>
          </g>
          <g id="Grupo_1230477" data-name="Grupo 1230477" transform="translate(0 23.239)">
            <path id="Trazado_1181572" data-name="Trazado 1181572" d="M27.517,54.86H7.854a.893.893,0,0,1-.894-.894V50.391a.893.893,0,0,1,.894-.894H27.517a.893.893,0,0,1,.894.894v3.575A.893.893,0,0,1,27.517,54.86ZM8.748,53.072H26.623V51.285H8.748Z" transform="translate(-6.96 -49.497)"/>
          </g>
          <g id="Grupo_1230478" data-name="Grupo 1230478">
            <path id="Trazado_1181573" data-name="Trazado 1181573" d="M27.517,28.86H7.854a.893.893,0,0,1-.894-.894V24.391a.893.893,0,0,1,.894-.894H27.517a.893.893,0,0,1,.894.894v3.575A.893.893,0,0,1,27.517,28.86ZM8.748,27.072H26.623V25.285H8.748Z" transform="translate(-6.96 -23.497)"/>
          </g>
          <g id="Grupo_1230479" data-name="Grupo 1230479" transform="translate(17.876 9.832)">
            <path id="Trazado_1181574" data-name="Trazado 1181574" d="M31.429,36.285H27.854a.894.894,0,0,1,0-1.788h3.575a.894.894,0,1,1,0,1.788Z" transform="translate(-26.96 -34.497)"/>
          </g>
          <g id="Grupo_1230480" data-name="Grupo 1230480" transform="translate(17.876 16.982)">
            <path id="Trazado_1181575" data-name="Trazado 1181575" d="M31.429,44.285H27.854a.894.894,0,1,1,0-1.788h3.575a.894.894,0,1,1,0,1.788Z" transform="translate(-26.96 -42.497)"/>
          </g>
          <g id="Grupo_1230481" data-name="Grupo 1230481" transform="translate(21.451 9.832)">
            <path id="Trazado_1181576" data-name="Trazado 1181576" d="M31.854,43.435a.893.893,0,0,1-.894-.894v-7.15a.894.894,0,1,1,1.788,0v7.15A.893.893,0,0,1,31.854,43.435Z" transform="translate(-30.96 -34.497)"/>
          </g>
          <g id="Grupo_1230482" data-name="Grupo 1230482" transform="translate(21.451 10.726)">
            <path id="Trazado_1181577" data-name="Trazado 1181577" d="M56.891,37.285H31.854a.894.894,0,1,1,0-1.788H56.891a.894.894,0,0,1,0,1.788Z" transform="translate(-30.96 -35.497)"/>
          </g>
          <g id="Grupo_1230483" data-name="Grupo 1230483" transform="translate(21.451 16.088)">
            <path id="Trazado_1181578" data-name="Trazado 1181578" d="M56.891,43.285H31.854a.894.894,0,0,1,0-1.788H56.891a.894.894,0,0,1,0,1.788Z" transform="translate(-30.96 -41.497)"/>
          </g>
          <g id="Grupo_1230484" data-name="Grupo 1230484" transform="translate(46.488 10.726)">
            <path id="Trazado_1181579" data-name="Trazado 1181579" d="M59.866,42.647a.894.894,0,0,1,0-1.788,1.788,1.788,0,0,0,0-3.575.894.894,0,0,1,0-1.788,3.575,3.575,0,1,1,0,7.15Z" transform="translate(-58.972 -35.497)"/>
          </g>
          <g id="Grupo_1230485" data-name="Grupo 1230485" transform="translate(5.363 8.938)">
            <path id="Trazado_1181580" data-name="Trazado 1181580" d="M18.323,44.223a5.363,5.363,0,1,1,5.363-5.363A5.368,5.368,0,0,1,18.323,44.223Zm0-8.938A3.575,3.575,0,1,0,21.9,38.86,3.579,3.579,0,0,0,18.323,35.285Z" transform="translate(-12.96 -33.497)"/>
          </g>
          <g id="Grupo_1230486" data-name="Grupo 1230486" transform="translate(8.044 11.619)">
            <path id="Trazado_1181581" data-name="Trazado 1181581" d="M18.641,41.86a2.681,2.681,0,1,1,2.681-2.681A2.685,2.685,0,0,1,18.641,41.86Zm0-3.575a.894.894,0,1,0,.894.894A.894.894,0,0,0,18.641,38.285Z" transform="translate(-15.96 -36.497)"/>
          </g>
        </g>
        <g id="Grupo_1230488" data-name="Grupo 1230488" transform="translate(28.553 41.198)">
          <path id="Trazado_1181582" data-name="Trazado 1181582" d="M32.868,52.974a.894.894,0,0,1-.632-1.526l2.588-2.588a.894.894,0,1,1,1.264,1.264L33.5,52.712A.894.894,0,0,1,32.868,52.974Z" transform="translate(-31.974 -48.598)"/>
        </g>
        <g id="Grupo_1230489" data-name="Grupo 1230489" transform="translate(0.895 41.156)">
          <path id="Trazado_1181583" data-name="Trazado 1181583" d="M4.554,52.969a.891.891,0,0,1-.632-.262l-2.63-2.63a.894.894,0,0,1,1.264-1.264l2.63,2.63a.894.894,0,0,1-.632,1.526Z" transform="translate(-1.03 -48.551)"/>
        </g>
        <g id="Grupo_1230490" data-name="Grupo 1230490" transform="translate(30.34 45.58)">
          <path id="Trazado_1181584" data-name="Trazado 1181584" d="M36.654,55.288H34.867a.894.894,0,1,1,0-1.788h1.788a.894.894,0,0,1,0,1.788Z" transform="translate(-33.973 -53.5)"/>
        </g>
        <g id="Grupo_1230491" data-name="Grupo 1230491" transform="translate(0 45.58)">
          <path id="Trazado_1181585" data-name="Trazado 1181585" d="M2.659,55.288H.922a.894.894,0,1,1,0-1.788H2.658a.894.894,0,0,1,0,1.788Z" transform="translate(-0.028 -53.5)"/>
        </g>
        <g id="Grupo_1230492" data-name="Grupo 1230492" transform="translate(30.337 2.68)">
          <path id="Trazado_1181586" data-name="Trazado 1181586" d="M34.864,34.095a.893.893,0,0,1-.894-.894V6.4a.894.894,0,1,1,1.788,0V33.2A.894.894,0,0,1,34.864,34.095Z" transform="translate(-33.97 -5.503)"/>
        </g>
        <g id="Grupo_1230493" data-name="Grupo 1230493" transform="translate(30.337)">
          <path id="Trazado_1181587" data-name="Trazado 1181587" d="M34.864,6.973a.893.893,0,0,1-.894-.894A3.579,3.579,0,0,1,37.545,2.5a.894.894,0,0,1,0,1.788,1.789,1.789,0,0,0-1.788,1.788A.894.894,0,0,1,34.864,6.973Z" transform="translate(-33.97 -2.504)"/>
        </g>
        <g id="Grupo_1230494" data-name="Grupo 1230494" transform="translate(50.001 2.68)">
          <path id="Trazado_1181588" data-name="Trazado 1181588" d="M56.867,34.095a.894.894,0,0,1-.894-.894l0-26.8a.894.894,0,0,1,1.788,0l0,26.8A.894.894,0,0,1,56.867,34.095Z" transform="translate(-55.971 -5.503)"/>
        </g>
        <g id="Grupo_1230495" data-name="Grupo 1230495" transform="translate(50.001)">
          <path id="Trazado_1181589" data-name="Trazado 1181589" d="M56.865,6.973a.893.893,0,0,1-.894-.894A3.579,3.579,0,0,1,59.546,2.5a.894.894,0,0,1,0,1.788,1.789,1.789,0,0,0-1.788,1.788A.894.894,0,0,1,56.865,6.973Z" transform="translate(-55.971 -2.504)"/>
        </g>
        <g id="Grupo_1230496" data-name="Grupo 1230496" transform="translate(52.684)">
          <path id="Trazado_1181590" data-name="Trazado 1181590" d="M62.547,6.973a.893.893,0,0,1-.894-.894,1.789,1.789,0,0,0-1.788-1.788.894.894,0,0,1,0-1.788,3.579,3.579,0,0,1,3.575,3.575A.894.894,0,0,1,62.547,6.973Z" transform="translate(-58.972 -2.504)"/>
        </g>
        <g id="Grupo_1230497" data-name="Grupo 1230497" transform="translate(33.018)">
          <path id="Trazado_1181591" data-name="Trazado 1181591" d="M57.528,4.292H37.864a.894.894,0,0,1,0-1.788H57.528a.894.894,0,0,1,0,1.788Z" transform="translate(-36.97 -2.504)"/>
        </g>
        <g id="Grupo_1230498" data-name="Grupo 1230498" transform="translate(50.001 5.365)">
          <path id="Trazado_1181592" data-name="Trazado 1181592" d="M62.227,10.294H56.865a.894.894,0,0,1,0-1.788h5.362a.894.894,0,0,1,0,1.788Z" transform="translate(-55.971 -8.506)"/>
        </g>
        <g id="Grupo_1230499" data-name="Grupo 1230499" transform="translate(55.363 2.68)">
          <path id="Trazado_1181593" data-name="Trazado 1181593" d="M62.864,9.975a.893.893,0,0,1-.894-.894V6.4a.894.894,0,1,1,1.788,0V9.081A.894.894,0,0,1,62.864,9.975Z" transform="translate(-61.97 -5.503)"/>
        </g>
        <g id="Grupo_1230500" data-name="Grupo 1230500" transform="translate(34.809 18.771)">
          <path id="Trazado_1181594" data-name="Trazado 1181594" d="M50.591,25.293H39.867a.894.894,0,0,1,0-1.788H50.591a.894.894,0,0,1,0,1.788Z" transform="translate(-38.973 -23.505)"/>
        </g>
        <g id="Grupo_1230501" data-name="Grupo 1230501" transform="translate(34.809 21.447)">
          <path id="Trazado_1181595" data-name="Trazado 1181595" d="M50.591,28.287H39.867a.894.894,0,0,1,0-1.788H50.591a.894.894,0,0,1,0,1.788Z" transform="translate(-38.973 -26.499)"/>
        </g>
        <g id="Grupo_1230502" data-name="Grupo 1230502" transform="translate(37.493 24.123)">
          <path id="Trazado_1181596" data-name="Trazado 1181596" d="M48.225,31.281H42.87a.894.894,0,0,1,0-1.788h5.356a.894.894,0,0,1,0,1.788Z" transform="translate(-41.976 -29.493)"/>
        </g>
      </g>
    </g>
  </g>
</svg>
