<svg xmlns="http://www.w3.org/2000/svg" xmlns:xlink="http://www.w3.org/1999/xlink" width="103" height="103" viewBox="0 0 103 103">
  <defs>
    <filter id="Trazado_982547" x="0" y="0" width="103" height="103" filterUnits="userSpaceOnUse">
      <feOffset dy="3" input="SourceAlpha"/>
      <feGaussianBlur stdDeviation="3" result="blur"/>
      <feFlood flood-opacity="0.161"/>
      <feComposite operator="in" in2="blur"/>
      <feComposite in="SourceGraphic"/>
    </filter>
  </defs>
  <g id="Grupo_1230372" data-name="Grupo 1230372" transform="translate(-194 -3198.047)">
    <g id="Grupo_1224496" data-name="Grupo 1224496" transform="translate(0 -2594.953)">
      <g id="Grupo_1224201" data-name="Grupo 1224201" transform="translate(-0.13 5367)">
        <g id="Grupo_1224080" data-name="Grupo 1224080" transform="translate(0 -1582)">
          <g id="Grupo_1206686" data-name="Grupo 1206686" transform="translate(-2.87 300.583)">
            <g id="Grupo_1201889" data-name="Grupo 1201889" transform="translate(206 1713.417)">
              <g id="Grupo_1201680" data-name="Grupo 1201680">
                <g id="Grupo_1201330" data-name="Grupo 1201330">
                  <g id="Grupo_1172010" data-name="Grupo 1172010">
                    <g id="Grupo_1171046" data-name="Grupo 1171046">
                      <g id="Grupo_1148525" data-name="Grupo 1148525">
                        <g transform="matrix(1, 0, 0, 1, -9, -6)" filter="url(#Trazado_982547)">
                          <g id="Trazado_982547-2" data-name="Trazado 982547" transform="translate(9 6)" fill="#f2f4f0">
                            <path d="M 42.5 83.5 C 36.96437835693359 83.5 31.59512901306152 82.41617584228516 26.54141235351562 80.27863311767578 C 21.65934181213379 78.21369171142578 17.27447128295898 75.25723266601562 13.50862312316895 71.49137878417969 C 9.742764472961426 67.72553253173828 6.786305904388428 63.34066009521484 4.721364498138428 58.45858764648438 C 2.583823442459106 53.40486907958984 1.5 48.03562164306641 1.5 42.5 C 1.5 36.96437835693359 2.583823442459106 31.59512901306152 4.721364498138428 26.54141235351562 C 6.786305904388428 21.65934181213379 9.742764472961426 17.27448272705078 13.50862312316895 13.50862312316895 C 17.27447128295898 9.742776870727539 21.65934181213379 6.786305904388428 26.54141235351562 4.721364498138428 C 31.59512901306152 2.583823442459106 36.96437835693359 1.5 42.5 1.5 C 48.03562164306641 1.5 53.40486907958984 2.583823442459106 58.45858764648438 4.721364498138428 C 63.34066009521484 6.786305904388428 67.72553253173828 9.742776870727539 71.49137878417969 13.50862312316895 C 75.25723266601562 17.27448272705078 78.21369171142578 21.65934181213379 80.27863311767578 26.54141235351562 C 82.41617584228516 31.59512901306152 83.5 36.96437835693359 83.5 42.5 C 83.5 48.03562164306641 82.41617584228516 53.40486907958984 80.27863311767578 58.45858764648438 C 78.21369171142578 63.34066009521484 75.25723266601562 67.72553253173828 71.49137878417969 71.49137878417969 C 67.72553253173828 75.25723266601562 63.34066009521484 78.21369171142578 58.45858764648438 80.27863311767578 C 53.40486907958984 82.41617584228516 48.03562164306641 83.5 42.5 83.5 Z" stroke="none"/>
                            <path d="M 42.5 3 C 37.16621398925781 3 31.99356079101562 4.043960571289062 27.125732421875 6.102882385253906 C 22.42246627807617 8.092185974121094 18.19785308837891 10.94070434570312 14.56928253173828 14.56928253173828 C 10.94070434570312 18.19785308837891 8.092185974121094 22.42246627807617 6.102882385253906 27.125732421875 C 4.043960571289062 31.99356079101562 3 37.16621398925781 3 42.5 C 3 47.83378601074219 4.043960571289062 53.00643920898438 6.102882385253906 57.87425231933594 C 8.092185974121094 62.57753372192383 10.94070434570312 66.80213165283203 14.56928253173828 70.43071746826172 C 18.19786834716797 74.05929565429688 22.42246627807617 76.90781402587891 27.125732421875 78.89711761474609 C 31.99356079101562 80.95603942871094 37.16621398925781 82 42.5 82 C 47.83378601074219 82 53.00642395019531 80.95603942871094 57.87425231933594 78.89711761474609 C 62.57753372192383 76.90781402587891 66.80213165283203 74.05929565429688 70.43071746826172 70.43071746826172 C 74.05929565429688 66.80213165283203 76.90781402587891 62.57753372192383 78.89711761474609 57.87425231933594 C 80.95603942871094 53.00642395019531 82 47.83378601074219 82 42.5 C 82 37.16621398925781 80.95603942871094 31.99356079101562 78.89711761474609 27.125732421875 C 76.90781402587891 22.42246627807617 74.05929565429688 18.19786834716797 70.43071746826172 14.56928253173828 C 66.80213165283203 10.94070434570312 62.57753372192383 8.092185974121094 57.87425231933594 6.102882385253906 C 53.00643920898438 4.043960571289062 47.83378601074219 3 42.5 3 M 42.5 0 C 65.97209167480469 0 85 19.02789306640625 85 42.5 C 85 65.97209167480469 65.97209167480469 85 42.5 85 C 19.02789306640625 85 0 65.97209167480469 0 42.5 C 0 19.02789306640625 19.02789306640625 0 42.5 0 Z" stroke="none" fill="#899e78"/>
                          </g>
                        </g>
                      </g>
                    </g>
                  </g>
                </g>
              </g>
            </g>
          </g>
        </g>
      </g>
    </g>
    <g id="law_18091998" transform="translate(192.146 3187.094)">
      <g id="Grupo_1230371" data-name="Grupo 1230371" transform="translate(26.784 33.464)">
        <path id="Trazado_1181287" data-name="Trazado 1181287" d="M116.533,39.63H91.278L80.66,51.257V84.679a3.164,3.164,0,0,0,3,3.289h32.871a3.164,3.164,0,0,0,3-3.289V42.915a3.163,3.163,0,0,0-3-3.285Z" transform="translate(-74.977 -39.63)" fill="#5ac0ee" fill-rule="evenodd"/>
        <path id="Trazado_1181288" data-name="Trazado 1181288" d="M108.187,39.63H91.278L80.66,51.257V69.421a20.7,20.7,0,0,0,9.43,2.258,21.3,21.3,0,0,0,18.1-32.049Z" transform="translate(-74.977 -39.63)" fill="#b5e4fa" fill-rule="evenodd"/>
        <path id="Trazado_1181289" data-name="Trazado 1181289" d="M80.66,51.258h7.617a3.164,3.164,0,0,0,3-3.289V39.63Z" transform="translate(-74.977 -39.63)" fill="#2387c9" fill-rule="evenodd"/>
        <path id="Trazado_1181290" data-name="Trazado 1181290" d="M323.837,193.58l10.976,8.843a2.039,2.039,0,1,1-2.56,3.174l-10.973-8.843Z" transform="translate(-286.938 -175.243)" fill="#4d4d4e" fill-rule="evenodd"/>
        <path id="Trazado_1181291" data-name="Trazado 1181291" d="M247.986,119.94l7.229,5.823-7.31,9.069-7.225-5.821Z" transform="translate(-215.938 -110.374)" fill="#666766" fill-rule="evenodd"/>
        <path id="Trazado_1181292" data-name="Trazado 1181292" d="M278.316,144.4l3.616,2.91-7.31,9.069-3.613-2.91Z" transform="translate(-242.655 -131.921)" fill="gray" fill-rule="evenodd"/>
        <path id="Trazado_1181293" data-name="Trazado 1181293" d="M300.555,85.132l7.258,5.851a2.195,2.195,0,1,1-2.751,3.421L297.8,88.553a2.2,2.2,0,0,1,2.755-3.421Z" transform="translate(-265.536 -79.287)" fill="#4d4d4e" fill-rule="evenodd"/>
        <path id="Trazado_1181294" data-name="Trazado 1181294" d="M310.737,85.134,318,90.985a2.195,2.195,0,0,1,.79,2.046,2.189,2.189,0,0,1-2.164-.337l-7.262-5.851a2.189,2.189,0,0,1-.79-2.043,2.2,2.2,0,0,1,2.168.334Z" transform="translate(-275.718 -79.29)" fill="#6f6f70" fill-rule="evenodd"/>
        <path id="Trazado_1181295" data-name="Trazado 1181295" d="M214.135,192.392l7.262,5.854a2.195,2.195,0,0,1-2.755,3.417l-7.262-5.851a2.2,2.2,0,0,1,2.755-3.421Z" transform="translate(-189.409 -173.772)" fill="#4d4d4e" fill-rule="evenodd"/>
        <path id="Trazado_1181296" data-name="Trazado 1181296" d="M224.318,192.4l7.262,5.854a1.265,1.265,0,1,1-1.378,1.708l-7.262-5.851a1.267,1.267,0,1,1,1.378-1.712Z" transform="translate(-199.593 -173.784)" fill="#6f6f70" fill-rule="evenodd"/>
        <path id="Trazado_1181297" data-name="Trazado 1181297" d="M350.849,217.954l2.742-3.4a1.767,1.767,0,0,1,2.481-.267l9.514,7.665a1.772,1.772,0,0,1,.267,2.485l-2.738,3.4a1.775,1.775,0,0,1-2.485.27l-9.514-7.667A1.773,1.773,0,0,1,350.849,217.954Z" transform="translate(-312.643 -193.142)" fill="#666766" fill-rule="evenodd"/>
        <path id="Trazado_1181298" data-name="Trazado 1181298" d="M365.23,216.243l1.371-1.7a1.767,1.767,0,0,1,2.481-.267l9.514,7.665a1.772,1.772,0,0,1,.267,2.485l-1.367,1.7Z" transform="translate(-325.653 -193.133)" fill="#8f8f8f" fill-rule="evenodd"/>
        <path id="Trazado_1181299" data-name="Trazado 1181299" d="M162.58,295.29h19.36v3.248H162.58Z" transform="translate(-147.14 -264.839)" fill="#748994" fill-rule="evenodd"/>
        <path id="Trazado_1181300" data-name="Trazado 1181300" d="M189.57,295.29h16.145v3.248H191.228A10.387,10.387,0,0,1,189.57,295.29Z" transform="translate(-170.915 -264.839)" fill="#9daeb7" fill-rule="evenodd"/>
        <path id="Trazado_1181301" data-name="Trazado 1181301" d="M149.269,329.745c4.582-2.451,8.708-3.832,12.786-3.086V322.55H136.48v4.109C140.558,325.914,144.688,327.294,149.269,329.745Z" transform="translate(-124.149 -288.852)" fill="#556f78" fill-rule="evenodd"/>
        <path id="Trazado_1181302" data-name="Trazado 1181302" d="M211.255,328.3c3.434-1.509,6.645-2.221,9.829-1.638V322.55H203.49A17.913,17.913,0,0,0,211.255,328.3Z" transform="translate(-183.177 -288.852)" fill="#82969d" fill-rule="evenodd"/>
        <path id="Trazado_1181303" data-name="Trazado 1181303" d="M32.95,420.41H83.186v3.9H61.257v1.077a1.643,1.643,0,0,1-1.641,1.641H56.523a1.645,1.645,0,0,1-1.644-1.641v-1.077H32.95Z" transform="translate(-32.95 -375.056)" fill="#fcc02d" fill-rule="evenodd"/>
        <path id="Trazado_1181304" data-name="Trazado 1181304" d="M67.08,355.838c7.015-.493,15.153-4.551,21.055,1.688v4.461H67.08Z" transform="translate(-63.015 -316.632)" fill="#feea3a" fill-rule="evenodd"/>
        <path id="Trazado_1181305" data-name="Trazado 1181305" d="M67.08,355.841c4.838-.341,10.21-2.374,15.015-1.56v.03c0,3.1-4.73,5.618-10.565,5.618a18.62,18.62,0,0,1-4.45-.521Z" transform="translate(-63.015 -316.635)" fill="#faf391" fill-rule="evenodd"/>
        <path id="Trazado_1181306" data-name="Trazado 1181306" d="M264.9,355.838c-7.019-.493-15.153-4.551-21.055,1.688v4.461H264.9Z" transform="translate(-218.73 -316.632)" fill="#feea3a" fill-rule="evenodd"/>
        <path id="Trazado_1181307" data-name="Trazado 1181307" d="M309.557,355.841c-4.842-.341-10.214-2.374-15.017-1.56v.03c0,3.1,4.73,5.618,10.565,5.618a18.674,18.674,0,0,0,4.453-.521v-3.567Z" transform="translate(-263.383 -316.635)" fill="#faf391" fill-rule="evenodd"/>
      </g>
      <path id="Trazado_1181308" data-name="Trazado 1181308" d="M35.823,61.791a.834.834,0,0,1,0-1.668H47.917a.834.834,0,0,1,0,1.668Zm6.671-6.1a.834.834,0,0,1,0-1.668h3.379a.834.834,0,0,1,0,1.668Zm-6.671,0a.834.834,0,0,1,0-1.668h4.321a.834.834,0,1,1,0,1.668Zm8.968-6.105a.834.834,0,0,1,0-1.668h5.142a.834.834,0,1,1,0,1.668Zm-8.968,0a.834.834,0,1,1,0-1.668h6.253a.834.834,0,1,1,0,1.668Zm36.3,28.4V73.436c-1.621-.169-3.191-.473-4.818-.784-5.182-.992-10.506-2.009-14.568,2.039v3.292Zm-21.055,0V74.692C47,70.643,41.684,71.659,36.5,72.652c-1.627.311-3.2.615-4.818.784v4.548Zm.834-4.792c3.559-3.318,7.722-3.434,11.952-2.832V68H39.949V70.36C44.182,69.758,48.342,69.874,51.9,73.192Zm13.62-2.566c1.651.291,3.342.652,4.983.911V66.055l-5.77-4.649a2.6,2.6,0,0,1-.753-3.059l-2.731-2.2-1.4,1.739a3.026,3.026,0,0,1-4.355,4.12q-3.641-2.912-7.262-5.851a3.026,3.026,0,0,1,3.1-5.135l6.634-8.235a3.026,3.026,0,0,1,4.358-4.119l7.262,5.851a3.027,3.027,0,0,1,.922,1.259V36.749A2.336,2.336,0,0,0,68.34,34.3H43.919v7.509a4,4,0,0,1-3.835,4.119H33.3V71.538c1.638-.26,3.329-.622,4.98-.911V67.163a.833.833,0,0,1,.834-.83H41.39V63.915a.832.832,0,0,1,.834-.834h19.36a.833.833,0,0,1,.834.834v2.418H64.69a.831.831,0,0,1,.834.83Zm6.651,1.137c.267.031.534.054.8.074a.835.835,0,0,1,.821.834v5.311H77.02a.835.835,0,0,1,.834.834v3.9a.834.834,0,0,1-.834.834h-21.1V83.8a2.482,2.482,0,0,1-2.475,2.479H50.356A2.484,2.484,0,0,1,47.878,83.8v-.243H26.784a.833.833,0,0,1-.834-.834v-3.9a.836.836,0,0,1,.834-.834h3.231V72.672a.833.833,0,0,1,.821-.834c.263-.02.53-.044.8-.074V45.092a.821.821,0,0,1,.254-.6L42.437,32.937a.837.837,0,0,1,.648-.307H68.339a4,4,0,0,1,3.835,4.119v18.37l8.073,6.506a2.6,2.6,0,0,1,.4,3.653l-2.738,3.4a2.6,2.6,0,0,1-3.653.4L72.176,67.4v4.366Zm4.012,7.887H27.619v2.236h21.1a.834.834,0,0,1,.834.834V83.8a.812.812,0,0,0,.81.81h3.093a.812.812,0,0,0,.806-.81V82.721a.835.835,0,0,1,.834-.834h21.1ZM43.057,66.331H60.75V64.748H43.057Zm21.9-9.338,1.513-1.877-2.657-2.144L62.3,54.849Zm2.63-3.117a2.609,2.609,0,0,1,2.921-.081V47.967a3.037,3.037,0,0,1-4.021,1.682l-1.631,2.026Zm.756,1.567-2.7,3.353a.941.941,0,0,0,.142,1.314l9.514,7.668a.941.941,0,0,0,1.314-.142l2.738-3.4a.945.945,0,0,0-.138-1.317L69.66,55.232a.946.946,0,0,0-1.253.135C68.387,55.393,68.367,55.416,68.343,55.444ZM52.694,51.975l5.933,4.777,6.5-8.059q-2.973-2.385-5.933-4.781Zm5.554,6.612-7.262-5.851a1.363,1.363,0,1,0-1.665,2.157l7.171,5.777A1.339,1.339,0,0,0,57.54,61,1.362,1.362,0,0,0,58.248,58.587ZM68.542,45.81,61.28,39.96a1.363,1.363,0,1,0-1.665,2.157l7.171,5.777a1.339,1.339,0,0,0,1.047.328A1.362,1.362,0,0,0,68.542,45.81ZM34.354,44.257h5.729a2.334,2.334,0,0,0,2.168-2.451V35.611Z"/>
    </g>
  </g>
</svg>
