<svg xmlns="http://www.w3.org/2000/svg" xmlns:xlink="http://www.w3.org/1999/xlink" width="600" height="322.942" viewBox="0 0 600 322.942">
  <defs>
    <clipPath id="clip-path">
      <rect id="Rectángulo_419506" data-name="Rectángulo 419506" width="600" height="322.942" transform="translate(0 -22.981)" fill="#fff" opacity="0.4"/>
    </clipPath>
    <clipPath id="clip-path-2">
      <rect id="Rectángulo_419389" data-name="Rectángulo 419389" width="347.624" height="322.942" transform="translate(0 0)" fill="none"/>
    </clipPath>
    <filter id="Trazado_1043752" x="96" y="45.011" width="96.939" height="95.941" filterUnits="userSpaceOnUse">
      <feOffset dy="3" input="SourceAlpha"/>
      <feGaussianBlur stdDeviation="3" result="blur"/>
      <feFlood flood-opacity="0.161"/>
      <feComposite operator="in" in2="blur"/>
      <feComposite in="SourceGraphic"/>
    </filter>
    <clipPath id="clip-path-3">
      <rect id="Rectángulo_419390" data-name="Rectángulo 419390" width="87.603" height="120.713" fill="none"/>
    </clipPath>
    <clipPath id="clip-path-4">
      <rect id="Rectángulo_419391" data-name="Rectángulo 419391" width="121.311" height="127.049" fill="none"/>
    </clipPath>
  </defs>
  <g id="Enmascarar_grupo_1098809" data-name="Enmascarar grupo 1098809" transform="translate(0 22.981)" clip-path="url(#clip-path)">
    <g id="Grupo_1210409" data-name="Grupo 1210409" transform="translate(42.5 7.781)">
      <rect id="Rectángulo_419387" data-name="Rectángulo 419387" width="505" height="110.934" rx="10" transform="translate(0 156.163)" fill="#e5782d"/>
      <g id="Grupo_1210405" data-name="Grupo 1210405" transform="translate(103.876 -30.762)">
        <g id="Grupo_1203648" data-name="Grupo 1203648" transform="translate(0 0)">
          <g id="Grupo_1203647" data-name="Grupo 1203647" clip-path="url(#clip-path-2)">
            <path id="Trazado_1043624" data-name="Trazado 1043624" d="M2704.891,849.455c-1.559,3.069-3.232,6.116-3.867,9.531a9.386,9.386,0,0,0,3.044,8.956c1.868,1.762,3.693,3.569,5.538,5.356.774.247,1.037.945,1.384,1.568a4.336,4.336,0,0,0,.409.758c2.285,2.648,16.43,3.8,19.944,3.541a46.688,46.688,0,0,1,23.145,17.684c3.783,5.331,5.345,11.781,6.868,18.087a65.6,65.6,0,0,1,1.476,23.152,26.864,26.864,0,0,1-3.33,9.738,85.311,85.311,0,0,1-19.474,24.085,135.461,135.461,0,0,1-11.821,9.781c-1.285-.131-1.486-1.225-1.843-2.134-5.139-13.088-9.675-26.392-14.287-39.671-2.515-7.239-6.421-13.845-10.043-20.577a169.042,169.042,0,0,0-10.874-17.916,15.412,15.412,0,0,0-3.458-3.834c-2.624-2.569-4.882-5.493-7.837-7.75-7.1-5.42-14.46-10.3-23.264-12.564-2.206-.566-2.7-1.311-2.568-3.335.287-4.515-.482-5.728-4.63-7.3a2.628,2.628,0,0,1-1.112-.646c-.742-1.14-.363-2.356-.291-3.573a12.957,12.957,0,0,0-3.474-9.871c-4.49-5.079-10.451-6.735-16.894-7.5-3.716-.442-7.452-.1-11.15-.62a1.28,1.28,0,0,1-.4-.574,3.2,3.2,0,0,1,.358-2.28,40.885,40.885,0,0,0,3.468-12.315,4.249,4.249,0,0,1,.493-1.626c.973-.944,1.38.078,1.842.6a15.73,15.73,0,0,0,3.358,3.274c.986.39,1.845-.12,2.739-.395,3.034-.748,4.019-2.791,4.4-5.789,1.3-10.376,3.71-20.57,5.494-30.869a10.365,10.365,0,0,0,.057-4.276c1-2.163,2.57-2.372,3.966-.521a9.656,9.656,0,0,1,1.134,2.535c-.1,3.688-1.415,7.144-2.123,10.717-1.554,7.853-2.589,15.8-4.417,23.784,1.01,0,1.5-.708,2.16-1.01.948-.34,1.615-1.156,2.548-1.521,1.271-.676,1.6-2,2.035-3.173a51.368,51.368,0,0,0,3.222-14.415c.119-1.821,1.069-3.627.231-5.489-.193-1.683-1.511-3.131-1.046-4.955a2.231,2.231,0,0,1,.8-1.006,29.375,29.375,0,0,1,15.565-5.268c1.411-.071,2.379.888,3.256,1.9,1.109,1.279,2.272,2.479,4.226,2.005a.74.74,0,0,1,.628.095c3.364,2.987,6.749.82,9.941-.213a7.825,7.825,0,0,1,6.436.263c11.6,5.964,19.292,15.1,22.844,27.727,2.375,8.444.677,16.285-3.078,23.9a38.4,38.4,0,0,0-1.722,3.949" transform="translate(-2422.477 -730.051)" fill="#64b1f1"/>
            <path id="Trazado_1043625" data-name="Trazado 1043625" d="M829.214,3585.569a330.35,330.35,0,0,1-34.632-3.592,366.983,366.983,0,0,1-47.5-10.406c-2.078-2.222-1.221-5.045-1.439-7.608a23.005,23.005,0,0,1,.215-5.133,44.317,44.317,0,0,1,1.574-8.893c2.422-7.483,5.784-14.4,11.643-19.893,4.437-4.161,9.273-6.449,15.637-5.279a132.4,132.4,0,0,1,17.733,4.632c.692.328,1.449.506,2.126.877a82.145,82.145,0,0,1,8.892,3.526c1.408.665,2.74,1.478,4.139,2.161,3.185,1.674,6.246,3.568,9.4,5.3a165.456,165.456,0,0,1,19.106,13.886,5.877,5.877,0,0,0,1.27.793c3.021,2.239,6.014,4.515,8.857,6.982,2.151,1.567,4.277,3.166,6.392,4.779.678.517,1.453.962,1.735,1.858.113,1.041-.649,1.53-1.323,2.056-6.238,4.863-12.855,9.184-19.438,13.553-1.385.919-2.9.532-4.385.4" transform="translate(-690.423 -3263.737)" fill="#201f50"/>
            <path id="Trazado_1043626" data-name="Trazado 1043626" d="M2131.63,3677.99a337.965,337.965,0,0,1-47.256,8,481.79,481.79,0,0,1-57.64,2.743c-5.043-.078-10.083-.32-15.124-.486-.453-.771.193-1.061.658-1.313,9.8-5.284,17.958-12.749,26.38-19.862,8.551-7.22,17.3-14.154,27.338-19.268,6.872-3.5,13.791-6.829,20.376-7.505a64.728,64.728,0,0,0-17.933,5.937c-2.558,1.261-5.464,1.8-8.063,3.07a1.372,1.372,0,0,1-1.617-.226c-.026-1.471,1.219-1.829,2.168-2.364,6.14-3.458,12.368-6.729,19.225-8.586a4.989,4.989,0,0,0,.59-.268c7.783-2.155,15.633-3.757,23.781-2.911a25.8,25.8,0,0,1,3.492.465c.642.181,1.309.274,1.946.48,1.188.479,2.454.733,3.633,1.245,1.415.529,2.707,1.319,4.1,1.906,8.461,5.007,13.079,12.557,14.658,22.126.4,2.424.514,4.873.714,7.318-.139,1.851-.172,3.7-.128,5.556a5.168,5.168,0,0,1-1.3,3.938" transform="translate(-1862.658 -3365.844)" fill="#201f50"/>
            <path id="Trazado_1043627" data-name="Trazado 1043627" d="M444.255,2307.782c-6.078-1.742-12.085-3.673-18.38-4.668a15.108,15.108,0,0,0-12.779,3.64,39.592,39.592,0,0,0-11.262,15.851c-.664,1.638-1.226,3.316-1.834,4.976-3.063-1.579-6.189-.279-9.28-.17-5.89.207-11.79.762-17.552-1.074-1.774-2.3-2.4-5.053-2.932-7.805-1.823-9.477.221-18.5,3.306-27.4a28.842,28.842,0,0,0,1.789-5.531c-.441-.986.052-1.823.436-2.672,1.573-3.478,3.092-6.98,4.629-10.474.744-2.623,2.537-4.678,3.9-6.945,7.419-12.365,14.241-25.077,21.826-37.342,4.625-7.48,9.274-14.95,14.889-21.751.811-.982,1.5-2.426,3.266-1.817a30.535,30.535,0,0,0,4.25,4.877,7.18,7.18,0,0,1,1.861,2.63c2.861,8.041,5.341,16.164,5.221,24.832a15.312,15.312,0,0,1-.088,1.944c-.339,2.392-1.445,3.169-3.731,2.46-2.488-.771-5.052-1.187-7.568-1.818a10.4,10.4,0,0,0-4.922.078c-2.2.5-2.906,1.585-2.214,3.781,1.127,3.577,2.667,7.007,3.87,10.562a59.061,59.061,0,0,1,1.834,8.225,2.312,2.312,0,0,1-.508,2.223c-1.076.568-1.8-.185-2.482-.767a71.533,71.533,0,0,1-9.683-10.664,44.9,44.9,0,0,1,3.073,4.722c2.292,4.555,5.7,8.267,9.113,11.96,1.859,2.009,3.891,3.856,5.776,5.843.689.727,1.561,1.537,1.1,2.625-.442,1.052-1.609,1.1-2.616,1.2-3.767.364-6.875-1.324-9.811-3.336-4.167-2.856-7.725-6.435-11.368-9.848.612.75,1.383,1.4,2.057,2.153,1.27,1.7,3.172,2.859,4.141,4.819a26.374,26.374,0,0,0,1.42,2.667c1.374,2.223.769,3.867-1.7,4.68-2.741.9-5.587,1.47-8.3,2.452-5.981,2.162-11.957,4.354-16.557,9.052a15.578,15.578,0,0,0-2.317,2.849c-.461.771-1.522,1.62-.932,2.434.557.768,1.776.179,2.639-.024,2.316-.546,4.637-1.1,6.895-1.863,10.22-3.461,20.782-4.744,31.511-4.938,1.124-.02,2.342-.217,3.256.763-.136,1.176-1.125,1.135-1.927,1.316-4.221.953-8.531,1.38-12.787,2.133a110.913,110.913,0,0,0-23.833,6.9,3.479,3.479,0,0,0-2.142,1.488,4.048,4.048,0,0,0,2.792.779,44.333,44.333,0,0,0,11.388-.918c11.65-2.366,23.319-4.638,34.913-7.276,2.252-.513,4.419-1.324,6.656-1.884,2.3-.575,3.014.023,2.276,2.172a5.45,5.45,0,0,0,.873,5.462c.34,1.688-.1,3.347-.215,5.014-.045.672-.292,1.416-1.236,1.428" transform="translate(-342.212 -2041.379)" fill="#fec53b"/>
            <path id="Trazado_1043628" data-name="Trazado 1043628" d="M3319.171,2392.21a70.426,70.426,0,0,0-1.273-9.614,28.94,28.94,0,0,0-12.177-17.953c-.531-.356-1.02-.777-1.528-1.167a2.076,2.076,0,0,1-.753-1.695c.385-2.444,0-4.951.621-7.368.8-1.3,1.7-.7,2.536-.074a30.335,30.335,0,0,1,2.786,3.014c7.792,7.716,15.458,15.566,23.882,22.611a20.506,20.506,0,0,0,7.127,4.011,4.317,4.317,0,0,0,4.258-.786c6.63-5.321,8.911-16.354,4.928-23.862a17.907,17.907,0,0,0-2.794-3.562c-.6-.656-1.5-1.256-.987-2.4,1.291-.708,2.2.14,3.1.82a26.789,26.789,0,0,1,4.116,4.244c1.15-8.983-4.84-16.224-14.093-17.027-4.143-.36-8.366-.564-12.157,1.8-1.97.336-3.847-.345-5.767-.535a108.9,108.9,0,0,0-14.615-.873,3.86,3.86,0,0,1-1.683-.306c-1.181-.661-.707-1.566-.068-2.117a87.732,87.732,0,0,0,9.958-10.49.886.886,0,0,1,1-.182c1.29.978.833,2.173.357,3.319a33.078,33.078,0,0,1-4.181,6.742,11.4,11.4,0,0,0,6.041-2.88,24.5,24.5,0,0,0,7.377-10.252,47.656,47.656,0,0,0,2.637-17.824c-.238-13.511-6.409-24.992-12.1-36.65-1.373-2.814-1.571-2.658-3.457-.16a59.579,59.579,0,0,0-8.926,15.5c-2.022,5.574-3.285,11.282-2.633,17.178a20.447,20.447,0,0,0,10.523,16.245,8.485,8.485,0,0,0,3.552.811c1.1.111,2.126.546,2.055,1.782-.106,1.836.195,3.767-.848,5.469a7.134,7.134,0,0,0-2.157,1.7,66.542,66.542,0,0,1-11.85,10.989c-.248-.031-.039.494-.042.2,0-.088.056-.1.147-.124.484-.126.852-.093.841.544-.979,1.216-2.116.508-3.217.271a4.7,4.7,0,0,1-3.028-1.856,18.914,18.914,0,0,1-1.337-5.443c-.635-3.99-1.722-7.893-2.22-11.907-.011-.839-.008-1.678-.009-2.516a98.851,98.851,0,0,1,9.283-42.707c1.606-3.457,3.628-6.711,5.532-10.019a13.517,13.517,0,0,0,1.751-3.692c1.175-2.71,2.484-5.318,5.363-6.659,1.732.685,2.554,2.27,3.554,3.657,6.4,8.858,11.3,18.589,16.431,28.185,5.344,9.99,7.982,21,11.969,31.508,2.532,6.671,4.955,13.385,7.448,20.071a7.518,7.518,0,0,0,.784,1.273c.812,3.456,2.514,6.585,3.629,9.933,2.788,8.369,3.349,16.777.729,25.292a11.717,11.717,0,0,0-.258,1.476c.437,2.127-.692,3.89-1.459,5.684-1.3,3.037-2.887,5.914-6.114,7.392a90.638,90.638,0,0,1-12.141,4.611c-4.4.061-8.571-1.444-12.909-1.821-1.633-.142-3.246-.529-4.886-.645a3.875,3.875,0,0,1-2.657-1.178" transform="translate(-3049.509 -2089.825)" fill="#f3a62f"/>
            <path id="Trazado_1043629" data-name="Trazado 1043629" d="M38.807,1361.992,33.12,1375c-2.5-1.06-4.393-3.007-6.4-4.708A74.466,74.466,0,0,1,5.9,1342.326,78.481,78.481,0,0,1,.22,1317.2c-1.436-19.1,4.173-35.945,16.081-50.752,5.907-7.345,13.132-13.26,20.918-18.569a149.113,149.113,0,0,1,40.267-19.619,183.11,183.11,0,0,1,30.947-6.73,23.686,23.686,0,0,1,4.286-.408,3.812,3.812,0,0,1,2.147,4.367,2.879,2.879,0,0,1-2.177.762c-21.652,2.127-42.159,8.372-61.685,17.747a84.294,84.294,0,0,0-26.619,20.446A92.059,92.059,0,0,0,9.663,1286c-4.534,9.575-6.774,19.59-5.651,30.229a5.818,5.818,0,0,1,.055,1.512c-1.055,6.573,2.116,11.75,5.633,16.751,6.979,9.924,15.931,17.824,25.8,24.751a13.059,13.059,0,0,1,3.307,2.754" transform="translate(0 -1130.777)" fill="#83c8f4"/>
            <path id="Trazado_1043630" data-name="Trazado 1043630" d="M1483.29,68.26c-.83-2.515-.515-5.137-.6-7.7-.235-6.794-.027-13.58,1.96-20.159,1.972-6.528,5.392-12.1,11.293-16.118-2.2-1.937-4.358-3.814-4.193-6.992a6.175,6.175,0,0,1,1.683-3.964c1.123,4.885,2.96,5.953,7.83,4.769,4.577-1.113,8.711-3.434,13.2-4.8,5.014-1.532,10.022-2.156,15.023-.011a2.9,2.9,0,0,0,2.283-.1,23.94,23.94,0,0,1,5.555-1.49c-1.578-1.972-3.1-3.752-4.485-5.639-1.544-2.112-1.1-2.969,1.55-3.266a12.988,12.988,0,0,1,9.489,2.884,35.019,35.019,0,0,1,5.106,4.738c-1.152-3.31-2.4-6.581-.777-10.407,3.73,6.674,9.457,9.626,16.38,10.791,3.691.621,7.138,1.793,9.153,5.616.27-2.07-.562-3.727-.847-5.5,2.508,1.18,3.59,3.1,3.74,6.586,1.557-1.832,1.8-2.851,1.957-8.494,2.423,1.751,2.836,4.109,2.587,6.695-.2,2.1-1.221,3.529-3.524,3.665.188.83.877,1.013,1.4,1.334,10.961,6.744,16.15,16.887,17.332,29.391.19,2.01.333,4.025.5,6.038,1.471,2.972.956,6.025.373,9.08-.42.72-.925,1.258-1.862.855-1.824-.859-1.907-2.53-1.96-4.214-.8-3.837-.319-7.757-.8-11.633-.893-7.167-2.987-13.777-7.57-19.5-2.015-2.514-4.724-4.189-6.973-6.213a24.45,24.45,0,0,1,3.595,5.227,31.9,31.9,0,0,0,4.437,6.637c1.666,1.824,1.359,2.689-1,3.463-1.41,0-1.934-1.042-2.5-2.073a39.47,39.47,0,0,0-10.81-13.053c-7.93-5.966-17.01-8.677-26.751-9.366a61.232,61.232,0,0,0-25.266,3.8,39.054,39.054,0,0,0-23.095,21.157c-.631,1.366-1.073,2.916-2.976,3.034-2.308-.447-3.153-1.324-3.371-3.5a9.13,9.13,0,0,1,7.493-9.846c-1.921-.906-2.144-1.491-1.074-2.818-5.788,6.1-9.5,13.212-10,21.7-.3,5.1-1.053,10.205-.178,15.322a7.821,7.821,0,0,1,.3,2.323,3.02,3.02,0,0,1-2.145,2.5,1.445,1.445,0,0,1-1.449-.764" transform="translate(-1372.932 -0.004)" fill="#1f1f51"/>
            <path id="Trazado_1043632" data-name="Trazado 1043632" d="M4176.638,1981.409c.84-.388-11.146.651-19.319-1.788-7.168-2.138-10.761-12.373-10.144-12.961,4.995,2.044,43.52,15.141,48.331,17.655,10.741,5.614,18.11,13.935,19.616,26.163a53.321,53.321,0,0,1-4.638,28.655,63.956,63.956,0,0,1-4.507,9.087c-.316.481-.524,1.033-1.077,1.313a49.048,49.048,0,0,0,2.989-17.99,73.9,73.9,0,0,0-7.352-30.4c-2.7-5.635-7.547-9.567-12.418-13.319a50.168,50.168,0,0,0-11.481-6.417" transform="translate(-3867.877 -1831.759)" fill="#82c8f4"/>
            <path id="Trazado_1043633" data-name="Trazado 1043633" d="M3023.939,756.843c.442-3.152.013-6.322.192-9.479a129.972,129.972,0,0,1,16.8-.9,62.269,62.269,0,0,1,31.733,8.564c10.636,6.364,16.471,15.876,17.778,28.3,1.078,10.24-2.016,19.131-7.837,27.315-.089-2.49,1.107-4.614,2.094-6.743,5.68-12.24,2.881-23.432-4.154-34.07a41.565,41.565,0,0,0-15.772-13.8c-2-1.051-3.825-1.728-6.271-.461a18.314,18.314,0,0,1-9.819,1.65c-1.232-.091-.362-1.147-.618-1.819-2.03,1.859-3.749.11-4.424-1.029-2.094-3.534-5.043-2.849-7.94-2.081-4.1,1.087-8.167,2.39-11.61,5.051a.338.338,0,0,1-.207-.3c0-.132.02-.2.055-.2" transform="translate(-2800.19 -691.236)" fill="#82c7f4"/>
            <path id="Trazado_1043634" data-name="Trazado 1043634" d="M1933.429,3708.67c1.762.024,2.962-1.393,4.555-1.784,4.459-1.092,8.416-3.462,12.729-4.973,4.278-1.5,8.681-1.888,13.04-2.717a.9.9,0,0,1,1.045.392c-.9.8-2.058.421-3.04.617-8.587,1.72-16.345,5.483-23.912,9.68-10.314,5.721-19.16,13.408-28.095,21-6.677,5.675-13.372,11.369-21.068,15.714-.777.438-1.888.333-2.351,1.319a98.278,98.278,0,0,1-10.162-.575c2.555.492,4.236-1.234,6.1-2.444,6.142-3.991,12.153-8.17,17.99-12.6.352-.267.7-.506.741-.991.059-1.062.885-1.55,1.59-2.132,1.743-1.438,3.713-2.574,5.412-4.072a271.1,271.1,0,0,1,22.314-15.524c.926-.557,1.805-1.543,3.113-.916" transform="translate(-1737.38 -3425.515)" fill="#2a3272"/>
            <path id="Trazado_1043635" data-name="Trazado 1043635" d="M312.008,3908.375c-.136,4.351-.351,8.705.537,13.014-10.488-3.125-20.647-7.18-30.915-10.926a13.783,13.783,0,0,1-4.518-2.482c-1.145-1.014-1.026-1.708.322-2.4,3.126-1.606,6.542-2.129,9.93-2.766.625-.118,1.313.026,1.81-.522a1.066,1.066,0,0,1,.843.036c4.535,2.949,9.9,2.749,14.9,3.929,1.606.378,3.246.653,4.881.917a3.145,3.145,0,0,1,2.209,1.2" transform="translate(-255.888 -3613.553)" fill="#62b1f2"/>
            <path id="Trazado_1043636" data-name="Trazado 1043636" d="M443.642,3854.26c-5.6-1-11.194-2.058-16.812-2.952a11.67,11.67,0,0,1-6.023-3.133c-.62-1.356-1.91-2.3-2.327-3.78,1.076-.979,2.191-.18,3.269-.035a77.752,77.752,0,0,0,19.447-.311c1.52-.178,3.552-1,4.116,1.588l-1.669,8.622" transform="translate(-387.522 -3559.439)" fill="#f4a52c"/>
            <path id="Trazado_1043637" data-name="Trazado 1043637" d="M3636.642,4087.62a155.37,155.37,0,0,1,16.967,2.587c1.181.259,2.323.7,3.483,1.056-6.361,2.593-13.026,4.152-19.676,5.763-.49.118-.978.238-1.466.356.644-3.225.452-6.51.691-9.762" transform="translate(-3366.979 -3785.237)" fill="#61b1f3"/>
            <path id="Trazado_1043638" data-name="Trazado 1043638" d="M1475.852,922.683l1.276.448c1.187.341,1.655,1.362,2.084,2.341,3.693,8.422,6.268,17.129,6.6,26.394a3.262,3.262,0,0,1-.233,1.9c-1.982.829-2.542-.727-3.3-1.962-2.267-7.522-4.494-15.058-7.027-22.5a7.97,7.97,0,0,1-.656-3.367c-.093-1.283.853-2.165,1.255-3.257" transform="translate(-1365.494 -854.427)" fill="#385fb2"/>
            <path id="Trazado_1043639" data-name="Trazado 1043639" d="M4085.88,3910.862c4.042-3.479,5.821-8.269,7.573-13.076a30.037,30.037,0,0,1,8.216,2.542c2.613,1.334,2.646,2.716.035,4.3a55.258,55.258,0,0,1-10.451,4.637,26.48,26.48,0,0,1-5.372,1.6" transform="translate(-3783.624 -3609.445)" fill="#62b1f3"/>
            <path id="Trazado_1043641" data-name="Trazado 1043641" d="M1469.058,966.712c1.776,3.319,2.677,6.965,3.831,10.505,1.67,5.123,3.13,10.314,4.679,15.476-2.123.153-2.884-.58-2.943-2.836a20.622,20.622,0,0,0-1.95-4.312,94.738,94.738,0,0,1-3.91-15.694,4.073,4.073,0,0,1,.292-3.139" transform="translate(-1359.955 -895.199)" fill="#f4d23f"/>
            <path id="Trazado_1043642" data-name="Trazado 1043642" d="M1319.711,1584.534c-1.66,2.156-3.578,4.121-4.829,6.577a3.2,3.2,0,0,1-1.632,2.457c-2.411.243-3.061,2.459-4.166,3.986a35.388,35.388,0,0,0-5.871,13.1,2.911,2.911,0,0,1-1.047,2.067c-3.584,1.743-4.3,1.578-6.6-1.7-2.64-3.775-4.943-7.807-8.3-10.636a42.82,42.82,0,0,1,4.138,18.907,12.26,12.26,0,0,1-.517,3.621,41.4,41.4,0,0,1-14.369,26.448,6.324,6.324,0,0,1-2.825,1.52c-4.366-1.369-8.572-2.951-10.244-7.85a113.419,113.419,0,0,1,.054-13.621,7.015,7.015,0,0,0-.1-1.938,8.14,8.14,0,0,1-.05-1.888c.417-2.741.139-5.283-2.086-7.272a6.428,6.428,0,0,0-4.581-1.563c-11.668,0-23.331.448-35,.572-4.054.043-8.213-.205-12.263.663a3.535,3.535,0,0,0-1.586.6,16.215,16.215,0,0,0-3.479,4.217,6.979,6.979,0,0,0-.625,3.566c0,5.321.023,10.643-.007,15.964-.015,2.682-.785,3.249-3.461,2.891-3.644-.487-7.311-.967-10.629,1.286a7.44,7.44,0,0,0-2.812,2.474c-.541.775-1.1,1.481-2.2,1.3a38.586,38.586,0,0,1-12.318-11.041c-5.876-8.5-9.084-18.27-12.216-26.658.661,2.966,2.734,6.827,3.661,11.069a80.608,80.608,0,0,1,1.6,12.423,102.306,102.306,0,0,0,2.34,18.645,29.189,29.189,0,0,0,4.177,9.449c.474.7,1.269,1.424.826,2.317-.482.973-1.613.936-2.514.845-3.358-.337-6.763.365-10.1-.471a4.721,4.721,0,0,1-1.01-1.094c-1.143-2.646-.9-5.493-1.207-8.264-.4-3.71-1.042-7.39-1.509-11.092a4.908,4.908,0,0,0-.214-2.856c.027-2.3-1.029-4.46-.907-6.776a8.407,8.407,0,0,0,.368-4.055c-.592-7.033-.842-14.11-2.32-21.04A106.661,106.661,0,0,0,1141.5,1580.2c-.262-.453-.47-.9-1.094-.857-.657-.335-1.458-.356-2.027-.9.088-1.278,1.152-1.769,1.992-2.4,6.186-4.677,12.667-8.849,20.037-11.451,1.56-.551,1.827-1.361,1.288-2.951-1.348-3.972-.325-7.336,2.712-9.708.982-.767,2.029-1.421,3.373-.928.178.533.165,1.057.8,1.471a36.145,36.145,0,0,1,6.181,4.99,16.87,16.87,0,0,1-4.129-4.651,6.339,6.339,0,0,0-2.735-2.624c-1.262-2.3-.858-4.623-.009-6.9,1.494-4,4.517-6.617,8.134-8.636,4.934-2.754,10.373-3.453,15.877-3.668,2.572-.1,5.2-.412,7.746.362a5.382,5.382,0,0,1,2.2,5.677,1.754,1.754,0,0,1-.409.617c-1.231.831-2.637.586-3.99.61-4.172.075-8.385-.357-12.447,1-2.337.783-4.707,1.561-5.661,4.213-.674,1.966.036,3.748.738,5.527.443,1.122,1.27,2.046,1.669,3.193a6.247,6.247,0,0,0,2.624,4.53c7.468,6.033,14.668,12.4,22.654,17.78,1.182.8,2.5,1.629,1.991,3.456a8.964,8.964,0,0,1-1.073,1.568,3.352,3.352,0,0,0,.376,4.291c.578.692,1.435,1.191,1.566,2.206a1.33,1.33,0,0,1-1.8,1.332c-2.445-.771-5.017-.4-7.475-1.06a26.725,26.725,0,0,1-7.056-3.178,5.2,5.2,0,0,0-3-1.073,58.371,58.371,0,0,1-13.517-8.029c3.81,2.914,6.868,5.986,10.287,8.646a50.838,50.838,0,0,0,23.235,9.838,4.738,4.738,0,0,1,2.261.635,8.466,8.466,0,0,1,1.287,5.98,16.884,16.884,0,0,1-5.167,11.34,3.368,3.368,0,0,0-1.26,1.9,17.467,17.467,0,0,0,7.2-13.675c.087-1.552-.363-3.192.667-4.618a3.585,3.585,0,0,1,2.882-.59,96.549,96.549,0,0,0,12.3.717c.916-.025,1.909-.176,2.6.7.775,1.644.38,3.4.433,5.11a18.785,18.785,0,0,0,4.243,11.765,7.288,7.288,0,0,0,1.033,1.1.658.658,0,0,0,.718.088c.211-.807-.522-1.187-.923-1.687a18.862,18.862,0,0,1-3.986-15.4,3.165,3.165,0,0,1,.935-2.123c7.213.3,13.378-2.784,19.509-6.011a69.755,69.755,0,0,0,17.93-13.382,23.852,23.852,0,0,0,4.35-5.755,20.132,20.132,0,0,0-5.425,2.135c-3.976,2.2-7.772,4.684-11.536,7.221a7.711,7.711,0,0,1-2.86,1.476c-1.451,0-2.552.9-3.7,1.569a54.266,54.266,0,0,1-9.042,3.817,2.47,2.47,0,0,1-3.235-.831,3.028,3.028,0,0,1-.38-1.209c-.17-1.556-.849-2.606-2.587-2.366a2.564,2.564,0,0,0-2.378,2.977,7.266,7.266,0,0,1-.006,1.49,3.5,3.5,0,0,1-2.89,3.513,6.074,6.074,0,0,0-1.58.673c-5.224,3.163-10.534,2.519-15.9.437a8.323,8.323,0,0,1-2.551-1.552,2.6,2.6,0,0,1-.617-3.124,26.913,26.913,0,0,0,.988-3.694,2.592,2.592,0,0,1,2.354-1.794c2.463.55,4.247,2.3,6.263,3.624,2.389,1.569,2.681,1.639,4.931-.009,2.369-1.735,4.65-3.581,6.866-5.506a9.665,9.665,0,0,1,.957-.756c1.04-.811,1.918-1.856,3.24-2.265,2.121-.7,3.615-2.345,5.261-3.7,4.388-3.6,9.459-6.258,13.779-9.891,2.867-2.412,6.212-4.476,7.978-8.031.625-.968,1.4-1.82,2.066-2.758,3.205-4.53,1.672-9.491-3.563-11.407-3.087-1.13-6.365-.941-9.566-1.244-1.353-.128-2.727.01-4.09-.048a3.019,3.019,0,0,1-2.549-.892c-.664-1.249-.183-2.557-.207-3.84a1.268,1.268,0,0,1,.66-.955c9.164-.609,18.135-.261,26.019,5.341a6.6,6.6,0,0,1,2.464,2.647c2.764,5.37,2.246,10.419-1.6,15.054a78.573,78.573,0,0,1-17.845,15.553c-2.386,1.553-4.763,3.121-7.168,4.645,6.41-4,12.6-8.324,18.747-12.719a88.883,88.883,0,0,0,8.612-7.205c.767-.711,1.433-1.7,2.733-1.394,4.545-.151,7.343,3.279,6.271,7.774-.3,1.278-.425,2.174,1.241,2.549,8.94,2.013,16.4,6.9,23.591,12.291a48.41,48.41,0,0,1,8.4,8.353" transform="translate(-1054.17 -1417.588)" fill="#fec53d"/>
            <path id="Trazado_1043643" data-name="Trazado 1043643" d="M1884.029,641.895a59.668,59.668,0,0,1-4.506,16.178c-4.345,7.114-10.394,12.073-18.523,14.168-11.006,2.835-22.059-2.327-28.094-11.192a7.673,7.673,0,0,0-2.612-3.191c-3.047-3.886-4.4-8.464-5.329-13.2-.137-.7-.251-1.4-.426-2.093-.178-1.478-.719-2.888-.841-4.378-.146-2.459-.932-4.8-1.3-7.219.328-2.934-.713-5.687-1.169-8.513-.887-5.5-1.637-10.988-.71-16.559a10.755,10.755,0,0,1,.31-1.482c.64-2.029,1.688-2.537,3.592-1.618a34.5,34.5,0,0,0,4.356,1.909,8.924,8.924,0,0,0,10.237-3.112,25.368,25.368,0,0,0,3.524-6.668c1.019-2.576,1.739-3.014,4.466-2.381a14.263,14.263,0,0,0,13.443-3.449c.687-.612,1.407-1.526,2.408-1.141,1.163.447,1.208,1.695,1.29,2.774a7.408,7.408,0,0,1-1.116,4.547,10.755,10.755,0,0,1-4.851,4.161c-.8.367-2.175.267-2.218,1.387-.048,1.248,1.1,1.945,2.124,2.514a8.7,8.7,0,0,0,6.728.459,17.864,17.864,0,0,0,10.912-7.621,11.783,11.783,0,0,1,1.944-2.587c.856-.755,1.546-.685,1.936.489a1.419,1.419,0,0,1,.106.418c.035,4.285,2.268,6.953,6.118,8.54,1.147.473,1.538,1.6,1.739,2.817.659,3.965.072,7.905-.291,11.83-.132,1.426-.122,2.873-.362,4.294-.435,3.818-1.024,7.618-1.117,11.467-.529,2.83-.118,5.858-1.765,8.454" transform="translate(-1685.449 -544.373)" fill="#febd84"/>
            <path id="Trazado_1043644" data-name="Trazado 1043644" d="M1659.475,345.646a43.985,43.985,0,0,1,1.062-8.418c1.173-8.994,3.575-17.762,4.865-26.734-.7,4.757-1.638,9.469-2.669,14.163-.111.506.135,1.475-1,1.123-.027-.009-.039-.114-.033-.172a1.068,1.068,0,0,1,.062-.207c.343-5.322,1.092-10.629.485-15.984-.1-.913-.146-1.7-1.208-2.013-4.817-1.419-6.7-4.878-6.669-9.656a5.99,5.99,0,0,0-.184-.887c-.993,1.5-1.782,2.827-2.7,4.058a18.626,18.626,0,0,1-13.63,7.861,7.492,7.492,0,0,1-7.547-3.647c-.734-1.158-.856-1.849.884-2.074a8.877,8.877,0,0,0,5.748-3.165,7.8,7.8,0,0,0,1.352-8.058c-1.014.879-1.882,1.721-2.839,2.445a14.685,14.685,0,0,1-14.084,2.526c-1.389-.453-1.9-.21-2.3,1.148a22.61,22.61,0,0,1-3.554,7.365c-3.313,4.381-7.262,5.556-12.381,3.639a24.856,24.856,0,0,1-3.122-1.483c-2.586-1.407-2.684-1.39-3.193,1.652-1.066,6.378-.106,12.653,1,18.922a25.192,25.192,0,0,1,.681,6.431c-1.431.1-1.489-1.159-1.812-1.991-2.311-5.947-3.953-12.108-5.7-18.234a17.837,17.837,0,0,1-.624-2.287c2.384,10.257,6.352,20.011,9.469,30.036a12.014,12.014,0,0,1,.75,4.282,6.139,6.139,0,0,1-2.74,4.562,1.809,1.809,0,0,1-2.178.217,4.991,4.991,0,0,1-1.2-2.484c-3.82-12.061-7.3-24.22-10.612-36.43-.41-1.513-.687-3.108-2.079-4.132.691-3.44-.616-6.062-3.128-8.381-1.518-1.4-1.327-3.374.2-5.7a5.02,5.02,0,0,1,3.541-2.535,7.976,7.976,0,0,1,2.668,1.346c1.861,1.025,2.135.969,3-1.074a31.542,31.542,0,0,1,10.373-13.232,45.285,45.285,0,0,1,22.531-9.829,52.561,52.561,0,0,1,27.253,2.738,42.859,42.859,0,0,1,11.558,7.107,58.348,58.348,0,0,1,7.982,9.855c.729,1.06,1.242,1.988,2.488.51a1.565,1.565,0,0,1,2.319-.206,4.356,4.356,0,0,1,.869,3.032c.046,1.363-.036,2.73.048,4.091.186,3.025,1.2,5.589,4.01,7.17.807.454,1.766.979,1.365,2.135s-1.5,1.2-2.526,1.213a4.722,4.722,0,0,1-2.47-.659c-1.353-.794-1.8-.1-1.952,1.138q-3.461,18.463-6.486,37c-.166,1-.051,2.018-.2,3.014-.19,1.26-.116,2.619-1.2,3.587-2.166-.935-3.326-2.844-4.549-4.694" transform="translate(-1460.896 -248.125)" fill="#201f51"/>
            <path id="Trazado_1043645" data-name="Trazado 1043645" d="M2776.133,793.154c1.369,0,2.36.995,3.592,1.356a1.938,1.938,0,0,1,.895,2.318q-2.777,14.626-5.425,29.276a58.308,58.308,0,0,0-.863,5.974,3.355,3.355,0,0,1-2.87,3.437,17.4,17.4,0,0,0-2.21.8c-1.1-1.227-.865-2.706-.654-4.109,1.858-12.361,4.029-24.667,6.652-36.891a4.46,4.46,0,0,1,.884-2.164" transform="translate(-2563.623 -734.48)" fill="#3659ac"/>
            <path id="Trazado_1043646" data-name="Trazado 1043646" d="M4197.447,2745.074c1.929-2.1.455-3.944.488-5.685.026-1.321-.944-3.107.185-3.849,1.247-.818,3-.111,4.455.6,5.026,2.459,5.189,3.277,1.316,7.152a14.611,14.611,0,0,1-5.738,3.987c-1.431.474-2.615,1.73-3.876,2.678a2.425,2.425,0,0,1-3.163.029c-2.016-1.375-3.521-3.153-3.3-5.639a8.99,8.99,0,0,1,4.839-7.457,1.454,1.454,0,0,1,.2-.08c2.851-1.029,3.642-2.1,3.586,2.323-.023,1.826.6,3.661,1.006,5.939" transform="translate(-3877.999 -2532.838)" fill="#93cdf8"/>
            <path id="Trazado_1043647" data-name="Trazado 1043647" d="M1993.054,1539.588c1.774,1.781,3.441,3.686,5.34,5.322,10.1,8.7,24.417,8.305,34.378-.954,2.365-2.2,4.51-4.632,6.758-6.959a.375.375,0,0,0,0,.358q-.1.458-.192.917c-2.381,9.443-13.03,18-22.738,18.158-1.97.031-4.041.777-5.93-.452-6.34-1.583-10.9-5.616-14.71-10.687-.819-1.091-1.573-2.229-2.373-3.334a2.233,2.233,0,0,1-.538-2.368" transform="translate(-1845.456 -1423.296)" fill="#1a1749"/>
            <path id="Trazado_1043648" data-name="Trazado 1043648" d="M2755.263,787.5a4.805,4.805,0,0,1-.132,2.746c-2.448,11.765-4.656,23.574-6.383,35.469-.237,1.632-.25,3.3-.367,4.948-.784.463-1.548,1.047-2.5.379.78-11.619,3.478-22.942,5.333-34.395.438-2.705.927-5.4,1.412-8.1.1-.54-.014-1.195.65-1.5l1.989.452" transform="translate(-2542.752 -728.826)" fill="#f9d444"/>
            <path id="Trazado_1043649" data-name="Trazado 1043649" d="M2928.384,885.733q.077.249.152.5c-.108,1.69,1.681,2.863,1.263,4.637-.453,3.51-1.784,6.8-2.557,10.233-.871,3.865-1.918,7.691-2.58,11.6a3.852,3.852,0,0,1-.914,2.145,6.077,6.077,0,0,1-2.087,1.333c-1.051-.746-.89-1.884-.934-2.943-.245-5.87,1.019-11.564,2.059-17.28a48.581,48.581,0,0,1,1.979-8.135c.4-1.081.745-2.469,2.466-2.127a.991.991,0,0,0,1.153.039" transform="translate(-2704.636 -820.126)" fill="#395cad"/>
            <path id="Trazado_1043650" data-name="Trazado 1043650" d="M2652.591,1663.744c-3.993,3.4-7.781,7.03-12.083,10.081-6.235,4.422-12.736,8.413-19.25,12.391-.221.135-.478.37-.859.008.933-1.215,2.363-1.8,3.57-2.592a125.839,125.839,0,0,0,20.709-16.545c4.555-4.587,6.714-9.6,4.577-15.991a5.912,5.912,0,0,1-.138-1.286,12.688,12.688,0,0,1,3.668,10.961,6.972,6.972,0,0,0-.194,2.973" transform="translate(-2426.553 -1527.764)" fill="#eea12e"/>
            <path id="Trazado_1043651" data-name="Trazado 1043651" d="M3169,1482.034c-3.675-.009-4.537-.549-5.119-2.931-.436-1.782,1.217-5.1,2.865-6.063.729-.425,1.04.241,1.568.3a5.968,5.968,0,0,1,4.412,3.11c1.821,2.886,1.05,4.656-2.241,5.382a13.583,13.583,0,0,1-1.484.2" transform="translate(-2929.765 -1363.94)" fill="#92cefa"/>
            <path id="Trazado_1043652" data-name="Trazado 1043652" d="M2891.2,836.139c-1.265.483-1.465,1.7-1.808,2.758a75.96,75.96,0,0,0-3.761,27.727l-3.844,2.695c1.11-5.73,2.179-10.991,3.142-16.271,1.237-6.79,2.494-13.575,4.042-20.3l.412-.618c-.235,1.718.7,2.908,1.817,4.012" transform="translate(-2668.602 -770.57)" fill="#222b70"/>
            <path id="Trazado_1043653" data-name="Trazado 1043653" d="M3809.815,2408.538c-1.171.058-2.146-.153-2.642-1.4a4.442,4.442,0,0,1,.644-4.656c2.021-2.511,7.028-1.954,8.578.861a1.521,1.521,0,0,1-.236,1.97,9.471,9.471,0,0,1-6.344,3.221" transform="translate(-3525.183 -2223.279)" fill="#95d0fb"/>
            <path id="Trazado_1043654" data-name="Trazado 1043654" d="M2961.349,980.276c-.288-2.93.781-5.647,1.393-8.422a124.5,124.5,0,0,1,3.483-13.288,5.521,5.521,0,0,1,1.176-2.269c.775,1.841.192,3.7.031,5.542a54.753,54.753,0,0,1-3.774,16.113c-.458,1.118-1.014,2.07-2.309,2.324" transform="translate(-2742.237 -885.555)" fill="#f1d043"/>
            <path id="Trazado_1043655" data-name="Trazado 1043655" d="M3010.486,1323.2c1.924-1.925,1.685-4.305,1.59-6.646-.042-1.035.713-1.3,1.454-1.61,2.721-1.138,5.457-2.242,8.153-3.44,1.276-.567,1.76-.244,1.614,1.1-.2,1.833-.416,3.664-.639,5.621-.828-.293-.859-.877-.994-1.388-.731-2.785-.731-2.787-3.321-1.844-.676.246-1.334.549-2.023.75-1.808.529-2.836,1.521-2.507,3.584.373,2.345-1.713,2.879-3.326,3.869" transform="translate(-2787.783 -1214.235)" fill="#cff2fa"/>
            <path id="Trazado_1043656" data-name="Trazado 1043656" d="M4202.1,2252.6c-1.637.074-2.276-.851-2.2-1.873a2.572,2.572,0,0,1,2.7-2.312c1.253-.009,2.7.934,2.581,2.144-.161,1.69-2.1,1.6-3.085,2.041" transform="translate(-3889.204 -2082.086)" fill="#98d0fa"/>
            <path id="Trazado_1043657" data-name="Trazado 1043657" d="M1706.456,3645.871c-6.658-5.153-13.265-10.376-20.415-14.852-2.378-1.831-2.33-2.408.51-3.541a46.986,46.986,0,0,0,8.3-4.147c3.762-2.448,8.16-2.054,12.345-2.562a2.737,2.737,0,0,1,2.21,1.194,8.027,8.027,0,0,0,4.093,3.6c4.005,1.119,7.9,2.619,12.038,3.245a45.188,45.188,0,0,0,21.228-2.131c1.523-.505,3.082-.61,4.588-1.046.86-.128,1.857-.354,2.334.564.457.878-.206,1.672-.754,2.324a38.406,38.406,0,0,1-10.279,8.844c-6.849,3.91-13.942,7.27-21.985,7.944a9.3,9.3,0,0,1-2.583,0c-3.045-.595-6.153-.757-9.2-1.273-1.738-.295-2.5.054-2.434,1.84" transform="translate(-1559.734 -3352.908)" fill="#f3a630"/>
            <path id="Trazado_1043658" data-name="Trazado 1043658" d="M1966.625,3652.24a1.149,1.149,0,0,1-.055-.208c-.073-.933-1.853-1.323-1.1-2.256.679-.837,2.025-.383,3.084-.236,3.686.512,7.37,1.458,11.053,1.451a31.958,31.958,0,0,0,12.125-2.7c5.377-2.24,10.7-4.638,15.215-8.439a33.423,33.423,0,0,0,6.653-6.956c-.672-.635-1.334-.29-1.939-.344-1.955.216-3.91.39-5.852.759a4.194,4.194,0,0,1-3.467-.544c-.6-1.119.408-1.154,1-1.373a6.614,6.614,0,0,1,2.345-.2c3.872-.008,7.746-.082,11.615.021a10.408,10.408,0,0,0,8.355-3.156,3.012,3.012,0,0,1,2.277-.367,28.669,28.669,0,0,1,8.207,2.537,2.315,2.315,0,0,1,1.614,1.861,98.587,98.587,0,0,0-19.629,8.948c-.741.437-1.449.927-2.173,1.392a147.957,147.957,0,0,0-16.127,10.506c-2.992,2.135-5.818,4.5-8.988,6.387a37.355,37.355,0,0,1-15.422-.43q-3.556-2.721-7.113-5.439c-.549-.419-1.118-.811-1.678-1.215" transform="translate(-1819.904 -3359.278)" fill="#ed992f"/>
            <path id="Trazado_1043659" data-name="Trazado 1043659" d="M1383.444,2666.237h12.382c-6.216-7.7-7.141-16.641-7.646-25.636a100.805,100.805,0,0,0-4.758-26.863,13.941,13.941,0,0,1-.681-3.331c1.832,5.209,4.787,9.9,6.646,15.086,3.369,9.394,8.837,17.246,17.22,22.881a4.292,4.292,0,0,1,1.539,1.475.958.958,0,0,1,.035,1.188c-1.071,1.582-2.14,3.163-3.148,4.787a1.3,1.3,0,0,1-1.265.631c-1.286-.671-1.847-1.986-2.646-3.071a88.34,88.34,0,0,1-6.747-10.3,7.216,7.216,0,0,0-1.816-2.116,33.194,33.194,0,0,0,4.271,13.6c1.329,2.309,2.931,4.448,4.147,6.824-.2,2.54-2.228,3.876-3.759,5.479-1.072,1.123-2.309,2.115-3.438,3.205a2.712,2.712,0,0,1-1.748.772,1.483,1.483,0,0,1-1.053-.69c-.37-.581.025-1.61-.838-1.833-.8-.208-1.243.592-1.713,1.094-3.144,3.364-5.662,7.013-5.676,11.9,0,1.162-.043,2.51-1.53,3.013l-1.813-.628c.93-2.121.331-4.457.93-6.624-.637-2.279.708-4.017,1.638-5.848.69-1.357,1.929-2.3,2.856-3.445-.19-.817-1.726-.321-1.39-1.549" transform="translate(-1277.367 -2417.301)" fill="#f3a42f"/>
            <path id="Trazado_1043660" data-name="Trazado 1043660" d="M1528.705,3413.32l1.3-.83a1.867,1.867,0,0,1,.5,1.786c-.359,4.291.85,8.284,2.426,12.175,1.654,4.084,3.819,5.047,8.04,3.746a38.407,38.407,0,0,0,6.4-3.111c1.964-1.033,3.78-1.639,6.124-.609,1.964.863,4.242-.207,6.391-.262.714-.018,1.426-.208,2.149-.177,1.586.067,2.466.729,2.053,2.468a1.482,1.482,0,0,1-.672,1.208c-1.751-2.365-4.016-.608-6-.628a17.659,17.659,0,0,0-10.584,3.7c-1.6,1.144-3.654,1.654-5.512,2.428-2.507,1.044-2.511,1.035-.975,2.945l-9.48-5.375c-3.786-5.4-4.156-11.516-3.726-17.788.058-.851.358-1.759,1.563-1.676" transform="translate(-1414.04 -3160.049)" fill="#f69b6c"/>
            <path id="Trazado_1043661" data-name="Trazado 1043661" d="M1403.922,3393.847c1.361-2.055.62-4.494,1.233-6.709,1.144-4.13,3.917-7.111,6.694-10.115a1.233,1.233,0,0,1,1.767-.09,2.008,2.008,0,0,1,.249,2.741,6.37,6.37,0,0,1-.81,2.206,17.561,17.561,0,0,0-.3,12.431c.346,1.042,1,2.133.257,3.291l-9.088-3.756" transform="translate(-1300.066 -3126.817)" fill="#fdc33d"/>
            <path id="Trazado_1043662" data-name="Trazado 1043662" d="M1500.211,3436.045c-1.343-4.022-2.793-8.007-1.785-12.395a10.414,10.414,0,0,1,2.64-5.535l.866.414c-.922.511-.834,1.4-.869,2.259-.234,5.711.353,11.259,3.132,16.4.1.194-.059.535-.1.807l-3.884-1.949" transform="translate(-1387.267 -3165.259)" fill="#ea744b"/>
            <path id="Trazado_1043663" data-name="Trazado 1043663" d="M2102.214,4045.319c1.395-.923,2.77.082,4.159.056,2.92-.057,5.842-.014,8.763-.015a4.765,4.765,0,0,1,2.5.391c-2.191,2.23-4.926,3.771-7.314,5.75a85.8,85.8,0,0,1-8.108-6.182" transform="translate(-1946.702 -3745.703)" fill="#e17f25"/>
            <path id="Trazado_1043664" data-name="Trazado 1043664" d="M2522.436,3102.939c-3.554-2.39-7.595-3.305-11.746-3.888a2.489,2.489,0,0,1-2.481.091,70.048,70.048,0,0,1-11.964-5,6.951,6.951,0,0,1-3.641-3.821c-.391-1.206-.627-2.434.837-3.178a55.525,55.525,0,0,0,10.355,2.77,73.687,73.687,0,0,0,15.906.375,5.261,5.261,0,0,0,3.467-1.439.673.673,0,0,0-.846-.239c-3.4,2.565-7.373,1.991-11.177,1.9a56.385,56.385,0,0,1-12.6-1.62c-1.814-.462-3.367-1.647-5.284-1.764-2.052-.15-3.2-1.533-4.049-3.154a3.489,3.489,0,0,1,.246-4.06c1.05-1.275,2.4-1.05,3.76-.6a11.65,11.65,0,0,0,6.227,1.44c6.556.048,13.089-.392,19.415-2.343a11.421,11.421,0,0,0,5.065-2.7c-2.736.941-5.06,1.87-7.439,2.627-6.728,2.139-13.561,3.166-20.619,1.927a13.315,13.315,0,0,1-2.82-1c-1.9-.447-2.525-1.8-2.4-3.56a4.4,4.4,0,0,1,3.848-3.829c2.5-.255,5.023-.4,7.535-.549a58.364,58.364,0,0,0,9.36-1.548,2.6,2.6,0,0,0,2.361-3c-.083-2.592-.044-5.189-.006-7.784.015-1-.063-2.048.861-2.775a4.778,4.778,0,0,0,3.1,3.213c2.262.99,3.843,3.247,6.491,3.559a3.719,3.719,0,0,1,2.9,1.161,30.817,30.817,0,0,1,7.355,8.061,23.318,23.318,0,0,0,8.019,7.57c3.932,4.3,4.755,9.408,3.749,14.916-.333,1.823-1.3,3.594.421,5.211-8.265-.563-16.258,1.042-24.2,3.041" transform="translate(-2304.584 -2830.125)" fill="#fdbe87"/>
            <path id="Trazado_1043665" data-name="Trazado 1043665" d="M2986.445,2814.208c-4.716-1.672-6.915-5.9-9.661-9.556a30.19,30.19,0,0,0-8.052-7.452c9.51-6.824,14.58-16.284,16.431-27.657,1.4-.877,2.157.067,2.793,1.066a9.746,9.746,0,0,1,1.079,3.7c1.158,6.643.851,13.347.878,20.037,0,1.152-.07,2.31.046,3.455.132,1.3.4,2.576,1.767,3.223,1.022,1.231.8,2.7.619,4.08-.263,1.972-.283,3.966-.633,5.929a2.426,2.426,0,0,0,.607,2.556,14.761,14.761,0,0,0,1.218,1.266c4.769,5.224,4.721,11.619,4.35,18.072a2.163,2.163,0,0,1-1.557,2.126,2.871,2.871,0,0,1-1.657-.442c-.608-.669-.443-1.485-.425-2.27a50.489,50.489,0,0,0-.042-7.141c-.605-5.005-2.574-9.168-7.76-11" transform="translate(-2749.117 -2564.343)" fill="#ec962f"/>
            <path id="Trazado_1043666" data-name="Trazado 1043666" d="M3285.529,3369.688l-.841-.677c1.582-1.5,3.157-.816,4.733.014l2.587,1.08c3.618,2.854,4.743,6.895,5.326,11.192a2.157,2.157,0,0,1-.5,1.814c.2,3.186-.392,6.333-.447,9.507l-3.922-1.807c-.332-5.253-.788-10.485-2.852-15.415a12.027,12.027,0,0,0-4.084-5.709" transform="translate(-3041.7 -3118.967)" fill="#fde366"/>
            <path id="Trazado_1043667" data-name="Trazado 1043667" d="M3208.177,3376.773c3.212-.487,4.871,1.594,6.282,3.921,3.144,5.184,2.7,10.824,1.945,16.486a11.224,11.224,0,0,1-3.5-.5,1.39,1.39,0,0,0-1.171-.431c-1.2-.021-1.479-.483-1.023-1.642,2.515-6.408,1.727-12.375-2.532-17.836" transform="translate(-2970.85 -3126.909)" fill="#fec33f"/>
            <path id="Trazado_1043668" data-name="Trazado 1043668" d="M3296.056,3389.241c3.365,1.486,4.437,4.706,5.638,7.723,1.5,3.758,1.472,7.844,2.133,11.783a1.658,1.658,0,0,1-.835,1.619l-3.553-1.131c1.164-1.884,1.047-3.991.93-6.05-.284-4.992-.448-10.048-4.313-13.943" transform="translate(-3052.229 -3138.52)" fill="#f8be3c"/>
            <path id="Trazado_1043669" data-name="Trazado 1043669" d="M171.71,887.141c2.48-.642,3.187-2.99,4.539-4.717.47,1.881.954,3.758,1.408,5.642a27.5,27.5,0,0,0,4.433,9.524.631.631,0,0,1-.106.841c-6.834-.039-13.685-.19-20.232,2.271a18.7,18.7,0,0,0-9.977,7.834,10.015,10.015,0,0,0-.906,8.51c.169.505-.078.795-.513.987-4.882.545-7.586,5.653-5.506,10.4,1.086,2.478,1.088,2.483-1.493,3.417a75.423,75.423,0,0,0-22.472,13.384,3.28,3.28,0,0,1-2.578,2.184c-2.794,2.143-4.637,5.1-6.637,7.9-8.36,11.7-15.463,24.175-22.608,36.626-4.517,7.872-9.129,15.689-13.7,23.532-2.734-.871-4.812-2.812-7.028-4.472A107.161,107.161,0,0,1,54.6,999.175c-5.615-5.922-10.868-12.133-14.056-19.781a9.41,9.41,0,0,1-.8-5.231c.363-2.279-.186-4.591-.243-6.878a57.871,57.871,0,0,1,3.6-22.452c3.849-10.021,9.687-18.725,16.723-26.8a89.757,89.757,0,0,1,26.7-20.938,163.1,163.1,0,0,1,27.335-10.77c7.027-2.146,14.053-4.31,21.339-5.4,5.324-.8,10.613-1.922,16.028-2.01.851,1.079,1.258,2.619,2.943,2.835a5.149,5.149,0,0,0,2.189,2.032c.948-.335,1.777.281,2.881.526-3.62-9.017-4.685-18.532-8.163-27.348a13.431,13.431,0,0,1-1.1-6.258c-.058-.708-.643-1.32-.378-2.086.468-1.29,1.283-1.989,2.735-1.605,1.423.94,1.565,2.531,1.927,3.968,2.4,9.5,4.913,18.976,7.66,28.386.061.207.1.42.163.628,1.6,5.556,1.6,5.555,7.323,6.793a6.3,6.3,0,0,1,2.3.352" transform="translate(-36.557 -784.26)" fill="#63b2f2"/>
            <path id="Trazado_1043670" data-name="Trazado 1043670" d="M913.813,2795.068c.666.739.305,1.662.448,2.5a3.285,3.285,0,0,0-1.642,2.371c-1.607,5.8-3.934,11.394-5.148,17.318a4.067,4.067,0,0,1-.83,1.734c-1.38,1.054-2.937.78-4.48.605a12.778,12.778,0,0,1-4.451-2.554c-4.87-3.714-9.254-8-14-11.864a22.658,22.658,0,0,1-3.73-4.457l-3.921-4.325c.585-1.551,1.178-.308,1.6.066,2.569,2.3,4.827,4.975,7.762,6.823,3.742,2.355,6.772,5.575,10.315,8.16a3.988,3.988,0,0,0,6.129-2.082c1.006-3.153,1.169-6.459,1.7-9.074-.167,1.253-1.407,1.921-3.088,1.965a9.328,9.328,0,0,1-5.963-2.21c-4.634-3.537-8.056-8.164-11.443-12.816a8.961,8.961,0,0,0-1.348-1.674c-1.8-2.062-2.774-4.6-4.043-7.006,4.495,4.417,8.032,9.737,13.151,13.515,3.058.389,4.64-1.891,6.41-3.688.745-.756.051-1.787-.352-2.618-1.356-2.789-2.54-5.656-3.84-8.47-.389-.841-.877-1.809-.024-2.6.745-.693,1.648-.235,2.453.05,1.973.7,3.864,1.6,5.8,2.4,2.036.839,3.9.934,5.568-.786a1.835,1.835,0,0,1,1.953-.625c1.088.626,1.174,1.736,1.349,2.8.852,5.177,2.164,10.264,3.1,15.425a1.6,1.6,0,0,0,.57,1.129" transform="translate(-811.253 -2569.084)" fill="#e9902b"/>
            <path id="Trazado_1043671" data-name="Trazado 1043671" d="M562.276,3131.2c4.395,3.885,8.756,7.809,13.2,11.643a52.951,52.951,0,0,0,8.492,6.5,4.108,4.108,0,0,1-5.2.081,105.253,105.253,0,0,0-35.238,5.106c-2.711.914-5.563,1.416-8.354,2.09-.7.17-1.5.348-2-.339-.535-.739.125-1.379.458-1.964a25.716,25.716,0,0,1,11.328-10.246,93,93,0,0,1,17.885-6.285c1.551-.418,1.786-1.116,1.324-2.49-.484-1.441-1.668-2.544-1.9-4.093" transform="translate(-493.548 -2899.567)" fill="#f3a52f"/>
            <path id="Trazado_1043672" data-name="Trazado 1043672" d="M1019.777,2220.844c-.141.029-.351.007-.414.094-2.817,3.835-6.1,2.328-9.4.847-1.38-.62-2.772-1.22-4.186-1.758-.42-.16-.973-.6-1.384-.071-.367.473.052.958.258,1.4,1.454,3.13,2.851,6.289,4.411,9.366.81,1.6.758,2.763-.69,3.953a36.121,36.121,0,0,0-3.55,2.762,1.843,1.843,0,0,1-2.817-.543c.644-.692.326-1.45.221-2.238-.857-6.417-3.491-12.274-5.673-18.278-1.119-3.077-.07-4.477,3.085-5.123,4.334-.887,8.227.8,12.21,1.8,2.659.672,3,.579,3.179-2.291.408-6.661-1.3-12.978-2.979-19.306-.312-1.178-.841-2.305-1.089-3.494-.668-3.206-2.643-5.506-4.993-7.592a4.12,4.12,0,0,1-1.787-3.3,5.265,5.265,0,0,1,2.578-2.184c.656-.147,1.284-.19,1.727.46.751.121,1.032.718,1.316,1.305,3.169,6.566,6.059,13.238,7.69,20.385a6.96,6.96,0,0,1,.229,1.928c-.319,1.977.321,3.866.731,5.724,1.018,4.622,1,9.374,1.952,14a1.994,1.994,0,0,1-.63,2.151" transform="translate(-922.434 -2013.921)" fill="#f3a62f"/>
            <path id="Trazado_1043673" data-name="Trazado 1043673" d="M623.433,3355.869l5.2-.08c1.616-.077,3.263.314,4.843-.315.669-.813,1.571-.5,2.418-.526,2.638-.081,5.351.542,7.859-.808l.54.812c.85.922,2.1.042,3.308.877a17.582,17.582,0,0,0-6.413,9.966c-3.221-2.016-1.221-4.522-.546-7.156-3.142.866-6.1,1.813-9.115,2.49-13.106,2.942-26.235,5.8-39.486,8a22.536,22.536,0,0,1-9.236-.269c-.618-.158-1.455-.154-1.578-.891-.136-.818.653-1.288,1.265-1.571,2.089-.966,4.2-1.907,6.353-2.707a123.631,123.631,0,0,1,25.1-6.13,79.923,79.923,0,0,0,9.488-1.695" transform="translate(-538.214 -3106.015)" fill="#fadf61"/>
            <path id="Trazado_1043674" data-name="Trazado 1043674" d="M731.14,2298.088c.131,2.682-1.4,4.7-2.925,6.578-7.329,8.984-14.084,18.4-21.14,27.592a57.9,57.9,0,0,1-4.966,5.13c-.243.246-.529.59-.924.39-.489-.247-.408-.756-.251-1.137a20.3,20.3,0,0,1,1.218-2.534c4.706-8.009,9.336-16.065,14.188-23.985,2.854-4.658,5.821-9.279,9.734-13.176a5.926,5.926,0,0,1,.942-.891c.949-.593,1.892-1.675,3.083-1.07,1.166.593,1.06,1.938,1.041,3.1" transform="translate(-648.97 -2125.048)" fill="#fce265"/>
            <path id="Trazado_1043675" data-name="Trazado 1043675" d="M840.948,2926.167c2.374.971,3.2,3.393,4.685,5.162a55.751,55.751,0,0,0,8.928,9.052,8.262,8.262,0,0,0,5,1.809c2.193.007,2.894-.788,2.719-3.057a2.167,2.167,0,0,1,.028-.637c.026-.117.165-.207.382-.458,1.1,2.5.506,4.961.2,7.368-.2,1.562-.74,3.077-1.042,4.631-.352,1.809-1.032,3.233-3.21,2.979-1.321-.154-.779,1.056-1.2,1.582-3.584-2.04-6.353-5.015-9.558-7.422a88.813,88.813,0,0,1-11.017-9.7c-.393-.412-.79-1.2-1.573-.465-.891-.838-1.8-1.662-2.665-2.521-.335-.331-.892-.717-.4-1.253s1.019-.26,1.483.2c2.257,2.22,4.54,4.408,6.892,6.535a32.4,32.4,0,0,0,10.089,6.493,10.973,10.973,0,0,0,4.889.4c.507-.035,1.271-.071,1.441-.718.161-.613-.392-1.039-.788-1.449-3.107-3.2-6.45-6.181-9.241-9.686-2.23-2.8-4.706-5.437-6.047-8.846" transform="translate(-770.482 -2709.702)" fill="#f3a52f"/>
            <path id="Trazado_1043676" data-name="Trazado 1043676" d="M3397.835,2464.98c.765-1.756.253-3.686.753-5.494.187-.675-.437-.992-1.1-1-6.363-.123-9.69-4.459-12.516-9.262-3.975-6.758-3.265-13.957-1.516-21.173,2.05-8.448,6.651-15.545,11.832-22.345.975-1.278,1.609-1.342,2.379.114,5.19,9.807,10.409,19.669,12.419,30.683,1.9,10.41,1.719,20.836-3.77,30.375-2.663,4.626-6.251,8.46-11.793,9.741-.517.12-1.222.539-1.614-.044-.5-.751.322-1.138.724-1.582a27.874,27.874,0,0,0,4.254-6.735,2.368,2.368,0,0,0-.145-2.456.537.537,0,0,1,.092-.817" transform="translate(-3131.869 -2226.841)" fill="#fec53d"/>
            <path id="Trazado_1043677" data-name="Trazado 1043677" d="M3388.464,3404.052a25.491,25.491,0,0,0-4.826-13.006c1.023.088,2.044.878,3.071.013a.833.833,0,0,1,1.25-.071,121.816,121.816,0,0,1,22.964,1.8,2.2,2.2,0,0,1,1.652.318,39.282,39.282,0,0,0,7.145,2.987,27.951,27.951,0,0,1,8.781,5.343c.64.545,1.4,1.078,1.125,2.132,1.318,1.512,2.948,2.853,3.9,4.568,3.8,6.851,3.491,13.759-.282,20.558a18.362,18.362,0,0,1-3.434,4.4c-2.457,2.344-4,2.648-7.187,1.251a30.369,30.369,0,0,1-8.227-5.485q-10.91-9.957-21.327-20.434c-1.01-1.018-1.878-2.173-2.846-3.233-.478-.524-.938-1.123-1.758-1.144" transform="translate(-3133.331 -3139.908)" fill="#fec53c"/>
            <path id="Trazado_1043678" data-name="Trazado 1043678" d="M3771.176,3400.555c-3.612-3.939-8.181-6.276-13.187-7.89a15.547,15.547,0,0,1-5.514-2.889c.669-1.677,2.306-1.613,3.64-1.834,6.977-1.159,13.5-.292,18.976,4.689,2.849,2.594,4.629,5.659,4.312,9.7-.126,1.612-.021,3.242-.021,5.374-2.973-2.731-4.464-6.272-8.206-7.145" transform="translate(-3474.884 -3136.894)" fill="#ea8320"/>
            <path id="Trazado_1043679" data-name="Trazado 1043679" d="M3294.417,2347.9c.913-.473,1.025-1.56,1.7-2.216.642.618.015,1.027-.254,1.482-4.948,8.382-9.285,17.016-12.023,26.431a85.2,85.2,0,0,0-3.808,21.562c-.061,2.284-.413,4.573-.382,6.876-.24.306-.161.676-.218,1.021-.212,1.292-.679.741-1.146.145-.936-2.94.043-5.856.256-8.754.231-3.145.408-6.3.593-9.446a51.506,51.506,0,0,1,3.25-16.395c1.954-2.356,2.326-5.452,3.749-8.06a50.993,50.993,0,0,1,2.929-5.465c1.763-1.357,2.387-3.515,3.663-5.211.468-.622.721-1.408,1.4-1.87l.288-.1" transform="translate(-3035.405 -2172.164)" fill="#df7b1c"/>
            <path id="Trazado_1043680" data-name="Trazado 1043680" d="M3271.212,3154.223c-1.579.4-3.154-.244-4.733-.014-1.327-.106-1.577-.8-1.408-2.064a70.991,70.991,0,0,0,.938-11.158c-1.144-1.208-.611-2.486-.166-3.763.475-.695.9-1.536,1.941-.729l3.427,17.729" transform="translate(-3023.493 -2904.165)" fill="#62addc"/>
            <path id="Trazado_1043681" data-name="Trazado 1043681" d="M3409.171,3230.291l-1.25.071c-.421-.059-1,.032-1.232-.21-.414-.439.171-.768.457-.983a113.89,113.89,0,0,0,12.613-11.74c.217-.223.471-.331.751-.081q-.044.409-.09.817a77.192,77.192,0,0,1-11.249,12.125" transform="translate(-3154.544 -2979.211)" fill="#de7b1c"/>
            <path id="Trazado_1043682" data-name="Trazado 1043682" d="M3280.068,3109.9c-.73-.311-.969.266-1.284.707-.577-.743-.855-1.43.345-1.84.915-.024.208-1.143.894-1.322q.023,1.227.046,2.455" transform="translate(-3035.776 -2877.569)" fill="#ec962f"/>
            <path id="Trazado_1043683" data-name="Trazado 1043683" d="M1510.866,898.224q3.209,11.183,6.412,22.367a89.539,89.539,0,0,0,4.354,12.718,12.587,12.587,0,0,1-4.389-2.006,76.625,76.625,0,0,0-2.417-16.181,62.786,62.786,0,0,0-5.751-14.64,4.839,4.839,0,0,0,1.79-2.257" transform="translate(-1397.441 -831.778)" fill="#242d72"/>
            <path id="Trazado_1043685" data-name="Trazado 1043685" d="M2076.627,2756.434c-.034,3.893-.144,7.788-.064,11.679a2.167,2.167,0,0,1-1.94,2.53,63.358,63.358,0,0,1-16.274,2.024c-1.289-.005-2.592-.049-3.68.914-1.942,1.719-1.726,4.014.591,5.765.174.041.242.106.208.194s-.082.15-.131.15c-1.451-.068-3.1-.266-3.752,1.374-.7,1.743.153,3.223,1.53,4.367.716.6,1.483,1.129,2.227,1.69q.449.136.073.416c-.746,2.514-.2,3.95,2.229,5.593A42.71,42.71,0,0,0,2066,2797c2.188.872,4.464,1.526,6.7,2.277-1.2,3.037-3.848,3.661-6.637,3.765-4.8.178-9.615.166-14.421.253-.926.017-1.85.126-2.774.192-.661,1-1.709.962-2.714.967-6.709.031-13.418.073-20.125-.023-2.065-.03-4.094-.636-6.155-.874a6.2,6.2,0,0,1-3.9-3.541q0-.686.008-1.368a4.056,4.056,0,0,1,2.665-1.251,35.336,35.336,0,0,0,6.021-1.7,3.112,3.112,0,0,0,2.233-2.871,4.325,4.325,0,0,1,.9-2.4,3,3,0,0,0,.567-2.645,2.313,2.313,0,0,1,1.537-2.932c1.461-.674,2.329-1.646,1.824-3.407a1.849,1.849,0,0,1,1.055-2.151c1.362-.865,2.363-2.013,2.055-3.719-.343-1.9-1.887-2.649-3.567-3.021-3.449-.761-6.979-1.035-10.456-1.633-1.668-.287-3.5-.207-4.793-1.638a3.724,3.724,0,0,1-.272-1.9c.027-2.113.636-2.615,2.648-2.077a31.12,31.12,0,0,0,5.207,1.227,9.759,9.759,0,0,1,1.455.089,6.963,6.963,0,0,0,4.809-.155,10.2,10.2,0,0,0,2.844-.975,2.126,2.126,0,0,0,1.215-2.115c-.094-.986-.957-1.2-1.721-1.361-4.5-.938-8.975-2.02-13.467-3.007-2.936-.645-3.032-.759-3-3.665.055-5.6-.149-11.21.108-16.815,2.757-4.034,6.544-5.562,11.447-5.679q15.907-.38,31.814-.345a25.213,25.213,0,0,1,3.026.069c1.691.322,2,1.245,1.011,2.577a25.885,25.885,0,0,1-5.37,5.824c-2.927,2.125-4.856,5.246-7.287,7.872a117.056,117.056,0,0,0-7.468,9.169c-.809.467-1.634.908-2.48,1.305a7.319,7.319,0,0,0-3.813,7.549,7.647,7.647,0,0,0,7.329,6.167c.288,0,.576,0,.863-.017,3.463-.485,6.061-2.01,6.859-5.7a11.074,11.074,0,0,0,.388-3.777,3.348,3.348,0,0,1,1.562-2.461c7.075-5.979,13.748-12.388,20.333-18.9.781-.771,1.2-1.983,2.444-2.263q.063,8.26.125,16.52" transform="translate(-1866.599 -2530.349)" fill="#263173"/>
            <path id="Trazado_1043686" data-name="Trazado 1043686" d="M1595.88,2765.7c-.026,5.981-.027,11.962-.1,17.943-.014,1.1.576,1.286,1.414,1.463,5.075,1.069,10.148,2.145,15.21,3.27.9.2,2.178-.033,2.384,1.37a3.251,3.251,0,0,1-1.454,3.568,6.839,6.839,0,0,1-3.674,1.106,15.1,15.1,0,0,1-4.828,0l-1.263-.125c-.069-.291.129-.43.325-.569-2.939,0-5.55-1.352-8.33-1.993-2.518-.58-5.125-1.03-7.557.457-.476.291-1.224.5-1.137,1.151.089.666.833.673,1.406.744,2.348.665,4.791.959,7.084,1.831a3.631,3.631,0,0,1,.792.639c4.563.712,9.127,1.418,13.688,2.145a16,16,0,0,1,2.532.559c1.664.556,3,1.495,3.171,3.431a4.139,4.139,0,0,1-2.287,4.309c-.937.5-1.29.776-.722,1.962.711,1.483-.453,3.1-2.533,3.884-1.04.392-2.275.523-.93,1.981a1.258,1.258,0,0,1,.17.618c.1.651.261,1.505-.255,1.856-2.336,1.593-.555,5.719-4.347,6.545-2.949.642-5.84,1.583-8.849,2,.338-1.02.225-1.7-1.1-1.568-1.931.189-3.879.251-5.794.54-1.64.247-3.2.792-4.6-.718-.543-.584-1.372-.128-2.023.2-2.577,1.28-5.135,2.6-7.726,3.848a11.853,11.853,0,0,1-3.541.9c-3.228.461-5.1-1.333-6.16-3.983-1.924-4.818-3.739-9.709-2.472-15.074,1.658-2.255,4.177-3.666,5.813-5.957a11.7,11.7,0,0,0,1.541-2.3,1.4,1.4,0,0,1,.38-.459c1.41-1.078,2.137-2.69,3.09-4.1,2.53-3.745,5.056-7.49,7.783-11.1,3.377-2.985,7.417-2.325,11.305-1.836,3.075.387,3.051.616,3.047-2.592-.007-5.544-.028-11.088-.025-16.632,0-1.137-.136-2.34.951-3.162.911,1.385.387,2.628-.376,3.849" transform="translate(-1446.404 -2557.543)" fill="#fdbe86"/>
            <path id="Trazado_1043687" data-name="Trazado 1043687" d="M1965.884,1532.831q.052-.421.105-.841c.582,1.062,1.872,1.63,2.065,2.962,3.8,6.31,8.168,12.036,15.339,14.869.8.318,1.621.6,2.432.906.291.566.48,1.182,1.185,1.45a24.048,24.048,0,0,1,2.259,1.262c6.212,3.166,10.185,2.476,15.228-2.332,3.149-3,5.137-6.724,7.17-10.451a11.184,11.184,0,0,1,1.307-2.229c.625-.7,1.288-.942,1.947-.012a8.571,8.571,0,0,1,.387,3.82,57.026,57.026,0,0,0,.968,11.535c.1,2.235,2.328,3.076,3.17,4.825.95,1.921.347,3.533-.905,5.1a27.656,27.656,0,0,0-2.795,3.769c-2.217,1.806-4.369,3.695-6.719,5.335a38.637,38.637,0,0,1-7.435,2.123,4.445,4.445,0,0,1-2.947-.095c-1.179-1.97.219-3.624,1.356-4.472,2.179-1.624,1.088-3.615,1.239-5.432.074-.885-1.091-.766-1.733-.863-6-.909-11.18-3.625-16.044-7.082-5.747-4.085-9.849-9.62-13.634-15.436-.844-1.092-1.143-2.519-2.156-3.509a7.406,7.406,0,0,0-1.788-5.2" transform="translate(-1820.457 -1418.66)" fill="#f39a6d"/>
            <path id="Trazado_1043688" data-name="Trazado 1043688" d="M2381.957,2752.076c2.045-4.016,5.4-7.013,8.167-10.465,1.476-1.84,3.117-3.548,4.577-5.4.711-.9,1.761-1.2,2.575-1.855,2.023-1.634,3.432-3.832,5.019-5.86.356-.455-.087-.581-.44-.675.162-1.053,1.042-1.12,1.793-1.164a31.725,31.725,0,0,1,6.441.082c3.364.49,5.094,2.368,5.509,5.822q.028.921.055,1.842a5.247,5.247,0,0,1-1.894,2.711c-1.8,1.542-3.409,3.313-5.087,5-5.074,5.1-10.5,9.815-15.924,14.537a1.981,1.981,0,0,0-.861,1.178c-.947.046-1.137-.814-1.457-1.366-1.478-2.551-3.8-3.51-6.579-3.7-.7-.047-1.46.081-1.9-.689" transform="translate(-2205.75 -2524.838)" fill="#2d408a"/>
            <path id="Trazado_1043689" data-name="Trazado 1043689" d="M2622.108,1625.024c-1.23-2.778-.876-5.783-1.16-8.685-.251-2.57-.094-5.181-.119-7.773a.265.265,0,0,1,.076-.424,73.5,73.5,0,0,1,14.852.879,9.289,9.289,0,0,1,5.614,3.427,7.638,7.638,0,0,1-.118,9.254c-.8,1.106-1.738,2.109-2.613,3.158-1.1.921-1.626,2.573-3.38,2.677a40.257,40.257,0,0,1-10.61-1.1,3.73,3.73,0,0,1-2.544-1.413" transform="translate(-2426.884 -1489.164)" fill="#e6791c"/>
            <path id="Trazado_1043690" data-name="Trazado 1043690" d="M3141.132,2494.463c-.522.537-.377,1.2-.345,1.839q-.246,1.893-.491,3.786c-.529.6-1.023.719-1.5-.069a6.692,6.692,0,0,1-1.112-3.64c.052-5.027.13-10.058-.017-15.081a55.219,55.219,0,0,0-1.3-10.408c-.3-1.323-.877-2.474-2.54-2.425,1.174-5.9-.129-11.548-1.659-17.2-.677-2.5-2.2-4.648-2.895-7.2a60.923,60.923,0,0,1,5.768,5.351,55.884,55.884,0,0,1,5.127,7.448c1.218,2.045,2.589,2.526,4.581,1.263.252-.16.495-.3.776-.066.464.441,0,.879,0,1.319a4.821,4.821,0,0,1-.4,2.093c-1.828,4.294-2.348,8.852-2.65,13.454-.428,6.513-.885,13.023-1.329,19.534" transform="translate(-2897.779 -2263.266)" fill="#f3a52f"/>
            <path id="Trazado_1043691" data-name="Trazado 1043691" d="M2475.565,2036.641c4.547-2.9,8.936-6.042,13.658-8.676a32.993,32.993,0,0,1,7.4-2.925c-.41,2.74-2.213,4.5-3.787,6.18a71.565,71.565,0,0,1-32.558,20.273,28.81,28.81,0,0,1-3.8.73,2.165,2.165,0,0,1-2.479-.849c-1-1.477-.028-2.6.674-3.773,4.2-3.689,9.471-5.405,14.4-7.749,1.7-.808,3.263-1.821,4.91-2.7.511-.273.951-.651,1.581-.511" transform="translate(-2272.072 -1875.237)" fill="#f4a52e"/>
            <path id="Trazado_1043692" data-name="Trazado 1043692" d="M1679.471,1625.561a5.1,5.1,0,0,1,2.994-3.7,19.4,19.4,0,0,1,8.877-2.338c3.662-.135,7.333-.029,11-.027a2.181,2.181,0,0,1,1.051,1.78,22.324,22.324,0,0,1-1.047,11.794,2.163,2.163,0,0,1-.782,1c-1.95.86-3.93.4-5.919.154a36.723,36.723,0,0,1-10.554-2.838c-2.637-1.173-4.771-2.893-5.619-5.822" transform="translate(-1555.231 -1499.653)" fill="#e6791c"/>
            <path id="Trazado_1043693" data-name="Trazado 1043693" d="M2079.308,2710.442c-1.57-3.937-3.252-5.123-7.542-5.076-2.067.022-4.169-.369-6.2.336-8.718.038-17.439-.052-26.153.17-4.027.1-8.062.143-12.085.36-2.971.16-5.229,1.821-7.192,3.949-.3.322-.306,1.338-1.2.7-.38-1.333.142-2.577.376-3.85.8-1.254,1.46-2.624,2.794-3.445a5.161,5.161,0,0,1,2.739-.443c15.359-.379,30.72-.573,46.084-.46a23.069,23.069,0,0,1,6.379.531c2.665,1.858,2.065,4.618,2,7.231" transform="translate(-1869.458 -2502.719)" fill="#487bc9"/>
            <path id="Trazado_1043694" data-name="Trazado 1043694" d="M1171.92,2196.523c-1.568-5.993-3.1-11.988-6.12-17.488a58.209,58.209,0,0,1-2.5-5.975c1.211-1.737,1.47.089,1.779.591a82.978,82.978,0,0,1,6.858,14.2,98.427,98.427,0,0,1,6.631,28.046c.3,4.161.883,8.3.777,12.486-.02.773.212,1.6-.4,2.279-.967-.254-1.009-1.083-1.192-1.855q-2.206-9.33-3.494-18.829c-.527-3.831-1.313-7.613-2.2-11.372a3.419,3.419,0,0,1-.134-2.086" transform="translate(-1077.242 -2011.628)" fill="#fce267"/>
            <path id="Trazado_1043695" data-name="Trazado 1043695" d="M2257.825,1558.225c-.019.142-.044.283-.076.424-1.136.236-1.237,1.318-1.648,2.1-2.273,4.323-4.583,8.561-8.233,11.992-6.272,5.892-11.743,4.712-18.589.048-.591-.4-.96-.92-.109-1.477a21.178,21.178,0,0,0,12.933-1.269c6.347-2.624,10.766-7.345,14.081-13.221.493-.873,1-1.735,1.505-2.6q.068,2,.136,4" transform="translate(-2063.802 -1439.247)" fill="#ec845e"/>
            <path id="Trazado_1043696" data-name="Trazado 1043696" d="M1297.976,3096.8c.043,1.207-.616,1.643-1.733,1.589-2.847-.138-5.707.154-8.545-.256a85.717,85.717,0,0,1,3.323-12.474c.856-2.743,1.713-5.484,2.62-8.209.374-1.119.928-1.9,1.807-.294q1.264,9.821,2.528,19.645" transform="translate(-1192.44 -2848.671)" fill="#5fb0f0"/>
            <path id="Trazado_1043697" data-name="Trazado 1043697" d="M1896.663,1870.171c3.873.153,7.394-1.444,11.077-2.232-1.122,1.87-3.023,2.827-4.72,4.023l-2.97,2.062c-5.759,1.056-11.283-.091-16.777-1.713-7.179-2.12-13.323-6.065-19.144-10.619a17.447,17.447,0,0,1-4.71-4.948.928.928,0,0,1-.279,1.5c-.666.369-1.323-.16-1.6-.746-.734-1.529-2.429-2.909-.958-4.884a5.838,5.838,0,0,1,3.2-1.169,1.8,1.8,0,0,1,1.5.675c.384.639.047,1.5.647,2.076a26.549,26.549,0,0,0,11.006,10.044c6.577,3.236,13.427,5.494,20.9,5.262.977-.03,2.04-.178,2.833.673" transform="translate(-1718.698 -1714.48)" fill="#66a3e6"/>
            <path id="Trazado_1043698" data-name="Trazado 1043698" d="M2118.688,2681.942a.789.789,0,0,1-.918.683c-12.143-.738-24.3-.272-36.445-.207-3.642.02-7.312.245-10.972.293a28.4,28.4,0,0,1-6.867-.4c1.749-1.751,4.033-1.757,6.249-1.8,8.931-.181,17.863-.281,26.794-.442,5.69-.1,11.378-.282,17.067-.387a5.6,5.6,0,0,1,5.093,2.261" transform="translate(-1910.838 -2481.448)" fill="#62a7e8"/>
            <path id="Trazado_1043699" data-name="Trazado 1043699" d="M2062.5,2161.784a5.259,5.259,0,0,1-.923,3.838c-.806,1-.055,1.853.377,2.719a9.355,9.355,0,0,1,1.88,4.305c.359.925-.245,1.778-.2,2.68.382,5.635-.4,10.958-4.271,15.4a28.163,28.163,0,0,1-2.8,2.685c-.568.494-1.154,1.127-2,.212-1-1.092.171-1.408.635-1.808a16.578,16.578,0,0,0,6.006-15.416c-.1-.836-.343-1.656-.519-2.483-.693-.478-.634-1.322-.968-1.974a25.889,25.889,0,0,0-2.172-5.376c-.594-.5-1.227-.959-1.775-1.5-1.983-1.967-1.564-4.686,1-6.691a3.835,3.835,0,0,1,5.724,3.411" transform="translate(-1902.217 -1998.231)" fill="#1a1949"/>
            <path id="Trazado_1043700" data-name="Trazado 1043700" d="M2136.111,2099.576c-2.508,2.719-5.584,4.743-8.505,6.958-1.083.822-2.007.392-2.956-.258-2.254-1.545-4.524-3.068-6.787-4.6a11.518,11.518,0,0,1-4.867-2.96c-.555-.474-1.291-1.019-.67-1.945.11-.068.349-.191.343-.2-.262-.588-1.35-.929-.766-1.739.627-.867,1.482-.214,2.145.093a46.151,46.151,0,0,0,20.47,4.24c.555-.01,1.171-.139,1.594.414" transform="translate(-1955.515 -1939.463)" fill="#5fa4ec"/>
            <path id="Trazado_1043701" data-name="Trazado 1043701" d="M1685.917,2122.743a3.687,3.687,0,0,1,.343,2.031,43.722,43.722,0,0,1-19.047-5.64c-6.315-3.394-11.664-8.1-16.607-13.269-.179-.187-.308-.423-.774-1.075l14.351,8.285c1.787.044,2.888,1.478,4.362,2.16,5.728,2.649,11.361,5.514,17.372,7.508" transform="translate(-1527.784 -1949.087)" fill="#f0a12f"/>
            <path id="Trazado_1043702" data-name="Trazado 1043702" d="M1695.265,1713.495l-3.432,1.236a7.223,7.223,0,0,1-4.206,1.728,11.544,11.544,0,0,1-6.662-5.311c-1.976-2.719-3.487-5.588-2.935-9.121,5.545,7.257,13.646,7.753,21.756,8.224.5,1.8-.872,2.45-2,3.246-.837.307-1.677-.176-2.517,0" transform="translate(-1553.79 -1576.119)" fill="#d05c14"/>
            <path id="Trazado_1043703" data-name="Trazado 1043703" d="M2420.824,2198.9a7.8,7.8,0,0,0-1.125,3.446c-1.9,7.465-.355,13.976,5.424,19.257-1.433,1.725-2.488,1.449-3.806-.178a21.128,21.128,0,0,1-4.753-14.9c.039-.791.046-1.585.069-2.378.033-1.521-.349-3.1.557-4.51a10.38,10.38,0,0,1,1.7-3.594,3.312,3.312,0,0,0,.629-2.771c-.6-2.557-.091-4.132,1.54-4.769,3.152-1.232,4.871.176,4.738,3.88a1.954,1.954,0,0,1-1.02,1.994,19.318,19.318,0,0,0-3.947,4.519" transform="translate(-2237.767 -2026.212)" fill="#1e1b4b"/>
            <path id="Trazado_1043704" data-name="Trazado 1043704" d="M1806.753,1875.029c1.473-.385,2.825-1.182,4.381-1.281-.378,2.131,1.216,3.321,2.174,4.826.074-1.384-1.263-2.3-1.115-4.292,3.41,5.315,8.014,8.629,12.726,11.776,8.283,5.532,17.332,8.66,27.415,8.351a3.357,3.357,0,0,1,2.108.272l-.756.569c-8.267.113-16.327-.859-23.867-4.692.51,1.3,2.1,1.158,2.7,2.3-1.036.494-1.886-.394-2.808-.162a2.562,2.562,0,0,1-2.539-.835c-6.124-5.017-12.658-9.5-18.844-14.432-.769-.613-1.674-1.2-1.573-2.4" transform="translate(-1673.09 -1735.137)" fill="#4886d6"/>
            <path id="Trazado_1043705" data-name="Trazado 1043705" d="M1724.982,1830.186c7.354,6.278,15.26,11.838,22.957,17.67l5.728,4.653a2.309,2.309,0,0,0-2.061,1.339c-1.132-2.44-2.932-3.756-5.724-3.411a2.67,2.67,0,0,0-1.258-2.038c-8.4-5.6-15.953-12.287-23.813-18.582-1.424-1.14-2.638-2.432-2.317-4.493l6.488,4.863" transform="translate(-1591.32 -1690.294)" fill="#f9dd5a"/>
            <path id="Trazado_1043706" data-name="Trazado 1043706" d="M2181.39,2258.432a1.3,1.3,0,0,1,.29,1.719c-.72,1.613-1.408,3.24-2.109,4.863-3.6,2.611-7.842,2.434-11.924,2.364-2.326-.039-4.915.136-6.975-1.537l-1.287-4.367c6.122,2.906,12.241,4.1,18.513.314,1.462-.883,3.46-1.044,3.491-3.356" transform="translate(-1999.643 -2091.364)" fill="#fce265"/>
            <path id="Trazado_1043707" data-name="Trazado 1043707" d="M1275.589,2499.417c2,8.164,3.4,16.449,5.05,24.684.633,3.158,1.314,6.305,1.973,9.458q.43,3.473.859,6.946c-.395,1.013-.626.129-.7-.113a50.616,50.616,0,0,1-1.445-5.157c-.755-3.938-1.91-7.8-2.38-11.8a2.947,2.947,0,0,0-.692-2,156.727,156.727,0,0,0-2.7-19.568c-.186-.834-.608-1.646.031-2.459" transform="translate(-1180.912 -2314.521)" fill="#d8741e"/>
            <path id="Trazado_1043708" data-name="Trazado 1043708" d="M1865.562,2222.178c-.335.687-.805.319-1.27.182-7.354-2.178-13.942-5.946-20.464-9.849,1.033-.836,1.819.07,2.513.51,3.781,2.4,7.712,4.219,12.348,3.867.829-.062,1.5.476,2.25.706.772.237,1.58.4,1.826-.735,2.11,1.153,2.383,3.273,2.8,5.319" transform="translate(-1707.43 -2048.522)" fill="#fde061"/>
            <path id="Trazado_1043709" data-name="Trazado 1043709" d="M2176.774,2348.2a10.263,10.263,0,0,1,3.83.416c5.154.936,10.107-.125,15.071-1.246q-.533,2.15-1.063,4.3c-.2-.876-.848-.519-1.376-.5a80.054,80.054,0,0,1-13.641-.783,2.5,2.5,0,0,0-2.425.439,5.672,5.672,0,0,1-.4-2.619" transform="translate(-2015.746 -2173.723)" fill="#f3a833"/>
            <path id="Trazado_1043710" data-name="Trazado 1043710" d="M3346.746,2388.478c-.421-.441.075-.879,0-1.319,1.154-3.994,2.244-8.005,4.289-11.678a37.788,37.788,0,0,1,5.351-7.28c.485-.523,1.02-1.226,1.632-.1l0-.007c-1.884,2.272-3,5.039-4.771,7.385l-6.5,13" transform="translate(-3099.01 -2192.362)" fill="#fce164"/>
            <path id="Trazado_1043711" data-name="Trazado 1043711" d="M2491.66,1856.139l4.717-4.021,5.794-4.808c2.177-2.787,5.583-4.1,7.948-6.666,1.33-.964,2.532-2.088,3.831-3.092a3.126,3.126,0,0,1,2.116-.88l3.031-2.317c-.378,1.413-1.52,2.234-2.473,3.206-4.563,4.651-10.1,8.028-15.363,11.762-2.344,1.662-4.554,3.515-6.836,5.267-.843.648-1.592,1.481-2.764,1.55" transform="translate(-2307.338 -1698.657)" fill="#f6e083"/>
            <path id="Trazado_1043712" data-name="Trazado 1043712" d="M2474.563,2188.911a6.482,6.482,0,0,1,3.322-4.893,7.722,7.722,0,0,0,1.644-1.62c.738.857,1.573.683,2.539.385a52.649,52.649,0,0,0,11.054-4.855c.585-.342,1.108-1.074,1.876-.307-5.707,3.728-12.088,6.2-17.949,9.639-.857.5-1.66,1.1-2.486,1.651" transform="translate(-2291.505 -2016.218)" fill="#fbdc5f"/>
            <path id="Trazado_1043713" data-name="Trazado 1043713" d="M1922.479,1631.31c.828-.936,2.051-1.553,2.347-2.917,2.156-3.7,1.69-7.738,1.467-11.736-.048-.856-.23-1.7-.352-2.556l.1-.471c2.142-.056,1.59,2.136,2.555,3.062,1.052,6.408-.646,11.9-5.479,16.328a2.507,2.507,0,0,1-1.875.917c-.58-.634-.27-1.143.227-1.626.122-.547.575-.764,1.005-1" transform="translate(-1778.831 -1494.26)" fill="#fcd8ac"/>
            <path id="Trazado_1043714" data-name="Trazado 1043714" d="M1532.147,1789.871l.513-.987c.457-.094.858-1,1.385-.075a46.8,46.8,0,0,0,6.833,8.982c-2.761-2.354-5.861-4.193-8.672-6.426-.6-.48-.838-.965-.059-1.495" transform="translate(-1418.347 -1656.098)" fill="#ec9d2b"/>
            <path id="Trazado_1043715" data-name="Trazado 1043715" d="M1682.632,3089.275c-.056,2.035-1.877,3.038-2.776,4.583-2.047,3.52-4.447,6.836-6.737,10.213-.3.44-.461,1.375-1.389.746-.108-2.237,1.109-3.737,2.776-4.988l4.331-6.538c1.372-1.238,2.188-3,3.795-4.017" transform="translate(-1548.058 -2860.744)" fill="#fcdaae"/>
            <path id="Trazado_1043716" data-name="Trazado 1043716" d="M2112.153,1396.7c4.4,0,8.808-.007,13.213.008.555,0,1.261-.244,1.623.285.417.612-.279,1.046-.556,1.5-2.408,3.906-5.327,7.309-10.077,8.251-6.861,1.361-14-.226-18.008-6.352a11.364,11.364,0,0,1-.813-1.521c-.655-1.438-.542-2.238,1.407-2.191,4.4.105,8.807.033,13.211.033Z" transform="translate(-1942.035 -1293.333)" fill="#f48c61"/>
            <path id="Trazado_1043717" data-name="Trazado 1043717" d="M1905.3,898.9a21.432,21.432,0,0,1,8.1,1.691c1.03.437,2.068,1.022,1.7,2.375-.385,1.429-1.532,1.538-2.79,1.257a29.027,29.027,0,0,0-7.719-.893,20.453,20.453,0,0,0-8.074,2.238c-1.151.562-2.392,1.026-3.22-.421s.283-2.33,1.281-3.024a18.3,18.3,0,0,1,10.72-3.223" transform="translate(-1752.974 -832.407)" fill="#1a1850"/>
            <path id="Trazado_1043718" data-name="Trazado 1043718" d="M2427.545,902.343a4.7,4.7,0,0,1-2.264-.667,20.047,20.047,0,0,0-13.1-1.345c-1.253.262-2.957,1.076-3.535-.812s1.14-2.432,2.48-2.909A17.644,17.644,0,0,1,2428,898.852a2.162,2.162,0,0,1,1.094,2.573c-.237.751-.876.882-1.553.918" transform="translate(-2230.354 -829.179)" fill="#19184e"/>
            <path id="Trazado_1043719" data-name="Trazado 1043719" d="M1743.06,863.128c-2.724-5.337-4.486-11.043-6.3-16.719-1.467-4.585-2.752-9.227-4.077-13.856-.17-.6-.915-1.553.12-1.816,1.087-.276.988.9,1.209,1.623,2.18,7.142,3.833,14.45,6.7,21.378a4.359,4.359,0,0,0,1.017,1.866l1.333,7.523" transform="translate(-1604.118 -769.245)" fill="#3f5099"/>
            <path id="Trazado_1043720" data-name="Trazado 1043720" d="M2699.962,830.974c1.3-2.911,1.5-6.089,2.2-9.145.463-2.032.668-4.122,1.076-6.169.128-.64.141-1.488,1.3-1.754-.529,3.1-.976,6.1-1.56,9.074-1.263,6.43-2.592,12.847-3.907,19.268a2,2,0,0,1-.33.551c.176-3.966.672-7.9,1.225-11.826" transform="translate(-2499.097 -753.698)" fill="#424986"/>
            <path id="Trazado_1043721" data-name="Trazado 1043721" d="M2236.232,1272.983l1.3-1.133c.53,2.184-.544,4-2.866,4.982-3.12,1.325-7.417-.222-9.3-3.359.778-.515,1.316.382,2.007.338,3.028.528,6.1,1.511,8.859-.828" transform="translate(-2060.743 -1177.765)" fill="#24173e"/>
            <path id="Trazado_1043722" data-name="Trazado 1043722" d="M2409.171,1049.014c-2.157-1.112-2.232-1.776-.371-3.059,3.31-2.281,6.725-3.152,10.434-.9.654.4,1.17.691.23,1.311-.928.8-1.789-.078-2.628-.209a7.654,7.654,0,0,0-7.666,2.859" transform="translate(-2229.38 -966.531)" fill="#e99570"/>
            <path id="Trazado_1043723" data-name="Trazado 1043723" d="M1990.014,1071.507c-1.071.055-1.681.347-.685,1.6-4.1-1.857-7.87-2-11.188,1.973.77-4.759,7.225-6.467,11.873-3.577" transform="translate(-1831.807 -990.931)" fill="#261c3c"/>
            <path id="Trazado_1043724" data-name="Trazado 1043724" d="M2429.1,1067.706c-.417-1.188.5-1.684,1.218-2.213,2.917-2.154,5.975-1.875,9.077-.437.612.513,1.476.8,1.725,2.012a16.91,16.91,0,0,0-5.406-1.539c-2.541-.092-4.407,1.477-6.613,2.177" transform="translate(-2249.308 -985.223)" fill="#201335"/>
            <path id="Trazado_1043725" data-name="Trazado 1043725" d="M2261.345,1287.161c-2.094,2.615-4.932,2.881-8.859.828,2.965-.154,5.989.343,8.859-.828" transform="translate(-2085.858 -1191.943)" fill="#d5886d"/>
            <path id="Trazado_1043726" data-name="Trazado 1043726" d="M1633.629,847.269a2.206,2.206,0,0,1-2.276.5,5.607,5.607,0,0,1-2.133-3.381c-3.389-10.948-6.248-22.044-9.316-33.082-.387-1.393-.9-2.736-1.408-4.084-.466-1.229-.553-2.407.724-3.265l-.012.045c1.774-.582,2.016.68,2.351,1.908,2.975,10.876,6,21.738,9.34,32.51q1.371,4.424,2.728,8.852" transform="translate(-1498.476 -744.387)" fill="#f6d44b"/>
            <path id="Trazado_1043727" data-name="Trazado 1043727" d="M2072,3692.335l28.993-.069,9.491.138c-7.228,2.047-14.371,4.47-22.084,3.876a35.861,35.861,0,0,1-12.718-2.923c-1.2-.565-2.614-.137-3.683-1.021" transform="translate(-1918.727 -3419.128)" fill="#fac23a"/>
            <path id="Trazado_1043728" data-name="Trazado 1043728" d="M1558.343,3015.526q-1.387,2.494-2.775,4.988a2.208,2.208,0,0,0-.352.113,36.781,36.781,0,0,1-8.935-22.389c4.6,5.359,8.164,11.441,12.062,17.289" transform="translate(-1431.894 -2776.441)" fill="#e58223"/>
            <path id="Trazado_1043729" data-name="Trazado 1043729" d="M2550.381,3307.417a3.151,3.151,0,0,1-.077-.344c4.448,1.958,9.021,1.177,13.579.6a67.289,67.289,0,0,0,16.729-4.854,9.453,9.453,0,0,1,1.444-.443,2.438,2.438,0,0,1,.768.15,6.47,6.47,0,0,1-3.448,3.406,47.515,47.515,0,0,1-26.894,2.454,3.157,3.157,0,0,1-2.1-.972" transform="translate(-2361.644 -3058.076)" fill="#f39c6b"/>
            <path id="Trazado_1043730" data-name="Trazado 1043730" d="M2551.47,3471.458a1.121,1.121,0,0,1-.073-.416c3.787.794,7.543,1.812,11.368,2.327,5.4.726,10.843,1.087,16.25-.262.034-.588-.818-.236-.791-.73s.469-.455.8-.458c1.343-.015,2.685-.006,4.208-.006a5.6,5.6,0,0,1-4.942,3.3,68.8,68.8,0,0,1-13.725-.052c-2.065-.189-4.1-.658-6.168-.858-2.616-.252-4.5-2.2-6.93-2.841" transform="translate(-2362.656 -3214.27)" fill="#f6a16f"/>
            <path id="Trazado_1043731" data-name="Trazado 1043731" d="M1566.339,805.222a2.268,2.268,0,0,0-.362,2.225c3.754,9.635,5.582,19.832,8.664,29.663,1.249,3.983,2.083,8.1,3.83,11.924a15.518,15.518,0,0,0-3.16-.646c-2.536,0-3.32-1.556-3.977-3.654-3.353-10.708-6.079-21.583-8.893-32.436a8.256,8.256,0,0,0-1.366-3.578,15.454,15.454,0,0,1,5.263-3.5" transform="translate(-1445.594 -745.656)" fill="#385db2"/>
            <path id="Trazado_1043732" data-name="Trazado 1043732" d="M921.43,1720.762c-.458,7.483-1.906,7.276-7.718,5.627a11.85,11.85,0,0,1-5.887-3.81c-2.4-2.782-.511-8.955,3.053-9.923,4.5-1.223,10.557,3.432,10.552,8.107" transform="translate(-839.676 -1585.777)" fill="#91cdf9"/>
            <path id="Trazado_1043733" data-name="Trazado 1043733" d="M324.189,1958.253a11.559,11.559,0,0,1,6.394,1.943c2.6,1.671,3.049,3.78,1.375,6.431a20.457,20.457,0,0,1-2.4,3.035,5.047,5.047,0,0,1-6.955.526c-2.612-1.861-3.877-5.449-2.71-7.723a19.575,19.575,0,0,0,1.13-2.084c.611-1.666,1.675-2.463,3.169-2.129" transform="translate(-295.821 -1813.321)" fill="#92cefa"/>
            <path id="Trazado_1043734" data-name="Trazado 1043734" d="M428.8,2404.707c1.954.006,3.16,1.187,4.069,2.731a3.235,3.235,0,0,1-.6,3.97c-1.438,1.7-2.864,3.477-5.464,3.277-1.5-.116-3.107-.554-3.628-1.914a5.66,5.66,0,0,1,5.625-8.064" transform="translate(-391.391 -2226.815)" fill="#93cefa"/>
            <path id="Trazado_1043735" data-name="Trazado 1043735" d="M1120.517,1381.421c2.231-1.655,2.246-1.861-.065-3.1-.76-.409-1.144-.725-.755-1.64a6.556,6.556,0,0,1,6.984-3.524,3.826,3.826,0,0,1,2.717,5.017,7.16,7.16,0,0,1-5.153,4.951c-1.609.49-2.3-1.409-3.727-1.7" transform="translate(-1036.725 -1271.446)" fill="#93cef8"/>
            <path id="Trazado_1043736" data-name="Trazado 1043736" d="M611.851,2049.577c-.288.979-.567,2.092-1.876,1.906a2.086,2.086,0,0,1-1.924-2.2,1.64,1.64,0,0,1,1.9-1.6,1.8,1.8,0,0,1,1.9,1.894" transform="translate(-563.068 -1896.203)" fill="#93d0fa"/>
            <path id="Trazado_1043737" data-name="Trazado 1043737" d="M3524.061,3443.383l-12.65.854c.1.963.822,1.133,1.3,1.486,6.729,4.916,12.782,10.5,17.386,17.522a13.945,13.945,0,0,1,2.254,9.052c-.048.582-.03,1.228-.689,1.453-.613.21-1.089-.229-1.562-.557-1.317-.911-1.6-2.4-1.908-3.773-1.864-8.457-6.822-14.556-14.165-18.88a99.961,99.961,0,0,1-9.636-6.934c-.437-.333-1.048-.7-.879-1.37.205-.819.976-.723,1.609-.742,5.341-.167,10.62.6,15.92,1.063.993.086,1.982.23,2.972.347q.021.24.043.479" transform="translate(-3244.315 -3186.887)" fill="#fce46c"/>
            <path id="Trazado_1043738" data-name="Trazado 1043738" d="M3436.8,2382.927c1.237-2.69,2.317-5.48,4.771-7.384-1.34,2.623-2.523,5.348-4.771,7.384" transform="translate(-3182.564 -2199.811)" fill="#fec53d"/>
            <path id="Trazado_1043739" data-name="Trazado 1043739" d="M2313.61,3087.328c-1.006,3.687-3.472,5.649-7.432,5.915-1.143-.672-2.511-.486-3.714-1.033a7.39,7.39,0,0,1-4.2-9.618,7.807,7.807,0,0,1,9.514-4.64c4.462,1.325,6.34,4.344,5.833,9.376" transform="translate(-2127.779 -2849.961)" fill="#7ebaf0"/>
            <path id="Trazado_1043740" data-name="Trazado 1043740" d="M2305.493,3081.362c-.25-5.266-1.834-7.662-5.875-8.89a7.063,7.063,0,0,0-9.157,4.919c-1.1,4.121,1.011,7.558,5.248,8.706.821.223,1.976-.009,2.353,1.178a8.35,8.35,0,0,1-8.925-6.547c-.766-3.432,1.584-7.416,5.308-8.98.465-.2.949-.346,1.425-.517,4.625-.352,8.083,1.311,9.932,5.753-.039,1.463.456,2.964-.308,4.376" transform="translate(-2119.662 -2843.994)" fill="#6697da"/>
            <path id="Trazado_1043741" data-name="Trazado 1043741" d="M1886.247,3153.987l-.834-.076c-.076-.279.03.051-.118-.177-.632-.973.456-2.989-1.125-3.064-2.071-.1-4.452-.411-6.113,1.541l-2.835-1.013c2.938-4.062,7.2-3.812,11.272-2.489a44.773,44.773,0,0,0,9.218,2.32c-.619.624-1.536.091-2.049.7a16.435,16.435,0,0,1-5.468-1.156c-1.589-.582-2.294-.346-2.036,1.477.09.637.062,1.292.088,1.938" transform="translate(-1736.501 -2914.979)" fill="#eb966a"/>
            <path id="Trazado_1043742" data-name="Trazado 1043742" d="M2534.754,2795.413c1.1.056,1.612.5,1.592,1.625s-.8,1.383-1.54,1.355a1.53,1.53,0,0,1-1.625-1.647c.048-.987.773-1.285,1.572-1.334" transform="translate(-2345.786 -2588.621)" fill="#abc2e3"/>
            <path id="Trazado_1043743" data-name="Trazado 1043743" d="M2141.583,3202.057l4.829,0a7.929,7.929,0,0,1-4.829,0" transform="translate(-1983.159 -2965.183)" fill="#eb966a"/>
            <path id="Trazado_1043744" data-name="Trazado 1043744" d="M1870.8,3319.938a53.976,53.976,0,0,1,9.451.242c-1.319-1.127-3.015-.764-4.507-1.086a37.35,37.35,0,0,0-4.677-.2c6.772-1.279,12.839,1.337,19.085,3.543a2.262,2.262,0,0,1-2.192.829c-5.607-.817-11.253-1.423-16.746-2.9-.057-.015-.1-.094-.414-.427" transform="translate(-1732.408 -3073.065)" fill="#f29b6b"/>
            <path id="Trazado_1043745" data-name="Trazado 1043745" d="M1910.108,3174.925c-.65-1.1-.068-1.615.938-1.789,1.742-.3,3.492-.591,5.251-.754,1.374-.128,1.609.853,1.6,1.973a4.035,4.035,0,0,1-.43,2.27l-7.356-1.7" transform="translate(-1768.552 -2937.693)" fill="#f5a736"/>
            <path id="Trazado_1043746" data-name="Trazado 1043746" d="M1925.177,1672.278c3.119-3.05,5.926-6.218,6.615-10.836.319-2.136-.038-4.341.739-6.41,2.827,3.719,5.286,7.735,8.667,11.007,6.252,6.05,13.442,10.349,22.229,11.477,1.625.208,2.01.64.844,1.919a.889.889,0,0,0,.128,1.472,1.311,1.311,0,0,1-.129,2.337c-1.955,1.194-2.48,3.288-3.543,5.047-13.076.558-24.573-3.011-33.627-12.911a9.482,9.482,0,0,1-1.922-3.1" transform="translate(-1782.761 -1532.6)" fill="#fdbe86"/>
            <path id="Trazado_1043747" data-name="Trazado 1043747" d="M2652.552,1838.709l-5.536,4.44c-2.029.329-3.632-.2-4.508-2.219-1.287-1.353-3.065-2.316-3.458-4.375a61.931,61.931,0,0,0,11.021,1.737c.839.033,1.745-.255,2.481.418" transform="translate(-2443.824 -1700.695)" fill="#d45e12"/>
            <path id="Trazado_1043748" data-name="Trazado 1043748" d="M2637.6,1895.706c1.122,1.513,3.106,1.274,4.508,2.218-2.332,2.677-5.456,4.289-8.359,6.2.635-1.7,1.948-2.952,2.969-4.4.815-1.155,1.863-2.289.413-3.7l.469-.321" transform="translate(-2438.914 -1755.471)" fill="#638bbc"/>
            <path id="Trazado_1043749" data-name="Trazado 1043749" d="M1914.575,1851.133c-.048.622-.5.84-1.006,1-.237-.493-.762-.486-1.171-.674a2.608,2.608,0,0,1,2.177-.328" transform="translate(-1770.927 -1714.083)" fill="#fdbe86"/>
            <path id="Trazado_1043750" data-name="Trazado 1043750" d="M2125.006,1414.715c8.42-.117,16.535-.041,24.749-.533-3.914,7.549-19.864,7.975-24.749.533" transform="translate(-1967.808 -1309.567)" fill="#fcfbf9"/>
            <path id="Trazado_1043751" data-name="Trazado 1043751" d="M2548.124,2809.117a.8.8,0,0,1-.594.843.69.69,0,0,1-.917-.582.579.579,0,0,1,.547-.723.838.838,0,0,1,.965.463" transform="translate(-2358.21 -2600.868)" fill="#3d5181"/>
          </g>
        </g>
      </g>
      <g id="Grupo_1210406" data-name="Grupo 1210406" transform="translate(62.5 20.249)">
        <g transform="matrix(1, 0, 0, 1, -105, -51.01)" filter="url(#Trazado_1043752)">
          <path id="Trazado_1043752-2" data-name="Trazado 1043752" d="M35.972.074a38.251,38.251,0,0,1,39.074,29.97c2.2,10.222-.078,20.288-5.721,28.982l9.613,18.916L58.377,69.413,53.9,71.748a37.077,37.077,0,0,1-12.433,3.237c-10.2.792-20.041-2-27.86-8.738A39.08,39.08,0,0,1,.085,39.61,37.136,37.136,0,0,1,8.794,13.144C15.911,4.973,25.264.847,35.972.074" transform="translate(105 51.01)" fill="#f6f3ef"/>
        </g>
        <path id="Trazado_1043753" data-name="Trazado 1043753" d="M87.129,58.784l.026.336c.292,6.046-3.7,13.756-7.721,18.013a30.535,30.535,0,0,1-21.061,9.648,29.777,29.777,0,0,1-21.711-8.034C31.062,73.409,27.15,65.712,27,57.9a28.846,28.846,0,0,1,8.116-21.34,30.474,30.474,0,0,1,42.793-.676c5.282,5.263,9.261,12.849,9.22,20.446a19.342,19.342,0,0,0,0,2.456" transform="translate(-19.193 -19.513)" fill="#fec53d"/>
        <path id="Trazado_1043754" data-name="Trazado 1043754" d="M94.283,106.986c-2.1,0-21.457-.159-21.639-.027a6.824,6.824,0,0,0-.584,1.3c-.838,1.853-1.832,5.006-3.407,6.252a2.087,2.087,0,0,1-1.7-.317,9.471,9.471,0,0,1-1.24-3.341l-1.679-6.429-2.407,8.349-1.254,5.4c-.211,1.072-.274,2.5-1.049,3.325a1.556,1.556,0,0,1-1.358-.184c-1.234-1.964-1.644-5.827-2.144-8.121L53.25,100.974a19.334,19.334,0,0,1-1.162,4.883,1.875,1.875,0,0,1-1.188,1.095,18.9,18.9,0,0,1-3.21.041H40.629a12.522,12.522,0,0,1-2.823-.057,4.055,4.055,0,0,1-.676-.559,1.843,1.843,0,0,1,.217-1.578c1.222-.484,2.921-.281,4.233-.281l8.5.023,1.942-8.53a1.858,1.858,0,0,1,1.451-.778,4.086,4.086,0,0,1,.7.5,6.633,6.633,0,0,1,.552,1.813l1.15,5.219,2.759,11.95,2.713-9.116c.381-1.359.841-4.318,1.754-5.335.509-.566.818-.483,1.54-.55,1.118.8,1.26,2.554,1.563,3.849l1.812,7.912a57.5,57.5,0,0,1,3.4-6.864,71.8,71.8,0,0,1,7.854-.092l15.019.014a19.344,19.344,0,0,0,0,2.456" transform="translate(-26.348 -67.715)" fill="#263173"/>
      </g>
      <g id="Grupo_1210407" data-name="Grupo 1210407" transform="translate(416.119 146.89)">
        <g id="Grupo_1203652" data-name="Grupo 1203652" clip-path="url(#clip-path-3)">
          <path id="Trazado_1043755" data-name="Trazado 1043755" d="M219.343,74.3c-.025-1.494-.466-4.693.589-5.773,1.09-1.116,5.767-.654,7.473-.649,1.025,0,3.519-.308,4.243.427a2.361,2.361,0,0,1,.693,1.26,29.937,29.937,0,0,1,.042,4.614l.02,11.632c.02,1.239.417,4.633-.247,5.556a3.875,3.875,0,0,1-2.05.117,11.7,11.7,0,0,0-2.716-.117l-5.934.03a3.414,3.414,0,0,1-1.848-.182l-.212-.778c-.352-2.535-.017-5.624-.007-8.211Z" transform="translate(-164.551 -50.877)" fill="#747eca"/>
          <path id="Trazado_1043756" data-name="Trazado 1043756" d="M232.9,140.079c.02,1.239.417,4.633-.247,5.556a3.875,3.875,0,0,1-2.05.117,11.7,11.7,0,0,0-2.716-.117l-5.934.03a3.414,3.414,0,0,1-1.848-.182l-.212-.778.025-4.555Z" transform="translate(-165.048 -105.141)" fill="#303a72"/>
          <path id="Trazado_1043757" data-name="Trazado 1043757" d="M163.348,437.236l5.587-.085a15.15,15.15,0,0,1,2.8.013l.17.015.065,2.067c.571.451,1.649.269,2.387.266l6.475-.009a23.051,23.051,0,0,1,3.821.121c5.1.892,7.939,4.4,9.361,9.138l-52.243.02a9.423,9.423,0,0,1,3.175-6.175c3.26-3.149,6.737-3.094,10.962-3.1l7.438.063Z" transform="translate(-106.412 -328.07)" fill="#303a72"/>
          <path id="Trazado_1043758" data-name="Trazado 1043758" d="M228.273,437.236l5.587-.085a15.15,15.15,0,0,1,2.8.013v2.193a1.573,1.573,0,0,1-.3.274c-.377.192-6.759.036-7.635,0l-.454-.056Z" transform="translate(-171.338 -328.07)" fill="#1a275f"/>
          <path id="Trazado_1043759" data-name="Trazado 1043759" d="M.111,35.758c.182-2.2.007-4.558.007-6.77l0-14.294c0-3.032-.574-7.288.758-10.029A8.09,8.09,0,0,1,5.728.477,9.605,9.605,0,0,1,8.968.1l14.3-.01c2.055,0,4.6-.286,6.57.166A7.9,7.9,0,0,1,35.58,5.9a27.519,27.519,0,0,1,.19,5.671L35.8,23.431l-.012,7.92-.022,9.237c0,1.933.267,4.251-.456,6.061a8.168,8.168,0,0,1-6.485,4.889,38.28,38.28,0,0,1-4.145.047l-8.019-.016-6.193,0a14.907,14.907,0,0,1-3.592-.2,8.888,8.888,0,0,1-4.435-2.379C-.752,45.7.123,40.006.111,35.758" transform="translate(0 0)" fill="#303a72"/>
          <path id="Trazado_1043760" data-name="Trazado 1043760" d="M228.093,162.324l5.934-.03a11.7,11.7,0,0,1,2.716.117l.012,8.929-8.682-.016Z" transform="translate(-171.188 -121.8)" fill="#1a275f"/>
          <path id="Trazado_1043761" data-name="Trazado 1043761" d="M143.505,93.933l18.991,0,.045,7.926H143.493Z" transform="translate(-107.703 -70.502)" fill="#6c58aa"/>
          <path id="Trazado_1043762" data-name="Trazado 1043762" d="M228.073,198.557l8.682.016-.072,59.57-.17-.015a15.156,15.156,0,0,0-2.8-.013l-5.587.085Z" transform="translate(-171.188 -149.034)" fill="#747eca"/>
        </g>
      </g>
      <g id="Grupo_1210408" data-name="Grupo 1210408" transform="translate(14.713 132.261)">
        <g id="Grupo_1203654" data-name="Grupo 1203654" clip-path="url(#clip-path-4)">
          <path id="Trazado_1043763" data-name="Trazado 1043763" d="M61.72,202.336c.266-.469,21.7-11.1,23.469-11.8a22.79,22.79,0,0,0,2.925,4.238l-14.972,7.461c-2.312,1.169-4.913,2.935-7.342,3.667a2.543,2.543,0,0,1-1.638-.13c-1.24-.433-1.749-1.842-2.235-2.946Z" transform="translate(-46.003 -142.02)" fill="#141e54"/>
          <path id="Trazado_1043764" data-name="Trazado 1043764" d="M75.321,144.989c-1.443,3.768-1.982,7.64-.3,11.457l.064.142c-1.772.691-23.2,11.327-23.469,11.8l-2.585-5.148c-.672-1.334-1.174-2.26-.646-3.754a3.054,3.054,0,0,1,1.2-1.568c2.393-1.613,5.483-2.792,8.089-4.109Z" transform="translate(-35.9 -108.068)" fill="#1a275f"/>
          <path id="Trazado_1043765" data-name="Trazado 1043765" d="M245.612,80.028l1.136-.678c.959,5.271,3.217,9.672,6.139,14.1L233.8,103.188a18.119,18.119,0,0,0-.828-5.654c-1.176-3.561-3.727-5.753-6.842-7.627Z" transform="translate(-168.549 -59.144)" fill="#1a275f"/>
          <path id="Trazado_1043766" data-name="Trazado 1043766" d="M265.639,80.028l1.136-.678c.959,5.271,3.217,9.672,6.14,14.1l-19.085,9.735A18.119,18.119,0,0,0,253,97.534l16-8.115a38.061,38.061,0,0,1-3.366-9.391" transform="translate(-188.576 -59.144)" fill="#141e54"/>
          <path id="Trazado_1043767" data-name="Trazado 1043767" d="M305.726,38.473a10.163,10.163,0,0,1-.132-5.571c.964-2.967,3.894-3.991,6.42-5.3l6.091-3.1a35.79,35.79,0,0,0,.015,6.036,31.618,31.618,0,0,0,7.666,16.544,22.887,22.887,0,0,0,8.865,6.334l-11.721,6.206a5.815,5.815,0,0,1-2.973.259c-2.963-.5-6.424-4.923-8.092-7.31-2.923-4.431-5.181-8.832-6.14-14.1" transform="translate(-227.527 -18.267)" fill="#303a72"/>
          <path id="Trazado_1043768" data-name="Trazado 1043768" d="M150.88,122.653l.112-.228a13.143,13.143,0,0,1,7.745-6.757,13.626,13.626,0,0,1,10.3.828c3.116,1.874,5.666,4.066,6.842,7.627a18.118,18.118,0,0,1,.828,5.654,14.332,14.332,0,0,1-5.66,9.858,3.447,3.447,0,0,1-.909.55,7.374,7.374,0,0,1,.2,3.1l-.462.545a23.074,23.074,0,0,1-12.909.362,2.839,2.839,0,0,1-1.423-1.154c-.4-.772,0-2.146.243-2.919a15.176,15.176,0,0,1-2.223-1.628,22.791,22.791,0,0,1-2.925-4.238l-.064-.142c-1.682-3.817-1.143-7.69.3-11.457" transform="translate(-111.458 -85.732)" fill="#303a72"/>
          <path id="Trazado_1043769" data-name="Trazado 1043769" d="M172.893,213.576c3.628,1.827,7.083,2.651,11.063,1.366l3.288-1.3a7.374,7.374,0,0,1,.2,3.1l-.462.545a23.075,23.075,0,0,1-12.909.362,2.839,2.839,0,0,1-1.423-1.154c-.4-.772,0-2.146.243-2.919" transform="translate(-128.558 -159.19)" fill="#1a275f"/>
          <path id="Trazado_1043770" data-name="Trazado 1043770" d="M177.416,134.948a8.782,8.782,0,0,1,5.14,1,8.564,8.564,0,0,1,4.073,5.082,8.105,8.105,0,0,1-.825,6.326,8.264,8.264,0,0,1-11.834,2.816,8.189,8.189,0,0,1-3.518-5.11,8.358,8.358,0,0,1,1.126-6.308,8.765,8.765,0,0,1,5.838-3.808" transform="translate(-126.908 -100.555)" fill="#747eca"/>
          <path id="Trazado_1043771" data-name="Trazado 1043771" d="M45.515,228.515a23.074,23.074,0,0,0,12.909-.362c.694,1.716,2.2,3.389,3.216,4.968l23.829,33.933L106.855,297.1h-4.876L80.385,266.5,59.992,237.631c-.626-.919-3.571-5.731-4.383-5.818l-1.358.068c-.52,1.38-.167,3.867-.163,5.392l.038,13.489L54.1,288.5l8.567.012a20.1,20.1,0,0,1,3.745.071,2.246,2.246,0,0,1,1.046.618c1.235,1.207.664,6,.665,7.795L37.4,296.992c-.007-1.8-.568-6.525.677-7.816a3.013,3.013,0,0,1,.789-.555,10.449,10.449,0,0,1,3.242-.172l8.124.072-.054-42.908.033-9.9c0-.978.25-2.972-.161-3.8a6.789,6.789,0,0,0-2,0L4.866,296.975l-4.866,0Z" transform="translate(0 -170.055)" fill="#303a72"/>
          <path id="Trazado_1043772" data-name="Trazado 1043772" d="M366.852,0a17.807,17.807,0,0,1,13.525,5.221,19.582,19.582,0,0,1,5.7,13.737c.016,3.546-1.145,7.87-3.738,10.413a7.078,7.078,0,0,1-1.64,1.206l-1.852.963-5.325,2.7-1.631.915a22.887,22.887,0,0,1-8.865-6.334,31.619,31.619,0,0,1-7.666-16.544,35.79,35.79,0,0,1-.015-6.036l1.686-1.013a.866.866,0,0,1,.065-.329c.751-2.021,4.22-3.245,6.039-4.05l1.943-.621Z" transform="translate(-264.764 0)" fill="#303a72"/>
          <path id="Trazado_1043773" data-name="Trazado 1043773" d="M384.774,1.519,386.717.9c-.238,1.7-.663,3.376-.771,5.087a25.788,25.788,0,0,0,5.459,17.347,21.584,21.584,0,0,0,7.907,6.532,12.962,12.962,0,0,1,3.026,1.385l-1.852.963c-4.309-1.934-7.629-3.939-10.421-7.871-5.108-7.194-6.773-14.078-5.292-22.822" transform="translate(-286.406 -0.669)" fill="#141e54"/>
          <path id="Trazado_1043774" data-name="Trazado 1043774" d="M363.132,3.336c-1.481,8.743.184,15.628,5.292,22.822,2.791,3.931,6.112,5.937,10.421,7.871l-5.325,2.7-1.631.915a22.887,22.887,0,0,1-8.865-6.334,31.619,31.619,0,0,1-7.666-16.544,35.79,35.79,0,0,1-.015-6.036l1.686-1.013a.866.866,0,0,1,.065-.329c.751-2.021,4.22-3.245,6.039-4.05" transform="translate(-264.764 -2.486)" fill="#303a72"/>
          <path id="Trazado_1043775" data-name="Trazado 1043775" d="M355.342,21.543l1.686-1.013a39.582,39.582,0,0,0-.038,6.629,30.5,30.5,0,0,0,7.573,16.148,22.484,22.484,0,0,0,6.266,5.1,21.524,21.524,0,0,1,2.691,1.13l-1.631.915a22.887,22.887,0,0,1-8.865-6.334,31.619,31.619,0,0,1-7.666-16.544,35.79,35.79,0,0,1-.015-6.036" transform="translate(-264.764 -15.302)" fill="#141e54"/>
        </g>
      </g>
    </g>
  </g>
</svg>
