<svg xmlns="http://www.w3.org/2000/svg" xmlns:xlink="http://www.w3.org/1999/xlink" width="108" height="108" viewBox="0 0 108 108">
  <defs>
    <filter id="Trazado_904820" x="0" y="0" width="108" height="108" filterUnits="userSpaceOnUse">
      <feOffset dy="3" input="SourceAlpha"/>
      <feGaussianBlur stdDeviation="3" result="blur"/>
      <feFlood flood-opacity="0.161"/>
      <feComposite operator="in" in2="blur"/>
      <feComposite in="SourceGraphic"/>
    </filter>
  </defs>
  <g id="Grupo_1230388" data-name="Grupo 1230388" transform="translate(-620 -5760.519)">
    <g id="Grupo_1230285" data-name="Grupo 1230285" transform="translate(629 5766.519)">
      <g id="Grupo_1173585" data-name="Grupo 1173585" transform="translate(0 0)">
        <g id="Grupo_1173428" data-name="Grupo 1173428">
          <g id="Grupo_1171958" data-name="Grupo 1171958">
            <g id="Grupo_1167341" data-name="Grupo 1167341">
              <g id="Grupo_1166792" data-name="Grupo 1166792">
                <g transform="matrix(1, 0, 0, 1, -9, -6)" filter="url(#Trazado_904820)">
                  <g id="Trazado_904820-2" data-name="Trazado 904820" transform="translate(9 6)" fill="#e7f2f8">
                    <path d="M 44.99999618530273 88.50004577636719 C 39.12687301635742 88.50004577636719 33.43022155761719 87.35012054443359 28.06829643249512 85.08220672607422 C 22.88852119445801 82.891357421875 18.23629570007324 79.75463104248047 14.24084663391113 75.75917816162109 C 10.24540901184082 71.76373291015625 7.108683586120605 67.11150360107422 4.917821407318115 61.93173217773438 C 2.649921178817749 56.56980514526367 1.499996185302734 50.87315368652344 1.499996185302734 45.00003051757812 C 1.499996185302734 39.12690734863281 2.649921178817749 33.43025588989258 4.917821407318115 28.06831741333008 C 7.108683586120605 22.8885555267334 10.24540901184082 18.23633003234863 14.24084663391113 14.24088096618652 C 18.23629570007324 10.2454309463501 22.88852119445801 7.108717918395996 28.06829643249512 4.917855739593506 C 33.43022155761719 2.64995551109314 39.12687301635742 1.500030517578125 44.99999618530273 1.500030517578125 C 50.87311935424805 1.500030517578125 56.56977081298828 2.64995551109314 61.93169784545898 4.917855739593506 C 67.11147308349609 7.108717918395996 71.76369476318359 10.2454309463501 75.75914764404297 14.24088096618652 C 79.75458526611328 18.23633003234863 82.89131164550781 22.8885555267334 85.08216857910156 28.06831741333008 C 87.35007476806641 33.43025588989258 88.5 39.12690734863281 88.5 45.00003051757812 C 88.5 50.87315368652344 87.35007476806641 56.56980514526367 85.08216857910156 61.93173217773438 C 82.89131164550781 67.11150360107422 79.75458526611328 71.76373291015625 75.75914764404297 75.75917816162109 C 71.76369476318359 79.75463104248047 67.11147308349609 82.891357421875 61.93169784545898 85.08220672607422 C 56.56977081298828 87.35012054443359 50.87311935424805 88.50004577636719 44.99999618530273 88.50004577636719 Z" stroke="none"/>
                    <path d="M 44.99999618530273 3.000015258789062 C 39.32870864868164 3.000015258789062 33.82865142822266 4.110076904296875 28.65262603759766 6.299362182617188 C 23.65165710449219 8.414588928222656 19.15968322753906 11.443359375 15.301513671875 15.30152893066406 C 11.44333648681641 19.15969848632812 8.414566040039062 23.65167236328125 6.299339294433594 28.65264511108398 C 4.110054016113281 33.82868576049805 2.999992370605469 39.32874298095703 2.999992370605469 45.00003051757812 C 2.999992370605469 50.67131805419922 4.110054016113281 56.17136001586914 6.299339294433594 61.34740447998047 C 8.414566040039062 66.34837341308594 11.44333648681641 70.84033203125 15.301513671875 74.69851684570312 C 19.15968322753906 78.55668640136719 23.65165710449219 81.58545684814453 28.65262603759766 83.70069122314453 C 33.82865142822266 85.88997650146484 39.32870864868164 87.00003051757812 44.99999618530273 87.00003051757812 C 50.67128372192383 87.00003051757812 56.17134094238281 85.88997650146484 61.34736633300781 83.70069122314453 C 66.34834289550781 81.58545684814453 70.84030914306641 78.55668640136719 74.69847869873047 74.69851684570312 C 78.55665588378906 70.84033203125 81.58542633056641 66.34837341308594 83.70065307617188 61.34740447998047 C 85.88993835449219 56.17136001586914 87 50.67131805419922 87 45.00003051757812 C 87 39.32874298095703 85.88993835449219 33.82868576049805 83.70065307617188 28.65264511108398 C 81.58542633056641 23.65167236328125 78.55665588378906 19.15969848632812 74.69847869873047 15.30152893066406 C 70.84030914306641 11.443359375 66.34834289550781 8.414588928222656 61.34736633300781 6.299362182617188 C 56.17134094238281 4.110076904296875 50.67128372192383 3.000015258789062 44.99999618530273 3.000015258789062 M 44.99999618530273 1.52587890625e-05 C 69.85281372070312 1.52587890625e-05 90 20.14720153808594 90 45.00003051757812 C 90 69.85282897949219 69.85281372070312 90.00003051757812 44.99999618530273 90.00003051757812 C 20.14717864990234 90.00003051757812 -7.62939453125e-06 69.85282897949219 -7.62939453125e-06 45.00003051757812 C -7.62939453125e-06 20.14720153808594 20.14717864990234 1.52587890625e-05 44.99999618530273 1.52587890625e-05 Z" stroke="none" fill="#134b69"/>
                  </g>
                </g>
              </g>
            </g>
          </g>
        </g>
      </g>
    </g>
    <g id="Fill_out_line" data-name="Fill out line" transform="translate(629.999 5767.519)">
      <path id="Trazado_1181316" data-name="Trazado 1181316" d="M369.8,31.467a2.333,2.333,0,0,0,2.333-2.333v-1.4A3.733,3.733,0,0,0,368.4,24H360v7.467Z" transform="translate(-303.866 -7.067)" fill="#f0bca1"/>
      <path id="Trazado_1181317" data-name="Trazado 1181317" d="M119.734,78.135H88v-50.4A3.733,3.733,0,0,1,91.733,24H127.2a3.733,3.733,0,0,0-3.733,3.733V74.4A3.733,3.733,0,0,1,119.734,78.135Z" transform="translate(-63.6 -7.067)" fill="#ffd9b5"/>
      <path id="Trazado_1181318" data-name="Trazado 1181318" d="M306.333,424a2.333,2.333,0,0,1,2.333,2.333v1.4H304V424Z" transform="translate(-254.399 -360.399)" fill="#f5c9aa"/>
      <path id="Trazado_1181319" data-name="Trazado 1181319" d="M56.667,429.133A2.333,2.333,0,0,0,59,431.467H26.333A2.333,2.333,0,0,1,24,429.133v-2.8A2.333,2.333,0,0,1,26.333,424H59a2.333,2.333,0,0,0-2.333,2.333Z" transform="translate(-7.067 -360.399)" fill="#ffe3cd"/>
      <path id="Trazado_1181320" data-name="Trazado 1181320" d="M392,56h3.733v1.4a2.333,2.333,0,0,0,2.333,2.333H392Z" transform="translate(-332.132 -35.333)" fill="#f5c9aa"/>
      <path id="Trazado_1181321" data-name="Trazado 1181321" d="M219.733,113.334H216l.933-9.334H218.8Z" transform="translate(-176.666 -77.733)" fill="#ba8b5d"/>
      <path id="Trazado_1181322" data-name="Trazado 1181322" d="M131.733,141.6A3.738,3.738,0,0,1,128,137.867v-.933a.933.933,0,0,1,.933-.933h5.6a.933.933,0,0,1,.933.933v.933A3.738,3.738,0,0,1,131.733,141.6Z" transform="translate(-98.933 -106)" fill="#fab53f"/>
      <path id="Trazado_1181323" data-name="Trazado 1181323" d="M275.733,141.6A3.738,3.738,0,0,1,272,137.867v-.933a.933.933,0,0,1,.933-.933h5.6a.933.933,0,0,1,.933.933v.933A3.738,3.738,0,0,1,275.733,141.6Z" transform="translate(-226.133 -106)" fill="#fab53f"/>
      <rect id="Rectángulo_423306" data-name="Rectángulo 423306" width="9.334" height="3.733" rx="1.867" transform="translate(36.534 35.6)" fill="#9f764a"/>
      <path id="Trazado_1181324" data-name="Trazado 1181324" d="M158.4,62.158a1.867,1.867,0,0,0-1.867-1.867H155.6a5.28,5.28,0,0,0-7.467,0h-1.867a5.28,5.28,0,0,0-7.467,0h-.933a1.867,1.867,0,1,0,0,3.733h.933a5.28,5.28,0,0,1,7.467,0h1.867a5.28,5.28,0,0,1,7.467,0h.933A1.867,1.867,0,0,0,158.4,62.158Z" transform="translate(-106 -37.758)" fill="#9f764a"/>
      <path id="Trazado_1181325" data-name="Trazado 1181325" d="M367.867,145.867l-1.449,2.9-.835,1.671-8.916,17.832L352,172.934l.655-4.585.279-1.948,8.916-17.833.835-1.67,1.449-2.9Z" transform="translate(-296.799 -113.066)" fill="#529ddf"/>
      <path id="Trazado_1181326" data-name="Trazado 1181326" d="M361.622,337.867l-1.392,1.392-2.62-1.31.279-1.948Z" transform="translate(-301.754 -282.666)" fill="#4384c3"/>
      <path id="Trazado_1181327" data-name="Trazado 1181327" d="M355.275,354.01,352,357.285l.655-4.585Z" transform="translate(-296.799 -297.417)" fill="#68737f"/>
      <path id="Trazado_1181328" data-name="Trazado 1181328" d="M361.217,137.964l-3.733-1.867a.933.933,0,0,0-1.252.417l-1.449,2.9-.907-.453a3.033,3.033,0,0,0-4.145,1.518l-1.923,4.486,1.716.735,1.923-4.486a1.167,1.167,0,0,1,1.594-.584l.907.453-8.916,17.832a.934.934,0,0,0-.089.285l-.933,6.533a.933.933,0,0,0,1.584.792l4.667-4.667a.935.935,0,0,0,.175-.243l11.2-22.4a.933.933,0,0,0-.417-1.252Zm-12.385,22.683-2.58,2.58.516-3.612,8.848-17.7,2.064,1.032Zm9.683-19.367-2.064-1.032,1.032-2.064,2.064,1.032Z" transform="translate(-289.732 -105.998)"/>
      <path id="Trazado_1181329" data-name="Trazado 1181329" d="M81.867,20.667a2.8,2.8,0,0,1,2.8-2.8H116.4a4.643,4.643,0,0,0-.936,2.8v11.2h1.867v-11.2a2.8,2.8,0,0,1,2.8-2.8h.933a2.8,2.8,0,0,1,2.8,2.8v1.4a1.4,1.4,0,1,1-2.8,0v-1.4a.933.933,0,0,0-.933-.933h-1.867V21.6h.933v.467a3.247,3.247,0,0,0,.315,1.4h-1.249v1.867h4.2a3.27,3.27,0,0,0,3.267-3.267v-1.4A4.672,4.672,0,0,0,121.068,16h-36.4A4.672,4.672,0,0,0,80,20.667V60.8h1.867Z" transform="translate(-56.534)"/>
      <path id="Trazado_1181330" data-name="Trazado 1181330" d="M58.934,392.4a2.8,2.8,0,0,1-2.8,2.8h-4.2a1.4,1.4,0,0,1-1.4-1.4V391a1.4,1.4,0,1,1,2.8,0v.467H51.468v1.867h2.8a.933.933,0,0,0,.933-.933V391a3.27,3.27,0,0,0-3.267-3.267H19.267A3.27,3.27,0,0,0,16,391v2.8a3.27,3.27,0,0,0,3.267,3.267H56.134A4.672,4.672,0,0,0,60.8,392.4V384H58.934Zm-9.951,2.8H19.267a1.4,1.4,0,0,1-1.4-1.4V391a1.4,1.4,0,0,1,1.4-1.4H48.983a3.247,3.247,0,0,0-.315,1.4v2.8A3.247,3.247,0,0,0,48.983,395.2Z" transform="translate(0 -325.066)"/>
      <path id="Trazado_1181331" data-name="Trazado 1181331" d="M128,60.134a3.733,3.733,0,1,0,7.467,0V59.2a.928.928,0,0,0-.134-.48h0l-2.394-3.99a4.347,4.347,0,0,1,5.285.177l-.8,8.027h-.089a2.8,2.8,0,1,0,0,5.6h5.6a2.8,2.8,0,1,0,0-5.6h-.089l-.8-8.026a4.347,4.347,0,0,1,5.285-.177l-2.394,3.99h0a.928.928,0,0,0-.134.48v.933a3.733,3.733,0,0,0,7.467,0V59.2a.928.928,0,0,0-.134-.48h0l-2-3.334a2.8,2.8,0,0,0-.667-5.519H148.9a6.213,6.213,0,0,0-7.836-.3V48H139.2v1.567a6.213,6.213,0,0,0-7.836.3H130.8a2.8,2.8,0,0,0-.667,5.519l-2,3.334h0a.928.928,0,0,0-.134.48ZM131.732,62a1.869,1.869,0,0,1-1.867-1.867H133.6A1.869,1.869,0,0,1,131.732,62Zm1.152-3.733h-2.3l1.152-1.919Zm10.982,7.467a.934.934,0,0,1-.933.933h-5.6a.933.933,0,0,1,0-1.867h5.6A.934.934,0,0,1,143.866,65.734Zm-4.569-2.8.747-7.467h.177l.747,7.467Zm10.387-4.667h-2.3l1.152-1.919ZM148.532,62a1.869,1.869,0,0,1-1.867-1.867H150.4A1.869,1.869,0,0,1,148.532,62ZM130.8,51.733h.933a.933.933,0,0,0,.66-.273,4.346,4.346,0,0,1,6.147,0,.933.933,0,0,0,.66.273h1.867a.933.933,0,0,0,.66-.273,4.346,4.346,0,0,1,6.147,0,.933.933,0,0,0,.66.273h.933a.933.933,0,1,1,0,1.867H148.9a6.215,6.215,0,0,0-8.2,0h-1.129a6.215,6.215,0,0,0-8.2,0H130.8a.933.933,0,0,1,0-1.867Z" transform="translate(-98.931 -28.267)"/>
      <path id="Trazado_1181332" data-name="Trazado 1181332" d="M112,224h5.6v1.867H112Z" transform="translate(-84.8 -183.733)"/>
      <path id="Trazado_1181333" data-name="Trazado 1181333" d="M112,256h7.467v1.867H112Z" transform="translate(-84.8 -211.999)"/>
      <path id="Trazado_1181334" data-name="Trazado 1181334" d="M192,256h7.467v1.867H192Z" transform="translate(-155.466 -211.999)"/>
      <path id="Trazado_1181335" data-name="Trazado 1181335" d="M272,256h11.2v1.867H272Z" transform="translate(-226.133 -211.999)"/>
      <path id="Trazado_1181336" data-name="Trazado 1181336" d="M112,384h7.467v1.867H112Z" transform="translate(-84.8 -325.066)"/>
      <path id="Trazado_1181337" data-name="Trazado 1181337" d="M192,384h11.2v1.867H192Z" transform="translate(-155.466 -325.066)"/>
      <path id="Trazado_1181338" data-name="Trazado 1181338" d="M112,288h3.733v1.867H112Z" transform="translate(-84.8 -240.266)"/>
      <path id="Trazado_1181339" data-name="Trazado 1181339" d="M160,288h9.334v1.867H160Z" transform="translate(-127.2 -240.266)"/>
      <path id="Trazado_1181340" data-name="Trazado 1181340" d="M256,288h11.2v1.867H256Z" transform="translate(-211.999 -240.266)"/>
      <path id="Trazado_1181341" data-name="Trazado 1181341" d="M112,352h3.733v1.867H112Z" transform="translate(-84.8 -296.799)"/>
      <path id="Trazado_1181342" data-name="Trazado 1181342" d="M160,352h9.334v1.867H160Z" transform="translate(-127.2 -296.799)"/>
      <path id="Trazado_1181343" data-name="Trazado 1181343" d="M256,352h8.4v1.867H256Z" transform="translate(-211.999 -296.799)"/>
      <path id="Trazado_1181344" data-name="Trazado 1181344" d="M112,320h15.867v1.867H112Z" transform="translate(-84.8 -268.532)"/>
    </g>
  </g>
</svg>
