<svg xmlns="http://www.w3.org/2000/svg" xmlns:xlink="http://www.w3.org/1999/xlink" width="103" height="103" viewBox="0 0 103 103">
  <defs>
    <filter id="Trazado_982547" x="0" y="0" width="103" height="103" filterUnits="userSpaceOnUse">
      <feOffset dy="3" input="SourceAlpha"/>
      <feGaussianBlur stdDeviation="3" result="blur"/>
      <feFlood flood-opacity="0.161"/>
      <feComposite operator="in" in2="blur"/>
      <feComposite in="SourceGraphic"/>
    </filter>
  </defs>
  <g id="Grupo_1230393" data-name="Grupo 1230393" transform="translate(-194 -8972.723)">
    <g id="Grupo_1224496" data-name="Grupo 1224496" transform="translate(0 3179.723)">
      <g id="Grupo_1224201" data-name="Grupo 1224201" transform="translate(-0.13 5367)">
        <g id="Grupo_1224080" data-name="Grupo 1224080" transform="translate(0 -1582)">
          <g id="Grupo_1206686" data-name="Grupo 1206686" transform="translate(-2.87 300.583)">
            <g id="Grupo_1201889" data-name="Grupo 1201889" transform="translate(206 1713.417)">
              <g id="Grupo_1201680" data-name="Grupo 1201680">
                <g id="Grupo_1201330" data-name="Grupo 1201330">
                  <g id="Grupo_1172010" data-name="Grupo 1172010">
                    <g id="Grupo_1171046" data-name="Grupo 1171046">
                      <g id="Grupo_1148525" data-name="Grupo 1148525">
                        <g transform="matrix(1, 0, 0, 1, -9, -6)" filter="url(#Trazado_982547)">
                          <g id="Trazado_982547-2" data-name="Trazado 982547" transform="translate(9 6)" fill="#f2f4f0">
                            <path d="M 42.5 83.5 C 36.96437835693359 83.5 31.59512901306152 82.41617584228516 26.54141235351562 80.27863311767578 C 21.65934181213379 78.21369171142578 17.27447128295898 75.25723266601562 13.50862312316895 71.49137878417969 C 9.742764472961426 67.72553253173828 6.786305904388428 63.34066009521484 4.721364498138428 58.45858764648438 C 2.583823442459106 53.40486907958984 1.5 48.03562164306641 1.5 42.5 C 1.5 36.96437835693359 2.583823442459106 31.59512901306152 4.721364498138428 26.54141235351562 C 6.786305904388428 21.65934181213379 9.742764472961426 17.27448272705078 13.50862312316895 13.50862312316895 C 17.27447128295898 9.742776870727539 21.65934181213379 6.786305904388428 26.54141235351562 4.721364498138428 C 31.59512901306152 2.583823442459106 36.96437835693359 1.5 42.5 1.5 C 48.03562164306641 1.5 53.40486907958984 2.583823442459106 58.45858764648438 4.721364498138428 C 63.34066009521484 6.786305904388428 67.72553253173828 9.742776870727539 71.49137878417969 13.50862312316895 C 75.25723266601562 17.27448272705078 78.21369171142578 21.65934181213379 80.27863311767578 26.54141235351562 C 82.41617584228516 31.59512901306152 83.5 36.96437835693359 83.5 42.5 C 83.5 48.03562164306641 82.41617584228516 53.40486907958984 80.27863311767578 58.45858764648438 C 78.21369171142578 63.34066009521484 75.25723266601562 67.72553253173828 71.49137878417969 71.49137878417969 C 67.72553253173828 75.25723266601562 63.34066009521484 78.21369171142578 58.45858764648438 80.27863311767578 C 53.40486907958984 82.41617584228516 48.03562164306641 83.5 42.5 83.5 Z" stroke="none"/>
                            <path d="M 42.5 3 C 37.16621398925781 3 31.99356079101562 4.043960571289062 27.125732421875 6.102882385253906 C 22.42246627807617 8.092185974121094 18.19785308837891 10.94070434570312 14.56928253173828 14.56928253173828 C 10.94070434570312 18.19785308837891 8.092185974121094 22.42246627807617 6.102882385253906 27.125732421875 C 4.043960571289062 31.99356079101562 3 37.16621398925781 3 42.5 C 3 47.83378601074219 4.043960571289062 53.00643920898438 6.102882385253906 57.87425231933594 C 8.092185974121094 62.57753372192383 10.94070434570312 66.80213165283203 14.56928253173828 70.43071746826172 C 18.19786834716797 74.05929565429688 22.42246627807617 76.90781402587891 27.125732421875 78.89711761474609 C 31.99356079101562 80.95603942871094 37.16621398925781 82 42.5 82 C 47.83378601074219 82 53.00642395019531 80.95603942871094 57.87425231933594 78.89711761474609 C 62.57753372192383 76.90781402587891 66.80213165283203 74.05929565429688 70.43071746826172 70.43071746826172 C 74.05929565429688 66.80213165283203 76.90781402587891 62.57753372192383 78.89711761474609 57.87425231933594 C 80.95603942871094 53.00642395019531 82 47.83378601074219 82 42.5 C 82 37.16621398925781 80.95603942871094 31.99356079101562 78.89711761474609 27.125732421875 C 76.90781402587891 22.42246627807617 74.05929565429688 18.19786834716797 70.43071746826172 14.56928253173828 C 66.80213165283203 10.94070434570312 62.57753372192383 8.092185974121094 57.87425231933594 6.102882385253906 C 53.00643920898438 4.043960571289062 47.83378601074219 3 42.5 3 M 42.5 0 C 65.97209167480469 0 85 19.02789306640625 85 42.5 C 85 65.97209167480469 65.97209167480469 85 42.5 85 C 19.02789306640625 85 0 65.97209167480469 0 42.5 C 0 19.02789306640625 19.02789306640625 0 42.5 0 Z" stroke="none" fill="#899e78"/>
                          </g>
                        </g>
                      </g>
                    </g>
                  </g>
                </g>
              </g>
            </g>
          </g>
        </g>
      </g>
    </g>
    <g id="reasignacion-de-sexo" transform="translate(215.165 8987.989)">
      <g id="Grupo_1230392" data-name="Grupo 1230392">
        <g id="Grupo_1230391" data-name="Grupo 1230391">
          <path id="Trazado_1181345" data-name="Trazado 1181345" d="M240.872,83.433h12.386s10.75-10.256,7.661-16.063A29.867,29.867,0,0,1,257.627,53.3a16.707,16.707,0,0,0-16.7-16.754" transform="translate(-210.708 -31.972)" fill="#ff70ea"/>
          <path id="Trazado_1181346" data-name="Trazado 1181346" d="M261.3,67.37A29.866,29.866,0,0,1,258.01,53.3a16.707,16.707,0,0,0-16.7-16.754v.763A16.734,16.734,0,0,1,253,53.3a29.868,29.868,0,0,0,3.292,14.067c3.089,5.808,2.348,16.063-7.661,16.063h5.009C263.649,83.433,264.391,73.178,261.3,67.37Z" transform="translate(-211.091 -31.972)" fill="#ff5ce7"/>
          <g id="Grupo_1230390" data-name="Grupo 1230390">
            <path id="Trazado_1181347" data-name="Trazado 1181347" fill="#efeded"/>
            <path id="Trazado_1181348" data-name="Trazado 1181348" d="M259.173,313.224v-5.308A17.916,17.916,0,0,0,241.257,290v23.224h17.916Z" transform="translate(-211.045 -253.683)" fill="#ffed2b"/>
            <path id="Trazado_1181349" data-name="Trazado 1181349" d="M241.257,290v.711a17.923,17.923,0,0,1,12.906,17.2v5.308h5.009v-5.308A17.916,17.916,0,0,0,241.257,290Z" transform="translate(-211.045 -253.683)" fill="#f5e10f"/>
            <path id="Trazado_1181350" data-name="Trazado 1181350" d="M98.194,313.224v-5.308A17.916,17.916,0,0,1,116.11,290v23.224H98.194Z" transform="translate(-85.897 -253.683)" fill="#3be7ff"/>
            <path id="Trazado_1181351" data-name="Trazado 1181351" d="M205.821,318.7h9.1v5.529a6.317,6.317,0,0,1-9.1,0Z" transform="translate(-180.046 -278.789)" fill="#ffead4"/>
            <g id="Grupo_1230389" data-name="Grupo 1230389" transform="translate(12.794 4.577)">
              <path id="Trazado_1181352" data-name="Trazado 1181352" d="M124.221,70.058a16.754,16.754,0,1,1,.008-33.509Z" transform="translate(-106.803 -36.549)" fill="#c4823b"/>
              <path id="Trazado_1181353" data-name="Trazado 1181353" d="M134.571,217.153H104.6a2.433,2.433,0,0,1,0-4.866h29.97a2.433,2.433,0,1,1,0,4.866Z" transform="translate(-102.168 -190.279)" fill="#ffdfbd"/>
              <path id="Trazado_1181354" data-name="Trazado 1181354" d="M159.349,190.447V193.1a13.685,13.685,0,1,1-27.37,0v-2.657a2.6,2.6,0,0,1,2.6-2.6h22.177A2.6,2.6,0,0,1,159.349,190.447Z" transform="translate(-128.246 -168.904)" fill="#ffead4"/>
              <path id="Trazado_1181355" data-name="Trazado 1181355" d="M234.85,187.85h-5.009a2.6,2.6,0,0,1,2.6,2.6V193.1a13.689,13.689,0,0,1-11.18,13.455A13.693,13.693,0,0,0,237.446,193.1v-2.657A2.6,2.6,0,0,0,234.85,187.85Z" transform="translate(-206.344 -168.903)" fill="#ffe1c2"/>
            </g>
          </g>
        </g>
      </g>
      <path id="Trazado_1181356" data-name="Trazado 1181356" d="M130.376,34.957a28.7,28.7,0,0,1-3.182-13.626,17.647,17.647,0,0,0-16.7-17.669V.939a.939.939,0,0,0-1.878,0V3.674a17.268,17.268,0,0,0-10.1,3.83.94.94,0,0,0,1.21,1.437,15.356,15.356,0,0,1,8.891-3.382V22.585H98.46a3.54,3.54,0,0,0-3.5,3.06c-.211,0-.426-.005-.636.01a16.025,16.025,0,0,1,1.685-12.494.94.94,0,0,0-1.629-.935,17.88,17.88,0,0,0-1.82,14.084,3.371,3.371,0,0,0,2.007,6.081h.813a14.612,14.612,0,0,0,3.457,6.328,18.832,18.832,0,0,0-8.139,15.514v5.308a.94.94,0,0,0,1.878,0V54.232a16.959,16.959,0,0,1,7.658-14.192,14.638,14.638,0,0,0,3.941,2.337V45.44a.94.94,0,0,0,.266.655,7.253,7.253,0,0,0,4.177,2.141V63.178a.939.939,0,0,0,1.878,0V48.263A7.259,7.259,0,0,0,114.88,46.1a.939.939,0,0,0,.267-.656V42.287a14.642,14.642,0,0,0,3.719-2.246,17.094,17.094,0,0,1,3.181,2.7.94.94,0,0,0,1.382-1.272,18.978,18.978,0,0,0-3.165-2.753,14.614,14.614,0,0,0,3.457-6.329h.813a3.359,3.359,0,0,0,2.324-.932,27.661,27.661,0,0,0,1.86,4.382,13.46,13.46,0,0,1,1.437,7.432,8.17,8.17,0,0,1-2.522,5.378,13.208,13.208,0,0,0-.819-2,.94.94,0,0,0-1.673.853c1.546,3.031,1.478,6.523,1.412,9.9-.014.7-.028,1.427-.028,2.139a.94.94,0,0,0,1.878,0c0-.693.014-1.409.027-2.1a34.959,34.959,0,0,0-.309-6.789,9.721,9.721,0,0,0,3.9-7.182,15.41,15.41,0,0,0-1.647-8.51ZM96.8,26.121a1.659,1.659,0,0,1,1.657-1.657h10.155V41.489A12.762,12.762,0,0,1,96.8,28.777Zm25.491,2.657a12.762,12.762,0,0,1-11.8,12.711V24.464h10.143a1.659,1.659,0,0,1,1.657,1.657ZM94.564,30.511a1.5,1.5,0,0,1-1.494-1.494,1.582,1.582,0,0,1,1.855-1.494,25.252,25.252,0,0,0,.1,2.987h-.464Zm11.487,14.53V42.977a14.558,14.558,0,0,0,2.565.393v2.961A5.379,5.379,0,0,1,106.05,45.041Zm7.218,0a5.381,5.381,0,0,1-2.774,1.327v-3a14.553,14.553,0,0,0,2.774-.449Zm11.265-14.529h-.464a25.277,25.277,0,0,0,.1-2.987,1.582,1.582,0,0,1,1.855,1.494A1.5,1.5,0,0,1,124.534,30.511Zm0-4.866h-.394a3.54,3.54,0,0,0-3.5-3.06H110.494V5.545a15.768,15.768,0,0,1,14.822,15.787,35.249,35.249,0,0,0,.283,4.487A3.356,3.356,0,0,0,124.534,25.645Z" transform="translate(-79.336 0)"/>
    </g>
  </g>
</svg>
