<svg xmlns="http://www.w3.org/2000/svg" xmlns:xlink="http://www.w3.org/1999/xlink" width="108" height="108" viewBox="0 0 108 108">
  <defs>
    <filter id="Trazado_904820" x="0" y="0" width="108" height="108" filterUnits="userSpaceOnUse">
      <feOffset dy="3" input="SourceAlpha"/>
      <feGaussianBlur stdDeviation="3" result="blur"/>
      <feFlood flood-opacity="0.161"/>
      <feComposite operator="in" in2="blur"/>
      <feComposite in="SourceGraphic"/>
    </filter>
  </defs>
  <g id="Grupo_1230368" data-name="Grupo 1230368" transform="translate(-200 -506.814)">
    <g id="Grupo_1222170" data-name="Grupo 1222170" transform="translate(209 512.814)">
      <g id="Grupo_1173585" data-name="Grupo 1173585" transform="translate(0 0)">
        <g id="Grupo_1173428" data-name="Grupo 1173428">
          <g id="Grupo_1171958" data-name="Grupo 1171958">
            <g id="Grupo_1167341" data-name="Grupo 1167341">
              <g id="Grupo_1166792" data-name="Grupo 1166792">
                <g transform="matrix(1, 0, 0, 1, -9, -6)" filter="url(#Trazado_904820)">
                  <g id="Trazado_904820-2" data-name="Trazado 904820" transform="translate(9 6)" fill="#fcf5f0">
                    <path d="M 44.99999618530273 88.50003051757812 C 39.12687301635742 88.50003051757812 33.43022155761719 87.35010528564453 28.06829643249512 85.08219146728516 C 22.88852119445801 82.89134216308594 18.23629570007324 79.75461578369141 14.24084663391113 75.75916290283203 C 10.24540901184082 71.76371765136719 7.108683586120605 67.11148834228516 4.917821407318115 61.93171691894531 C 2.649921178817749 56.56978988647461 1.499996185302734 50.87313842773438 1.499996185302734 45.00001525878906 C 1.499996185302734 39.12689208984375 2.649921178817749 33.43024063110352 4.917821407318115 28.06830215454102 C 7.108683586120605 22.88854026794434 10.24540901184082 18.23631477355957 14.24084663391113 14.24086570739746 C 18.23629570007324 10.24541568756104 22.88852119445801 7.108702659606934 28.06829643249512 4.917840480804443 C 33.43022155761719 2.649940252304077 39.12687301635742 1.500015258789062 44.99999618530273 1.500015258789062 C 50.87311935424805 1.500015258789062 56.56977081298828 2.649940252304077 61.93169784545898 4.917840480804443 C 67.11147308349609 7.108702659606934 71.76369476318359 10.24541568756104 75.75914764404297 14.24086570739746 C 79.75458526611328 18.23631477355957 82.89131164550781 22.88854026794434 85.08216857910156 28.06830215454102 C 87.35007476806641 33.43024063110352 88.5 39.12689208984375 88.5 45.00001525878906 C 88.5 50.87313842773438 87.35007476806641 56.56978988647461 85.08216857910156 61.93171691894531 C 82.89131164550781 67.11148834228516 79.75458526611328 71.76371765136719 75.75914764404297 75.75916290283203 C 71.76369476318359 79.75461578369141 67.11147308349609 82.89134216308594 61.93169784545898 85.08219146728516 C 56.56977081298828 87.35010528564453 50.87311935424805 88.50003051757812 44.99999618530273 88.50003051757812 Z" stroke="none"/>
                    <path d="M 44.99999618530273 3 C 39.32870864868164 3 33.82865142822266 4.110061645507812 28.65262603759766 6.299346923828125 C 23.65165710449219 8.414573669433594 19.15968322753906 11.44334411621094 15.301513671875 15.301513671875 C 11.44333648681641 19.15968322753906 8.414566040039062 23.65165710449219 6.299339294433594 28.65262985229492 C 4.110054016113281 33.82867050170898 2.999992370605469 39.32872772216797 2.999992370605469 45.00001525878906 C 2.999992370605469 50.67130279541016 4.110054016113281 56.17134475708008 6.299339294433594 61.34738922119141 C 8.414566040039062 66.34835815429688 11.44333648681641 70.84031677246094 15.301513671875 74.69850158691406 C 19.15968322753906 78.55667114257812 23.65165710449219 81.58544158935547 28.65262603759766 83.70067596435547 C 33.82865142822266 85.88996124267578 39.32870864868164 87.00001525878906 44.99999618530273 87.00001525878906 C 50.67128372192383 87.00001525878906 56.17134094238281 85.88996124267578 61.34736633300781 83.70067596435547 C 66.34834289550781 81.58544158935547 70.84030914306641 78.55667114257812 74.69847869873047 74.69850158691406 C 78.55665588378906 70.84031677246094 81.58542633056641 66.34835815429688 83.70065307617188 61.34738922119141 C 85.88993835449219 56.17134475708008 87 50.67130279541016 87 45.00001525878906 C 87 39.32872772216797 85.88993835449219 33.82867050170898 83.70065307617188 28.65262985229492 C 81.58542633056641 23.65165710449219 78.55665588378906 19.15968322753906 74.69847869873047 15.301513671875 C 70.84030914306641 11.44334411621094 66.34834289550781 8.414573669433594 61.34736633300781 6.299346923828125 C 56.17134094238281 4.110061645507812 50.67128372192383 3 44.99999618530273 3 M 44.99999618530273 0 C 69.85281372070312 0 90 20.14718627929688 90 45.00001525878906 C 90 69.85281372070312 69.85281372070312 90.00001525878906 44.99999618530273 90.00001525878906 C 20.14717864990234 90.00001525878906 -7.62939453125e-06 69.85281372070312 -7.62939453125e-06 45.00001525878906 C -7.62939453125e-06 20.14718627929688 20.14717864990234 0 44.99999618530273 0 Z" stroke="none" fill="#815a3f"/>
                  </g>
                </g>
              </g>
            </g>
          </g>
        </g>
      </g>
    </g>
    <g id="ethically-sourced_18419974" transform="translate(181.324 524.521)">
      <g id="Grupo_1230366" data-name="Grupo 1230366" transform="translate(48.11 0.961)">
        <path id="Trazado_1181243" data-name="Trazado 1181243" d="M87.717,234.408l-.223-8.817a2.787,2.787,0,1,1,5.572-.142L93.305,235Z" transform="translate(-83.537 -196.47)" fill="#e2aa73" fill-rule="evenodd"/>
        <path id="Trazado_1181244" data-name="Trazado 1181244" d="M55.609,194.738l-.465-18.451a2.787,2.787,0,0,1,5.572-.138l.239,9.527a2.8,2.8,0,0,1,2.955.5q3.73,3.378,7.464,6.758a9.141,9.141,0,0,1,3.113,6.777L74.77,210.9l-11.822.292-.1-4.173a6.632,6.632,0,0,0-2.252-4.906l-2.729-2.469A6.631,6.631,0,0,1,55.609,194.738Z" transform="translate(-55.143 -153.198)" fill="#fbc894" fill-rule="evenodd"/>
        <path id="Trazado_1181245" data-name="Trazado 1181245" d="M129.5,441.84l.117,4.644-11.822.292-.1-4.173c-.007-.256-.027-.505-.057-.751Z" transform="translate(-109.987 -388.778)" fill="#e2b485" fill-rule="evenodd"/>
        <path id="Trazado_1181246" data-name="Trazado 1181246" d="M111.231,463.46l-16.307.017a.731.731,0,0,1-.73-.727l0-4.173a.731.731,0,0,1,.727-.73l16.307-.017a.728.728,0,0,1,.727.727l0,4.176A.724.724,0,0,1,111.231,463.46Z" transform="translate(-89.414 -402.812)" fill="#0593fc" fill-rule="evenodd"/>
        <path id="Trazado_1181247" data-name="Trazado 1181247" d="M241.9,35.615h3.445V9.723a1.723,1.723,0,0,0-3.447,0V35.615Z" transform="translate(-219.058 -8)" fill="#b06328" fill-rule="evenodd"/>
        <path id="Trazado_1181248" data-name="Trazado 1181248" d="M324.671,154.1H315.05v2.268a2.273,2.273,0,0,0,2.265,2.265h5.092a2.273,2.273,0,0,0,2.265-2.265V154.1Z" transform="translate(-283.261 -136.231)" fill="#b06328" fill-rule="evenodd"/>
        <path id="Trazado_1181249" data-name="Trazado 1181249" d="M118.29,154.63h9.621v2.235a2.242,2.242,0,0,1-2.235,2.235h-5.152a2.242,2.242,0,0,1-2.235-2.235Z" transform="translate(-110.567 -136.696)" fill="#b06328" fill-rule="evenodd"/>
        <path id="Trazado_1181250" data-name="Trazado 1181250" d="M235.787,43.69A2.815,2.815,0,1,0,238.6,46.5,2.815,2.815,0,0,0,235.787,43.69Z" transform="translate(-211.22 -39.325)" fill="#daeafa" fill-rule="evenodd"/>
        <path id="Trazado_1181251" data-name="Trazado 1181251" d="M382.578,234.408l.223-8.817a2.787,2.787,0,1,0-5.572-.142L376.99,235Z" transform="translate(-337.626 -196.47)" fill="#e2aa73" fill-rule="evenodd"/>
        <path id="Trazado_1181252" data-name="Trazado 1181252" d="M315.586,194.738l.465-18.451a2.787,2.787,0,0,0-5.572-.138l-.238,9.527a2.8,2.8,0,0,0-2.955.5q-3.73,3.378-7.463,6.758a9.141,9.141,0,0,0-3.113,6.777L296.43,210.9l11.819.292.1-4.173a6.632,6.632,0,0,1,2.252-4.906l2.729-2.469A6.634,6.634,0,0,0,315.586,194.738Z" transform="translate(-266.919 -153.198)" fill="#fbc894" fill-rule="evenodd"/>
        <path id="Trazado_1181253" data-name="Trazado 1181253" d="M296.525,441.84l-.115,4.644,11.819.292.1-4.173a7.514,7.514,0,0,1,.058-.751Z" transform="translate(-266.901 -388.778)" fill="#e2b485" fill-rule="evenodd"/>
        <path id="Trazado_1181254" data-name="Trazado 1181254" d="M273.293,463.46l16.307.017a.731.731,0,0,0,.73-.727l0-4.173a.731.731,0,0,0-.727-.73L273.3,457.83a.728.728,0,0,0-.726.727l0,4.176A.725.725,0,0,0,273.293,463.46Z" transform="translate(-245.977 -402.812)" fill="#0593fc" fill-rule="evenodd"/>
        <path id="Trazado_1181255" data-name="Trazado 1181255" d="M193.047,186.26a6.746,6.746,0,0,1,2.312,1.336l2.453-1.416,2.154,3.735-2.45,1.414a6.666,6.666,0,0,1,.131,1.336,6.785,6.785,0,0,1-.131,1.336l2.45,1.414-2.154,3.732-2.453-1.414a6.766,6.766,0,0,1-2.312,1.336v2.83h-4.308v-2.83a6.806,6.806,0,0,1-2.312-1.336l-2.453,1.414-2.154-3.732L184.27,194a6.881,6.881,0,0,1,0-2.671l-2.45-1.414,2.154-3.735,2.453,1.416a6.726,6.726,0,0,1,2.312-1.336v-2.83h4.308Z" transform="translate(-166.326 -161.974)" fill="#2f5274" fill-rule="evenodd"/>
        <path id="Trazado_1181256" data-name="Trazado 1181256" d="M235.234,241.058a2.894,2.894,0,1,0-2.894-2.894A2.9,2.9,0,0,0,235.234,241.058Z" transform="translate(-210.667 -207.473)" fill="#daeafa" fill-rule="evenodd"/>
        <path id="Trazado_1181257" data-name="Trazado 1181257" d="M235.661,241.025a2.894,2.894,0,0,1,0-5.724,3.061,3.061,0,0,0-.427-.031,2.894,2.894,0,0,0,0,5.788A3.048,3.048,0,0,0,235.661,241.025Z" transform="translate(-210.667 -207.473)" fill="#c4d3e1" fill-rule="evenodd"/>
        <path id="Trazado_1181258" data-name="Trazado 1181258" d="M119.414,156.855V154.62H118.29v2.235a2.242,2.242,0,0,0,2.235,2.235h1.128A2.242,2.242,0,0,1,119.414,156.855Z" transform="translate(-110.567 -136.687)" fill="#9e5924" fill-rule="evenodd"/>
        <path id="Trazado_1181259" data-name="Trazado 1181259" d="M315.04,154.48v1.888a2.273,2.273,0,0,0,2.265,2.265h1.128a2.273,2.273,0,0,1-2.265-2.265V154.1H315.04Z" transform="translate(-283.253 -136.231)" fill="#9e5924" fill-rule="evenodd"/>
        <path id="Trazado_1181260" data-name="Trazado 1181260" d="M234.215,47.314a2.808,2.808,0,0,1-.117-.811,2.61,2.61,0,0,1,.013-.279,2.822,2.822,0,0,1,2.238-2.48,2.816,2.816,0,0,0-3.318,2.184,2.713,2.713,0,0,0-.061.575,2.818,2.818,0,0,0,2.817,2.817,2.828,2.828,0,0,0,.561-.057A2.818,2.818,0,0,1,234.215,47.314Z" transform="translate(-211.22 -39.325)" fill="#c4d3e1" fill-rule="evenodd"/>
      </g>
      <g id="Grupo_1230367" data-name="Grupo 1230367" transform="translate(47.13 -0.02)">
        <path id="Trazado_1181261" data-name="Trazado 1181261" d="M94.552,20.215a3.769,3.769,0,0,0-3.86,3.664l-.072,2.37H90.5a3.77,3.77,0,0,0-3.762,3.67l-.111,4.377-1.4,1.268q-2.436,2.2-4.868,4.407a10.089,10.089,0,0,0-3.436,7.48L76.731,55h-1.3a1.709,1.709,0,0,0-1.707,1.706l0,4.167a1.7,1.7,0,0,0,1.7,1.716l16.31.017a1.707,1.707,0,0,0,1.707-1.7l0-4.178a1.707,1.707,0,0,0-1.7-1.707H90.518l0-.2a5.66,5.66,0,0,1,1.929-4.207l2.726-2.471a7.545,7.545,0,0,0,2.577-5.609l.465-18.451a3.767,3.767,0,0,0-3.668-3.861Zm-4,7.992h.01l-.124,4.023a3.679,3.679,0,0,0-1.81.423l.068-2.686a1.809,1.809,0,0,1,1.855-1.761Zm.936,32.44-15.8-.017,0-3.672,1.968,0H77.7l13.789.015ZM95.8,42.477a5.651,5.651,0,0,1-1.932,4.2l-2.727,2.471a7.551,7.551,0,0,0-2.572,5.61l-.006.25L78.693,55l.186-7.5a8.2,8.2,0,0,1,2.792-6.077q2.433-2.205,4.868-4.407l2.6-2.35A1.733,1.733,0,0,1,91,34.319l.028.011a1.752,1.752,0,0,1,.663.457,1.814,1.814,0,0,1-.127,2.556l-6.338,5.734a.979.979,0,1,0,1.314,1.453L92.875,38.8a3.76,3.76,0,0,0-.5-5.966l.159-5.172a.952.952,0,0,0,.011-.367l.1-3.359a1.807,1.807,0,1,1,3.613.093ZM69.921,55h-1.3l-.191-7.551A10.087,10.087,0,0,0,65,39.97L61.267,36.59,58.731,34.3l-.111-4.38a3.767,3.767,0,0,0-3.855-3.669h-.031l-.073-2.364a3.766,3.766,0,0,0-7.529.191L47.6,42.528a7.567,7.567,0,0,0,2.575,5.605l2.73,2.473a5.661,5.661,0,0,1,1.931,4.2l0,.2H53.614a1.709,1.709,0,0,0-1.707,1.709l.007,4.176a1.708,1.708,0,0,0,1.709,1.7l16.3-.017a1.71,1.71,0,0,0,1.706-1.709l0-4.182A1.716,1.716,0,0,0,69.921,55ZM54.81,28.2a1.812,1.812,0,0,1,1.853,1.76l.068,2.686a3.671,3.671,0,0,0-1.81-.424l-.125-4.02h.013Zm1.98,26.559a7.553,7.553,0,0,0-2.575-5.61l-2.73-2.473a5.678,5.678,0,0,1-1.931-4.2L49.09,24.026a1.807,1.807,0,1,1,3.613-.087l.1,3.345a.974.974,0,0,0,.012.38l.16,5.164a3.732,3.732,0,0,0-.764.646,3.775,3.775,0,0,0,.264,5.323q2.079,1.879,4.155,3.76l2.182,1.975a.979.979,0,1,0,1.314-1.453L57.948,41.1q-2.077-1.88-4.155-3.759a1.813,1.813,0,0,1-.126-2.556,1.781,1.781,0,0,1,.67-.464l0,0h0l.01,0a1.73,1.73,0,0,1,1.863.346l3.734,3.379,3.734,3.378A8.2,8.2,0,0,1,66.473,47.5l.19,7.5-9.868.011Zm-2.918,5.882-.006-3.672,13.8-.015H67.7l1.968,0,0,3.672Zm4.2-36.3H63.22a3.219,3.219,0,0,0,3.215-3.215V18.891a.979.979,0,0,0-.98-.98h-.3l-1.684-3.256-1.339-2.6a32.213,32.213,0,0,0,7.226-2.083,3.838,3.838,0,0,0,.62.827V21.6a.978.978,0,0,0-.433.813v2.161a7.631,7.631,0,0,0-1.422.823L66.25,24.319a.98.98,0,0,0-1.339.36l-2.153,3.734a.98.98,0,0,0,.36,1.338l1.871,1.08a7.744,7.744,0,0,0-.045.822,7.4,7.4,0,0,0,.045.821l-1.871,1.08a.981.981,0,0,0-.36,1.338l2.153,3.734a.979.979,0,0,0,1.338.358L68.121,37.9a7.758,7.758,0,0,0,1.421.821v2.161a.979.979,0,0,0,.98.98h4.309a.98.98,0,0,0,.98-.98v-2.16a7.688,7.688,0,0,0,1.422-.821l1.873,1.08a.98.98,0,0,0,1.338-.358L82.6,34.892a.979.979,0,0,0-.358-1.338l-1.873-1.08a7.888,7.888,0,0,0,0-1.641l1.873-1.081a.979.979,0,0,0,.358-1.338l-2.156-3.734A.981.981,0,0,0,79.1,24.32L77.234,25.4a7.6,7.6,0,0,0-1.424-.823V22.42a.976.976,0,0,0-.431-.811V10.8A3.778,3.778,0,0,0,76,9.976a32.2,32.2,0,0,0,7.2,2.079L80.2,17.849h-.3a.979.979,0,0,0-.98.98V21.1a3.251,3.251,0,0,0,3.247,3.247h5.089A3.251,3.251,0,0,0,90.5,21.1V18.829a.979.979,0,0,0-.98-.98h-.3l-2.841-5.5h.1a7.524,7.524,0,0,0,2.194-.265.98.98,0,1,0-.59-1.869,8.754,8.754,0,0,1-3.119.089.954.954,0,0,0-.251-.034l-.033,0a30.1,30.1,0,0,1-8.206-2.235,3.783,3.783,0,0,0-1.09-2.567V2.683a2.7,2.7,0,0,0-5.406,0V5.474a3.792,3.792,0,0,0-1.093,2.57c-4.2,1.868-9.75,2.763-11.6,2.177a.98.98,0,0,0-.59,1.869,7.562,7.562,0,0,0,2.193.264H59L56.133,17.91h-.3a.979.979,0,0,0-.98.98v2.236a3.225,3.225,0,0,0,3.219,3.218ZM88.541,21.1a1.289,1.289,0,0,1-1.288,1.288H82.164A1.289,1.289,0,0,1,80.876,21.1V19.809h7.665ZM82.406,17.85l2.3-4.459,2.3,4.459ZM71.934,21.439V11.862a3.8,3.8,0,0,0,1.487,0v9.577Zm2.579-13.3a1.887,1.887,0,0,1-.032.335l-.007.042a1.838,1.838,0,0,1-3.6,0c0-.013,0-.027-.007-.04a1.792,1.792,0,0,1-.032-.336,1.838,1.838,0,1,1,3.675,0ZM76.5,27.318a.982.982,0,0,0,1.14.115l1.6-.927,1.177,2.036-1.6.925a.98.98,0,0,0-.471,1.042,5.842,5.842,0,0,1,0,2.282.98.98,0,0,0,.471,1.042l1.6.925L79.237,36.8l-1.6-.925a.978.978,0,0,0-1.136.114,5.787,5.787,0,0,1-1.979,1.142.979.979,0,0,0-.667.928V39.9H71.5V38.056a.979.979,0,0,0-.665-.927,5.841,5.841,0,0,1-1.981-1.144.98.98,0,0,0-1.135-.111l-1.6.925-1.174-2.036,1.6-.925a.98.98,0,0,0,.471-1.042,5.661,5.661,0,0,1,0-2.282.98.98,0,0,0-.471-1.042l-1.6-.925,1.174-2.036,1.6.927a.98.98,0,0,0,1.137-.113,5.8,5.8,0,0,1,1.979-1.146.979.979,0,0,0,.665-.927V23.4h2.351v1.849a.979.979,0,0,0,.667.928A5.649,5.649,0,0,1,76.5,27.318ZM72.678,1.939a.753.753,0,0,1,.744.744V4.416a3.8,3.8,0,0,0-1.487,0V2.683A.745.745,0,0,1,72.678,1.939Zm-8.2,19.189a1.258,1.258,0,0,1-1.257,1.257H58.068a1.258,1.258,0,0,1-1.257-1.257V19.871h7.665v1.257Zm-3.833-7.676,2.306,4.461H58.342Zm8.16,18.2a3.873,3.873,0,1,0,3.875-3.871A3.879,3.879,0,0,0,68.8,31.65Zm5.786,0a1.914,1.914,0,1,1-1.912-1.912A1.915,1.915,0,0,1,74.591,31.65Z" transform="translate(-47.13 0.02)"/>
      </g>
    </g>
  </g>
</svg>
