<svg xmlns="http://www.w3.org/2000/svg" xmlns:xlink="http://www.w3.org/1999/xlink" width="103" height="103" viewBox="0 0 103 103">
  <defs>
    <filter id="Trazado_982547" x="0" y="0" width="103" height="103" filterUnits="userSpaceOnUse">
      <feOffset dy="3" input="SourceAlpha"/>
      <feGaussianBlur stdDeviation="3" result="blur"/>
      <feFlood flood-opacity="0.161"/>
      <feComposite operator="in" in2="blur"/>
      <feComposite in="SourceGraphic"/>
    </filter>
  </defs>
  <g id="Grupo_1230398" data-name="Grupo 1230398" transform="translate(-1033.12 -8972.723)">
    <g id="Grupo_1224537" data-name="Grupo 1224537" transform="translate(0 3179.723)">
      <g id="Grupo_1224204" data-name="Grupo 1224204" transform="translate(0 5367)">
        <g id="Grupo_1224082" data-name="Grupo 1224082" transform="translate(838.99 -1582)">
          <g id="Grupo_1206686" data-name="Grupo 1206686" transform="translate(-2.87 300.583)">
            <g id="Grupo_1201889" data-name="Grupo 1201889" transform="translate(206 1713.417)">
              <g id="Grupo_1201680" data-name="Grupo 1201680">
                <g id="Grupo_1201330" data-name="Grupo 1201330">
                  <g id="Grupo_1172010" data-name="Grupo 1172010">
                    <g id="Grupo_1171046" data-name="Grupo 1171046">
                      <g id="Grupo_1148525" data-name="Grupo 1148525">
                        <g transform="matrix(1, 0, 0, 1, -9, -6)" filter="url(#Trazado_982547)">
                          <g id="Trazado_982547-2" data-name="Trazado 982547" transform="translate(9 6)" fill="#f2f4f0">
                            <path d="M 42.5 83.5 C 36.96437835693359 83.5 31.59512901306152 82.41617584228516 26.54141235351562 80.27863311767578 C 21.65934181213379 78.21369171142578 17.27447128295898 75.25723266601562 13.50862312316895 71.49137878417969 C 9.742764472961426 67.72553253173828 6.786305904388428 63.34066009521484 4.721364498138428 58.45858764648438 C 2.583823442459106 53.40486907958984 1.5 48.03562164306641 1.5 42.5 C 1.5 36.96437835693359 2.583823442459106 31.59512901306152 4.721364498138428 26.54141235351562 C 6.786305904388428 21.65934181213379 9.742764472961426 17.27448272705078 13.50862312316895 13.50862312316895 C 17.27447128295898 9.742776870727539 21.65934181213379 6.786305904388428 26.54141235351562 4.721364498138428 C 31.59512901306152 2.583823442459106 36.96437835693359 1.5 42.5 1.5 C 48.03562164306641 1.5 53.40486907958984 2.583823442459106 58.45858764648438 4.721364498138428 C 63.34066009521484 6.786305904388428 67.72553253173828 9.742776870727539 71.49137878417969 13.50862312316895 C 75.25723266601562 17.27448272705078 78.21369171142578 21.65934181213379 80.27863311767578 26.54141235351562 C 82.41617584228516 31.59512901306152 83.5 36.96437835693359 83.5 42.5 C 83.5 48.03562164306641 82.41617584228516 53.40486907958984 80.27863311767578 58.45858764648438 C 78.21369171142578 63.34066009521484 75.25723266601562 67.72553253173828 71.49137878417969 71.49137878417969 C 67.72553253173828 75.25723266601562 63.34066009521484 78.21369171142578 58.45858764648438 80.27863311767578 C 53.40486907958984 82.41617584228516 48.03562164306641 83.5 42.5 83.5 Z" stroke="none"/>
                            <path d="M 42.5 3 C 37.16621398925781 3 31.99356079101562 4.043960571289062 27.125732421875 6.102882385253906 C 22.42246627807617 8.092185974121094 18.19785308837891 10.94070434570312 14.56928253173828 14.56928253173828 C 10.94070434570312 18.19785308837891 8.092185974121094 22.42246627807617 6.102882385253906 27.125732421875 C 4.043960571289062 31.99356079101562 3 37.16621398925781 3 42.5 C 3 47.83378601074219 4.043960571289062 53.00643920898438 6.102882385253906 57.87425231933594 C 8.092185974121094 62.57753372192383 10.94070434570312 66.80213165283203 14.56928253173828 70.43071746826172 C 18.19786834716797 74.05929565429688 22.42246627807617 76.90781402587891 27.125732421875 78.89711761474609 C 31.99356079101562 80.95603942871094 37.16621398925781 82 42.5 82 C 47.83378601074219 82 53.00642395019531 80.95603942871094 57.87425231933594 78.89711761474609 C 62.57753372192383 76.90781402587891 66.80213165283203 74.05929565429688 70.43071746826172 70.43071746826172 C 74.05929565429688 66.80213165283203 76.90781402587891 62.57753372192383 78.89711761474609 57.87425231933594 C 80.95603942871094 53.00642395019531 82 47.83378601074219 82 42.5 C 82 37.16621398925781 80.95603942871094 31.99356079101562 78.89711761474609 27.125732421875 C 76.90781402587891 22.42246627807617 74.05929565429688 18.19786834716797 70.43071746826172 14.56928253173828 C 66.80213165283203 10.94070434570312 62.57753372192383 8.092185974121094 57.87425231933594 6.102882385253906 C 53.00643920898438 4.043960571289062 47.83378601074219 3 42.5 3 M 42.5 0 C 65.97209167480469 0 85 19.02789306640625 85 42.5 C 85 65.97209167480469 65.97209167480469 85 42.5 85 C 19.02789306640625 85 0 65.97209167480469 0 42.5 C 0 19.02789306640625 19.02789306640625 0 42.5 0 Z" stroke="none" fill="#899e78"/>
                          </g>
                        </g>
                      </g>
                    </g>
                  </g>
                </g>
              </g>
            </g>
          </g>
        </g>
      </g>
    </g>
    <g id="educacion" transform="translate(1020.299 8969.357)">
      <path id="Trazado_1181384" data-name="Trazado 1181384" d="M47.206,300.438H93.463v19.476H47.206Z" transform="translate(-6.019 -244.819)" fill="#19cfba" fill-rule="evenodd"/>
      <path id="Trazado_1181385" data-name="Trazado 1181385" d="M140.308,33.12a9.921,9.921,0,0,1,7.991,5.026c2.05,3.617,1.908,9.441.081,13.119-1.694,3.41-4.068,3.549-3.93,11.879a.286.286,0,0,1-.3.279H133.9a.289.289,0,0,1-.3-.274V56.319a46.782,46.782,0,0,1-5.468-.053.787.787,0,0,1-.415-.694l.023-5.961c0-.245-1.734-1.048-2.514-1.413a.312.312,0,0,1-.131-.453l3.346-5.224a1.8,1.8,0,0,0,.3-1.014C128.742,35.159,134.754,32.559,140.308,33.12Z" transform="translate(-74.982 -7.93)" fill="#f0b16e" fill-rule="evenodd"/>
      <path id="Trazado_1181386" data-name="Trazado 1181386" d="M188.157,68.486a6.36,6.36,0,0,1,1.385.8l2.235-.475,1.761,3.05-1.529,1.7a6.425,6.425,0,0,1,0,1.6l1.528,1.7-1.761,3.05-2.235-.475a6.363,6.363,0,0,1-1.385.8l-.705,2.171H183.93l-.705-2.171a6.36,6.36,0,0,1-1.385-.8l-2.235.475-1.761-3.05,1.529-1.7a6.423,6.423,0,0,1,0-1.6l-1.529-1.7,1.761-3.05,2.235.475a6.361,6.361,0,0,1,1.385-.8l.705-2.171h3.521Z" transform="translate(-121.754 -37.404)" fill="#fff" fill-rule="evenodd"/>
      <path id="Trazado_1181387" data-name="Trazado 1181387" d="M118.006,268.426a54.606,54.606,0,0,0-18.455,2.947,55.242,55.242,0,0,0-19.366-2.94v17.615q.454-.006.911-.007a54.612,54.612,0,0,1,18.452,2.945h.006a54.611,54.611,0,0,1,18.452-2.945q.457,0,.911.007V268.433Q118.462,268.427,118.006,268.426Z" transform="translate(-35.235 -216.459)" fill="#e6e6e6" fill-rule="evenodd"/>
      <path id="Trazado_1181388" data-name="Trazado 1181388" d="M268.427,268.426a54.611,54.611,0,0,0-18.452,2.945v17.614a55.249,55.249,0,0,1,19.363-2.938V268.433Q268.884,268.427,268.427,268.426Z" transform="translate(-185.657 -216.459)" fill="#ccc" fill-rule="evenodd"/>
      <path id="Trazado_1181389" data-name="Trazado 1181389" d="M82.777,52.507a54.666,54.666,0,0,0-17.637,2.7l-.1,16A56.935,56.935,0,0,1,82.777,68.56h.13V52.507Zm-22.8,6.77a.781.781,0,1,1-.36,1.519,56.412,56.412,0,0,0-9.691-1.387.779.779,0,0,1,.085-1.556A58.157,58.157,0,0,1,59.972,59.278Zm9.059,6.862a.781.781,0,0,1-.36-1.519A58.114,58.114,0,0,1,78.636,63.2a.779.779,0,0,1,.085,1.556A56.422,56.422,0,0,0,69.031,66.14Zm0-5.343a.781.781,0,0,1-.36-1.519,58.113,58.113,0,0,1,9.965-1.423.779.779,0,0,1,.085,1.556A56.434,56.434,0,0,0,69.031,60.8Zm-9.059,3.824a.781.781,0,0,1-.36,1.519,56.4,56.4,0,0,0-9.691-1.387.779.779,0,1,1,.085-1.556A58.144,58.144,0,0,1,59.972,64.621Zm3.612-9.385a54.565,54.565,0,0,0-17.848-2.729V68.561h.13a57.056,57.056,0,0,1,17.623,2.609ZM84.469,54.6H87.45a.781.781,0,0,1,.781.781V74.855a.781.781,0,0,1-.781.781H41.193a.781.781,0,0,1-.781-.781V55.378a.781.781,0,0,1,.781-.781h2.981V51.734h0a.778.778,0,0,1,.769-.778,61.517,61.517,0,0,1,12.9,1.123V48.94c-1.593.035-4.6.107-5.081-.174a1.559,1.559,0,0,1-.8-1.365l.023-5.961c0-.334-1.867-.323-2.434-.986a1.094,1.094,0,0,1-.089-1.3l3.346-5.223a.988.988,0,0,0,.172-.593c0-6.839,6.438-9.788,12.444-9.16a11.344,11.344,0,0,1,5.005,1.652A10.545,10.545,0,0,1,74,29.591c2.184,3.853,2.035,9.957.1,13.848-1.565,3.149-3.4,3.411-3.786,8.737a61.16,61.16,0,0,1,12.923-1.225l.449,0a.781.781,0,0,1,.781.781V54.6ZM44.174,56.159V69.348a.781.781,0,0,0,.781.781l.461-.008a54.467,54.467,0,0,1,18.634,2.9.778.778,0,0,0,.268.048h0L64.635,73a45.473,45.473,0,0,1,8.444-2.138,63,63,0,0,1,10.6-.74.778.778,0,0,0,.787-.778h0V56.159h2.2V74.074H41.974V56.159Zm15.235-3.746V48.148a.781.781,0,0,0-.781-.781c-1.122,0-4.937.137-5.075.056a.138.138,0,0,1-.031-.023h0l.023-5.961c0-.64-1.468-1.407-2.481-1.891l3.06-4.777a2.624,2.624,0,0,0,.422-1.435,6.855,6.855,0,0,1,3.115-5.984,11.8,11.8,0,0,1,7.594-1.629,9.157,9.157,0,0,1,7.39,4.636c1.929,3.4,1.768,8.95.059,12.39a13.8,13.8,0,0,1-1.363,2.123c-1.22,1.654-2.369,3.213-2.608,7.659a42.78,42.78,0,0,0-4.412,1.312A43.405,43.405,0,0,0,59.409,52.413Zm.519-15.241,2.064,2.58a.78.78,0,0,0,1.157.064l0,0,5.159-5.159a.781.781,0,0,0-1.1-1.1L62.661,38.1l-1.519-1.9a.777.777,0,0,0-1.214.97Zm7.116-6.9-.584-1.8a.781.781,0,0,0-.757-.588H62.182a.78.78,0,0,0-.741.539l-.6,1.845-.923.534-1.9-.4v0a.778.778,0,0,0-.836.373l-1.73,3a.78.78,0,0,0,.064.963l1.3,1.442v1.067l-1.3,1.442h0a.778.778,0,0,0-.1.908l1.733,3a.78.78,0,0,0,.864.424l1.9-.4.923.534.584,1.8a.781.781,0,0,0,.757.588H65.7A.78.78,0,0,0,66.445,45l.6-1.846.923-.534,1.9.4v0a.778.778,0,0,0,.836-.373l.855-1.482.888-1.535a.78.78,0,0,0-.077-.942l-1.3-1.442V36.181l1.3-1.442h0a.779.779,0,0,0,.1-.912l-.88-1.525h0l-.851-1.474a.78.78,0,0,0-.864-.424l-1.9.4Zm-.309,1.6a5.587,5.587,0,0,0-.586-.3.778.778,0,0,1-.482-.494l-.53-1.631h-2.39l-.53,1.631h0a.776.776,0,0,1-.438.476,5.914,5.914,0,0,0-1.172.669.778.778,0,0,1-.677.178l-1.683-.358-1.194,2.067,1.128,1.252c.316.336.208.615.184,1a5.676,5.676,0,0,0,.034,1.056h0a.778.778,0,0,1-.194.616l-1.151,1.278,1.194,2.067,1.683-.358v0a.776.776,0,0,1,.631.141,5.891,5.891,0,0,0,1.175.685.778.778,0,0,1,.482.494l.53,1.631h2.39l.53-1.632h0a.776.776,0,0,1,.438-.476,13.032,13.032,0,0,0,1.171-.669,1.359,1.359,0,0,1,.677-.178l1.683.358,1.193-2.069-1.126-1.251c-.316-.336-.208-.616-.184-.992a5.688,5.688,0,0,0-.034-1.06h0a.778.778,0,0,1,.194-.616l1.15-1.277-.6-1.033h0l-.6-1.035-1.683.358v0a.776.776,0,0,1-.631-.141,5.646,5.646,0,0,0-.589-.39ZM53.52,47.4l0,0Z" transform="translate(0 0)" fill="#212429" fill-rule="evenodd"/>
    </g>
  </g>
</svg>
