<svg xmlns="http://www.w3.org/2000/svg" xmlns:xlink="http://www.w3.org/1999/xlink" width="103" height="103" viewBox="0 0 103 103">
  <defs>
    <filter id="Trazado_982547" x="0" y="0" width="103" height="103" filterUnits="userSpaceOnUse">
      <feOffset dy="3" input="SourceAlpha"/>
      <feGaussianBlur stdDeviation="3" result="blur"/>
      <feFlood flood-opacity="0.161"/>
      <feComposite operator="in" in2="blur"/>
      <feComposite in="SourceGraphic"/>
    </filter>
  </defs>
  <g id="Grupo_1230750" data-name="Grupo 1230750" transform="translate(-1033.12 -7317)">
    <g id="Grupo_1230338" data-name="Grupo 1230338" transform="translate(0 1524)">
      <g id="Grupo_1224204" data-name="Grupo 1224204" transform="translate(0 5367)">
        <g id="Grupo_1224082" data-name="Grupo 1224082" transform="translate(838.99 -1582)">
          <g id="Grupo_1206686" data-name="Grupo 1206686" transform="translate(-2.87 300.583)">
            <g id="Grupo_1201889" data-name="Grupo 1201889" transform="translate(206 1713.417)">
              <g id="Grupo_1201680" data-name="Grupo 1201680">
                <g id="Grupo_1201330" data-name="Grupo 1201330">
                  <g id="Grupo_1172010" data-name="Grupo 1172010">
                    <g id="Grupo_1171046" data-name="Grupo 1171046">
                      <g id="Grupo_1148525" data-name="Grupo 1148525">
                        <g transform="matrix(1, 0, 0, 1, -9, -6)" filter="url(#Trazado_982547)">
                          <g id="Trazado_982547-2" data-name="Trazado 982547" transform="translate(9 6)" fill="#f2f4f0">
                            <path d="M 42.5 83.5 C 36.96437835693359 83.5 31.59512901306152 82.41617584228516 26.54141235351562 80.27863311767578 C 21.65934181213379 78.21369171142578 17.27447128295898 75.25723266601562 13.50862312316895 71.49137878417969 C 9.742764472961426 67.72553253173828 6.786305904388428 63.34066009521484 4.721364498138428 58.45858764648438 C 2.583823442459106 53.40486907958984 1.5 48.03562164306641 1.5 42.5 C 1.5 36.96437835693359 2.583823442459106 31.59512901306152 4.721364498138428 26.54141235351562 C 6.786305904388428 21.65934181213379 9.742764472961426 17.27448272705078 13.50862312316895 13.50862312316895 C 17.27447128295898 9.742776870727539 21.65934181213379 6.786305904388428 26.54141235351562 4.721364498138428 C 31.59512901306152 2.583823442459106 36.96437835693359 1.5 42.5 1.5 C 48.03562164306641 1.5 53.40486907958984 2.583823442459106 58.45858764648438 4.721364498138428 C 63.34066009521484 6.786305904388428 67.72553253173828 9.742776870727539 71.49137878417969 13.50862312316895 C 75.25723266601562 17.27448272705078 78.21369171142578 21.65934181213379 80.27863311767578 26.54141235351562 C 82.41617584228516 31.59512901306152 83.5 36.96437835693359 83.5 42.5 C 83.5 48.03562164306641 82.41617584228516 53.40486907958984 80.27863311767578 58.45858764648438 C 78.21369171142578 63.34066009521484 75.25723266601562 67.72553253173828 71.49137878417969 71.49137878417969 C 67.72553253173828 75.25723266601562 63.34066009521484 78.21369171142578 58.45858764648438 80.27863311767578 C 53.40486907958984 82.41617584228516 48.03562164306641 83.5 42.5 83.5 Z" stroke="none"/>
                            <path d="M 42.5 3 C 37.16621398925781 3 31.99356079101562 4.043960571289062 27.125732421875 6.102882385253906 C 22.42246627807617 8.092185974121094 18.19785308837891 10.94070434570312 14.56928253173828 14.56928253173828 C 10.94070434570312 18.19785308837891 8.092185974121094 22.42246627807617 6.102882385253906 27.125732421875 C 4.043960571289062 31.99356079101562 3 37.16621398925781 3 42.5 C 3 47.83378601074219 4.043960571289062 53.00643920898438 6.102882385253906 57.87425231933594 C 8.092185974121094 62.57753372192383 10.94070434570312 66.80213165283203 14.56928253173828 70.43071746826172 C 18.19786834716797 74.05929565429688 22.42246627807617 76.90781402587891 27.125732421875 78.89711761474609 C 31.99356079101562 80.95603942871094 37.16621398925781 82 42.5 82 C 47.83378601074219 82 53.00642395019531 80.95603942871094 57.87425231933594 78.89711761474609 C 62.57753372192383 76.90781402587891 66.80213165283203 74.05929565429688 70.43071746826172 70.43071746826172 C 74.05929565429688 66.80213165283203 76.90781402587891 62.57753372192383 78.89711761474609 57.87425231933594 C 80.95603942871094 53.00642395019531 82 47.83378601074219 82 42.5 C 82 37.16621398925781 80.95603942871094 31.99356079101562 78.89711761474609 27.125732421875 C 76.90781402587891 22.42246627807617 74.05929565429688 18.19786834716797 70.43071746826172 14.56928253173828 C 66.80213165283203 10.94070434570312 62.57753372192383 8.092185974121094 57.87425231933594 6.102882385253906 C 53.00643920898438 4.043960571289062 47.83378601074219 3 42.5 3 M 42.5 0 C 65.97209167480469 0 85 19.02789306640625 85 42.5 C 85 65.97209167480469 65.97209167480469 85 42.5 85 C 19.02789306640625 85 0 65.97209167480469 0 42.5 C 0 19.02789306640625 19.02789306640625 0 42.5 0 Z" stroke="none" fill="#899e78"/>
                          </g>
                        </g>
                      </g>
                    </g>
                  </g>
                </g>
              </g>
            </g>
          </g>
        </g>
      </g>
    </g>
    <g id="books_1865687" transform="translate(1055.43 7338.5)">
      <path id="Trazado_1181419" data-name="Trazado 1181419" d="M171.534,176.214,160.1,208.4l-9-3.195,4.1-11.555,3.159-8.9,1.378-3.878,4.428.978-2.438-6.492a13.633,13.633,0,0,0,.919-2.3Z" transform="translate(-134.787 -154.47)" fill="#ffa76b"/>
      <path id="Trazado_1181420" data-name="Trazado 1181420" d="M325.584,246.612h5.654v27.4h-5.654Z" transform="translate(-290.523 -220.12)" fill="#ffd88a"/>
      <path id="Trazado_1181421" data-name="Trazado 1181421" d="M378.212,129.989H391.5v39.933H378.212Z" transform="translate(-337.497 -116.025)" fill="#868eaf"/>
      <g id="Grupo_1230749" data-name="Grupo 1230749" transform="translate(1.172 1.074)">
        <path id="Trazado_1181422" data-name="Trazado 1181422" d="M378.212,175.468H391.5v4.741H378.212Z" transform="translate(-338.669 -157.693)" fill="#dfecff"/>
        <ellipse id="Elipse_14788" data-name="Elipse 14788" cx="2.31" cy="4.832" rx="2.31" ry="4.832" transform="translate(43.877 28.244)" fill="#dfecff"/>
        <path id="Trazado_1181423" data-name="Trazado 1181423" d="M325.584,290.874h5.654v17.9h-5.654Z" transform="translate(-291.695 -260.701)" fill="#dfecff"/>
        <path id="Trazado_1181424" data-name="Trazado 1181424" d="M21.657,10.157A13.629,13.629,0,0,1,35.882,29.808L38.32,36.3,31.54,34.8a13.63,13.63,0,1,1-9.883-24.645Z" transform="translate(-10.104 -9.996)" fill="#dfecff"/>
      </g>
      <path id="Trazado_1181425" data-name="Trazado 1181425" d="M0,0H5.285V9.378H0Z" transform="matrix(0.864, -0.503, 0.503, 0.864, 13.069, 9.982)" fill="#ffa76b"/>
      <path id="Trazado_1181426" data-name="Trazado 1181426" d="M215.032,300.488a1.075,1.075,0,0,0,1.012-.715l3.968-11.172a1.074,1.074,0,1,0-2.025-.719l-3.968,11.172a1.075,1.075,0,0,0,1.012,1.434Z" transform="translate(-190.887 -256.319)"/>
      <path id="Trazado_1181427" data-name="Trazado 1181427" d="M182.21,352.9a1.073,1.073,0,1,0-.375,1.288A1.083,1.083,0,0,0,182.21,352.9Z" transform="translate(-160.706 -314.397)"/>
      <path id="Trazado_1181428" data-name="Trazado 1181428" d="M54,12.889H40.715a1.074,1.074,0,0,0-1.074,1.074V25.417H36.581L37.758,22.1a1.074,1.074,0,0,0-.653-1.372l-7.948-2.823A14.714,14.714,0,0,0,12.561.173a14.939,14.939,0,0,0-1.5.313A1.074,1.074,0,0,0,11.6,2.564,12.767,12.767,0,0,1,12.889,2.3a12.555,12.555,0,0,1,13.1,18.1,1.074,1.074,0,0,0-.049.866L27.686,25.9,22.84,24.831a1.076,1.076,0,0,0-.848.169,12.431,12.431,0,0,1-5.276,2.113A12.554,12.554,0,0,1,4.609,7.377,1.074,1.074,0,0,0,2.865,6.123a14.7,14.7,0,0,0,14.18,23.113,14.554,14.554,0,0,0,5.783-2.208l.71.157-2.465,6.891a1.074,1.074,0,0,0,2.023.724l2.557-7.147,3.5.775A1.074,1.074,0,0,0,30.394,27l-2.275-6.058q.227-.482.416-.975l6.84,2.429L24.664,52.554l-6.976-2.477,2.25-6.385a1.074,1.074,0,0,0-2.026-.714l-2.606,7.4a1.074,1.074,0,0,0,.654,1.369l9,3.194a1.073,1.073,0,0,0,1.372-.653l7.658-21.563V53.9a1.074,1.074,0,0,0,1.074,1.074H54A1.074,1.074,0,0,0,55.076,53.9V13.964A1.074,1.074,0,0,0,54,12.889Zm-1.074,2.148v2.737H41.789V15.038Zm0,7.478H41.789V19.923H52.928v2.593Zm-16.792,9.8h3.5V48.067h-3.5Zm3.5-2.148h-3.5V27.566h3.5Zm-3.5,20.044h3.5v2.606h-3.5Zm5.653,2.606V24.665H52.928V52.822Z" transform="translate(0 0)"/>
      <path id="Trazado_1181429" data-name="Trazado 1181429" d="M411.94,262.92c-.61,0-1.76.263-2.6,2.026a10.021,10.021,0,0,0,0,7.76c.843,1.763,1.992,2.026,2.6,2.026s1.76-.263,2.6-2.026a10.021,10.021,0,0,0,0-7.76C413.7,263.183,412.55,262.92,411.94,262.92Zm.664,8.86c-.316.661-.609.8-.664.8s-.348-.143-.664-.8a7.917,7.917,0,0,1,0-5.907c.316-.661.609-.8.664-.8s.348.143.664.8a7.917,7.917,0,0,1,0,5.907Z" transform="translate(-364.582 -234.677)"/>
      <path id="Trazado_1181430" data-name="Trazado 1181430" d="M414.249,445.311h-4.62a1.074,1.074,0,0,0,0,2.148h4.62a1.074,1.074,0,1,0,0-2.148Z" transform="translate(-364.581 -397.475)"/>
      <path id="Trazado_1181431" data-name="Trazado 1181431" d="M188.414,430.49a1.074,1.074,0,0,0,.653,1.372l2.27.806a1.074,1.074,0,0,0,.719-2.025l-2.27-.806A1.074,1.074,0,0,0,188.414,430.49Z" transform="translate(-168.032 -383.608)"/>
      <path id="Trazado_1181432" data-name="Trazado 1181432" d="M53.407,66.43a1.074,1.074,0,0,0,1.982-.741l6.432-3.748,1.236,2.121-.379.221A1.074,1.074,0,1,0,63.76,66.14l7.007-4.083A1.074,1.074,0,0,0,69.685,60.2l-.205.12L65.84,54.074l.205-.12A1.074,1.074,0,0,0,64.964,52.1l-7.007,4.083a1.074,1.074,0,1,0,1.082,1.856l.379-.221,1.322,2.269L54.346,63.81A1.074,1.074,0,0,0,52.6,65.045ZM63.984,55.156,67.623,61.4l-2.71,1.579-3.639-6.246Z" transform="translate(-46.732 -46.371)"/>
      <path id="Trazado_1181433" data-name="Trazado 1181433" d="M56.175,23.9a1.074,1.074,0,1,0-.4-1.279A1.083,1.083,0,0,0,56.175,23.9Z" transform="translate(-49.63 -19.575)"/>
    </g>
  </g>
</svg>
