<svg xmlns="http://www.w3.org/2000/svg" xmlns:xlink="http://www.w3.org/1999/xlink" width="103" height="103" viewBox="0 0 103 103">
  <defs>
    <filter id="Trazado_982547" x="0" y="0" width="103" height="103" filterUnits="userSpaceOnUse">
      <feOffset dy="3" input="SourceAlpha"/>
      <feGaussianBlur stdDeviation="3" result="blur"/>
      <feFlood flood-opacity="0.161"/>
      <feComposite operator="in" in2="blur"/>
      <feComposite in="SourceGraphic"/>
    </filter>
  </defs>
  <g id="Grupo_1230405" data-name="Grupo 1230405" transform="translate(-614.13 -9132.723)">
    <g id="Grupo_1230292" data-name="Grupo 1230292" transform="translate(0 3339.723)">
      <g id="Grupo_1224203" data-name="Grupo 1224203" transform="translate(0 5367)">
        <g id="Grupo_1224081" data-name="Grupo 1224081" transform="translate(420 -1582)">
          <g id="Grupo_1206686" data-name="Grupo 1206686" transform="translate(-2.87 300.583)">
            <g id="Grupo_1201889" data-name="Grupo 1201889" transform="translate(206 1713.417)">
              <g id="Grupo_1201680" data-name="Grupo 1201680">
                <g id="Grupo_1201330" data-name="Grupo 1201330">
                  <g id="Grupo_1172010" data-name="Grupo 1172010">
                    <g id="Grupo_1171046" data-name="Grupo 1171046">
                      <g id="Grupo_1148525" data-name="Grupo 1148525">
                        <g transform="matrix(1, 0, 0, 1, -9, -6)" filter="url(#Trazado_982547)">
                          <g id="Trazado_982547-2" data-name="Trazado 982547" transform="translate(9 6)" fill="#f2f4f0">
                            <path d="M 42.5 83.5 C 36.96437835693359 83.5 31.59512901306152 82.41617584228516 26.54141235351562 80.27863311767578 C 21.65934181213379 78.21369171142578 17.27447128295898 75.25723266601562 13.50862312316895 71.49137878417969 C 9.742764472961426 67.72553253173828 6.786305904388428 63.34066009521484 4.721364498138428 58.45858764648438 C 2.583823442459106 53.40486907958984 1.5 48.03562164306641 1.5 42.5 C 1.5 36.96437835693359 2.583823442459106 31.59512901306152 4.721364498138428 26.54141235351562 C 6.786305904388428 21.65934181213379 9.742764472961426 17.27448272705078 13.50862312316895 13.50862312316895 C 17.27447128295898 9.742776870727539 21.65934181213379 6.786305904388428 26.54141235351562 4.721364498138428 C 31.59512901306152 2.583823442459106 36.96437835693359 1.5 42.5 1.5 C 48.03562164306641 1.5 53.40486907958984 2.583823442459106 58.45858764648438 4.721364498138428 C 63.34066009521484 6.786305904388428 67.72553253173828 9.742776870727539 71.49137878417969 13.50862312316895 C 75.25723266601562 17.27448272705078 78.21369171142578 21.65934181213379 80.27863311767578 26.54141235351562 C 82.41617584228516 31.59512901306152 83.5 36.96437835693359 83.5 42.5 C 83.5 48.03562164306641 82.41617584228516 53.40486907958984 80.27863311767578 58.45858764648438 C 78.21369171142578 63.34066009521484 75.25723266601562 67.72553253173828 71.49137878417969 71.49137878417969 C 67.72553253173828 75.25723266601562 63.34066009521484 78.21369171142578 58.45858764648438 80.27863311767578 C 53.40486907958984 82.41617584228516 48.03562164306641 83.5 42.5 83.5 Z" stroke="none"/>
                            <path d="M 42.5 3 C 37.16621398925781 3 31.99356079101562 4.043960571289062 27.125732421875 6.102882385253906 C 22.42246627807617 8.092185974121094 18.19785308837891 10.94070434570312 14.56928253173828 14.56928253173828 C 10.94070434570312 18.19785308837891 8.092185974121094 22.42246627807617 6.102882385253906 27.125732421875 C 4.043960571289062 31.99356079101562 3 37.16621398925781 3 42.5 C 3 47.83378601074219 4.043960571289062 53.00643920898438 6.102882385253906 57.87425231933594 C 8.092185974121094 62.57753372192383 10.94070434570312 66.80213165283203 14.56928253173828 70.43071746826172 C 18.19786834716797 74.05929565429688 22.42246627807617 76.90781402587891 27.125732421875 78.89711761474609 C 31.99356079101562 80.95603942871094 37.16621398925781 82 42.5 82 C 47.83378601074219 82 53.00642395019531 80.95603942871094 57.87425231933594 78.89711761474609 C 62.57753372192383 76.90781402587891 66.80213165283203 74.05929565429688 70.43071746826172 70.43071746826172 C 74.05929565429688 66.80213165283203 76.90781402587891 62.57753372192383 78.89711761474609 57.87425231933594 C 80.95603942871094 53.00642395019531 82 47.83378601074219 82 42.5 C 82 37.16621398925781 80.95603942871094 31.99356079101562 78.89711761474609 27.125732421875 C 76.90781402587891 22.42246627807617 74.05929565429688 18.19786834716797 70.43071746826172 14.56928253173828 C 66.80213165283203 10.94070434570312 62.57753372192383 8.092185974121094 57.87425231933594 6.102882385253906 C 53.00643920898438 4.043960571289062 47.83378601074219 3 42.5 3 M 42.5 0 C 65.97209167480469 0 85 19.02789306640625 85 42.5 C 85 65.97209167480469 65.97209167480469 85 42.5 85 C 19.02789306640625 85 0 65.97209167480469 0 42.5 C 0 19.02789306640625 19.02789306640625 0 42.5 0 Z" stroke="none" fill="#899e78"/>
                          </g>
                        </g>
                      </g>
                    </g>
                  </g>
                </g>
              </g>
            </g>
          </g>
        </g>
      </g>
    </g>
    <g id="equipo" transform="translate(638.408 9154)">
      <path id="Trazado_1181400" data-name="Trazado 1181400" d="M150.865,14.75l-3.726-3.726-2.6,1.693a13.925,13.925,0,0,0-4.057-1.683L139.839,8H134.57l-.642,3.034a13.925,13.925,0,0,0-4.057,1.683l-2.6-1.693-3.726,3.726,1.349,3.218.128,6.718h1.647a10.538,10.538,0,1,1,21.075,0H149.5l-.007-6.718Zm0,0" transform="translate(-109.982 -7.122)" fill="#fcd770"/>
      <path id="Trazado_1181401" data-name="Trazado 1181401" d="M128.184,80.543l.84,2,.018,6.718H130.8a10.474,10.474,0,0,1,1.935-6.072A6.989,6.989,0,0,0,128.184,80.543Zm0,0" transform="translate(-114.114 -71.702)" fill="#ffc729"/>
      <path id="Trazado_1181402" data-name="Trazado 1181402" d="M330.6,80.6a7.022,7.022,0,0,0-4.576,2.59A10.486,10.486,0,0,1,328,89.317h1.756l-.007-6.718Zm0,0" transform="translate(-290.237 -71.754)" fill="#ffc729"/>
      <path id="Trazado_1181403" data-name="Trazado 1181403" d="M307.319,117.955v-4.283a3.514,3.514,0,0,0-2.661-3.408l-4.365-1.091,0-1.588a5.263,5.263,0,0,0,2.636-4.559v-1.535A5.416,5.416,0,0,0,297.822,96a5.269,5.269,0,0,0-5.431,5.266v1.756a5.262,5.262,0,0,0,2.634,4.558v1.589l-4.365,1.092A3.512,3.512,0,0,0,288,113.672v4.283Zm0,0" transform="translate(-256.387 -85.463)" fill="#ccd1d9"/>
      <path id="Trazado_1181404" data-name="Trazado 1181404" d="M295.025,224.331a5.248,5.248,0,0,0-1.89-4.026l-2.475.619A3.512,3.512,0,0,0,288,224.331v4.283h7.025Zm0,0" transform="translate(-256.387 -196.122)" fill="#aab2bd"/>
      <path id="Trazado_1181405" data-name="Trazado 1181405" d="M51.319,117.955v-4.283a3.514,3.514,0,0,0-2.661-3.408l-4.365-1.091,0-1.588a5.263,5.263,0,0,0,2.636-4.559v-1.535A5.416,5.416,0,0,0,41.822,96a5.269,5.269,0,0,0-5.431,5.266v1.756a5.262,5.262,0,0,0,2.634,4.558v1.589l-4.365,1.092A3.512,3.512,0,0,0,32,113.672v4.283Zm0,0" transform="translate(-28.488 -85.463)" fill="#ccd1d9"/>
      <path id="Trazado_1181406" data-name="Trazado 1181406" d="M151.025,224.324a3.513,3.513,0,0,0-2.661-3.408l-2.475-.619a5.252,5.252,0,0,0-1.89,4.027v4.283h7.025Zm0,0" transform="translate(-128.194 -196.115)" fill="#aab2bd"/>
      <path id="Trazado_1181407" data-name="Trazado 1181407" d="M179.319,117.955v-4.283a3.514,3.514,0,0,0-2.661-3.408l-4.365-1.091,0-1.588a5.263,5.263,0,0,0,2.636-4.559v-1.535A5.416,5.416,0,0,0,169.822,96a5.269,5.269,0,0,0-5.431,5.266v1.756a5.262,5.262,0,0,0,2.634,4.558v1.589l-4.365,1.092A3.512,3.512,0,0,0,160,113.672v4.283Zm0,0" transform="translate(-142.437 -85.463)" fill="#ccd1d9"/>
      <g id="Grupo_1230404" data-name="Grupo 1230404" transform="translate(3.512 23.956)">
        <path id="Trazado_1181408" data-name="Trazado 1181408" d="M307.32,227.384a3.513,3.513,0,0,0-2.661-3.408l-.968-.242-11.734,6.176h-.2L288,228.837v2.829H307.32Zm0,0" transform="translate(-259.9 -223.131)" fill="#aab2bd"/>
        <path id="Trazado_1181409" data-name="Trazado 1181409" d="M179.319,250.822l-1.312.69h-.2L172.527,250a6.383,6.383,0,0,0-1.415-.223l-3.835-1.227a11.681,11.681,0,0,0-6.1-.273l-1.138.264a3.348,3.348,0,0,0-.038.442v4.283h19.319Zm0,0" transform="translate(-145.95 -244.733)" fill="#aab2bd"/>
        <path id="Trazado_1181410" data-name="Trazado 1181410" d="M47.226,221.786l-3.81.883v-1.294l-5.376-3.136-3.379.845A3.514,3.514,0,0,0,32,222.492v4.283H51.319v-4.283a3.494,3.494,0,0,0-.127-.891,11.3,11.3,0,0,0-3.966.186Zm0,0" transform="translate(-32 -218.239)" fill="#aab2bd"/>
      </g>
      <path id="Trazado_1181411" data-name="Trazado 1181411" d="M101.254,277.508l-7.42-6.678-1.412-5.073-4.02-1.286a9.911,9.911,0,0,0-5.169-.235l-10.353,2.4L72,273.66l6.191,3.89,11.262,9.392,1.358,1.2a1.8,1.8,0,0,0,1.187.449h.162a1.794,1.794,0,0,0,1.149-3.173,2.321,2.321,0,0,0,1.486.538,1.794,1.794,0,0,0,1.149-3.173l-3.365-2.8,3.511,2.926a1.8,1.8,0,0,0,1.15.416h.19a1.794,1.794,0,0,0,1.149-3.173l.138.116a1.821,1.821,0,0,0,1.166.422h.152a1.823,1.823,0,0,0,1.22-3.177Zm0,0" transform="translate(-64.097 -235.022)" fill="#ecc19c"/>
      <path id="Trazado_1181412" data-name="Trazado 1181412" d="M200.96,234.777l-7.42-6.678a2.659,2.659,0,0,0-3.146-.3l-3.269,1.962A2.063,2.063,0,0,1,184,227.988v-.175a2.063,2.063,0,0,1,1.141-1.845l4.9-2.449a4.661,4.661,0,0,1,3.37-.313l5.518,1.576h.878L216.491,216h.878v11.416l-15.807,7.9Zm0,0" transform="translate(-163.803 -192.29)" fill="#f5e0cd"/>
      <path id="Trazado_1181413" data-name="Trazado 1181413" d="M238.1,400l-1.221,1.27,4.867,4.055a3.554,3.554,0,0,0,1.426.707,1.772,1.772,0,0,0,.2-.8,1.8,1.8,0,0,0-.645-1.379Zm0,0" transform="translate(-210.877 -356.093)" fill="#dfb28b"/>
      <path id="Trazado_1181414" data-name="Trazado 1181414" d="M200,435.406a1.863,1.863,0,0,0,3.18,1.317l1.543-1.543a1.863,1.863,0,1,0-2.634-2.635l-1.543,1.543A1.862,1.862,0,0,0,200,435.406Zm0,0" transform="translate(-178.047 -384.58)" fill="#f5e0cd"/>
      <path id="Trazado_1181415" data-name="Trazado 1181415" d="M176,411.406a1.863,1.863,0,0,0,3.18,1.317l1.543-1.543a1.863,1.863,0,1,0-2.634-2.635l-1.543,1.543a1.862,1.862,0,0,0-.546,1.318Zm0,0" transform="translate(-156.681 -363.214)" fill="#f5e0cd"/>
      <path id="Trazado_1181416" data-name="Trazado 1181416" d="M152,387.406a1.863,1.863,0,0,0,3.18,1.317l1.543-1.543a1.863,1.863,0,1,0-2.634-2.635l-1.543,1.543A1.863,1.863,0,0,0,152,387.406Zm0,0" transform="translate(-135.315 -341.849)" fill="#f5e0cd"/>
      <path id="Trazado_1181417" data-name="Trazado 1181417" d="M155.331,385.787a3.626,3.626,0,0,0,.907-1.583,1.842,1.842,0,0,0-.832-.2,1.862,1.862,0,0,0-1.317.545l-1.543,1.543a1.865,1.865,0,0,0-.546,1.318,1.842,1.842,0,0,0,.2.832,3.621,3.621,0,0,0,1.583-.907Zm0,0" transform="translate(-135.316 -341.849)" fill="#f0d0b4"/>
      <path id="Trazado_1181418" data-name="Trazado 1181418" d="M179.331,409.787a3.626,3.626,0,0,0,.907-1.583,1.842,1.842,0,0,0-.832-.2,1.862,1.862,0,0,0-1.317.545l-1.543,1.543a1.865,1.865,0,0,0-.546,1.318,1.842,1.842,0,0,0,.2.832,3.621,3.621,0,0,0,1.583-.907Zm0,0" transform="translate(-156.681 -363.214)" fill="#f0d0b4"/>
      <path id="Trazado_1181419" data-name="Trazado 1181419" d="M203.331,433.787a3.626,3.626,0,0,0,.907-1.583,1.842,1.842,0,0,0-.832-.2,1.862,1.862,0,0,0-1.317.545l-1.543,1.543a1.864,1.864,0,0,0-.546,1.318,1.842,1.842,0,0,0,.2.832,3.622,3.622,0,0,0,1.583-.907Zm0,0" transform="translate(-178.047 -384.58)" fill="#f0d0b4"/>
      <path id="Trazado_1181420" data-name="Trazado 1181420" d="M128,363.406a1.863,1.863,0,0,0,3.18,1.317l1.543-1.543a1.863,1.863,0,1,0-2.634-2.635l-1.543,1.543A1.862,1.862,0,0,0,128,363.406Zm0,0" transform="translate(-113.95 -320.483)" fill="#f5e0cd"/>
      <path id="Trazado_1181421" data-name="Trazado 1181421" d="M78.731,275.648,72.879,277,72,284.029l3.676,2.309Zm0,0" transform="translate(-64.097 -245.391)" fill="#dfb28b"/>
      <path id="Trazado_1181422" data-name="Trazado 1181422" d="M20.294,207.025l-3.513,12.294H15.9L8,216.685V200H9.756l10.538,6.147Zm0,0" transform="translate(-7.122 -178.046)" fill="#e6e9ed"/>
      <path id="Trazado_1181423" data-name="Trazado 1181423" d="M16.839,204.132,9.756,200H8v16.685l5.269,1.756,3.513-14.05Zm0,0" transform="translate(-7.122 -178.047)" fill="#b4dd7f"/>
      <path id="Trazado_1181424" data-name="Trazado 1181424" d="M262.1,376l-1.221,1.27,4.867,4.055a3.554,3.554,0,0,0,1.426.707,1.773,1.773,0,0,0,.2-.8,1.8,1.8,0,0,0-.645-1.379Zm0,0" transform="translate(-232.243 -334.727)" fill="#dfb28b"/>
      <path id="Trazado_1181425" data-name="Trazado 1181425" d="M54.445,22.832H52.471L49.53,24.379a4.366,4.366,0,0,0-1.047-.43l-3.7-.926V22.6a6.167,6.167,0,0,0,2.635-5.039V16.028a6.309,6.309,0,0,0-5.958-6.366c-.167,0-.331,0-.5.01l.959-2.246-4.65-4.649L34.533,4.562A14.854,14.854,0,0,0,31.246,3.2L30.569,0H23.876L23.2,3.2a14.837,14.837,0,0,0-3.287,1.364L17.171,2.778,12.525,7.425l.943,2.247c-.036,0-.07-.008-.106-.009a6.15,6.15,0,0,0-6.337,6.144v1.756A6.164,6.164,0,0,0,9.659,22.6v.421l-2.413.6L2.872,21.075H0v18.2l8.639,2.879h1.683l.21-.736L13.18,43a2.734,2.734,0,0,0,2.637,2.649,2.734,2.734,0,0,0,2.634,2.634,2.734,2.734,0,0,0,2.634,2.634,2.731,2.731,0,0,0,4.27,2.168l.778.687a2.674,2.674,0,0,0,1.767.667h.163a2.674,2.674,0,0,0,2.669-2.638,2.671,2.671,0,0,0,2.634-2.634A2.671,2.671,0,0,0,36,46.536a2.7,2.7,0,0,0,2.638-2.694,2.572,2.572,0,0,0-.013-.263l15.82-7.909Zm-8.781-6.8v1.535a4.408,4.408,0,0,1-2.2,3.8l-.439.254,0,2.779,4.387,1.1L37.76,30.574V28.209a4.369,4.369,0,0,0-1.258-3.06l3.014-.753V21.614l-.438-.253a4.4,4.4,0,0,1-2.2-3.8V15.807a4.391,4.391,0,0,1,4.527-4.388,4.54,4.54,0,0,1,4.255,4.609ZM28.546,29.884l-3.975-1.27a10.844,10.844,0,0,0-5.627-.256l-.5.111v-.26a2.633,2.633,0,0,1,2-2.556l5.03-1.257V21.614l-.438-.253a4.4,4.4,0,0,1-2.2-3.8V15.806a4.391,4.391,0,0,1,4.527-4.388,4.54,4.54,0,0,1,4.255,4.609v1.535a4.408,4.408,0,0,1-2.2,3.8l-.439.254,0,2.779,5.029,1.257a2.633,2.633,0,0,1,2,2.556V31.5l-.217.114h-.538l-5.4-1.543a5.535,5.535,0,0,0-1.3-.187ZM18.638,13.143a9.653,9.653,0,0,1,17.133-.071,6.107,6.107,0,0,0-.645,2.734v1.756A6.164,6.164,0,0,0,37.76,22.6v.421l-3.513.879-3.513-.879V22.6a6.167,6.167,0,0,0,2.635-5.039V16.028a6.309,6.309,0,0,0-5.958-6.366,6.148,6.148,0,0,0-6.336,6.144v1.756A6.164,6.164,0,0,0,23.71,22.6v.421L20.2,23.9l-3.513-.879V22.6a6.167,6.167,0,0,0,2.635-5.039V16.028a6.472,6.472,0,0,0-.681-2.885ZM14.6,7.832,17.4,5.026l2.469,1.607.473-.29a13.1,13.1,0,0,1,3.8-1.577l.54-.129L25.3,1.756h3.845l.609,2.88.54.129a13.117,13.117,0,0,1,3.8,1.577l.473.29,2.469-1.607,2.8,2.8-1,2.332a6.138,6.138,0,0,0-1.854,1.232c-.036.035-.067.073-.1.109a11.4,11.4,0,0,0-19.368.053,6.194,6.194,0,0,0-1.937-1.373ZM11.416,24.4V21.614l-.438-.253a4.4,4.4,0,0,1-2.2-3.8V15.807a4.391,4.391,0,0,1,4.527-4.388,4.54,4.54,0,0,1,4.255,4.609v1.535a4.408,4.408,0,0,1-2.2,3.8l-.439.254,0,2.779,3.013.753a4.369,4.369,0,0,0-1.258,3.06v.65l-2.739.609.071-.249L14.05,27.6l-4.631-2.7Zm-9.66-1.564H2.4l6.316,3.684L5.525,39.262,1.756,38ZM8.924,40.395,7.2,39.819l3.1-12.382,2,1.168v.251L9,40.394Zm6,2.528a.991.991,0,0,1,.288-.7l1.544-1.544a.985.985,0,0,1,1.393,1.393l-1.544,1.544a.985.985,0,0,1-1.681-.7Zm2.634,2.634a.991.991,0,0,1,.288-.7l1.544-1.544a.985.985,0,0,1,1.393,1.393l-1.544,1.544a.985.985,0,0,1-1.681-.7ZM20.2,48.191a.991.991,0,0,1,.288-.7l1.544-1.544a.985.985,0,0,1,1.393,1.393l-1.544,1.544a.985.985,0,0,1-1.681-.7Zm3.619,3.619a.985.985,0,0,1-.7-1.681l1.544-1.544a.985.985,0,0,1,1.393,1.393l-1.544,1.544A.991.991,0,0,1,23.816,51.81Zm4.247.878H27.9a.91.91,0,0,1-.605-.229l-.657-.579.659-.659a2.73,2.73,0,0,0,.553-.816l.8.665a.916.916,0,0,1-.587,1.62Zm7.875-7.9h-.152a.942.942,0,0,1-.6-.22L30.42,40.6l-1.125,1.35L33.919,45.8a.917.917,0,0,1-.587,1.62H33.14a.916.916,0,0,1-.586-.213l-4.77-3.974-1.125,1.35,4.624,3.853a.915.915,0,0,1-.587,1.618,1.45,1.45,0,0,1-.924-.334l-1.96-1.634a2.732,2.732,0,0,0-2.358-1.535,2.734,2.734,0,0,0-2.634-2.634,2.734,2.734,0,0,0-2.634-2.634,2.734,2.734,0,0,0-4.668-1.842l-1.544,1.544a2.706,2.706,0,0,0-.246.3l-2.7-1.619L13.4,31.39l5.928-1.318a9.046,9.046,0,0,1,4.711.213l1.294.414-4.386,2.193a2.927,2.927,0,0,0-1.625,2.631V35.7a2.941,2.941,0,0,0,4.455,2.522l3.27-1.961a1.813,1.813,0,0,1,2.106.2l7.42,6.677a.945.945,0,0,1-.632,1.647Zm16.751-10.2-14.794,7.4c-.048-.051-.1-.1-.151-.147l-7.418-6.677a3.534,3.534,0,0,0-4.185-.4l-3.271,1.962A1.184,1.184,0,0,1,21.075,35.7v-.174a1.178,1.178,0,0,1,.655-1.06l4.9-2.449a3.817,3.817,0,0,1,2.737-.254l5.518,1.576,1.337.033L52.688,24.7Zm0,0"/>
    </g>
  </g>
</svg>
