<svg xmlns="http://www.w3.org/2000/svg" xmlns:xlink="http://www.w3.org/1999/xlink" width="103" height="103" viewBox="0 0 103 103">
  <defs>
    <filter id="Trazado_982547" x="0" y="0" width="103" height="103" filterUnits="userSpaceOnUse">
      <feOffset dy="3" input="SourceAlpha"/>
      <feGaussianBlur stdDeviation="3" result="blur"/>
      <feFlood flood-opacity="0.161"/>
      <feComposite operator="in" in2="blur"/>
      <feComposite in="SourceGraphic"/>
    </filter>
  </defs>
  <g id="Grupo_1230407" data-name="Grupo 1230407" transform="translate(-1033.12 -9132.723)">
    <g id="Grupo_1230293" data-name="Grupo 1230293" transform="translate(0 3339.723)">
      <g id="Grupo_1224204" data-name="Grupo 1224204" transform="translate(0 5367)">
        <g id="Grupo_1224082" data-name="Grupo 1224082" transform="translate(838.99 -1582)">
          <g id="Grupo_1206686" data-name="Grupo 1206686" transform="translate(-2.87 300.583)">
            <g id="Grupo_1201889" data-name="Grupo 1201889" transform="translate(206 1713.417)">
              <g id="Grupo_1201680" data-name="Grupo 1201680">
                <g id="Grupo_1201330" data-name="Grupo 1201330">
                  <g id="Grupo_1172010" data-name="Grupo 1172010">
                    <g id="Grupo_1171046" data-name="Grupo 1171046">
                      <g id="Grupo_1148525" data-name="Grupo 1148525">
                        <g transform="matrix(1, 0, 0, 1, -9, -6)" filter="url(#Trazado_982547)">
                          <g id="Trazado_982547-2" data-name="Trazado 982547" transform="translate(9 6)" fill="#f2f4f0">
                            <path d="M 42.5 83.5 C 36.96437835693359 83.5 31.59512901306152 82.41617584228516 26.54141235351562 80.27863311767578 C 21.65934181213379 78.21369171142578 17.27447128295898 75.25723266601562 13.50862312316895 71.49137878417969 C 9.742764472961426 67.72553253173828 6.786305904388428 63.34066009521484 4.721364498138428 58.45858764648438 C 2.583823442459106 53.40486907958984 1.5 48.03562164306641 1.5 42.5 C 1.5 36.96437835693359 2.583823442459106 31.59512901306152 4.721364498138428 26.54141235351562 C 6.786305904388428 21.65934181213379 9.742764472961426 17.27448272705078 13.50862312316895 13.50862312316895 C 17.27447128295898 9.742776870727539 21.65934181213379 6.786305904388428 26.54141235351562 4.721364498138428 C 31.59512901306152 2.583823442459106 36.96437835693359 1.5 42.5 1.5 C 48.03562164306641 1.5 53.40486907958984 2.583823442459106 58.45858764648438 4.721364498138428 C 63.34066009521484 6.786305904388428 67.72553253173828 9.742776870727539 71.49137878417969 13.50862312316895 C 75.25723266601562 17.27448272705078 78.21369171142578 21.65934181213379 80.27863311767578 26.54141235351562 C 82.41617584228516 31.59512901306152 83.5 36.96437835693359 83.5 42.5 C 83.5 48.03562164306641 82.41617584228516 53.40486907958984 80.27863311767578 58.45858764648438 C 78.21369171142578 63.34066009521484 75.25723266601562 67.72553253173828 71.49137878417969 71.49137878417969 C 67.72553253173828 75.25723266601562 63.34066009521484 78.21369171142578 58.45858764648438 80.27863311767578 C 53.40486907958984 82.41617584228516 48.03562164306641 83.5 42.5 83.5 Z" stroke="none"/>
                            <path d="M 42.5 3 C 37.16621398925781 3 31.99356079101562 4.043960571289062 27.125732421875 6.102882385253906 C 22.42246627807617 8.092185974121094 18.19785308837891 10.94070434570312 14.56928253173828 14.56928253173828 C 10.94070434570312 18.19785308837891 8.092185974121094 22.42246627807617 6.102882385253906 27.125732421875 C 4.043960571289062 31.99356079101562 3 37.16621398925781 3 42.5 C 3 47.83378601074219 4.043960571289062 53.00643920898438 6.102882385253906 57.87425231933594 C 8.092185974121094 62.57753372192383 10.94070434570312 66.80213165283203 14.56928253173828 70.43071746826172 C 18.19786834716797 74.05929565429688 22.42246627807617 76.90781402587891 27.125732421875 78.89711761474609 C 31.99356079101562 80.95603942871094 37.16621398925781 82 42.5 82 C 47.83378601074219 82 53.00642395019531 80.95603942871094 57.87425231933594 78.89711761474609 C 62.57753372192383 76.90781402587891 66.80213165283203 74.05929565429688 70.43071746826172 70.43071746826172 C 74.05929565429688 66.80213165283203 76.90781402587891 62.57753372192383 78.89711761474609 57.87425231933594 C 80.95603942871094 53.00642395019531 82 47.83378601074219 82 42.5 C 82 37.16621398925781 80.95603942871094 31.99356079101562 78.89711761474609 27.125732421875 C 76.90781402587891 22.42246627807617 74.05929565429688 18.19786834716797 70.43071746826172 14.56928253173828 C 66.80213165283203 10.94070434570312 62.57753372192383 8.092185974121094 57.87425231933594 6.102882385253906 C 53.00643920898438 4.043960571289062 47.83378601074219 3 42.5 3 M 42.5 0 C 65.97209167480469 0 85 19.02789306640625 85 42.5 C 85 65.97209167480469 65.97209167480469 85 42.5 85 C 19.02789306640625 85 0 65.97209167480469 0 42.5 C 0 19.02789306640625 19.02789306640625 0 42.5 0 Z" stroke="none" fill="#899e78"/>
                          </g>
                        </g>
                      </g>
                    </g>
                  </g>
                </g>
              </g>
            </g>
          </g>
        </g>
      </g>
    </g>
    <g id="dispositivo-conectado" transform="translate(1047.4 9146.861)">
      <path id="Trazado_1181426" data-name="Trazado 1181426" d="M60.393,20.716a1.7,1.7,0,0,0-1.573,1.049.663.663,0,0,0-.132-.027H53.915a.682.682,0,0,0-.432.155L47.6,26.71V18.187A1.982,1.982,0,0,0,45.616,16.2H38.231v-4.01a.682.682,0,0,0-.331-.584L34.821,9.76V7.418a.663.663,0,0,0-.027-.132,1.7,1.7,0,1,0-1.311,0,.663.663,0,0,0-.027.132v2.728a.682.682,0,0,0,.331.584l3.079,1.847V16.2H29.482A1.982,1.982,0,0,0,27.5,18.186V26.71L21.865,22.1V15.6a.663.663,0,0,0-.027-.132,1.7,1.7,0,1,0-1.311,0,.663.663,0,0,0-.027.132v6.819a.682.682,0,0,0,.25.527l6.314,5.171a.676.676,0,0,0,.432.155v5.775a.671.671,0,0,0-.177-.035h-7.5a.663.663,0,0,0-.132.027,1.7,1.7,0,1,0,0,1.311.663.663,0,0,0,.132.027h7.5a.671.671,0,0,0,.177-.035v5.785a.67.67,0,0,0-.433.145l-6.125,5.016h-4.53a.662.662,0,0,0-.132.027,1.7,1.7,0,1,0,0,1.311.663.663,0,0,0,.132.027h4.773a.682.682,0,0,0,.432-.155L27.5,42.679V51.2a1.982,1.982,0,0,0,1.984,1.984h7.385V57.2a.682.682,0,0,0,.331.584l3.079,1.849v2.342a.663.663,0,0,0,.027.132,1.7,1.7,0,1,0,1.311,0,.663.663,0,0,0,.027-.132V59.244a.682.682,0,0,0-.331-.584l-3.079-1.847V53.189h7.385A1.982,1.982,0,0,0,47.6,51.2V42.68l5.633,4.613v6.5a.663.663,0,0,0,.027.132,1.7,1.7,0,1,0,1.311,0,.663.663,0,0,0,.027-.132V46.97a.682.682,0,0,0-.25-.527l-6.314-5.171a.664.664,0,0,0-.433-.145V35.342a.671.671,0,0,0,.177.035h7.5a.663.663,0,0,0,.132-.027,1.7,1.7,0,1,0,0-1.311.663.663,0,0,0-.132-.027h-7.5a.671.671,0,0,0-.177.035V28.273a.676.676,0,0,0,.432-.155L54.157,23.1h4.531a.663.663,0,0,0,.132-.027,1.7,1.7,0,1,0,1.573-2.36Z" transform="translate(-0.323 -0.327)" fill="#0078ff"/>
      <path id="Trazado_1181427" data-name="Trazado 1181427" d="M52.092,85.276a.682.682,0,0,1-.682-.682V82.252l-3.079-1.847A.682.682,0,0,1,48,79.821v-4.01a.682.682,0,1,1,1.364,0v3.624l3.079,1.847a.682.682,0,0,1,.331.584v2.728a.682.682,0,0,1-.682.682Z" transform="translate(-11.456 -22.949)" fill="#3996ff"/>
      <path id="Trazado_1181428" data-name="Trazado 1181428" d="M47.092,18.156a.682.682,0,0,1-.682-.682V13.85L43.331,12A.682.682,0,0,1,43,11.419V8.691a.682.682,0,1,1,1.364,0v2.342l3.079,1.847a.682.682,0,0,1,.331.584v4.01A.682.682,0,0,1,47.092,18.156Z" transform="translate(-9.866 -1.6)" fill="#3996ff"/>
      <path id="Trazado_1181429" data-name="Trazado 1181429" d="M71.183,49.373h-7.5a.682.682,0,1,1,0-1.364h7.5a.682.682,0,1,1,0,1.364Z" transform="translate(-16.228 -14.323)" fill="#3996ff"/>
      <path id="Trazado_1181430" data-name="Trazado 1181430" d="M63.424,36.544a.682.682,0,0,1-.432-1.209L69.3,30.164a.682.682,0,0,1,.432-.155h4.773a.682.682,0,1,1,0,1.364h-4.53l-6.125,5.016a.676.676,0,0,1-.432.155Z" transform="translate(-16.146 -8.597)" fill="#3996ff"/>
      <path id="Trazado_1181431" data-name="Trazado 1181431" d="M69.729,71.774a.682.682,0,0,1-.682-.682V64.6l-6.064-4.966a.682.682,0,1,1,.864-1.054l6.314,5.171a.682.682,0,0,1,.25.527v6.819A.682.682,0,0,1,69.729,71.774Z" transform="translate(-16.137 -17.63)" fill="#3996ff"/>
      <path id="Trazado_1181432" data-name="Trazado 1181432" d="M30.183,49.373h-7.5a.682.682,0,0,1,0-1.364h7.5a.682.682,0,1,1,0,1.364Z" transform="translate(-3.186 -14.323)" fill="#3996ff"/>
      <path id="Trazado_1181433" data-name="Trazado 1181433" d="M22.455,64.961H17.682a.682.682,0,0,1,0-1.364h4.53l6.125-5.016a.682.682,0,1,1,.864,1.055l-6.313,5.171a.682.682,0,0,1-.432.154Z" transform="translate(-1.596 -17.636)" fill="#3996ff"/>
      <path id="Trazado_1181434" data-name="Trazado 1181434" d="M31,33.363a.676.676,0,0,1-.432-.155L24.25,28.037A.682.682,0,0,1,24,27.51V20.691a.682.682,0,1,1,1.364,0v6.5l6.064,4.967A.682.682,0,0,1,31,33.363Z" transform="translate(-3.822 -5.417)" fill="#3996ff"/>
      <rect id="Rectángulo_423307" data-name="Rectángulo 423307" width="20.103" height="36.987" rx="2.91" transform="translate(27.174 15.874)" fill="#aad2ff"/>
      <path id="Trazado_1181435" data-name="Trazado 1181435" d="M54.363,23.874v2.837H34.26V23.874a1.982,1.982,0,0,1,1.984-1.984H52.379a1.982,1.982,0,0,1,1.984,1.984Z" transform="translate(-7.086 -6.015)" fill="#3996ff"/>
      <path id="Trazado_1181436" data-name="Trazado 1181436" d="M54.363,69.059V71.9a1.982,1.982,0,0,1-1.984,1.984H36.244A1.982,1.982,0,0,1,34.26,71.9V69.059Z" transform="translate(-7.086 -21.018)" fill="#3996ff"/>
      <path id="Trazado_1181437" data-name="Trazado 1181437" d="M43.591,54.862V59.97l3.689,2.168" transform="translate(-10.054 -16.503)" fill="none"/>
      <path id="Trazado_1181438" data-name="Trazado 1181438" d="M52.689,50.7v5.108L49,57.976" transform="translate(-11.774 -15.179)" fill="none"/>
      <path id="Trazado_1181439" data-name="Trazado 1181439" d="M50.65,46.986a.682.682,0,0,0-.682.682v4.717l-2.325,1.364v-11.9a.682.682,0,0,0-1.364,0V56.59l-2.325-1.364v-4.72a.682.682,0,1,0-1.364,0v5.108a.682.682,0,0,0,.336.588L46.28,58.17v1.982a.682.682,0,0,0,1.364,0V55.335L51,53.364a.682.682,0,0,0,.336-.588V47.668A.682.682,0,0,0,50.65,46.986Z" transform="translate(-9.736 -12.147)" fill="#3996ff"/>
      <g id="Grupo_1230406" data-name="Grupo 1230406" transform="translate(12.676 3.682)">
        <circle id="Elipse_14794" data-name="Elipse 14794" cx="1.705" cy="1.705" r="1.705" transform="translate(26.254 57.963)" fill="#0078ff"/>
        <circle id="Elipse_14795" data-name="Elipse 14795" cx="1.705" cy="1.705" r="1.705" transform="translate(19.435 0)" fill="#0078ff"/>
        <circle id="Elipse_14796" data-name="Elipse 14796" cx="1.705" cy="1.705" r="1.705" transform="translate(42.279 28.982)" fill="#0078ff"/>
        <circle id="Elipse_14797" data-name="Elipse 14797" cx="1.705" cy="1.705" r="1.705" transform="translate(45.689 16.707)" fill="#0078ff"/>
        <circle id="Elipse_14798" data-name="Elipse 14798" cx="1.705" cy="1.705" r="1.705" transform="translate(39.21 49.78)" fill="#0078ff"/>
        <circle id="Elipse_14799" data-name="Elipse 14799" cx="1.705" cy="1.705" r="1.705" transform="translate(3.41 28.982)" fill="#0078ff"/>
        <circle id="Elipse_14800" data-name="Elipse 14800" cx="1.705" cy="1.705" r="1.705" transform="translate(0 41.256)" fill="#0078ff"/>
        <circle id="Elipse_14801" data-name="Elipse 14801" cx="1.705" cy="1.705" r="1.705" transform="translate(6.478 8.183)" fill="#0078ff"/>
        <circle id="Elipse_14802" data-name="Elipse 14802" cx="1.418" cy="1.418" r="1.418" transform="translate(23.131 23.185)" fill="#0078ff"/>
        <circle id="Elipse_14803" data-name="Elipse 14803" cx="1.418" cy="1.418" r="1.418" transform="translate(19.442 31.841)" fill="#0078ff"/>
        <circle id="Elipse_14804" data-name="Elipse 14804" cx="1.418" cy="1.418" r="1.418" transform="translate(26.819 29.003)" fill="#0078ff"/>
      </g>
      <path id="Trazado_1181440" data-name="Trazado 1181440" d="M60.07,19.7a2.383,2.383,0,0,0-2.276,1.7h-4.2a.682.682,0,0,0-.432.155l-5.2,4.259V17.853a2.669,2.669,0,0,0-2.666-2.666H37.908V11.859a.682.682,0,0,0-.331-.584L34.5,9.427V7.654a2.387,2.387,0,1,0-1.364,0V9.813a.682.682,0,0,0,.331.584l3.079,1.847v2.942H29.158a2.669,2.669,0,0,0-2.666,2.666V25.82l-4.951-4.055V15.839a2.387,2.387,0,1,0-1.364,0v6.248a.682.682,0,0,0,.25.527l6.065,4.968v6.1H20.066a2.387,2.387,0,1,0,0,1.364h6.426v6.1l-5.876,4.813H16.657a2.387,2.387,0,1,0,0,1.364h4.2a.682.682,0,0,0,.432-.155l5.2-4.259v7.967a2.669,2.669,0,0,0,2.666,2.666h7.385v3.328a.682.682,0,0,0,.331.584L39.953,59.3V61.07a2.387,2.387,0,1,0,1.364,0V58.911a.682.682,0,0,0-.331-.584l-3.079-1.847V53.538h7.385a2.669,2.669,0,0,0,2.666-2.666v-6.28a.682.682,0,0,0-1.364,0v2.761H37.908V43.181l3.352-1.97a.682.682,0,0,0,.336-.588V36.074a2.1,2.1,0,1,0-1.364,0v4.16L37.908,41.6V30.257a2.1,2.1,0,1,0-1.364,0v14.18l-2.325-1.364v-4.16a2.1,2.1,0,1,0-1.364,0v4.549a.682.682,0,0,0,.336.588l3.352,1.969v1.333H27.856V21.371H46.6V38.453a.682.682,0,1,0,1.364,0v-3.41h6.426a2.387,2.387,0,1,0,0-1.364H47.959v-6.1l5.876-4.813h3.959A2.382,2.382,0,1,0,60.07,19.7ZM32.793,5.38A1.023,1.023,0,1,1,33.816,6.4,1.023,1.023,0,0,1,32.793,5.38ZM19.837,13.563a1.023,1.023,0,1,1,1.023,1.023A1.023,1.023,0,0,1,19.837,13.563ZM17.791,35.385a1.023,1.023,0,1,1,1.023-1.023A1.023,1.023,0,0,1,17.791,35.385Zm-3.41,12.275A1.023,1.023,0,1,1,15.4,46.636a1.023,1.023,0,0,1-1.023,1.023ZM41.658,63.344a1.023,1.023,0,1,1-1.023-1.023A1.023,1.023,0,0,1,41.658,63.344ZM40.914,33.36a.737.737,0,1,1-.736.736.737.737,0,0,1,.736-.736ZM33.537,36.2a.737.737,0,1,1-.737.736A.737.737,0,0,1,33.537,36.2Zm3.689-8.655a.737.737,0,1,1-.715.737.737.737,0,0,1,.715-.737Zm19.435,5.8a1.023,1.023,0,1,1-1.023,1.023A1.023,1.023,0,0,1,56.66,33.339ZM46.6,48.716v2.156a1.3,1.3,0,0,1-1.3,1.3H29.158a1.3,1.3,0,0,1-1.3-1.3V48.716ZM27.856,20.007V17.853a1.3,1.3,0,0,1,1.3-1.3H45.293a1.3,1.3,0,0,1,1.3,1.3v2.156Zm32.214,3.1a1.023,1.023,0,1,1,1.023-1.023A1.023,1.023,0,0,1,60.07,23.11Z" transform="translate(0 0)"/>
      <path id="Trazado_1181441" data-name="Trazado 1181441" d="M70.411,70.512V64.263a.682.682,0,0,0-.25-.527l-6.314-5.171a.682.682,0,1,0-.864,1.054l6.064,4.967v5.925a2.387,2.387,0,1,0,1.364,0Zm-.682,3.3a1.023,1.023,0,1,1,1.023-1.023A1.023,1.023,0,0,1,69.729,73.81Z" transform="translate(-16.137 -17.627)"/>
    </g>
  </g>
</svg>
