<svg xmlns="http://www.w3.org/2000/svg" xmlns:xlink="http://www.w3.org/1999/xlink" width="113" height="113" viewBox="0 0 113 113">
  <defs>
    <filter id="Trazado_982547" x="0" y="0" width="113" height="113" filterUnits="userSpaceOnUse">
      <feOffset dy="3" input="SourceAlpha"/>
      <feGaussianBlur stdDeviation="3" result="blur"/>
      <feFlood flood-opacity="0.161"/>
      <feComposite operator="in" in2="blur"/>
      <feComposite in="SourceGraphic"/>
    </filter>
  </defs>
  <g id="Grupo_1230454" data-name="Grupo 1230454" transform="translate(-5921 -11638.75)">
    <g id="Grupo_1230301" data-name="Grupo 1230301" transform="translate(5930 11644.75)">
      <g id="Grupo_1224455" data-name="Grupo 1224455" transform="translate(0 0)">
        <g id="Grupo_1224084" data-name="Grupo 1224084">
          <g id="Grupo_1223183" data-name="Grupo 1223183">
            <g id="Grupo_1211217" data-name="Grupo 1211217">
              <g id="Grupo_1210736" data-name="Grupo 1210736">
                <g id="Grupo_1210537" data-name="Grupo 1210537">
                  <g id="Grupo_1164202" data-name="Grupo 1164202">
                    <g id="Grupo_1158168" data-name="Grupo 1158168">
                      <g id="Grupo_1152576" data-name="Grupo 1152576">
                        <g id="Grupo_1148633" data-name="Grupo 1148633">
                          <g id="Grupo_1148525" data-name="Grupo 1148525">
                            <g transform="matrix(1, 0, 0, 1, -9, -6)" filter="url(#Trazado_982547)">
                              <g id="Trazado_982547-2" data-name="Trazado 982547" transform="translate(9 6)" fill="#fcf5f0">
                                <path d="M 47.49999618530273 93.5 C 41.28936767578125 93.5 35.26533126831055 92.28396606445312 29.59518241882324 89.88570404052734 C 24.11771583557129 87.56893157958984 19.19812965393066 84.251953125 14.97308921813965 80.02690124511719 C 10.74803638458252 75.80186462402344 7.431062698364258 70.88227844238281 5.114289283752441 65.40480804443359 C 2.716022968292236 59.73466110229492 1.499996185302734 53.71062469482422 1.499996185302734 47.49999618530273 C 1.499996185302734 41.28936767578125 2.716022968292236 35.26533126831055 5.114289283752441 29.59518241882324 C 7.431062698364258 24.11771583557129 10.74803638458252 19.19812965393066 14.97308921813965 14.97308921813965 C 19.19812965393066 10.74803638458252 24.11771583557129 7.431062698364258 29.59518241882324 5.114289283752441 C 35.26533126831055 2.716022968292236 41.28936767578125 1.499996185302734 47.49999618530273 1.499996185302734 C 53.71062469482422 1.499996185302734 59.73466110229492 2.716022968292236 65.40480804443359 5.114289283752441 C 70.88227844238281 7.431062698364258 75.80186462402344 10.74803638458252 80.02690124511719 14.97308921813965 C 84.251953125 19.19812965393066 87.56893157958984 24.11771583557129 89.88570404052734 29.59518241882324 C 92.28396606445312 35.26533126831055 93.5 41.28936767578125 93.5 47.49999618530273 C 93.5 53.71062469482422 92.28396606445312 59.73466110229492 89.88570404052734 65.40480804443359 C 87.56893157958984 70.88227844238281 84.251953125 75.80186462402344 80.02690124511719 80.02690124511719 C 75.80186462402344 84.251953125 70.88227844238281 87.56893157958984 65.40480804443359 89.88570404052734 C 59.73466110229492 92.28396606445312 53.71062469482422 93.5 47.49999618530273 93.5 Z" stroke="none"/>
                                <path d="M 47.49999618530273 2.999992370605469 C 41.4912109375 2.999992370605469 35.66376495361328 4.1761474609375 30.17950439453125 6.495796203613281 C 24.88084411621094 8.736953735351562 20.12152099609375 11.94598388671875 16.03375244140625 16.03375244140625 C 11.94598388671875 20.12152099609375 8.736953735351562 24.88084411621094 6.495796203613281 30.17950439453125 C 4.1761474609375 35.66376495361328 2.999992370605469 41.4912109375 2.999992370605469 47.49999618530273 C 2.999992370605469 53.50878143310547 4.1761474609375 59.33622741699219 6.495796203613281 64.82048797607422 C 8.736953735351562 70.11914825439453 11.94598388671875 74.87847137451172 16.03375244140625 78.96623992919922 C 20.12152099609375 83.05400848388672 24.88084411621094 86.26304626464844 30.17950439453125 88.50419616699219 C 35.66376495361328 90.82384490966797 41.4912109375 92 47.49999618530273 92 C 53.50878143310547 92 59.33622741699219 90.82384490966797 64.82048797607422 88.50419616699219 C 70.11914825439453 86.26304626464844 74.87847137451172 83.05400848388672 78.96623992919922 78.96623992919922 C 83.05400848388672 74.87847137451172 86.26304626464844 70.11914825439453 88.50419616699219 64.82048797607422 C 90.82384490966797 59.33622741699219 92 53.50878143310547 92 47.49999618530273 C 92 41.4912109375 90.82384490966797 35.66376495361328 88.50419616699219 30.17950439453125 C 86.26304626464844 24.88084411621094 83.05400848388672 20.12152099609375 78.96623992919922 16.03375244140625 C 74.87847137451172 11.94598388671875 70.11914825439453 8.736953735351562 64.82048797607422 6.495796203613281 C 59.33622741699219 4.1761474609375 53.50878143310547 2.999992370605469 47.49999618530273 2.999992370605469 M 47.49999618530273 -7.62939453125e-06 C 73.7335205078125 -7.62939453125e-06 95 21.26647186279297 95 47.49999618530273 C 95 73.7335205078125 73.7335205078125 95 47.49999618530273 95 C 21.26647186279297 95 -7.62939453125e-06 73.7335205078125 -7.62939453125e-06 47.49999618530273 C -7.62939453125e-06 21.26647186279297 21.26647186279297 -7.62939453125e-06 47.49999618530273 -7.62939453125e-06 Z" stroke="none" fill="#eca675"/>
                              </g>
                            </g>
                          </g>
                        </g>
                      </g>
                    </g>
                  </g>
                </g>
              </g>
            </g>
          </g>
        </g>
      </g>
    </g>
    <g id="verdict_5493586" transform="translate(5945 11663.483)">
      <g id="Grupo_1230452" data-name="Grupo 1230452" transform="translate(0.976 0.976)">
        <g id="Grupo_1230437" data-name="Grupo 1230437" transform="translate(3.904 29.419)">
          <path id="Trazado_1181515" data-name="Trazado 1181515" d="M24.521,44.668H5V40.217a9.751,9.751,0,0,1,6.179-9.077,11.282,11.282,0,0,0,2.333,4.578,10.164,10.164,0,0,0,1.005,1.044,11,11,0,0,0,3.172,2.05,11.005,11.005,0,0,0,3.172-2.05A11.242,11.242,0,0,0,24.2,31.14a9.751,9.751,0,0,1,6.179,9.077V41.74l-1.952.976v1.952Z" transform="translate(-5 -31.14)" fill="#e6e9ed"/>
        </g>
        <g id="Grupo_1230438" data-name="Grupo 1230438" transform="translate(13.421 31.234)">
          <path id="Trazado_1181516" data-name="Trazado 1181516" d="M17.922,33l3.172,3.807a11,11,0,0,1-3.172,2.05,11.005,11.005,0,0,1-3.172-2.05Z" transform="translate(-14.75 -33)" fill="#b4dd7f"/>
        </g>
        <g id="Grupo_1230439" data-name="Grupo 1230439" transform="translate(16.593 28.306)">
          <path id="Trazado_1181517" data-name="Trazado 1181517" d="M23.73,30.839a7.4,7.4,0,0,1,.781.273,11.242,11.242,0,0,1-3.338,5.622L18,32.928,20.928,30Z" transform="translate(-18 -30)" fill="#a0d468"/>
        </g>
        <g id="Grupo_1230440" data-name="Grupo 1230440" transform="translate(10.083 28.306)">
          <path id="Trazado_1181518" data-name="Trazado 1181518" d="M17.84,32.928l-3.172,3.807a10.164,10.164,0,0,1-1.005-1.044,11.282,11.282,0,0,1-2.333-4.578,7.4,7.4,0,0,1,.781-.273l2.8-.839Z" transform="translate(-11.33 -30)" fill="#a0d468"/>
        </g>
        <g id="Grupo_1230441" data-name="Grupo 1230441" transform="translate(3.904 0.976)">
          <path id="Trazado_1181519" data-name="Trazado 1181519" d="M7.928,12.737a2.921,2.921,0,0,0-2.069.859,2.486,2.486,0,0,0-.254.293A7.546,7.546,0,0,1,5,10.941a4.224,4.224,0,0,1,.81-2.5A4.284,4.284,0,0,1,7.928,6.88a7.207,7.207,0,0,1,2.606-2.85,7.069,7.069,0,0,1,3.709-1.054h.908a6.586,6.586,0,0,1,1.162.1l4.7.781a6.586,6.586,0,0,0,1.162.1h.2A7,7,0,0,0,26.3,2.761L27.45,2l.927,1.24A9.981,9.981,0,0,1,29.421,13.5v.01a2.9,2.9,0,0,0-1.972-.771H25.732a3.527,3.527,0,0,1-3.162-1.952,4.714,4.714,0,0,1-3.328-1.376l-.576-.576s-.078.156-.2.381a2.833,2.833,0,0,1-4.5.781l-.185-.185a4.283,4.283,0,0,1-4.06,2.928h-1.8Z" transform="translate(-5 -2)" fill="#656d78"/>
        </g>
        <g id="Grupo_1230442" data-name="Grupo 1230442" transform="translate(33.187)">
          <path id="Trazado_1181520" data-name="Trazado 1181520" d="M60.378,2.952V18.569a1.958,1.958,0,0,1-1.952,1.952H46.713l-3.5,3.5a1.38,1.38,0,0,1-2.352-.976V20.521h-3.9A1.958,1.958,0,0,1,35,18.569V2.952A1.958,1.958,0,0,1,36.952,1H58.426A1.958,1.958,0,0,1,60.378,2.952Z" transform="translate(-35 -1)" fill="#e6e9ed"/>
        </g>
        <g id="Grupo_1230443" data-name="Grupo 1230443" transform="translate(37.091 37.091)">
          <path id="Trazado_1181521" data-name="Trazado 1181521" d="M54.617,39V56.569H39V39Z" transform="translate(-39 -39)" fill="#cf9e76"/>
        </g>
        <g id="Grupo_1230444" data-name="Grupo 1230444" transform="translate(35.139 54.66)">
          <path id="Trazado_1181522" data-name="Trazado 1181522" d="M56.521,57.976v1.952a.979.979,0,0,1-.976.976H37.976A.979.979,0,0,1,37,59.928V57.976A.979.979,0,0,1,37.976,57H55.545A.979.979,0,0,1,56.521,57.976Z" transform="translate(-37 -57)" fill="#d3a06c"/>
        </g>
        <g id="Grupo_1230445" data-name="Grupo 1230445" transform="translate(35.139 33.187)">
          <path id="Trazado_1181523" data-name="Trazado 1181523" d="M56.521,35.976v1.952a.979.979,0,0,1-.976.976H37.976A.979.979,0,0,1,37,37.928V35.976A.979.979,0,0,1,37.976,35H55.545A.979.979,0,0,1,56.521,35.976Z" transform="translate(-37 -35)" fill="#d3a06c"/>
        </g>
        <g id="Grupo_1230446" data-name="Grupo 1230446" transform="translate(31.234 42.947)">
          <path id="Trazado_1181524" data-name="Trazado 1181524" d="M33,45h5.856v5.856H33Z" transform="translate(-33 -45)" fill="#b27946"/>
        </g>
        <g id="Grupo_1230447" data-name="Grupo 1230447" transform="translate(0 42.947)">
          <path id="Trazado_1181525" data-name="Trazado 1181525" d="M28.33,45v5.856H3.928a2.928,2.928,0,1,1,0-5.856h24.4Z" transform="translate(-1 -45)" fill="#b27946"/>
        </g>
        <g id="Grupo_1230448" data-name="Grupo 1230448" transform="translate(27.33 40.019)">
          <path id="Trazado_1181526" data-name="Trazado 1181526" d="M32.9,52.737l-1.952.976L29,52.737V42.976L30.952,42l1.952.976v9.761Z" transform="translate(-29 -42)" fill="#fcd770"/>
        </g>
        <g id="Grupo_1230449" data-name="Grupo 1230449" transform="translate(25.378 11.713)">
          <path id="Trazado_1181527" data-name="Trazado 1181527" d="M29.948,13.771a2.925,2.925,0,0,1-1.972,5.085H27V13h.976a2.9,2.9,0,0,1,1.972.771Z" transform="translate(-27 -13)" fill="#f0d0b4"/>
        </g>
        <g id="Grupo_1230450" data-name="Grupo 1230450" transform="translate(7.809 7.809)">
          <path id="Trazado_1181528" data-name="Trazado 1181528" d="M26.569,12.9V19.8a7.794,7.794,0,0,1-4.314,6.979l-1.005.5a.979.979,0,0,0-.537.878V29.5l-2.928,2.928L14.856,29.5V28.151a.979.979,0,0,0-.537-.878l-1.005-.5A7.794,7.794,0,0,1,9,19.8V12.9h.82a4.283,4.283,0,0,0,4.06-2.928l.185.185a2.833,2.833,0,0,0,4.5-.781c.117-.224.2-.381.2-.381l.576.576a4.714,4.714,0,0,0,3.328,1.376A3.527,3.527,0,0,0,25.828,12.9Z" transform="translate(-9 -9)" fill="#f0d0b4"/>
        </g>
        <g id="Grupo_1230451" data-name="Grupo 1230451" transform="translate(3.904 11.713)">
          <path id="Trazado_1181529" data-name="Trazado 1181529" d="M8.9,13v5.856H7.928A2.924,2.924,0,0,1,5,15.928a2.872,2.872,0,0,1,.605-1.776,2.486,2.486,0,0,1,.254-.293A2.921,2.921,0,0,1,7.928,13Z" transform="translate(-5 -13)" fill="#f0d0b4"/>
        </g>
      </g>
      <g id="Grupo_1230453" data-name="Grupo 1230453">
        <path id="Trazado_1181530" data-name="Trazado 1181530" d="M58.4,0H36.928A2.932,2.932,0,0,0,34,2.928V18.545a2.932,2.932,0,0,0,2.928,2.928h2.928v1.548a2.356,2.356,0,0,0,4.022,1.666l3.214-3.214H58.4a2.932,2.932,0,0,0,2.928-2.928V2.928A2.932,2.932,0,0,0,58.4,0Zm.976,18.545a.977.977,0,0,1-.976.976H46.285L42.5,23.308a.42.42,0,0,1-.689-.286v-3.5h-4.88a.977.977,0,0,1-.976-.976V2.928a.977.977,0,0,1,.976-.976H58.4a.977.977,0,0,1,.976.976Z" transform="translate(-0.813)"/>
        <path id="Trazado_1181531" data-name="Trazado 1181531" d="M54.833,9.952h-.976V8H51.9V9.952h-.976A2.932,2.932,0,0,0,48,12.88v.976h1.952V12.88a.977.977,0,0,1,.976-.976H51.9v3.9H49.952v1.952h5.856V15.809H53.856V11.9h.976a.977.977,0,0,1,.976.976v.976h1.952V12.88A2.932,2.932,0,0,0,54.833,9.952Z" transform="translate(-1.148 -0.191)"/>
        <path id="Trazado_1181532" data-name="Trazado 1181532" d="M54.66,33.2H37.091a1.954,1.954,0,0,0-1.952,1.952v1.952a1.954,1.954,0,0,0,1.952,1.952v3.9h-3.9V41.383l-1.952-.976v-.918A10.671,10.671,0,0,0,23.582,29.2l-2.109-.632v-.623l1-.5a8.737,8.737,0,0,0,4.857-7.857v-.054a3.908,3.908,0,0,0,3.9-3.9,3.867,3.867,0,0,0-.806-2.349,10.877,10.877,0,0,0-1.387-10.66L27.557.643,25.64,1.922a6.064,6.064,0,0,1-3.375,1.022h-.206a6.008,6.008,0,0,1-1-.083l-4.7-.784a8.109,8.109,0,0,0-1.324-.109h-.908a7.989,7.989,0,0,0-7.006,4.1A5.252,5.252,0,0,0,3.9,10.91a8.4,8.4,0,0,0,.5,2.844,3.857,3.857,0,0,0-.5,1.878,3.908,3.908,0,0,0,3.9,3.9v.057a8.735,8.735,0,0,0,4.857,7.855l1,.5v.623l-2.108.632A10.671,10.671,0,0,0,3.9,39.489v3.474a3.9,3.9,0,1,0,0,7.809H27.33v1.579l2.928,1.464,2.928-1.464V50.771h3.9v3.9a1.954,1.954,0,0,0-1.952,1.952V58.58a1.954,1.954,0,0,0,1.952,1.952H54.66a1.954,1.954,0,0,0,1.952-1.952V56.628a1.954,1.954,0,0,0-1.952-1.952V39.058a1.954,1.954,0,0,0,1.952-1.952V35.154A1.954,1.954,0,0,0,54.66,33.2ZM22.868,31.028a10.326,10.326,0,0,1-2.077,3.539l-1.9-2.282L20.776,30.4Zm-5.3,2.722L19.361,35.9a10.279,10.279,0,0,1-1.792,1.109A10.242,10.242,0,0,1,15.777,35.9Zm9.762-16.166v-3.9a1.952,1.952,0,1,1,0,3.9ZM5.856,15.633A1.954,1.954,0,0,1,7.809,13.68v3.9A1.954,1.954,0,0,1,5.856,15.633Zm2.928-3.9H7.809a3.855,3.855,0,0,0-1.823.472,6.53,6.53,0,0,1-.129-1.29A3.3,3.3,0,0,1,8.117,7.774L8.5,7.646l.182-.362A6.052,6.052,0,0,1,14.126,3.92h.908a6.114,6.114,0,0,1,1,.083l4.7.784a8.088,8.088,0,0,0,1.323.109h.206a8.017,8.017,0,0,0,4.459-1.35l.381-.254.377.5a8.976,8.976,0,0,1,1.341,8.233,3.874,3.874,0,0,0-1.491-.3H25.608a2.542,2.542,0,0,1-2.286-1.413l-.269-.539h-.6a3.765,3.765,0,0,1-2.642-1.094L18.28,7.153l-.8,1.59a1.868,1.868,0,0,1-1.676,1.033h0a1.814,1.814,0,0,1-1.271-.516l-1.3-1.265-.491,1.473A3.3,3.3,0,0,1,9.6,11.728ZM13.538,25.7a6.8,6.8,0,0,1-3.777-6.11V13.677a5.247,5.247,0,0,0,4.257-2.4,3.759,3.759,0,0,0,1.786.448h0a3.806,3.806,0,0,0,2.938-1.372A5.734,5.734,0,0,0,21.874,11.7a4.478,4.478,0,0,0,3.5,1.977v5.916A6.793,6.793,0,0,1,21.6,25.7l-1,.5a1.94,1.94,0,0,0-1.078,1.746v.945l-1.952,1.952-1.952-1.952v-.948a1.945,1.945,0,0,0-1.08-1.743Zm.826,4.7,1.886,1.886-1.9,2.282a10.326,10.326,0,0,1-2.077-3.539ZM5.856,39.489a8.718,8.718,0,0,1,4.605-7.724,12.313,12.313,0,0,0,6.724,7.214l.384.165.385-.165a12.313,12.313,0,0,0,6.724-7.214,8.719,8.719,0,0,1,4.6,7.724v.918l-1.952.976v1.579H25.378V37.106H23.426v5.856H11.713V37.106H9.761v5.856h-3.9ZM3.9,48.819a1.952,1.952,0,1,1,0-3.9H27.33v3.9Zm27.33,2.325-.976.488-.976-.488V42.59l.976-.488.976.488Zm1.952-2.325v-3.9h3.9v3.9ZM54.661,58.58H37.091V56.628H54.66Zm-1.953-3.9H39.043V39.058H52.708ZM37.091,37.106V35.154H54.66v1.952Z" transform="translate(0 -0.015)"/>
        <path id="Trazado_1181533" data-name="Trazado 1181533" d="M17.426,20.754l1.079-.54a1.954,1.954,0,0,0,.874-2.62l-.436-.872V15H16.989v1.952a.978.978,0,0,0,.1.436l.54,1.079-1.079.54Z" transform="translate(-0.396 -0.359)"/>
        <path id="Trazado_1181534" data-name="Trazado 1181534" d="M17.907,25.918a4.113,4.113,0,0,0,3.7-2.286l.1-.206-1.746-.872-.1.2a2.171,2.171,0,0,1-1.952,1.206h0a2.172,2.172,0,0,1-1.952-1.206l-.1-.207-1.744.875.1.206A4.115,4.115,0,0,0,17.907,25.918Z" transform="translate(-0.337 -0.54)"/>
        <path id="Trazado_1181535" data-name="Trazado 1181535" d="M38,4h7.809V5.952H38Z" transform="translate(-0.909 -0.096)"/>
        <path id="Trazado_1181536" data-name="Trazado 1181536" d="M38,8h7.809V9.952H38Z" transform="translate(-0.909 -0.191)"/>
        <path id="Trazado_1181537" data-name="Trazado 1181537" d="M38,12h7.809v1.952H38Z" transform="translate(-0.909 -0.287)"/>
        <path id="Trazado_1181538" data-name="Trazado 1181538" d="M38,16h7.809v1.952H38Z" transform="translate(-0.909 -0.383)"/>
        <path id="Trazado_1181539" data-name="Trazado 1181539" d="M48,4h1.952V5.952H48Z" transform="translate(-1.148 -0.096)"/>
        <path id="Trazado_1181540" data-name="Trazado 1181540" d="M52,4h5.856V5.952H52Z" transform="translate(-1.244 -0.096)"/>
        <path id="Trazado_1181541" data-name="Trazado 1181541" d="M50,52h1.952v1.952H50Z" transform="translate(-1.196 -1.244)"/>
        <path id="Trazado_1181542" data-name="Trazado 1181542" d="M46,52h1.952v1.952H46Z" transform="translate(-1.101 -1.244)"/>
        <path id="Trazado_1181543" data-name="Trazado 1181543" d="M42,52h1.952v1.952H42Z" transform="translate(-1.005 -1.244)"/>
      </g>
    </g>
  </g>
</svg>
