<svg xmlns="http://www.w3.org/2000/svg" xmlns:xlink="http://www.w3.org/1999/xlink" width="113" height="113" viewBox="0 0 113 113">
  <defs>
    <filter id="Trazado_982547" x="0" y="0" width="113" height="113" filterUnits="userSpaceOnUse">
      <feOffset dy="3" input="SourceAlpha"/>
      <feGaussianBlur stdDeviation="3" result="blur"/>
      <feFlood flood-opacity="0.161"/>
      <feComposite operator="in" in2="blur"/>
      <feComposite in="SourceGraphic"/>
    </filter>
  </defs>
  <g id="Grupo_1230456" data-name="Grupo 1230456" transform="translate(-6264 -11638.75)">
    <g id="Grupo_1230302" data-name="Grupo 1230302" transform="translate(6273 11644.75)">
      <g id="Grupo_1224455" data-name="Grupo 1224455" transform="translate(0 0)">
        <g id="Grupo_1224084" data-name="Grupo 1224084">
          <g id="Grupo_1223183" data-name="Grupo 1223183">
            <g id="Grupo_1211217" data-name="Grupo 1211217">
              <g id="Grupo_1210736" data-name="Grupo 1210736">
                <g id="Grupo_1210537" data-name="Grupo 1210537">
                  <g id="Grupo_1164202" data-name="Grupo 1164202">
                    <g id="Grupo_1158168" data-name="Grupo 1158168">
                      <g id="Grupo_1152576" data-name="Grupo 1152576">
                        <g id="Grupo_1148633" data-name="Grupo 1148633">
                          <g id="Grupo_1148525" data-name="Grupo 1148525">
                            <g transform="matrix(1, 0, 0, 1, -9, -6)" filter="url(#Trazado_982547)">
                              <g id="Trazado_982547-2" data-name="Trazado 982547" transform="translate(9 6)" fill="#fcf5f0">
                                <path d="M 47.49999618530273 93.5 C 41.28936767578125 93.5 35.26533126831055 92.28396606445312 29.59518241882324 89.88570404052734 C 24.11771583557129 87.56893157958984 19.19812965393066 84.251953125 14.97308921813965 80.02690124511719 C 10.74803638458252 75.80186462402344 7.431062698364258 70.88227844238281 5.114289283752441 65.40480804443359 C 2.716022968292236 59.73466110229492 1.499996185302734 53.71062469482422 1.499996185302734 47.49999618530273 C 1.499996185302734 41.28936767578125 2.716022968292236 35.26533126831055 5.114289283752441 29.59518241882324 C 7.431062698364258 24.11771583557129 10.74803638458252 19.19812965393066 14.97308921813965 14.97308921813965 C 19.19812965393066 10.74803638458252 24.11771583557129 7.431062698364258 29.59518241882324 5.114289283752441 C 35.26533126831055 2.716022968292236 41.28936767578125 1.499996185302734 47.49999618530273 1.499996185302734 C 53.71062469482422 1.499996185302734 59.73466110229492 2.716022968292236 65.40480804443359 5.114289283752441 C 70.88227844238281 7.431062698364258 75.80186462402344 10.74803638458252 80.02690124511719 14.97308921813965 C 84.251953125 19.19812965393066 87.56893157958984 24.11771583557129 89.88570404052734 29.59518241882324 C 92.28396606445312 35.26533126831055 93.5 41.28936767578125 93.5 47.49999618530273 C 93.5 53.71062469482422 92.28396606445312 59.73466110229492 89.88570404052734 65.40480804443359 C 87.56893157958984 70.88227844238281 84.251953125 75.80186462402344 80.02690124511719 80.02690124511719 C 75.80186462402344 84.251953125 70.88227844238281 87.56893157958984 65.40480804443359 89.88570404052734 C 59.73466110229492 92.28396606445312 53.71062469482422 93.5 47.49999618530273 93.5 Z" stroke="none"/>
                                <path d="M 47.49999618530273 2.999992370605469 C 41.4912109375 2.999992370605469 35.66376495361328 4.1761474609375 30.17950439453125 6.495796203613281 C 24.88084411621094 8.736953735351562 20.12152099609375 11.94598388671875 16.03375244140625 16.03375244140625 C 11.94598388671875 20.12152099609375 8.736953735351562 24.88084411621094 6.495796203613281 30.17950439453125 C 4.1761474609375 35.66376495361328 2.999992370605469 41.4912109375 2.999992370605469 47.49999618530273 C 2.999992370605469 53.50878143310547 4.1761474609375 59.33622741699219 6.495796203613281 64.82048797607422 C 8.736953735351562 70.11914825439453 11.94598388671875 74.87847137451172 16.03375244140625 78.96623992919922 C 20.12152099609375 83.05400848388672 24.88084411621094 86.26304626464844 30.17950439453125 88.50419616699219 C 35.66376495361328 90.82384490966797 41.4912109375 92 47.49999618530273 92 C 53.50878143310547 92 59.33622741699219 90.82384490966797 64.82048797607422 88.50419616699219 C 70.11914825439453 86.26304626464844 74.87847137451172 83.05400848388672 78.96623992919922 78.96623992919922 C 83.05400848388672 74.87847137451172 86.26304626464844 70.11914825439453 88.50419616699219 64.82048797607422 C 90.82384490966797 59.33622741699219 92 53.50878143310547 92 47.49999618530273 C 92 41.4912109375 90.82384490966797 35.66376495361328 88.50419616699219 30.17950439453125 C 86.26304626464844 24.88084411621094 83.05400848388672 20.12152099609375 78.96623992919922 16.03375244140625 C 74.87847137451172 11.94598388671875 70.11914825439453 8.736953735351562 64.82048797607422 6.495796203613281 C 59.33622741699219 4.1761474609375 53.50878143310547 2.999992370605469 47.49999618530273 2.999992370605469 M 47.49999618530273 -7.62939453125e-06 C 73.7335205078125 -7.62939453125e-06 95 21.26647186279297 95 47.49999618530273 C 95 73.7335205078125 73.7335205078125 95 47.49999618530273 95 C 21.26647186279297 95 -7.62939453125e-06 73.7335205078125 -7.62939453125e-06 47.49999618530273 C -7.62939453125e-06 21.26647186279297 21.26647186279297 -7.62939453125e-06 47.49999618530273 -7.62939453125e-06 Z" stroke="none" fill="#eca675"/>
                              </g>
                            </g>
                          </g>
                        </g>
                      </g>
                    </g>
                  </g>
                </g>
              </g>
            </g>
          </g>
        </g>
      </g>
    </g>
    <g id="legal" transform="translate(6265.977 11638.533)">
      <g id="Grupo_1230455" data-name="Grupo 1230455" transform="translate(24.541 26.901)">
        <path id="Trazado_1181544" data-name="Trazado 1181544" d="M164.768,33.9h24.544a2.93,2.93,0,0,1,2.851,2.99V86.112a2.928,2.928,0,0,1-2.851,2.986H153.581a2.927,2.927,0,0,1-2.851-2.986v-37.5l7.21-7.562Z" transform="translate(-135.801 -33.899)" fill="#fc9" fill-rule="evenodd"/>
        <path id="Trazado_1181545" data-name="Trazado 1181545" d="M161.917,48.607H150.73l6.823-7.154,7.214-7.562V45.617A2.93,2.93,0,0,1,161.917,48.607Z" transform="translate(-135.8 -33.89)" fill="#ccc" fill-rule="evenodd"/>
        <path id="Trazado_1181546" data-name="Trazado 1181546" d="M337.293,209.84a7.673,7.673,0,1,1-7.673,7.673A7.675,7.675,0,0,1,337.293,209.84Z" transform="translate(-292.285 -187.803)" fill="#9c6" fill-rule="evenodd"/>
        <path id="Trazado_1181547" data-name="Trazado 1181547" d="M39.84,246.67H72.08v3.77H39.84Z" transform="translate(-38.799 -220.02)" fill="#9e4521" fill-rule="evenodd"/>
        <path id="Trazado_1181548" data-name="Trazado 1181548" d="M141.38,235.612v15.81h-4.463v-15.81a4.205,4.205,0,1,1,4.463,0Z" transform="translate(-121.988 -203.548)" fill="#dd6e42" fill-rule="evenodd"/>
        <path id="Trazado_1181549" data-name="Trazado 1181549" d="M31.53,337.89h9.544v3.334a3.344,3.344,0,0,1-3.338,3.334H34.864a3.343,3.343,0,0,1-3.334-3.334Z" transform="translate(-31.53 -299.815)" fill="#9c6" fill-rule="evenodd"/>
        <path id="Trazado_1181550" data-name="Trazado 1181550" d="M229.36,337.89h9.54v3.334a3.341,3.341,0,0,1-3.334,3.334h-2.872a3.341,3.341,0,0,1-3.334-3.334Z" transform="translate(-204.582 -299.815)" fill="#9c6" fill-rule="evenodd"/>
        <path id="Trazado_1181551" data-name="Trazado 1181551" d="M127,416.12h10.4v3.664H127Z" transform="translate(-115.043 -368.247)" fill="#f93" fill-rule="evenodd"/>
        <path id="Trazado_1181552" data-name="Trazado 1181552" d="M102.31,445.37H118.9v3.661H102.31Z" transform="translate(-93.445 -393.833)" fill="#f93" fill-rule="evenodd"/>
      </g>
      <path id="Trazado_1181553" data-name="Trazado 1181553" d="M65.686,58.6a1,1,0,0,1,1-1.728l2.332,1.349,3.117-5.4a1,1,0,1,1,1.73.994l-3.615,6.266a1,1,0,0,1-1.366.366Zm-1.47,20.226a1,1,0,0,1,0-2.005h9.444a1,1,0,0,1,0,2.005Zm-2.506-4.562a1,1,0,1,1,0-2H76.167a1,1,0,1,1,0,2ZM63.815,69.7a1,1,0,0,1,0-2.005H74.061a1,1,0,0,1,0,2.005ZM34.408,81.1H48.993V79.439H34.408Zm7.913,2H33.406a1,1,0,0,1-1-1V78.439a1,1,0,0,1,1-1H35.5V74.779a1,1,0,0,1,1-1h1.966v-14.3a5.359,5.359,0,0,1-1.072-1.154H30.946l2.872,5.649h.267a1,1,0,0,1,1,1v3.334a4.347,4.347,0,0,1-4.339,4.339H27.875a4.346,4.346,0,0,1-4.335-4.339V64.975a1,1,0,0,1,1-1h.267l2.872-5.649h-2.1a1,1,0,0,1-1-1v-3.77a1,1,0,0,1,1-1H37.34a5.328,5.328,0,0,1,1.126-1.232v-9.7a1.017,1.017,0,0,1,.291-.706l.039-.035L52.784,26.213a.994.994,0,0,1,.724-.309v0H78.052A3.937,3.937,0,0,1,81.9,29.89V79.113a3.937,3.937,0,0,1-3.853,3.99ZM47.9,77.437H50a1,1,0,0,1,1,1V81.1H78.05a1.927,1.927,0,0,0,1.85-1.988V29.89a1.924,1.924,0,0,0-1.85-1.985H54.509V38.628a3.939,3.939,0,0,1-3.853,3.99H40.47v7.719a5.212,5.212,0,0,1,5.589,2.212H57.82a1,1,0,0,1,1,1v3.77a1,1,0,0,1-1,1h-2.1l2.872,5.649h.267a1,1,0,0,1,1,1v3.334a4.346,4.346,0,0,1-4.335,4.339H52.651a4.347,4.347,0,0,1-4.339-4.339V64.974a1,1,0,0,1,1-1h.263l2.876-5.649H46a5.283,5.283,0,0,1-1.072,1.15v14.3H46.9a1,1,0,0,1,1,1v2.662Zm-2-1.658H37.5v1.658h8.4Zm10.449-11.8-2.262-4.441-2.258,4.441Zm1.508,2H50.319v2.332a2.341,2.341,0,0,0,2.332,2.332h2.872a2.341,2.341,0,0,0,2.332-2.332V65.977Zm-26.286-2-2.258-4.441-2.258,4.441Zm1.508,2H25.543v2.332a2.343,2.343,0,0,0,2.332,2.332h2.872a2.341,2.341,0,0,0,2.332-2.332Zm3.494-9.657a5.35,5.35,0,0,1-.014-1.765H26.582V56.32Zm10.268-1.765a5.155,5.155,0,0,1-.014,1.765h9.991V54.556ZM42.928,73.777V58.964h.008a1,1,0,0,1,.468-.845A3.205,3.205,0,1,0,38.5,55.4a3.178,3.178,0,0,0,.395,1.548c.689,1.25,1.577,1.083,1.579,2.016V73.775h2.456ZM58.265,46.745a1,1,0,0,1,0-2h7.264a1,1,0,1,1,0,2Zm0-10.672a1,1,0,0,1,0-2.005h9.916a1,1,0,0,1,0,2.005Zm0,5.336a1,1,0,1,1,0-2h5.684a1,1,0,1,1,0,2Zm8.323,0a1,1,0,0,1,0-2h9.586a1,1,0,1,1,0,2Zm4.789-5.336a1,1,0,0,1,0-2.005h4.8a1,1,0,0,1,0,2.005ZM69.549,47.937a8.675,8.675,0,1,1-8.673,8.673A8.674,8.674,0,0,1,69.549,47.937ZM74.267,51.9a6.671,6.671,0,1,0,0,9.434,6.671,6.671,0,0,0,0-9.434Zm-32.46-11.28h8.851a1.929,1.929,0,0,0,1.85-1.988V29.4Z" transform="translate(0 0)"/>
    </g>
  </g>
</svg>
