<svg xmlns="http://www.w3.org/2000/svg" xmlns:xlink="http://www.w3.org/1999/xlink" width="113" height="113" viewBox="0 0 113 113">
  <defs>
    <filter id="Trazado_982547" x="0" y="0" width="113" height="113" filterUnits="userSpaceOnUse">
      <feOffset dy="3" input="SourceAlpha"/>
      <feGaussianBlur stdDeviation="3" result="blur"/>
      <feFlood flood-opacity="0.161"/>
      <feComposite operator="in" in2="blur"/>
      <feComposite in="SourceGraphic"/>
    </filter>
  </defs>
  <g id="Grupo_1230505" data-name="Grupo 1230505" transform="translate(-6264 -12041.75)">
    <g id="Grupo_1230304" data-name="Grupo 1230304" transform="translate(6273 12047.75)">
      <g id="Grupo_1224455" data-name="Grupo 1224455" transform="translate(0 0)">
        <g id="Grupo_1224084" data-name="Grupo 1224084">
          <g id="Grupo_1223183" data-name="Grupo 1223183">
            <g id="Grupo_1211217" data-name="Grupo 1211217">
              <g id="Grupo_1210736" data-name="Grupo 1210736">
                <g id="Grupo_1210537" data-name="Grupo 1210537">
                  <g id="Grupo_1164202" data-name="Grupo 1164202">
                    <g id="Grupo_1158168" data-name="Grupo 1158168">
                      <g id="Grupo_1152576" data-name="Grupo 1152576">
                        <g id="Grupo_1148633" data-name="Grupo 1148633">
                          <g id="Grupo_1148525" data-name="Grupo 1148525">
                            <g transform="matrix(1, 0, 0, 1, -9, -6)" filter="url(#Trazado_982547)">
                              <g id="Trazado_982547-2" data-name="Trazado 982547" transform="translate(9 6)" fill="#fcf5f0">
                                <path d="M 47.49999618530273 93.5 C 41.28936767578125 93.5 35.26533126831055 92.28396606445312 29.59518241882324 89.88570404052734 C 24.11771583557129 87.56893157958984 19.19812965393066 84.251953125 14.97308921813965 80.02690124511719 C 10.74803638458252 75.80186462402344 7.431062698364258 70.88227844238281 5.114289283752441 65.40480804443359 C 2.716022968292236 59.73466110229492 1.499996185302734 53.71062469482422 1.499996185302734 47.49999618530273 C 1.499996185302734 41.28936767578125 2.716022968292236 35.26533126831055 5.114289283752441 29.59518241882324 C 7.431062698364258 24.11771583557129 10.74803638458252 19.19812965393066 14.97308921813965 14.97308921813965 C 19.19812965393066 10.74803638458252 24.11771583557129 7.431062698364258 29.59518241882324 5.114289283752441 C 35.26533126831055 2.716022968292236 41.28936767578125 1.499996185302734 47.49999618530273 1.499996185302734 C 53.71062469482422 1.499996185302734 59.73466110229492 2.716022968292236 65.40480804443359 5.114289283752441 C 70.88227844238281 7.431062698364258 75.80186462402344 10.74803638458252 80.02690124511719 14.97308921813965 C 84.251953125 19.19812965393066 87.56893157958984 24.11771583557129 89.88570404052734 29.59518241882324 C 92.28396606445312 35.26533126831055 93.5 41.28936767578125 93.5 47.49999618530273 C 93.5 53.71062469482422 92.28396606445312 59.73466110229492 89.88570404052734 65.40480804443359 C 87.56893157958984 70.88227844238281 84.251953125 75.80186462402344 80.02690124511719 80.02690124511719 C 75.80186462402344 84.251953125 70.88227844238281 87.56893157958984 65.40480804443359 89.88570404052734 C 59.73466110229492 92.28396606445312 53.71062469482422 93.5 47.49999618530273 93.5 Z" stroke="none"/>
                                <path d="M 47.49999618530273 2.999992370605469 C 41.4912109375 2.999992370605469 35.66376495361328 4.1761474609375 30.17950439453125 6.495796203613281 C 24.88084411621094 8.736953735351562 20.12152099609375 11.94598388671875 16.03375244140625 16.03375244140625 C 11.94598388671875 20.12152099609375 8.736953735351562 24.88084411621094 6.495796203613281 30.17950439453125 C 4.1761474609375 35.66376495361328 2.999992370605469 41.4912109375 2.999992370605469 47.49999618530273 C 2.999992370605469 53.50878143310547 4.1761474609375 59.33622741699219 6.495796203613281 64.82048797607422 C 8.736953735351562 70.11914825439453 11.94598388671875 74.87847137451172 16.03375244140625 78.96623992919922 C 20.12152099609375 83.05400848388672 24.88084411621094 86.26304626464844 30.17950439453125 88.50419616699219 C 35.66376495361328 90.82384490966797 41.4912109375 92 47.49999618530273 92 C 53.50878143310547 92 59.33622741699219 90.82384490966797 64.82048797607422 88.50419616699219 C 70.11914825439453 86.26304626464844 74.87847137451172 83.05400848388672 78.96623992919922 78.96623992919922 C 83.05400848388672 74.87847137451172 86.26304626464844 70.11914825439453 88.50419616699219 64.82048797607422 C 90.82384490966797 59.33622741699219 92 53.50878143310547 92 47.49999618530273 C 92 41.4912109375 90.82384490966797 35.66376495361328 88.50419616699219 30.17950439453125 C 86.26304626464844 24.88084411621094 83.05400848388672 20.12152099609375 78.96623992919922 16.03375244140625 C 74.87847137451172 11.94598388671875 70.11914825439453 8.736953735351562 64.82048797607422 6.495796203613281 C 59.33622741699219 4.1761474609375 53.50878143310547 2.999992370605469 47.49999618530273 2.999992370605469 M 47.49999618530273 -7.62939453125e-06 C 73.7335205078125 -7.62939453125e-06 95 21.26647186279297 95 47.49999618530273 C 95 73.7335205078125 73.7335205078125 95 47.49999618530273 95 C 21.26647186279297 95 -7.62939453125e-06 73.7335205078125 -7.62939453125e-06 47.49999618530273 C -7.62939453125e-06 21.26647186279297 21.26647186279297 -7.62939453125e-06 47.49999618530273 -7.62939453125e-06 Z" stroke="none" fill="#eca675"/>
                              </g>
                            </g>
                          </g>
                        </g>
                      </g>
                    </g>
                  </g>
                </g>
              </g>
            </g>
          </g>
        </g>
      </g>
    </g>
    <g id="subasta" transform="translate(6292.491 12061.488)">
      <path id="Trazado_1181597" data-name="Trazado 1181597" d="M385.814,377.772a5.876,5.876,0,0,1,.2,5.968,5.975,5.975,0,0,1-9.479,1.4q-.173-.173-.329-.357l-5.066-5.82,7.651-7.651,5.814,5.072A6.314,6.314,0,0,1,385.814,377.772Z" transform="translate(-326.906 -327.056)" fill="#91552c"/>
      <path id="Trazado_1181598" data-name="Trazado 1181598" d="M355.6,348.1l-7.651,7.651-3.138-3.606.021-.019,7.162-7.162,0,0Z" transform="translate(-303.714 -303.847)" fill="#57555c"/>
      <path id="Trazado_1181599" data-name="Trazado 1181599" d="M195.915,21.16a3.575,3.575,0,0,1-5.055,5.056L180.747,16.1a3.575,3.575,0,1,1,5.056-5.055Z" transform="translate(-158.284 -8.808)" fill="#91552c"/>
      <path id="Trazado_1181600" data-name="Trazado 1181600" d="M81.1,65.938l-4.191,4.191-.023.021-6.742,6.742-.021.023-4.191,4.191-.843-.843L54.98,70.151l-.843-.843L69.305,54.14l.843.843L80.261,65.1Z" transform="translate(-47.685 -47.687)" fill="#feb756"/>
      <g id="Grupo_1230504" data-name="Grupo 1230504" transform="translate(1.192 21.417)">
        <path id="Trazado_1181601" data-name="Trazado 1181601" d="M192.592,187.539l.843-.843a2.384,2.384,0,0,0-3.349-3.393l-6.786,6.786a2.384,2.384,0,0,0,3.393,3.349l.843-.843,14.416,16.563.021-.019,7.162-7.162,0,0Z" transform="translate(-162.05 -182.279)" fill="#91552c"/>
        <path id="Trazado_1181602" data-name="Trazado 1181602" d="M40.985,456.751v1.192H10v-1.192a4.767,4.767,0,0,1,4.767-4.767H36.218A4.767,4.767,0,0,1,40.985,456.751Z" transform="translate(-10 -419.535)" fill="#91552c"/>
        <path id="Trazado_1181603" data-name="Trazado 1181603" d="M53.238,401.987a2.979,2.979,0,1,1,0,5.959H32.978a2.979,2.979,0,1,1,0-5.959Z" transform="translate(-27.616 -375.496)" fill="#91552c"/>
        <path id="Trazado_1181604" data-name="Trazado 1181604" d="M26.216,190.864a3.575,3.575,0,0,1-5.056,5.055L11.048,185.808a3.575,3.575,0,0,1,5.055-5.056Z" transform="translate(-10 -179.705)" fill="#91552c"/>
      </g>
      <path id="Trazado_1181605" data-name="Trazado 1181605" d="M101.053,171.769a1.191,1.191,0,1,0,1.685,0A1.19,1.19,0,0,0,101.053,171.769Z" transform="translate(-88.702 -150.99)"/>
      <path id="Trazado_1181606" data-name="Trazado 1181606" d="M30.175,398.629a4.172,4.172,0,0,0-3.362-6.642H6.554a4.168,4.168,0,0,0-3.359,6.64A5.963,5.963,0,0,0,0,403.9V405.1a1.192,1.192,0,0,0,1.192,1.192H32.176a1.192,1.192,0,0,0,1.192-1.192V403.9A5.963,5.963,0,0,0,30.175,398.629ZM5.29,394.894a1.776,1.776,0,0,1,1.264-.523H26.814a1.788,1.788,0,1,1,0,3.575H6.554a1.788,1.788,0,0,1-1.264-3.052ZM2.383,403.9a3.579,3.579,0,0,1,3.575-3.575H27.41a3.579,3.579,0,0,1,3.575,3.575Z" transform="translate(0 -345.271)"/>
      <path id="Trazado_1181607" data-name="Trazado 1181607" d="M59.928,50.07a7.5,7.5,0,0,0-1.435-1.649l-5.569-4.857a1.183,1.183,0,0,0-.474-.413l-3.368-2.937-15.587-13.6a3.569,3.569,0,0,0-1.047-5.692l1.442-1.442a4.77,4.77,0,0,0,4.6-1.232,4.766,4.766,0,0,0,0-6.742L28.38,1.4A4.765,4.765,0,0,0,20.407,6L6.019,20.387a4.8,4.8,0,0,0-1.234-.161,4.766,4.766,0,0,0-3.37,8.137L11.527,38.475a4.765,4.765,0,0,0,7.974-4.6l1.439-1.439a3.576,3.576,0,0,0,5.694,1.045l16.6,19.075a1.2,1.2,0,0,0,.162.2c.021.021.044.041.066.06L48.411,58.5c.123.145.254.288.391.424a7.088,7.088,0,0,0,5.038,2.1,7.315,7.315,0,0,0,1-.069,7.212,7.212,0,0,0,5.321-3.684A7.052,7.052,0,0,0,59.928,50.07ZM42.741,48.354l5.613-5.613,1.8,1.571L44.31,50.157ZM28.324,31.791l3.483-3.483L46.554,41.171l-5.381,5.381Zm-5-28.708a2.383,2.383,0,0,1,3.371,0L36.807,13.195a2.383,2.383,0,0,1-3.37,3.371L23.325,6.454h0A2.385,2.385,0,0,1,23.324,3.083ZM16.583,36.789a2.387,2.387,0,0,1-3.371,0L3.1,26.678A2.383,2.383,0,0,1,6.47,23.306L16.583,33.42A2.385,2.385,0,0,1,16.583,36.789ZM8.156,21.621,21.639,8.138,31.751,18.251,28.413,21.59l-.033.032-6.738,6.738L21.6,28.4l-3.332,3.332ZM24.167,32.083a1.191,1.191,0,0,1-.857-2.02l6.769-6.769a1.192,1.192,0,0,1,2.022.856,1.181,1.181,0,0,1-.349.842l-.834.834-.017.017-5.044,5.044-.007.007-.839.839A1.184,1.184,0,0,1,24.167,32.083ZM58.083,56.1a4.848,4.848,0,0,1-3.568,2.487,4.735,4.735,0,0,1-4.029-1.351c-.092-.092-.179-.187-.261-.284l-.012-.013-4.336-4.982,6.077-6.077,4.976,4.34.011.01a5.13,5.13,0,0,1,.983,1.131A4.705,4.705,0,0,1,58.083,56.1Z" transform="translate(-0.018 0)"/>
      <path id="Trazado_1181608" data-name="Trazado 1181608" d="M136.076,101.056a1.192,1.192,0,0,0-1.685,0l-5.056,5.056a1.192,1.192,0,0,0,1.685,1.685l5.056-5.056A1.192,1.192,0,0,0,136.076,101.056Z" transform="translate(-113.613 -88.704)"/>
    </g>
  </g>
</svg>
