<svg xmlns="http://www.w3.org/2000/svg" xmlns:xlink="http://www.w3.org/1999/xlink" width="113" height="113" viewBox="0 0 113 113">
  <defs>
    <filter id="Trazado_982547" x="0" y="0" width="113" height="113" filterUnits="userSpaceOnUse">
      <feOffset dy="3" input="SourceAlpha"/>
      <feGaussianBlur stdDeviation="3" result="blur"/>
      <feFlood flood-opacity="0.161"/>
      <feComposite operator="in" in2="blur"/>
      <feComposite in="SourceGraphic"/>
    </filter>
  </defs>
  <g id="Grupo_1230532" data-name="Grupo 1230532" transform="translate(-5921 -12433.75)">
    <g id="Grupo_1230305" data-name="Grupo 1230305" transform="translate(5930 12439.75)">
      <g id="Grupo_1224455" data-name="Grupo 1224455" transform="translate(0 0)">
        <g id="Grupo_1224084" data-name="Grupo 1224084">
          <g id="Grupo_1223183" data-name="Grupo 1223183">
            <g id="Grupo_1211217" data-name="Grupo 1211217">
              <g id="Grupo_1210736" data-name="Grupo 1210736">
                <g id="Grupo_1210537" data-name="Grupo 1210537">
                  <g id="Grupo_1164202" data-name="Grupo 1164202">
                    <g id="Grupo_1158168" data-name="Grupo 1158168">
                      <g id="Grupo_1152576" data-name="Grupo 1152576">
                        <g id="Grupo_1148633" data-name="Grupo 1148633">
                          <g id="Grupo_1148525" data-name="Grupo 1148525">
                            <g transform="matrix(1, 0, 0, 1, -9, -6)" filter="url(#Trazado_982547)">
                              <g id="Trazado_982547-2" data-name="Trazado 982547" transform="translate(9 6)" fill="#fcf5f0">
                                <path d="M 47.49999618530273 93.5 C 41.28936767578125 93.5 35.26533126831055 92.28396606445312 29.59518241882324 89.88570404052734 C 24.11771583557129 87.56893157958984 19.19812965393066 84.251953125 14.97308921813965 80.02690124511719 C 10.74803638458252 75.80186462402344 7.431062698364258 70.88227844238281 5.114289283752441 65.40480804443359 C 2.716022968292236 59.73466110229492 1.499996185302734 53.71062469482422 1.499996185302734 47.49999618530273 C 1.499996185302734 41.28936767578125 2.716022968292236 35.26533126831055 5.114289283752441 29.59518241882324 C 7.431062698364258 24.11771583557129 10.74803638458252 19.19812965393066 14.97308921813965 14.97308921813965 C 19.19812965393066 10.74803638458252 24.11771583557129 7.431062698364258 29.59518241882324 5.114289283752441 C 35.26533126831055 2.716022968292236 41.28936767578125 1.499996185302734 47.49999618530273 1.499996185302734 C 53.71062469482422 1.499996185302734 59.73466110229492 2.716022968292236 65.40480804443359 5.114289283752441 C 70.88227844238281 7.431062698364258 75.80186462402344 10.74803638458252 80.02690124511719 14.97308921813965 C 84.251953125 19.19812965393066 87.56893157958984 24.11771583557129 89.88570404052734 29.59518241882324 C 92.28396606445312 35.26533126831055 93.5 41.28936767578125 93.5 47.49999618530273 C 93.5 53.71062469482422 92.28396606445312 59.73466110229492 89.88570404052734 65.40480804443359 C 87.56893157958984 70.88227844238281 84.251953125 75.80186462402344 80.02690124511719 80.02690124511719 C 75.80186462402344 84.251953125 70.88227844238281 87.56893157958984 65.40480804443359 89.88570404052734 C 59.73466110229492 92.28396606445312 53.71062469482422 93.5 47.49999618530273 93.5 Z" stroke="none"/>
                                <path d="M 47.49999618530273 2.999992370605469 C 41.4912109375 2.999992370605469 35.66376495361328 4.1761474609375 30.17950439453125 6.495796203613281 C 24.88084411621094 8.736953735351562 20.12152099609375 11.94598388671875 16.03375244140625 16.03375244140625 C 11.94598388671875 20.12152099609375 8.736953735351562 24.88084411621094 6.495796203613281 30.17950439453125 C 4.1761474609375 35.66376495361328 2.999992370605469 41.4912109375 2.999992370605469 47.49999618530273 C 2.999992370605469 53.50878143310547 4.1761474609375 59.33622741699219 6.495796203613281 64.82048797607422 C 8.736953735351562 70.11914825439453 11.94598388671875 74.87847137451172 16.03375244140625 78.96623992919922 C 20.12152099609375 83.05400848388672 24.88084411621094 86.26304626464844 30.17950439453125 88.50419616699219 C 35.66376495361328 90.82384490966797 41.4912109375 92 47.49999618530273 92 C 53.50878143310547 92 59.33622741699219 90.82384490966797 64.82048797607422 88.50419616699219 C 70.11914825439453 86.26304626464844 74.87847137451172 83.05400848388672 78.96623992919922 78.96623992919922 C 83.05400848388672 74.87847137451172 86.26304626464844 70.11914825439453 88.50419616699219 64.82048797607422 C 90.82384490966797 59.33622741699219 92 53.50878143310547 92 47.49999618530273 C 92 41.4912109375 90.82384490966797 35.66376495361328 88.50419616699219 30.17950439453125 C 86.26304626464844 24.88084411621094 83.05400848388672 20.12152099609375 78.96623992919922 16.03375244140625 C 74.87847137451172 11.94598388671875 70.11914825439453 8.736953735351562 64.82048797607422 6.495796203613281 C 59.33622741699219 4.1761474609375 53.50878143310547 2.999992370605469 47.49999618530273 2.999992370605469 M 47.49999618530273 -7.62939453125e-06 C 73.7335205078125 -7.62939453125e-06 95 21.26647186279297 95 47.49999618530273 C 95 73.7335205078125 73.7335205078125 95 47.49999618530273 95 C 21.26647186279297 95 -7.62939453125e-06 73.7335205078125 -7.62939453125e-06 47.49999618530273 C -7.62939453125e-06 21.26647186279297 21.26647186279297 -7.62939453125e-06 47.49999618530273 -7.62939453125e-06 Z" stroke="none" fill="#eca675"/>
                              </g>
                            </g>
                          </g>
                        </g>
                      </g>
                    </g>
                  </g>
                </g>
              </g>
            </g>
          </g>
        </g>
      </g>
    </g>
    <g id="veredicto" transform="translate(5945.155 12454.155)">
      <g id="Grupo_1230530" data-name="Grupo 1230530" transform="translate(1.963 1.963)">
        <g id="Grupo_1230506" data-name="Grupo 1230506" transform="translate(0 42.36)">
          <path id="Trazado_1181609" data-name="Trazado 1181609" d="M58.8,46H2.963A.966.966,0,0,0,2,46.963V60.441a.966.966,0,0,0,.963.963H58.8a.966.966,0,0,0,.963-.963V46.963A.966.966,0,0,0,58.8,46Z" transform="translate(-2 -46)" fill="#cf9e76"/>
        </g>
        <g id="Grupo_1230507" data-name="Grupo 1230507" transform="translate(11.553 0)">
          <path id="Trazado_1181610" data-name="Trazado 1181610" d="M23.974,25.366l-1.309,2.628-2.715.414-.173.029a11.581,11.581,0,0,0-3.851,1.386c-.231.125-.443.27-.655.4a4.652,4.652,0,0,1,.087-6.479l.568-.568-.568-.568A4.649,4.649,0,0,1,14,19.329v-.52a4.667,4.667,0,0,1,.78-2.58l.5-.741a3.844,3.844,0,0,0,.645-2.137V9.7a7.7,7.7,0,0,1,7.7-7.7h7.7a7.7,7.7,0,0,1,7.7,7.7v3.649a3.844,3.844,0,0,0,.645,2.137l.5.741a4.667,4.667,0,0,1,.78,2.58v.52A4.649,4.649,0,0,1,39.6,22.612l-.568.568.568.568a4.652,4.652,0,0,1,.087,6.479c-.212-.144-.433-.279-.655-.4a11.448,11.448,0,0,0-3.851-1.386l-.173-.029-2.715-.414-1.309-2.628a11.711,11.711,0,0,0,4.2-8.982v-4.92A6.386,6.386,0,0,0,34.93,9.7h-11.3l-.934.231a3.86,3.86,0,0,0-2.917,3.735v2.715a11.663,11.663,0,0,0,1.579,5.873Z" transform="translate(-14 -2)" fill="#fcd770"/>
        </g>
        <g id="Grupo_1230508" data-name="Grupo 1230508" transform="translate(13.478 26.437)">
          <path id="Trazado_1181611" data-name="Trazado 1181611" d="M19.851,29.98V45.047A5.758,5.758,0,0,1,16,39.607V30.846a11.581,11.581,0,0,1,3.851-1.386Z" transform="translate(-16 -29.46)" fill="#aab2bd"/>
        </g>
        <g id="Grupo_1230509" data-name="Grupo 1230509" transform="translate(32.733 26.437)">
          <path id="Trazado_1181612" data-name="Trazado 1181612" d="M36,29.46a11.448,11.448,0,0,1,3.851,1.386V45.384H36V29.46Z" transform="translate(-36 -29.46)" fill="#aab2bd"/>
        </g>
        <g id="Grupo_1230510" data-name="Grupo 1230510" transform="translate(7.702 36.584)">
          <path id="Trazado_1181613" data-name="Trazado 1181613" d="M21.553,51.553v.963a.966.966,0,0,1-.963.963h-.963A9.617,9.617,0,0,1,10,43.851v-2.6A10.787,10.787,0,0,1,10.067,40h5.709a5.758,5.758,0,0,0,3.851,5.439v.01a5.818,5.818,0,0,0,1.925.327Z" transform="translate(-10 -40)" fill="#969faa"/>
        </g>
        <g id="Grupo_1230511" data-name="Grupo 1230511" transform="translate(8.896 27.823)">
          <path id="Trazado_1181614" data-name="Trazado 1181614" d="M15.823,30.9v4.91H11.24A11.524,11.524,0,0,1,15.168,31.3C15.38,31.17,15.592,31.025,15.823,30.9Z" transform="translate(-11.24 -30.9)" fill="#969faa"/>
        </g>
        <g id="Grupo_1230512" data-name="Grupo 1230512" transform="translate(7.769 32.733)">
          <path id="Trazado_1181615" data-name="Trazado 1181615" d="M15.779,36v3.851H10.07A11.34,11.34,0,0,1,11.187,36h4.592Z" transform="translate(-10.07 -36)" fill="#969faa"/>
        </g>
        <g id="Grupo_1230513" data-name="Grupo 1230513" transform="translate(36.584 24.068)">
          <path id="Trazado_1181616" data-name="Trazado 1181616" d="M45.7,39.439,51.553,27v6.739a1.939,1.939,0,0,0,1.925,1.925l-1.954,9.117c-.039.173-.087.347-.135.51a5.511,5.511,0,0,1-9.156,2.234L40,45.292V39.516h5.661Z" transform="translate(-40 -27)" fill="#969faa"/>
        </g>
        <g id="Grupo_1230514" data-name="Grupo 1230514" transform="translate(36.584 32.733)">
          <path id="Trazado_1181617" data-name="Trazado 1181617" d="M45.7,39.774l-.039.077H40V36h4.592A11.41,11.41,0,0,1,45.7,39.774Z" transform="translate(-40 -36)" fill="#969faa"/>
        </g>
        <g id="Grupo_1230515" data-name="Grupo 1230515" transform="translate(36.584 27.823)">
          <path id="Trazado_1181618" data-name="Trazado 1181618" d="M44.592,35.81H40V30.9c.221.125.443.26.655.4A11.625,11.625,0,0,1,44.592,35.81Z" transform="translate(-40 -30.9)" fill="#969faa"/>
        </g>
        <g id="Grupo_1230516" data-name="Grupo 1230516" transform="translate(17.329 26.957)">
          <path id="Trazado_1181619" data-name="Trazado 1181619" d="M23.851,35.776l1.733-1.733,1.155,1.733-1.925,5.776a.966.966,0,0,0-.963.963V45.4H21.925A5.818,5.818,0,0,1,20,45.076V30Z" transform="translate(-20 -30)" fill="#e6e9ed"/>
        </g>
        <g id="Grupo_1230517" data-name="Grupo 1230517" transform="translate(25.994 26.957)">
          <path id="Trazado_1181620" data-name="Trazado 1181620" d="M35.739,30V45.4H33.814V42.516a.966.966,0,0,0-.963-.963H30.925L29,35.776l1.155-1.733,1.733,1.733Z" transform="translate(-29 -30)" fill="#e6e9ed"/>
        </g>
        <g id="Grupo_1230518" data-name="Grupo 1230518" transform="translate(17.329 25.994)">
          <path id="Trazado_1181621" data-name="Trazado 1181621" d="M27.7,31.888l-2.118,2.118-1.733,1.733L20,29.963v-.52l.173-.029L22.888,29Z" transform="translate(-20 -29)" fill="#ccd1d9"/>
        </g>
        <g id="Grupo_1230519" data-name="Grupo 1230519" transform="translate(25.031 25.994)">
          <path id="Trazado_1181622" data-name="Trazado 1181622" d="M35.7,29.443v.52l-3.851,5.776-1.733-1.733L28,31.888,32.814,29l2.715.414.173.029Z" transform="translate(-28 -29)" fill="#ccd1d9"/>
        </g>
        <g id="Grupo_1230520" data-name="Grupo 1230520" transform="translate(22.143 32.733)">
          <path id="Trazado_1181623" data-name="Trazado 1181623" d="M28.851,36l1.925,5.776H25L26.925,36Z" transform="translate(-25 -36)" fill="#ff826e"/>
        </g>
        <g id="Grupo_1230521" data-name="Grupo 1230521" transform="translate(22.913 28.882)">
          <path id="Trazado_1181624" data-name="Trazado 1181624" d="M30.036,34.118l-1.155,1.733H26.955L25.8,34.118,27.918,32Z" transform="translate(-25.8 -32)" fill="#fc6e51"/>
        </g>
        <g id="Grupo_1230522" data-name="Grupo 1230522" transform="translate(34.658 50.062)">
          <path id="Trazado_1181625" data-name="Trazado 1181625" d="M51.478,54.963v1.925a.966.966,0,0,1-.963.963H38.963A.966.966,0,0,1,38,56.888V54.963A.966.966,0,0,1,38.963,54H50.516A.966.966,0,0,1,51.478,54.963Z" transform="translate(-38 -54)" fill="#b27946"/>
        </g>
        <g id="Grupo_1230523" data-name="Grupo 1230523" transform="translate(21.18 38.509)">
          <path id="Trazado_1181626" data-name="Trazado 1181626" d="M33.627,45.851v8.665a.966.966,0,0,1-.963.963h-7.7A.966.966,0,0,1,24,54.516V51.627h.963a2.888,2.888,0,0,0,0-5.776H24V42.963A.966.966,0,0,1,24.963,42h7.7a.966.966,0,0,1,.963.963Z" transform="translate(-24 -42)" fill="#ffeaa7"/>
        </g>
        <g id="Grupo_1230524" data-name="Grupo 1230524" transform="translate(48.137 15.404)">
          <path id="Trazado_1181627" data-name="Trazado 1181627" d="M55.851,33.4a1.931,1.931,0,0,1-1.925,1.925A1.939,1.939,0,0,1,52,33.4V18h3.851V33.4Z" transform="translate(-52 -18)" fill="#b27946"/>
        </g>
        <g id="Grupo_1230525" data-name="Grupo 1230525" transform="translate(42.36 7.702)">
          <path id="Trazado_1181628" data-name="Trazado 1181628" d="M61.4,11.925v3.851A1.931,1.931,0,0,1,59.478,17.7H47.925A1.931,1.931,0,0,1,46,15.776V11.925A1.931,1.931,0,0,1,47.925,10H59.478A1.931,1.931,0,0,1,61.4,11.925Z" transform="translate(-46 -10)" fill="#cf9e76"/>
        </g>
        <g id="Grupo_1230526" data-name="Grupo 1230526" transform="translate(51.988 21.18)">
          <path id="Trazado_1181629" data-name="Trazado 1181629" d="M59.851,25.925v3.851A1.931,1.931,0,0,1,57.925,31.7,1.939,1.939,0,0,1,56,29.776V25.925A1.931,1.931,0,0,1,57.925,24a1.939,1.939,0,0,1,1.925,1.925Z" transform="translate(-56 -24)" fill="#f0d0b4"/>
        </g>
        <g id="Grupo_1230527" data-name="Grupo 1230527" transform="translate(19.255 42.36)">
          <path id="Trazado_1181630" data-name="Trazado 1181630" d="M24.888,46a2.888,2.888,0,0,1,0,5.776H22V46h2.888Z" transform="translate(-22 -46)" fill="#f0d0b4"/>
        </g>
        <g id="Grupo_1230528" data-name="Grupo 1230528" transform="translate(20.217 23.366)">
          <path id="Trazado_1181631" data-name="Trazado 1181631" d="M32.627,28.9l-4.814,2.888L23,28.9l1.309-2.628a11.691,11.691,0,0,0,1.7,1.184,3.607,3.607,0,0,0,3.6,0,11.692,11.692,0,0,0,1.7-1.184Z" transform="translate(-23 -26.27)" fill="#f0d0b4"/>
        </g>
        <g id="Grupo_1230529" data-name="Grupo 1230529" transform="translate(17.329 7.702)">
          <path id="Trazado_1181632" data-name="Trazado 1181632" d="M35.4,16.681a11.7,11.7,0,0,1-5.9,10.166,3.607,3.607,0,0,1-3.6,0,11.692,11.692,0,0,1-1.7-1.184l-2.619-3.11A11.663,11.663,0,0,1,20,16.681V13.966a3.86,3.86,0,0,1,2.917-3.735L23.851,10h11.3a6.386,6.386,0,0,1,.25,1.762v4.92Z" transform="translate(-20 -10)" fill="#f0d0b4"/>
        </g>
      </g>
      <g id="Grupo_1230531" data-name="Grupo 1230531" transform="translate(1 1)">
        <path id="Trazado_1181634" data-name="Trazado 1181634" d="M26.936,12.75h1.925V11.623a7.488,7.488,0,0,0-2.208-5.33L25.293,7.654a5.574,5.574,0,0,1,1.643,3.968Z" transform="translate(-1.905 -1.197)"/>
        <path id="Trazado_1181635" data-name="Trazado 1181635" d="M30.936,12.75h1.925V11.623a7.488,7.488,0,0,0-2.208-5.33L29.293,7.654a5.574,5.574,0,0,1,1.643,3.968Z" transform="translate(-2.054 -1.197)"/>
        <path id="Trazado_1181636" data-name="Trazado 1181636" d="M57.8,18.329a2.892,2.892,0,0,0,2.888-2.888V11.59A2.892,2.892,0,0,0,57.8,8.7H46.248A2.892,2.892,0,0,0,43.36,11.59v3.851a2.892,2.892,0,0,0,2.888,2.888h2.888v7.487l-4.591,9.756a12.538,12.538,0,0,0-3.991-5.56,5.615,5.615,0,0,0-.65-6.87,5.573,5.573,0,0,0,1.53-3.851v-.518a5.589,5.589,0,0,0-.943-3.113l-.5-.747a2.878,2.878,0,0,1-.485-1.6V9.665A8.675,8.675,0,0,0,30.845,1h-7.7a8.675,8.675,0,0,0-8.665,8.665v3.648a2.878,2.878,0,0,1-.485,1.6l-.5.747a5.586,5.586,0,0,0-.943,3.113v.518a5.573,5.573,0,0,0,1.53,3.851,5.607,5.607,0,0,0-.662,6.845A12.449,12.449,0,0,0,8.7,39.793v2.6c0,.325.02.645.049.963H2.925A1.927,1.927,0,0,0,1,45.286V58.764a1.927,1.927,0,0,0,1.925,1.925H58.764a1.927,1.927,0,0,0,1.925-1.925V45.286a1.927,1.927,0,0,0-1.925-1.925H51.153l1.678-7.831a2.883,2.883,0,0,0,2.082-2.759V31.63a2.856,2.856,0,0,0,.963.177,2.892,2.892,0,0,0,2.888-2.888V25.068a2.892,2.892,0,0,0-2.888-2.888,2.856,2.856,0,0,0-.963.177V18.329ZM45.286,15.441V11.59a.964.964,0,0,1,.963-.963H57.8a.964.964,0,0,1,.963.963v3.851a.964.964,0,0,1-.963.963H46.248A.964.964,0,0,1,45.286,15.441Zm5.6,19.981-1.756,8.193a4.571,4.571,0,0,1-4.447,3.6,4.52,4.52,0,0,1-3.216-1.332l-1.955-1.954V39.509h3.184l-1.166,2.478,1.743.82,5.867-12.47V32.77a2.891,2.891,0,0,0,1.747,2.651ZM10.627,39.793c0-.1.011-.189.013-.284h3.915a6.743,6.743,0,0,0,5.7,5.7v5.853h-.963A8.675,8.675,0,0,1,10.627,42.4ZM21.983,28.961l3.458,2.075-2.149,2.149-2.675-4.014Zm2.735-1.609a4.586,4.586,0,0,0,4.552,0c.3-.173.594-.362.88-.557l.4.8-3.553,2.131L23.44,27.59l.4-.8C24.123,26.99,24.415,27.179,24.718,27.352Zm8.653,1.819L30.7,33.184l-2.149-2.149L32,28.961ZM21.217,43.36a4.809,4.809,0,0,1-.963-.1V32.1l2.739,4.108,1.733-1.733.243.364L23.362,39.66a1.927,1.927,0,0,0-1.182,1.775V43.36Zm5.508-7.7h.537l1.283,3.851h-3.1Zm.716-1.925h-.9l-.431-.647.879-.88.879.879Zm-9.112,8.64A4.794,4.794,0,0,1,16.4,38.547V30.36a10.535,10.535,0,0,1,1.925-.748Zm-3.851-8.64h-1.96a10.506,10.506,0,0,1,1.96-2.131Zm0,1.925v1.925H10.864a10.575,10.575,0,0,1,.6-1.925Zm7.7,9.627h1.925a1.925,1.925,0,1,1,0,3.851H22.18Zm1.925,5.776a3.851,3.851,0,0,0,0-7.7V41.435h7.7V52.988h-7.7Zm6.471-11.553-1.557-4.671.243-.364,1.733,1.733L33.733,32.1v9.336a1.927,1.927,0,0,0-1.925-1.925Zm5.082-9.895a10.547,10.547,0,0,1,1.925.753V43.36H35.658Zm3.851,6.044h3a10.459,10.459,0,0,1,.613,1.925H39.509Zm0-1.925V31.641a10.67,10.67,0,0,1,1.94,2.092ZM14.478,26.994a3.662,3.662,0,0,1,1.079-2.606L16.8,23.143,15.557,21.9a3.662,3.662,0,0,1-1.079-2.606v-.518a3.673,3.673,0,0,1,.619-2.045l.5-.747a4.805,4.805,0,0,0,.809-2.67V9.665a6.747,6.747,0,0,1,6.739-6.739h7.7a6.747,6.747,0,0,1,6.739,6.739v3.648a4.8,4.8,0,0,0,.809,2.67l.5.747a3.673,3.673,0,0,1,.619,2.045v.518A3.662,3.662,0,0,1,38.43,21.9l-1.245,1.245,1.245,1.245a3.675,3.675,0,0,1,.526,4.541,12.46,12.46,0,0,0-4.283-1.506l-2.227-.343-.764-1.528a12.7,12.7,0,0,0,3.976-9.21V11.424a7.488,7.488,0,0,0-2.208-5.33L32.089,7.456a5.574,5.574,0,0,1,1.644,3.969v4.919a10.775,10.775,0,0,1-5.418,9.337,2.705,2.705,0,0,1-2.642,0,10.775,10.775,0,0,1-5.418-9.337v-2.71a2.884,2.884,0,0,1,2.187-2.8l.934-.234-.467-1.868-.934.234a4.806,4.806,0,0,0-3.646,4.669v2.71a12.705,12.705,0,0,0,3.976,9.21l-.764,1.528-2.227.343a12.615,12.615,0,0,0-4.295,1.483,3.673,3.673,0,0,1-.541-1.913Zm44.286,31.77H2.925V45.286H9.112a10.6,10.6,0,0,0,10.18,7.7h.963a1.927,1.927,0,0,0,1.925-1.925v1.925a1.927,1.927,0,0,0,1.925,1.925h7.7a1.927,1.927,0,0,0,1.925-1.925v-7.7h4.415L40.1,47.24a6.433,6.433,0,0,0,4.578,1.9,6.5,6.5,0,0,0,5.9-3.851h8.183ZM55.876,24.106a.964.964,0,0,1,.963.963v3.851a.963.963,0,1,1-1.925,0V25.068A.964.964,0,0,1,55.876,24.106ZM52.988,32.77a.963.963,0,0,1-1.925,0V18.329h1.925Z" transform="translate(-1 -1)"/>
        <path id="Trazado_1181637" data-name="Trazado 1181637" d="M50.478,53H38.925A1.927,1.927,0,0,0,37,54.925v1.925a1.927,1.927,0,0,0,1.925,1.925H50.478A1.927,1.927,0,0,0,52.4,56.851V54.925A1.927,1.927,0,0,0,50.478,53ZM38.925,56.851V54.925H50.478v1.925Z" transform="translate(-2.342 -2.938)"/>
      </g>
    </g>
  </g>
</svg>
