<svg xmlns="http://www.w3.org/2000/svg" xmlns:xlink="http://www.w3.org/1999/xlink" width="108" height="108" viewBox="0 0 108 108">
  <defs>
    <filter id="Trazado_904820" x="0" y="0" width="108" height="108" filterUnits="userSpaceOnUse">
      <feOffset dy="3" input="SourceAlpha"/>
      <feGaussianBlur stdDeviation="3" result="blur"/>
      <feFlood flood-opacity="0.161"/>
      <feComposite operator="in" in2="blur"/>
      <feComposite in="SourceGraphic"/>
    </filter>
  </defs>
  <g id="Grupo_1230370" data-name="Grupo 1230370" transform="translate(-200 -2626.445)">
    <g id="Grupo_1224606" data-name="Grupo 1224606" transform="translate(209 2632.445)">
      <g id="Grupo_1173585" data-name="Grupo 1173585" transform="translate(0 0)">
        <g id="Grupo_1173428" data-name="Grupo 1173428">
          <g id="Grupo_1171958" data-name="Grupo 1171958">
            <g id="Grupo_1167341" data-name="Grupo 1167341">
              <g id="Grupo_1166792" data-name="Grupo 1166792">
                <g transform="matrix(1, 0, 0, 1, -9, -6)" filter="url(#Trazado_904820)">
                  <g id="Trazado_904820-2" data-name="Trazado 904820" transform="translate(9 6)" fill="#e7f2f8">
                    <path d="M 44.99999618530273 88.50003051757812 C 39.12687301635742 88.50003051757812 33.43022155761719 87.35010528564453 28.06829643249512 85.08219146728516 C 22.88852119445801 82.89134216308594 18.23629570007324 79.75461578369141 14.24084663391113 75.75916290283203 C 10.24540901184082 71.76371765136719 7.108683586120605 67.11148834228516 4.917821407318115 61.93171691894531 C 2.649921178817749 56.56978988647461 1.499996185302734 50.87313842773438 1.499996185302734 45.00001525878906 C 1.499996185302734 39.12689208984375 2.649921178817749 33.43024063110352 4.917821407318115 28.06830215454102 C 7.108683586120605 22.88854026794434 10.24540901184082 18.23631477355957 14.24084663391113 14.24086570739746 C 18.23629570007324 10.24541568756104 22.88852119445801 7.108702659606934 28.06829643249512 4.917840480804443 C 33.43022155761719 2.649940252304077 39.12687301635742 1.500015258789062 44.99999618530273 1.500015258789062 C 50.87311935424805 1.500015258789062 56.56977081298828 2.649940252304077 61.93169784545898 4.917840480804443 C 67.11147308349609 7.108702659606934 71.76369476318359 10.24541568756104 75.75914764404297 14.24086570739746 C 79.75458526611328 18.23631477355957 82.89131164550781 22.88854026794434 85.08216857910156 28.06830215454102 C 87.35007476806641 33.43024063110352 88.5 39.12689208984375 88.5 45.00001525878906 C 88.5 50.87313842773438 87.35007476806641 56.56978988647461 85.08216857910156 61.93171691894531 C 82.89131164550781 67.11148834228516 79.75458526611328 71.76371765136719 75.75914764404297 75.75916290283203 C 71.76369476318359 79.75461578369141 67.11147308349609 82.89134216308594 61.93169784545898 85.08219146728516 C 56.56977081298828 87.35010528564453 50.87311935424805 88.50003051757812 44.99999618530273 88.50003051757812 Z" stroke="none"/>
                    <path d="M 44.99999618530273 3 C 39.32870864868164 3 33.82865142822266 4.110061645507812 28.65262603759766 6.299346923828125 C 23.65165710449219 8.414573669433594 19.15968322753906 11.44334411621094 15.301513671875 15.301513671875 C 11.44333648681641 19.15968322753906 8.414566040039062 23.65165710449219 6.299339294433594 28.65262985229492 C 4.110054016113281 33.82867050170898 2.999992370605469 39.32872772216797 2.999992370605469 45.00001525878906 C 2.999992370605469 50.67130279541016 4.110054016113281 56.17134475708008 6.299339294433594 61.34738922119141 C 8.414566040039062 66.34835815429688 11.44333648681641 70.84031677246094 15.301513671875 74.69850158691406 C 19.15968322753906 78.55667114257812 23.65165710449219 81.58544158935547 28.65262603759766 83.70067596435547 C 33.82865142822266 85.88996124267578 39.32870864868164 87.00001525878906 44.99999618530273 87.00001525878906 C 50.67128372192383 87.00001525878906 56.17134094238281 85.88996124267578 61.34736633300781 83.70067596435547 C 66.34834289550781 81.58544158935547 70.84030914306641 78.55667114257812 74.69847869873047 74.69850158691406 C 78.55665588378906 70.84031677246094 81.58542633056641 66.34835815429688 83.70065307617188 61.34738922119141 C 85.88993835449219 56.17134475708008 87 50.67130279541016 87 45.00001525878906 C 87 39.32872772216797 85.88993835449219 33.82867050170898 83.70065307617188 28.65262985229492 C 81.58542633056641 23.65165710449219 78.55665588378906 19.15968322753906 74.69847869873047 15.301513671875 C 70.84030914306641 11.44334411621094 66.34834289550781 8.414573669433594 61.34736633300781 6.299346923828125 C 56.17134094238281 4.110061645507812 50.67128372192383 3 44.99999618530273 3 M 44.99999618530273 0 C 69.85281372070312 0 90 20.14718627929688 90 45.00001525878906 C 90 69.85281372070312 69.85281372070312 90.00001525878906 44.99999618530273 90.00001525878906 C 20.14717864990234 90.00001525878906 -7.62939453125e-06 69.85281372070312 -7.62939453125e-06 45.00001525878906 C -7.62939453125e-06 20.14718627929688 20.14717864990234 0 44.99999618530273 0 Z" stroke="none" fill="#134b69"/>
                  </g>
                </g>
              </g>
            </g>
          </g>
        </g>
      </g>
    </g>
    <g id="legal_18092011" transform="translate(178.786 2620.059)">
      <path id="Trazado_1181262" data-name="Trazado 1181262" d="M105.319,299.23h25.386l6.559,23.544a1.056,1.056,0,0,1-.2.975,1.163,1.163,0,0,1-.937.435H99.9a1.172,1.172,0,0,1-.937-.435,1.057,1.057,0,0,1-.2-.975Z" transform="translate(-44.154 -236.218)" fill="#c794c3" fill-rule="evenodd"/>
      <path id="Trazado_1181263" data-name="Trazado 1181263" d="M163.274,330.07l5.391,19.352a1.056,1.056,0,0,1-.2.975,1.163,1.163,0,0,1-.937.435H135.06l5.784-20.762Z" transform="translate(-75.554 -262.866)" fill="#ddbddb" fill-rule="evenodd"/>
      <path id="Trazado_1181264" data-name="Trazado 1181264" d="M333.135,283.432a3.232,3.232,0,0,1,0,4.562l-14.508,14.511a4.213,4.213,0,0,0-4.566-4.566l14.511-14.507A3.234,3.234,0,0,1,333.135,283.432Z" transform="translate(-230.222 -221.753)" fill="#74cddd" fill-rule="evenodd"/>
      <path id="Trazado_1181265" data-name="Trazado 1181265" d="M303.63,402.134l5.984-1.418c-.13-3.041-1.783-4.419-4.566-4.566Z" transform="translate(-221.21 -319.963)" fill="#f9b5b2" fill-rule="evenodd"/>
      <path id="Trazado_1181266" data-name="Trazado 1181266" d="M202.164,143.89c.37,8.42,1.764,12.539,4.6,13.274H194.83c2.84-.735,4.234-4.856,4.6-13.274Z" transform="translate(-127.2 -101.994)" fill="#795648" fill-rule="evenodd"/>
      <path id="Trazado_1181267" data-name="Trazado 1181267" d="M218.849,143.89c.37,8.42,1.764,12.539,4.6,13.274H214.14c2.844-.735,3.26-4.856,3.634-13.274Z" transform="translate(-143.885 -101.994)" fill="#9d8379" fill-rule="evenodd"/>
      <path id="Trazado_1181268" data-name="Trazado 1181268" d="M270.3,105.45a2.628,2.628,0,0,1,.339.046l13.152,2.728c.937.193,1.5.941,1.245,1.665a1.859,1.859,0,0,1-2.155.967L270.3,108.243c0-.05,0-.1,0-.147Z" transform="translate(-192.411 -68.78)" fill="#a0887e"/>
      <path id="Trazado_1181269" data-name="Trazado 1181269" d="M114.275,105.477c.05-.012.1-.019.147-.027v2.628c0,.061,0,.124.008.185l-12.385,2.571a1.854,1.854,0,0,1-2.155-.964c-.25-.725.309-1.472,1.245-1.668Z" transform="translate(-45.114 -68.78)" fill="#a0887e"/>
      <g id="Grupo_1230369" data-name="Grupo 1230369" transform="translate(48.569 26.795)">
        <path id="Trazado_1181270" data-name="Trazado 1181270" d="M56.078,168.35H66.405a1.464,1.464,0,1,1,0,2.928H56.078a1.464,1.464,0,1,1,0-2.928Z" transform="translate(-54.61 -149.924)" fill="#1680ae" fill-rule="evenodd"/>
        <path id="Trazado_1181271" data-name="Trazado 1181271" d="M75.706,189.89a5.078,5.078,0,0,1,.034.6,5.16,5.16,0,0,1-10.32,0,5.063,5.063,0,0,1,.034-.6Z" transform="translate(-63.951 -168.536)" fill="#91c4ea" fill-rule="evenodd"/>
        <path id="Trazado_1181272" data-name="Trazado 1181272" d="M95.778,189.89a5.166,5.166,0,0,1-3.549,5.509,5.168,5.168,0,0,1-3.545-5.509Z" transform="translate(-84.023 -168.536)" fill="#b9d7f1" fill-rule="evenodd"/>
        <path id="Trazado_1181273" data-name="Trazado 1181273" d="M221.223,46.6l2.663,5.6H218.56Z" transform="translate(-196.273 -44.724)" fill="#a0887e" fill-rule="evenodd"/>
        <path id="Trazado_1181274" data-name="Trazado 1181274" d="M225.761,32.8a1.983,1.983,0,1,1-1.981,1.985A1.984,1.984,0,0,1,225.761,32.8Z" transform="translate(-200.784 -32.8)" fill="#74cddd" fill-rule="evenodd"/>
        <path id="Trazado_1181275" data-name="Trazado 1181275" d="M364.655,115.46a2.235,2.235,0,1,1-2.235,2.235A2.237,2.237,0,0,1,364.655,115.46Z" transform="translate(-320.577 -104.223)" fill="#1680ae" fill-rule="evenodd"/>
        <path id="Trazado_1181276" data-name="Trazado 1181276" d="M330.324,168.35h10.331a1.464,1.464,0,1,1,0,2.928H330.324a1.464,1.464,0,0,1,0-2.928Z" transform="translate(-291.58 -149.924)" fill="#1680ae" fill-rule="evenodd"/>
        <path id="Trazado_1181277" data-name="Trazado 1181277" d="M349.949,189.5c.019.2.031.4.031.6a5.16,5.16,0,1,1-10.286-.6Z" transform="translate(-300.911 -168.199)" fill="#91c4ea" fill-rule="evenodd"/>
        <path id="Trazado_1181278" data-name="Trazado 1181278" d="M370.384,188.983c.019.2.031.4.031.6a5.158,5.158,0,0,1-3.3,4.812c-1.93-.748-3.808-3.615-3.808-4.812s.011-.4.035-.6Z" transform="translate(-321.346 -167.682)" fill="#b9d7f1" fill-rule="evenodd"/>
        <path id="Trazado_1181279" data-name="Trazado 1181279" d="M91.425,115.46a2.235,2.235,0,1,1-2.235,2.235A2.236,2.236,0,0,1,91.425,115.46Z" transform="translate(-84.489 -104.223)" fill="#1680ae" fill-rule="evenodd"/>
        <path id="Trazado_1181280" data-name="Trazado 1181280" d="M112.444,267.11h31.532a2.19,2.19,0,0,1,2.184,2.18v0a2.189,2.189,0,0,1-2.184,2.18H112.444a2.19,2.19,0,0,1-2.185-2.18v0A2.188,2.188,0,0,1,112.444,267.11Z" transform="translate(-102.695 -235.259)" fill="#795648" fill-rule="evenodd"/>
        <path id="Trazado_1181281" data-name="Trazado 1181281" d="M178.7,267.11h24.275a2.19,2.19,0,0,1,2.185,2.18v0a2.189,2.189,0,0,1-2.185,2.18H178.7a14.853,14.853,0,0,1-.158-2.18v0A14.867,14.867,0,0,1,178.7,267.11Z" transform="translate(-161.693 -235.259)" fill="#9d8379" fill-rule="evenodd"/>
        <path id="Trazado_1181282" data-name="Trazado 1181282" d="M137.1,245.828H162.8a1.674,1.674,0,0,0,0-3.348H137.1a1.674,1.674,0,1,0,0,3.348Z" transform="translate(-124.435 -213.977)" fill="#a0887e" fill-rule="evenodd"/>
        <path id="Trazado_1181283" data-name="Trazado 1181283" d="M213.554,245.828h16.584a1.674,1.674,0,0,0,0-3.348H213.554a6.973,6.973,0,0,0,0,3.348Z" transform="translate(-191.771 -213.977)" fill="#bcaaa2" fill-rule="evenodd"/>
        <path id="Trazado_1181284" data-name="Trazado 1181284" d="M209.713,87.79h3.5a2.552,2.552,0,0,1,2.543,2.547v3.39a2.552,2.552,0,0,1-2.543,2.547h-3.5a2.552,2.552,0,0,1-2.543-2.547v-3.39A2.552,2.552,0,0,1,209.713,87.79Z" transform="translate(-186.432 -80.315)" fill="#25bdbf" fill-rule="evenodd"/>
        <path id="Trazado_1181285" data-name="Trazado 1181285" d="M223.331,87.79h3.5a2.552,2.552,0,0,1,2.543,2.547v3.39a2.324,2.324,0,0,1-.035.416,2.968,2.968,0,0,1-.366.027h-3.5a2.552,2.552,0,0,1-2.543-2.547v-3.39a2.322,2.322,0,0,1,.035-.416A2.931,2.931,0,0,1,223.331,87.79Z" transform="translate(-200.049 -80.315)" fill="#74cddd" fill-rule="evenodd"/>
      </g>
      <path id="Trazado_1181286" data-name="Trazado 1181286" d="M72.364,33.322H74.68l-.775-1.63-.763-.008Zm4.612.4a3.538,3.538,0,0,1,1.73,2.123L90.2,38.232a3.186,3.186,0,0,1,5.259,3.541l2.52,2.52a2.418,2.418,0,0,1,.609,4.62,6.112,6.112,0,0,1-12.215,0,2.419,2.419,0,0,1,1.01-4.644l1.546-1.546-10.107-2.1a3.508,3.508,0,0,1-2.808,3.018c.243,3.572.871,9.849,3.8,10.608a1.014,1.014,0,0,1,.231.1h6.9A2.629,2.629,0,0,1,89.463,57.7h.389a3.135,3.135,0,0,1,0,6.269H87.806l1.5,5.41,8.37-8.37a4.179,4.179,0,0,1,5.91,5.911l-11.7,11.7,2.138,7.687a2.086,2.086,0,0,1-2.054,2.617H55.748a2.087,2.087,0,0,1-2.054-2.617l6.223-22.341h-1.6a3.134,3.134,0,0,1,0-6.268h.389a2.626,2.626,0,0,1,2.524-3.344h5.931a1.039,1.039,0,0,1,.231-.1c2.928-.759,3.556-7.036,3.8-10.608a3.514,3.514,0,0,1-2.806-3l-9.329,1.938L60.7,44.3a2.419,2.419,0,0,1,.6,4.62,6.11,6.11,0,0,1-12.215,0A2.418,2.418,0,0,1,50.1,44.273l2.562-2.562a3.188,3.188,0,0,1,5.163-3.627l10.661-2.212a3.524,3.524,0,0,1,.894-1.522,3.585,3.585,0,0,1,.628-.5l1.437-3.025a2.932,2.932,0,1,1,4.165.035Zm1.869,4.092v.878l10.682,2.216a3.3,3.3,0,0,1-.054-.89Zm-4.732,5.891H73.088c-.266,3.988-.867,8.3-2.67,10.642h6.366C74.979,52.011,74.378,47.695,74.113,43.707Zm1.237-8.481h-3.5a1.6,1.6,0,0,0-1.592,1.592v2.489c0,.8-.1,1.456.47,2.031a1.582,1.582,0,0,0,1.121.466h3.5a1.6,1.6,0,0,0,1.592-1.592V36.817a1.6,1.6,0,0,0-1.592-1.592ZM86.936,57.694a.72.72,0,0,0,0-1.441H61.23a.72.72,0,0,0,0,1.441Zm-1.105,6.269H61.886L55.52,86.811c-.031.107.073.208.227.208H91.968c.154,0,.258-.1.227-.208l-1.853-6.651-1.268,1.268a.92.92,0,0,1-.474.254L82.65,83.1a.952.952,0,0,1-1.16-1.141l1.422-5.988a.921.921,0,0,1,.254-.451l4.6-4.6ZM89.849,59.6H58.319a1.232,1.232,0,0,0-.871,2.1,1.217,1.217,0,0,0,.871.366H89.85a1.233,1.233,0,0,0,0-2.466ZM58.665,39.846a3.2,3.2,0,0,1-.008.882l9.7-2.012v-.882Zm-1.735,3.271a3.183,3.183,0,0,1-2.94-.046l-1.2,1.2H58.04Zm-.521-3.756a1.282,1.282,0,1,0,0,1.815A1.283,1.283,0,0,0,56.41,39.361Zm31.878,9.745a4.208,4.208,0,0,0,8.376,0Zm1.781-4.837h5.19L94.1,43.106a3.2,3.2,0,0,1-2.875.011Zm7.576,1.9H87.314a.515.515,0,0,0,0,1.029H97.645A.515.515,0,0,0,97.645,46.172Zm-4.089-6.812a1.284,1.284,0,1,0,0,1.815A1.285,1.285,0,0,0,93.556,39.361ZM74.275,28.051a1.03,1.03,0,1,0,0,1.457A1.03,1.03,0,0,0,74.275,28.051ZM51.008,49.106a4.208,4.208,0,0,0,8.385,0Zm9.356-2.934H50.038a.515.515,0,0,0,0,1.029H60.365A.515.515,0,0,0,60.365,46.172Zm16.1,26.6a.952.952,0,0,1,0-1.9H80.7a.952.952,0,1,1,0,1.9ZM73.4,67.639a.952.952,0,1,1,0-1.9H84.247a.952.952,0,0,1,0,1.9Zm-8.654,0a.952.952,0,0,1,0-1.9h5.511a.952.952,0,1,1,0,1.9ZM63.4,72.772a.952.952,0,1,1,0-1.9H73.825a.952.952,0,1,1,0,1.9Zm-1.357,5.136a.952.952,0,1,1,0-1.9H75.323a.952.952,0,1,1,0,1.9Zm18.8,5.122a.947.947,0,1,1-1.294,1.384c-.659-.62-1.5-1.2-2.235-.966-2.138.67-2.829,2.031-5.862.107-1.968-1.252-5.333-2.678-6.948-.135a4.581,4.581,0,0,0-.273.5.95.95,0,0,1-1.718-.813c2.081-4.392,6.74-3.205,9.961-1.16,1.977,1.256,2.262.315,4.274-.315,1.474-.465,2.87.247,4.094,1.4ZM99.155,66.78l-10.7,10.7a5.13,5.13,0,0,1,.6,1.275l11.035-11.035Zm-12.6,11.337a3.243,3.243,0,0,0-1.972-.937L83.7,80.892l3.7-.878a3.384,3.384,0,0,0-.848-1.9Zm.563-1.989L97.811,65.436l-.937-.937L85.846,75.524A5.084,5.084,0,0,1,87.118,76.129Zm11.1-12.974,3.218,3.218c.767-.763,1.468-1.275,1.468-2.413a2.279,2.279,0,0,0-3.884-1.611Z" transform="translate(0 0)"/>
    </g>
  </g>
</svg>
