<svg xmlns="http://www.w3.org/2000/svg" xmlns:xlink="http://www.w3.org/1999/xlink" width="103" height="103" viewBox="0 0 103 103">
  <defs>
    <filter id="Trazado_982547" x="0" y="0" width="103" height="103" filterUnits="userSpaceOnUse">
      <feOffset dy="3" input="SourceAlpha"/>
      <feGaussianBlur stdDeviation="3" result="blur"/>
      <feFlood flood-opacity="0.161"/>
      <feComposite operator="in" in2="blur"/>
      <feComposite in="SourceGraphic"/>
    </filter>
  </defs>
  <g id="Grupo_1230651" data-name="Grupo 1230651" transform="translate(-1033.12 -2049)">
    <g id="Grupo_1224595" data-name="Grupo 1224595" transform="translate(0 -3744)">
      <g id="Grupo_1224204" data-name="Grupo 1224204" transform="translate(0 5367)">
        <g id="Grupo_1224082" data-name="Grupo 1224082" transform="translate(838.99 -1582)">
          <g id="Grupo_1206686" data-name="Grupo 1206686" transform="translate(-2.87 300.583)">
            <g id="Grupo_1201889" data-name="Grupo 1201889" transform="translate(206 1713.417)">
              <g id="Grupo_1201680" data-name="Grupo 1201680">
                <g id="Grupo_1201330" data-name="Grupo 1201330">
                  <g id="Grupo_1172010" data-name="Grupo 1172010">
                    <g id="Grupo_1171046" data-name="Grupo 1171046">
                      <g id="Grupo_1148525" data-name="Grupo 1148525">
                        <g transform="matrix(1, 0, 0, 1, -9, -6)" filter="url(#Trazado_982547)">
                          <g id="Trazado_982547-2" data-name="Trazado 982547" transform="translate(9 6)" fill="#f2f4f0">
                            <path d="M 42.5 83.5 C 36.96437835693359 83.5 31.59512901306152 82.41617584228516 26.54141235351562 80.27863311767578 C 21.65934181213379 78.21369171142578 17.27447128295898 75.25723266601562 13.50862312316895 71.49137878417969 C 9.742764472961426 67.72553253173828 6.786305904388428 63.34066009521484 4.721364498138428 58.45858764648438 C 2.583823442459106 53.40486907958984 1.5 48.03562164306641 1.5 42.5 C 1.5 36.96437835693359 2.583823442459106 31.59512901306152 4.721364498138428 26.54141235351562 C 6.786305904388428 21.65934181213379 9.742764472961426 17.27448272705078 13.50862312316895 13.50862312316895 C 17.27447128295898 9.742776870727539 21.65934181213379 6.786305904388428 26.54141235351562 4.721364498138428 C 31.59512901306152 2.583823442459106 36.96437835693359 1.5 42.5 1.5 C 48.03562164306641 1.5 53.40486907958984 2.583823442459106 58.45858764648438 4.721364498138428 C 63.34066009521484 6.786305904388428 67.72553253173828 9.742776870727539 71.49137878417969 13.50862312316895 C 75.25723266601562 17.27448272705078 78.21369171142578 21.65934181213379 80.27863311767578 26.54141235351562 C 82.41617584228516 31.59512901306152 83.5 36.96437835693359 83.5 42.5 C 83.5 48.03562164306641 82.41617584228516 53.40486907958984 80.27863311767578 58.45858764648438 C 78.21369171142578 63.34066009521484 75.25723266601562 67.72553253173828 71.49137878417969 71.49137878417969 C 67.72553253173828 75.25723266601562 63.34066009521484 78.21369171142578 58.45858764648438 80.27863311767578 C 53.40486907958984 82.41617584228516 48.03562164306641 83.5 42.5 83.5 Z" stroke="none"/>
                            <path d="M 42.5 3 C 37.16621398925781 3 31.99356079101562 4.043960571289062 27.125732421875 6.102882385253906 C 22.42246627807617 8.092185974121094 18.19785308837891 10.94070434570312 14.56928253173828 14.56928253173828 C 10.94070434570312 18.19785308837891 8.092185974121094 22.42246627807617 6.102882385253906 27.125732421875 C 4.043960571289062 31.99356079101562 3 37.16621398925781 3 42.5 C 3 47.83378601074219 4.043960571289062 53.00643920898438 6.102882385253906 57.87425231933594 C 8.092185974121094 62.57753372192383 10.94070434570312 66.80213165283203 14.56928253173828 70.43071746826172 C 18.19786834716797 74.05929565429688 22.42246627807617 76.90781402587891 27.125732421875 78.89711761474609 C 31.99356079101562 80.95603942871094 37.16621398925781 82 42.5 82 C 47.83378601074219 82 53.00642395019531 80.95603942871094 57.87425231933594 78.89711761474609 C 62.57753372192383 76.90781402587891 66.80213165283203 74.05929565429688 70.43071746826172 70.43071746826172 C 74.05929565429688 66.80213165283203 76.90781402587891 62.57753372192383 78.89711761474609 57.87425231933594 C 80.95603942871094 53.00642395019531 82 47.83378601074219 82 42.5 C 82 37.16621398925781 80.95603942871094 31.99356079101562 78.89711761474609 27.125732421875 C 76.90781402587891 22.42246627807617 74.05929565429688 18.19786834716797 70.43071746826172 14.56928253173828 C 66.80213165283203 10.94070434570312 62.57753372192383 8.092185974121094 57.87425231933594 6.102882385253906 C 53.00643920898438 4.043960571289062 47.83378601074219 3 42.5 3 M 42.5 0 C 65.97209167480469 0 85 19.02789306640625 85 42.5 C 85 65.97209167480469 65.97209167480469 85 42.5 85 C 19.02789306640625 85 0 65.97209167480469 0 42.5 C 0 19.02789306640625 19.02789306640625 0 42.5 0 Z" stroke="none" fill="#899e78"/>
                          </g>
                        </g>
                      </g>
                    </g>
                  </g>
                </g>
              </g>
            </g>
          </g>
        </g>
      </g>
    </g>
    <g id="democracy_6705247" transform="translate(1051.831 2064.33)">
      <g id="Grupo_1230632" data-name="Grupo 1230632" transform="translate(7.499 7.5)">
        <g id="Grupo_1230622" data-name="Grupo 1230622" transform="translate(17.945 0)">
          <rect id="Rectángulo_423282" data-name="Rectángulo 423282" width="4.163" height="5.189" transform="translate(5.135 9.836)" fill="#ae6c6c"/>
          <path id="Trazado_1181142" data-name="Trazado 1181142" d="M200.891,132.214v3.194h-6.457l-.76-.2-.76.2H186.66v-2.991a2.081,2.081,0,0,1,1.8-2.063l.11-.245,3.019-.408,1.322,1.062.086.373.665.23.644-.209.125-.4,1.322-1.053,3.332.451A2.082,2.082,0,0,1,200.891,132.214Z" transform="translate(-186.457 -117.322)" fill="#6a7682"/>
          <path id="Trazado_1181143" data-name="Trazado 1181143" d="M186.776,133.731v5.3H184.66v-3.194a2.081,2.081,0,0,1,1.8-2.063Z" transform="translate(-184.66 -120.945)" fill="#5d6875"/>
          <path id="Trazado_1181144" data-name="Trazado 1181144" d="M224.841,32.5v2.407a2.776,2.776,0,0,1-.959,2.1l-1.08.935a2.915,2.915,0,0,1-3.815,0l-1.08-.935a2.776,2.776,0,0,1-.959-2.1V32.5C219.583,29.214,222.214,29.2,224.841,32.5Z" transform="translate(-213.678 -27.751)" fill="#b98080"/>
          <path id="Trazado_1181145" data-name="Trazado 1181145" d="M223.74,10.45l-.423,1.825a3.048,3.048,0,0,0-1.675-.5,3.362,3.362,0,0,0-1.806.592.811.811,0,0,1-.931,0,3.4,3.4,0,0,0-1.53-.577s-.221-.225-.313-.226a2.488,2.488,0,0,0-1.514.44l-.246-1.686a1.166,1.166,0,0,1,.209-1.089,3.377,3.377,0,0,1,1.805-1.246,4.3,4.3,0,0,0,.533-.307,6.3,6.3,0,0,1,1.532-.18,5.034,5.034,0,0,1,4.1,1.774A1.375,1.375,0,0,1,223.74,10.45Z" transform="translate(-212.154 -7.5)" fill="#6a7682"/>
          <path id="Trazado_1181146" data-name="Trazado 1181146" d="M214.487,11.5l.346,1.9c-.091-.01-.182-.016-.274-.017a3.043,3.043,0,0,0-1.675.5l-.422-1.821a1.379,1.379,0,0,1,.268-1.181,4.772,4.772,0,0,1,2.578-1.593,5.327,5.327,0,0,0-.552.716A2.124,2.124,0,0,0,214.487,11.5Z" transform="translate(-209.613 -9.1)" fill="#5d6875"/>
        </g>
        <g id="Grupo_1230623" data-name="Grupo 1230623" transform="translate(0.102 5.83)">
          <path id="Trazado_1181147" data-name="Trazado 1181147" d="M8.651,71.345a3.39,3.39,0,0,0,2.552.392.656.656,0,0,1,.246.051c1.478-.341,2.956-1.156,4.435-1a2.907,2.907,0,0,1,1.317.359V66.013a.307.307,0,0,0-.15-.262,3.412,3.412,0,0,0-1.07-.552c-.032-.007-.1-.116-.1-.116-1.475-.156-2.953.653-4.425,1a.667.667,0,0,1-.193.145A3.325,3.325,0,0,1,8.939,66a.3.3,0,0,0-.437.273v4.814A.307.307,0,0,0,8.651,71.345Z" transform="translate(-8.502 -65.062)" fill="#c1e9af"/>
        </g>
        <g id="Grupo_1230624" data-name="Grupo 1230624" transform="translate(41.541 5.879)">
          <path id="Trazado_1181148" data-name="Trazado 1181148" d="M426.267,71.881c-2.445,1.481-4.889-.917-7.334-.657a1.469,1.469,0,0,0-1.216.055l-.1-4.832a.307.307,0,0,1,.15-.262,6.85,6.85,0,0,1,1.1-.619h0c2.349-.25,4.77,1.905,7.119.764a.3.3,0,0,1,.437.273v5.016A.307.307,0,0,1,426.267,71.881Z" transform="translate(-417.616 -65.545)" fill="#c1e9af"/>
        </g>
        <g id="Grupo_1230625" data-name="Grupo 1230625" transform="translate(6.533 19.041)">
          <path id="Trazado_1181149" data-name="Trazado 1181149" d="M113.39,238.174l-.051-29.687L77.58,208.27l.236,29.9h3.466l.269.1h7.677l.308-.1,9.3,0,.389.105H106.9l.23-.1Z" transform="translate(-77.015 -206.975)" fill="#7e8b96"/>
          <path id="Trazado_1181150" data-name="Trazado 1181150" d="M72,195.489v31.074h3.431l-.042-23.414a1.562,1.562,0,0,1,1.562-1.562H87.478l.694,2.026,4.174.312.76-2.338h11.9l1.623,2,2.633-2.058v-6.044H72Z" transform="translate(-72 -195.489)" fill="#6a7682"/>
        </g>
        <path id="Trazado_1181151" data-name="Trazado 1181151" d="M89.333,179.462H52.451l-.558.114-3.886-.013a.507.507,0,0,0-.506.506v2.538a.506.506,0,0,0,.506.506l3.685-.017.759.119H89.333a.506.506,0,0,0,.506-.506v-2.74A.506.506,0,0,0,89.333,179.462Z" transform="translate(-43.448 -162.044)" fill="#909ba6"/>
        <g id="Grupo_1230627" data-name="Grupo 1230627" transform="translate(0 23.287)">
          <path id="Trazado_1181152" data-name="Trazado 1181152" d="M22.635,247.964a1.964,1.964,0,0,0-1.907,1.3l-.2.535a15.8,15.8,0,0,0-.6,2.275V240.725a1.436,1.436,0,0,0-1.354-1.434s-.044.112-.072.112a1.368,1.368,0,0,0-1.394,1.3c0,.03-.052.022-.052.022V238.87a1.433,1.433,0,0,0-1.346-1.43s-.083.064-.112.064a1.3,1.3,0,0,0-1.308,1.393l-.007,1.654-.092.011a1.434,1.434,0,0,0-1.348-1.431l-.086.1a1.267,1.267,0,0,0-1.333,1.333v2.157l-.1.013a1.356,1.356,0,0,0-1.192-1.346l-.169.059A1.19,1.19,0,0,0,8.74,242.73l.078,10.292a5.589,5.589,0,0,0,.883,2.872,7.325,7.325,0,0,1,.769,3.639v.3h8.457l.116-.3v-.125a3.572,3.572,0,0,1,1.829-3.118h0a3.572,3.572,0,0,0,1.829-3.118v-1.285a3.571,3.571,0,0,1,.276-1.376l.553-1.324a.948.948,0,0,0-.694-1.3A.71.71,0,0,1,22.635,247.964Z" transform="translate(-8.614 -237.437)" fill="#ffdfd4"/>
          <path id="Trazado_1181153" data-name="Trazado 1181153" d="M9.633,290.33a8.131,8.131,0,0,1,1.013,3.906v.229l-.285.281-1.029-.011-.121-.27a6.762,6.762,0,0,0-.2-1.661,6.905,6.905,0,0,0-.7-1.724,6.213,6.213,0,0,1-.811-3.068V277.665a1.356,1.356,0,0,1,1.355-1.355,1.254,1.254,0,0,1,.164.01v11.692A4.715,4.715,0,0,0,9.633,290.33Z" transform="translate(-7.5 -272.37)" fill="#feccbc"/>
          <path id="Trazado_1181154" data-name="Trazado 1181154" d="M35.256,459.193H26.779l.315-3.222.878-.417h7.283Z" transform="translate(-24.826 -433.458)" fill="#f2fbff"/>
          <rect id="Rectángulo_423283" data-name="Rectángulo 423283" width="1.435" height="3.639" transform="translate(1.711 22.096)" fill="#dfeef4"/>
          <path id="Trazado_1181155" data-name="Trazado 1181155" d="M15.079,486.312v-.552a.506.506,0,0,1,.506-.506l1.584-.07.288-.133h7.923a.507.507,0,0,1,.506.506v.957a.506.506,0,0,1-.506.506H17.457l-.247-.128-1.624-.075A.507.507,0,0,1,15.079,486.312Z" transform="translate(-14.311 -459.968)" fill="#ade194"/>
          <path id="Trazado_1181156" data-name="Trazado 1181156" d="M15.661,485.05v1.97H13.586a.507.507,0,0,1-.506-.506v-.957a.507.507,0,0,1,.506-.506Z" transform="translate(-12.515 -459.967)" fill="#97da7b"/>
          <path id="Trazado_1181157" data-name="Trazado 1181157" d="M35.789,254.113v6.749a1.215,1.215,0,0,1-1.215,1.215.3.3,0,0,1-.3-.3v-6.229A1.435,1.435,0,0,1,35.7,254.11C35.733,254.11,35.761,254.111,35.789,254.113Z" transform="translate(-31.558 -252.418)" fill="#feccbc"/>
          <path id="Trazado_1181158" data-name="Trazado 1181158" d="M64.1,237.413v8.44a1.215,1.215,0,0,1-1.215,1.215.3.3,0,0,1-.3-.3v-7.922a1.433,1.433,0,0,1,1.433-1.433C64.043,237.41,64.071,237.411,64.1,237.413Z" transform="translate(-57.001 -237.41)" fill="#feccbc"/>
          <path id="Trazado_1181159" data-name="Trazado 1181159" d="M92.389,255.693v6.589a1.215,1.215,0,0,1-1.215,1.215.3.3,0,0,1-.3-.3v-6.067a1.435,1.435,0,0,1,1.436-1.436C92.335,255.69,92.362,255.691,92.389,255.693Z" transform="translate(-82.425 -253.838)" fill="#feccbc"/>
          <g id="Grupo_1230626" data-name="Grupo 1230626" transform="translate(11.318 10.437)">
            <path id="Trazado_1181160" data-name="Trazado 1181160" d="M122.145,340.467l-.271.592-.768,1.849a4.516,4.516,0,0,0-.346,1.739v.881A1.521,1.521,0,0,1,119.614,347a.3.3,0,0,1-.374-.3v-2.058a6.044,6.044,0,0,1,.463-2.322l.21-.505a2.222,2.222,0,0,1,2.052-1.369A.955.955,0,0,1,122.145,340.467Z" transform="translate(-119.24 -340.45)" fill="#feccbc"/>
          </g>
        </g>
        <g id="Grupo_1230629" data-name="Grupo 1230629" transform="translate(17.675 23.287)">
          <path id="Trazado_1181161" data-name="Trazado 1181161" d="M197.135,247.964a1.964,1.964,0,0,0-1.907,1.3l-.2.535a15.8,15.8,0,0,0-.6,2.275V240.725a1.436,1.436,0,0,0-1.354-1.434s-.056.069-.084.069a1.364,1.364,0,0,0-1.358,1.352c0,.026-.076.013-.076.013V238.87a1.433,1.433,0,0,0-1.346-1.43s-.083.064-.112.064a1.3,1.3,0,0,0-1.308,1.393l-.007,1.654-.092.011a1.434,1.434,0,0,0-1.348-1.431l-.086.1a1.267,1.267,0,0,0-1.333,1.333v2.157l-.1.013a1.356,1.356,0,0,0-1.192-1.346l-.169.059a1.19,1.19,0,0,0-1.225,1.284l.078,10.292a5.589,5.589,0,0,0,.883,2.872,7.325,7.325,0,0,1,.769,3.639v.3h8.457l.116-.3v-.125a3.572,3.572,0,0,1,1.829-3.118h0a3.572,3.572,0,0,0,1.829-3.118v-1.285a3.57,3.57,0,0,1,.276-1.376l.553-1.324a.948.948,0,0,0-.694-1.3A.711.711,0,0,1,197.135,247.964Z" transform="translate(-183.114 -237.437)" fill="#c59191"/>
          <path id="Trazado_1181162" data-name="Trazado 1181162" d="M184.133,290.33a8.131,8.131,0,0,1,1.013,3.906v.229l-.185.3-1.15-.025-.1-.274a6.762,6.762,0,0,0-.2-1.661,6.906,6.906,0,0,0-.7-1.724,6.213,6.213,0,0,1-.811-3.068V277.665a1.356,1.356,0,0,1,1.355-1.355,1.254,1.254,0,0,1,.164.01v11.692A4.715,4.715,0,0,0,184.133,290.33Z" transform="translate(-182 -272.37)" fill="#b98080"/>
          <path id="Trazado_1181163" data-name="Trazado 1181163" d="M209.756,459.193h-8.477l.315-3.222.878-.417h7.283Z" transform="translate(-199.326 -433.458)" fill="#f2fbff"/>
          <rect id="Rectángulo_423284" data-name="Rectángulo 423284" width="1.435" height="3.639" transform="translate(1.711 22.096)" fill="#dfeef4"/>
          <path id="Trazado_1181164" data-name="Trazado 1181164" d="M189.579,486.312v-.552a.506.506,0,0,1,.506-.506l1.584-.07.288-.133h7.923a.506.506,0,0,1,.506.506v.957a.506.506,0,0,1-.506.506h-7.923l-.247-.128-1.624-.075A.507.507,0,0,1,189.579,486.312Z" transform="translate(-188.811 -459.968)" fill="#94d8e6"/>
          <path id="Trazado_1181165" data-name="Trazado 1181165" d="M190.161,485.05v1.97h-2.074a.507.507,0,0,1-.506-.506v-.957a.507.507,0,0,1,.506-.506Z" transform="translate(-187.015 -459.967)" fill="#75c5d8"/>
          <path id="Trazado_1181166" data-name="Trazado 1181166" d="M210.289,254.113v6.749a1.215,1.215,0,0,1-1.215,1.215.3.3,0,0,1-.3-.3v-6.229a1.435,1.435,0,0,1,1.433-1.434C210.233,254.11,210.261,254.111,210.289,254.113Z" transform="translate(-206.058 -252.418)" fill="#b98080"/>
          <path id="Trazado_1181167" data-name="Trazado 1181167" d="M238.6,237.413v8.44a1.215,1.215,0,0,1-1.215,1.215.3.3,0,0,1-.3-.3v-7.922a1.433,1.433,0,0,1,1.433-1.433C238.543,237.41,238.571,237.411,238.6,237.413Z" transform="translate(-231.501 -237.41)" fill="#b98080"/>
          <path id="Trazado_1181168" data-name="Trazado 1181168" d="M266.889,255.693v6.589a1.215,1.215,0,0,1-1.215,1.215.3.3,0,0,1-.3-.3v-6.067a1.435,1.435,0,0,1,1.436-1.436C266.835,255.69,266.862,255.691,266.889,255.693Z" transform="translate(-256.926 -253.838)" fill="#b98080"/>
          <g id="Grupo_1230628" data-name="Grupo 1230628" transform="translate(11.318 10.437)">
            <path id="Trazado_1181169" data-name="Trazado 1181169" d="M296.645,340.467l-.271.592-.768,1.849a4.516,4.516,0,0,0-.346,1.739v.881A1.521,1.521,0,0,1,294.114,347a.3.3,0,0,1-.374-.3v-2.058a6.044,6.044,0,0,1,.463-2.322l.21-.505a2.222,2.222,0,0,1,2.052-1.369A.955.955,0,0,1,296.645,340.467Z" transform="translate(-293.74 -340.45)" fill="#b98080"/>
          </g>
        </g>
        <g id="Grupo_1230631" data-name="Grupo 1230631" transform="translate(35.35 23.287)">
          <path id="Trazado_1181170" data-name="Trazado 1181170" d="M371.634,247.964a1.964,1.964,0,0,0-1.907,1.3l-.2.535a15.8,15.8,0,0,0-.6,2.275V240.725a1.437,1.437,0,0,0-1.354-1.434s-.062.1-.09.1a1.33,1.33,0,0,0-1.3,1.291l-.132.039V238.87a1.433,1.433,0,0,0-1.346-1.43s-.083.064-.112.064a1.3,1.3,0,0,0-1.308,1.393l-.007,1.654-.092.011a1.434,1.434,0,0,0-1.348-1.431l-.086.1a1.267,1.267,0,0,0-1.333,1.333v2.157l-.1.013a1.356,1.356,0,0,0-1.192-1.346l-.169.059a1.19,1.19,0,0,0-1.225,1.284l.078,10.292a5.589,5.589,0,0,0,.883,2.872,7.325,7.325,0,0,1,.769,3.639v.3h8.457l.116-.3v-.125a3.572,3.572,0,0,1,1.829-3.118h0a3.572,3.572,0,0,0,1.829-3.118v-1.285a3.57,3.57,0,0,1,.276-1.376l.553-1.324a.948.948,0,0,0-.694-1.3A.709.709,0,0,1,371.634,247.964Z" transform="translate(-357.613 -237.437)" fill="#ffdfd4"/>
          <path id="Trazado_1181171" data-name="Trazado 1181171" d="M358.633,290.33a8.131,8.131,0,0,1,1.013,3.906v.229l-.183.3-.928-.028-.323-.276a6.763,6.763,0,0,0-.2-1.661,6.907,6.907,0,0,0-.7-1.724,6.213,6.213,0,0,1-.811-3.068V277.665a1.356,1.356,0,0,1,1.355-1.355,1.253,1.253,0,0,1,.164.01v11.692A4.715,4.715,0,0,0,358.633,290.33Z" transform="translate(-356.5 -272.37)" fill="#feccbc"/>
          <path id="Trazado_1181172" data-name="Trazado 1181172" d="M384.255,459.193h-8.477l.315-3.222.878-.417h7.283Z" transform="translate(-373.826 -433.458)" fill="#f2fbff"/>
          <rect id="Rectángulo_423285" data-name="Rectángulo 423285" width="1.435" height="3.639" transform="translate(1.711 22.096)" fill="#dfeef4"/>
          <path id="Trazado_1181173" data-name="Trazado 1181173" d="M364.079,486.312v-.552a.506.506,0,0,1,.506-.506l1.584-.07.288-.133h7.923a.507.507,0,0,1,.506.506v.957a.506.506,0,0,1-.506.506h-7.923l-.247-.128-1.624-.075A.507.507,0,0,1,364.079,486.312Z" transform="translate(-363.311 -459.968)" fill="#ffd15b"/>
          <path id="Trazado_1181174" data-name="Trazado 1181174" d="M364.661,485.05v1.97h-2.074a.507.507,0,0,1-.506-.506v-.957a.507.507,0,0,1,.506-.506Z" transform="translate(-361.515 -459.967)" fill="#ffc344"/>
          <path id="Trazado_1181175" data-name="Trazado 1181175" d="M384.789,254.113v6.749a1.215,1.215,0,0,1-1.215,1.215.3.3,0,0,1-.3-.3v-6.229a1.435,1.435,0,0,1,1.433-1.434C384.733,254.11,384.761,254.111,384.789,254.113Z" transform="translate(-380.559 -252.418)" fill="#feccbc"/>
          <path id="Trazado_1181176" data-name="Trazado 1181176" d="M413.1,237.413v8.44a1.215,1.215,0,0,1-1.215,1.215.3.3,0,0,1-.3-.3v-7.922a1.433,1.433,0,0,1,1.433-1.433C413.043,237.41,413.071,237.411,413.1,237.413Z" transform="translate(-406.001 -237.41)" fill="#feccbc"/>
          <path id="Trazado_1181177" data-name="Trazado 1181177" d="M441.389,255.693v6.589a1.215,1.215,0,0,1-1.215,1.215.3.3,0,0,1-.3-.3v-6.067a1.435,1.435,0,0,1,1.436-1.436C441.335,255.69,441.362,255.691,441.389,255.693Z" transform="translate(-431.426 -253.838)" fill="#feccbc"/>
          <g id="Grupo_1230630" data-name="Grupo 1230630" transform="translate(11.318 10.437)">
            <path id="Trazado_1181178" data-name="Trazado 1181178" d="M471.145,340.467l-.272.592-.768,1.849a4.516,4.516,0,0,0-.346,1.739v.881A1.521,1.521,0,0,1,468.614,347a.3.3,0,0,1-.374-.3v-2.058a6.045,6.045,0,0,1,.463-2.322l.21-.505a2.222,2.222,0,0,1,2.052-1.369A.955.955,0,0,1,471.145,340.467Z" transform="translate(-468.24 -340.45)" fill="#feccbc"/>
          </g>
        </g>
        <path id="Trazado_1181179" data-name="Trazado 1181179" d="M51.552,179.46v3.754H47.006a.507.507,0,0,1-.506-.506v-2.741a.507.507,0,0,1,.506-.506Z" transform="translate(-42.55 -162.042)" fill="#7e8b96"/>
        <path id="Trazado_1181180" data-name="Trazado 1181180" d="M10.557,73.2l-.009,5.71a3.687,3.687,0,0,1-2.9-.342A.307.307,0,0,1,7.5,78.3V73.286a.3.3,0,0,1,.437-.272A3.814,3.814,0,0,0,10.557,73.2Z" transform="translate(-7.499 -66.35)" fill="#ade194"/>
      </g>
      <g id="Grupo_1230650" data-name="Grupo 1230650" transform="translate(7.499 7.5)">
        <g id="Grupo_1230633" data-name="Grupo 1230633" transform="translate(3.95 17.418)">
          <line id="Línea_3769" data-name="Línea 3769" y2="2.559" transform="translate(2.583 3.247)" fill="none" stroke="#000" stroke-linecap="round" stroke-linejoin="round" stroke-miterlimit="10" stroke-width="1.3"/>
          <line id="Línea_3770" data-name="Línea 3770" y1="4.585" transform="translate(39.857 3.247)" fill="none" stroke="#000" stroke-linecap="round" stroke-linejoin="round" stroke-miterlimit="10" stroke-width="1.3"/>
          <path id="Trazado_1181181" data-name="Trazado 1181181" d="M69.59,179.462H46.5v3.247H88.94v-3.247h-15.8" transform="translate(-46.5 -179.462)" fill="none" stroke="#000" stroke-linecap="round" stroke-linejoin="round" stroke-miterlimit="10" stroke-width="1.3"/>
        </g>
        <g id="Grupo_1230637" data-name="Grupo 1230637" transform="translate(0 23.288)">
          <g id="Grupo_1230636" data-name="Grupo 1230636">
            <g id="Grupo_1230635" data-name="Grupo 1230635">
              <g id="Grupo_1230634" data-name="Grupo 1230634">
                <line id="Línea_3771" data-name="Línea 3771" y2="6.933" transform="translate(11.318 7.992)" fill="none" stroke="#000" stroke-linecap="round" stroke-linejoin="round" stroke-miterlimit="10" stroke-width="1.3"/>
                <path id="Trazado_1181182" data-name="Trazado 1181182" d="M9.211,259.51a6.63,6.63,0,0,0-.9-3.386h0a6.212,6.212,0,0,1-.811-3.068V242.71a1.356,1.356,0,0,1,1.356-1.356h0a1.356,1.356,0,0,1,1.356,1.356v-2.17a1.434,1.434,0,0,1,1.434-1.434h0a1.434,1.434,0,0,1,1.434,1.434v-1.692a1.433,1.433,0,0,1,1.433-1.433h0a1.433,1.433,0,0,1,1.433,1.433V240.7a1.436,1.436,0,0,1,1.436-1.436h0a1.436,1.436,0,0,1,1.436,1.436v1.159" transform="translate(-7.5 -237.415)" fill="none" stroke="#000" stroke-linecap="round" stroke-linejoin="round" stroke-miterlimit="10" stroke-width="1.3"/>
              </g>
              <path id="Trazado_1181183" data-name="Trazado 1181183" d="M111.353,345.525v-.881a6.055,6.055,0,0,1,.463-2.322l.21-.5a2.222,2.222,0,0,1,2.053-1.37h0a.947.947,0,0,1,.874,1.312l-.553,1.324a3.573,3.573,0,0,0-.276,1.376v1.285a3.572,3.572,0,0,1-1.829,3.118h0a3.572,3.572,0,0,0-1.829,3.118v.125" transform="translate(-100.036 -330.011)" fill="none" stroke="#000" stroke-linecap="round" stroke-linejoin="round" stroke-miterlimit="10" stroke-width="1.3"/>
            </g>
            <rect id="Rectángulo_423286" data-name="Rectángulo 423286" width="8.718" height="2.988" transform="translate(1.711 22.095)" fill="none" stroke="#000" stroke-linecap="round" stroke-linejoin="round" stroke-miterlimit="10" stroke-width="1.3"/>
            <path id="Trazado_1181184" data-name="Trazado 1181184" d="M13.079,487.021v-1.97H24.09v1.97" transform="translate(-12.514 -459.968)" fill="none" stroke="#000" stroke-linecap="round" stroke-linejoin="round" stroke-miterlimit="10" stroke-width="1.3"/>
          </g>
        </g>
        <g id="Grupo_1230641" data-name="Grupo 1230641" transform="translate(17.675 23.288)">
          <g id="Grupo_1230640" data-name="Grupo 1230640">
            <g id="Grupo_1230639" data-name="Grupo 1230639">
              <g id="Grupo_1230638" data-name="Grupo 1230638">
                <path id="Trazado_1181185" data-name="Trazado 1181185" d="M183.711,259.51a6.63,6.63,0,0,0-.9-3.386h0a6.212,6.212,0,0,1-.811-3.068V242.71a1.356,1.356,0,0,1,1.356-1.356h0a1.356,1.356,0,0,1,1.356,1.356v-2.17a1.434,1.434,0,0,1,1.434-1.434h0a1.434,1.434,0,0,1,1.434,1.434v-1.692a1.433,1.433,0,0,1,1.433-1.433h0a1.433,1.433,0,0,1,1.433,1.433V240.7a1.436,1.436,0,0,1,1.436-1.436h0a1.436,1.436,0,0,1,1.436,1.436v11.637" transform="translate(-182 -237.415)" fill="none" stroke="#000" stroke-linecap="round" stroke-linejoin="round" stroke-miterlimit="10" stroke-width="1.3"/>
              </g>
              <path id="Trazado_1181186" data-name="Trazado 1181186" d="M285.853,345.525v-.881a6.055,6.055,0,0,1,.463-2.322l.21-.5a2.223,2.223,0,0,1,2.053-1.37h0a.947.947,0,0,1,.874,1.312l-.553,1.324a3.574,3.574,0,0,0-.276,1.376v1.285a3.572,3.572,0,0,1-1.829,3.118h0a3.572,3.572,0,0,0-1.829,3.118v.125" transform="translate(-274.536 -330.011)" fill="none" stroke="#000" stroke-linecap="round" stroke-linejoin="round" stroke-miterlimit="10" stroke-width="1.3"/>
            </g>
            <rect id="Rectángulo_423287" data-name="Rectángulo 423287" width="8.718" height="2.988" transform="translate(1.711 22.095)" fill="none" stroke="#000" stroke-linecap="round" stroke-linejoin="round" stroke-miterlimit="10" stroke-width="1.3"/>
            <path id="Trazado_1181187" data-name="Trazado 1181187" d="M187.579,487.021v-1.97H198.59v1.97" transform="translate(-187.014 -459.968)" fill="none" stroke="#000" stroke-linecap="round" stroke-linejoin="round" stroke-miterlimit="10" stroke-width="1.3"/>
          </g>
        </g>
        <g id="Grupo_1230645" data-name="Grupo 1230645" transform="translate(35.35 23.288)">
          <g id="Grupo_1230644" data-name="Grupo 1230644">
            <g id="Grupo_1230643" data-name="Grupo 1230643">
              <g id="Grupo_1230642" data-name="Grupo 1230642">
                <path id="Trazado_1181188" data-name="Trazado 1181188" d="M356.5,248.794V242.71a1.356,1.356,0,0,1,1.356-1.356h0a1.356,1.356,0,0,1,1.356,1.356v-2.17a1.434,1.434,0,0,1,1.434-1.434h0a1.434,1.434,0,0,1,1.434,1.434v-1.692a1.433,1.433,0,0,1,1.433-1.433h0a1.433,1.433,0,0,1,1.433,1.433V240.7a1.436,1.436,0,0,1,1.436-1.436h0a1.436,1.436,0,0,1,1.436,1.436v11.637" transform="translate(-356.5 -237.415)" fill="none" stroke="#000" stroke-linecap="round" stroke-linejoin="round" stroke-miterlimit="10" stroke-width="1.3"/>
                <path id="Trazado_1181189" data-name="Trazado 1181189" d="M358.212,391.93a6.63,6.63,0,0,0-.9-3.386h0a6.212,6.212,0,0,1-.811-3.068v-.717" transform="translate(-356.5 -369.835)" fill="none" stroke="#000" stroke-linecap="round" stroke-linejoin="round" stroke-miterlimit="10" stroke-width="1.3"/>
              </g>
              <path id="Trazado_1181190" data-name="Trazado 1181190" d="M460.353,345.525v-.881a6.055,6.055,0,0,1,.463-2.322l.21-.5a2.222,2.222,0,0,1,2.053-1.37h0a.947.947,0,0,1,.874,1.312l-.553,1.324a3.574,3.574,0,0,0-.276,1.376v1.285a3.572,3.572,0,0,1-1.829,3.118h0a3.572,3.572,0,0,0-1.829,3.118v.125" transform="translate(-449.036 -330.011)" fill="none" stroke="#000" stroke-linecap="round" stroke-linejoin="round" stroke-miterlimit="10" stroke-width="1.3"/>
            </g>
            <rect id="Rectángulo_423288" data-name="Rectángulo 423288" width="8.718" height="2.988" transform="translate(1.711 22.095)" fill="none" stroke="#000" stroke-linecap="round" stroke-linejoin="round" stroke-miterlimit="10" stroke-width="1.3"/>
            <path id="Trazado_1181191" data-name="Trazado 1181191" d="M362.079,487.021v-1.97H373.09v1.97" transform="translate(-361.514 -459.968)" fill="none" stroke="#000" stroke-linecap="round" stroke-linejoin="round" stroke-miterlimit="10" stroke-width="1.3"/>
          </g>
        </g>
        <g id="Grupo_1230646" data-name="Grupo 1230646" transform="translate(17.953 0)">
          <path id="Trazado_1181192" data-name="Trazado 1181192" d="M189.882,110.186v2.585l-3.332.45a2.082,2.082,0,0,0-1.8,2.063v1.574" transform="translate(-184.747 -99.785)" fill="none" stroke="#000" stroke-linecap="round" stroke-linejoin="round" stroke-miterlimit="10" stroke-width="1.3"/>
          <path id="Trazado_1181193" data-name="Trazado 1181193" d="M276.554,110.186v2.585l3.332.45a2.082,2.082,0,0,1,1.8,2.063v1.574" transform="translate(-267.255 -99.785)" fill="none" stroke="#000" stroke-linecap="round" stroke-linejoin="round" stroke-miterlimit="10" stroke-width="1.3"/>
          <path id="Trazado_1181194" data-name="Trazado 1181194" d="M224.841,54.432v2.407a2.776,2.776,0,0,1-.959,2.1l-1.08.935a2.915,2.915,0,0,1-3.815,0l-1.08-.935a2.776,2.776,0,0,1-.959-2.1V54.432" transform="translate(-213.686 -49.678)" fill="none" stroke="#000" stroke-linecap="round" stroke-linejoin="round" stroke-miterlimit="10" stroke-width="1.3"/>
          <path id="Trazado_1181195" data-name="Trazado 1181195" d="M235.446,135.7l2.073,1.665,2.091-1.665" transform="translate(-230.311 -122.717)" fill="none" stroke="#000" stroke-linecap="round" stroke-linejoin="round" stroke-miterlimit="10" stroke-width="1.3"/>
          <line id="Línea_3772" data-name="Línea 3772" y2="2.422" transform="translate(7.217 14.651)" fill="none" stroke="#000" stroke-linecap="round" stroke-linejoin="round" stroke-miterlimit="10" stroke-width="1.3"/>
          <path id="Trazado_1181196" data-name="Trazado 1181196" d="M221.2,10.45l-.423,1.825a3.048,3.048,0,0,0-1.675-.5,3.362,3.362,0,0,0-1.806.592.811.811,0,0,1-.931,0,3.343,3.343,0,0,0-1.8-.594,3.041,3.041,0,0,0-1.675.5l-.422-1.822a1.376,1.376,0,0,1,.268-1.18,5.63,5.63,0,0,1,8.2,0A1.375,1.375,0,0,1,221.2,10.45Z" transform="translate(-209.622 -7.5)" fill="none" stroke="#000" stroke-linecap="round" stroke-linejoin="round" stroke-miterlimit="10" stroke-width="1.3"/>
        </g>
        <g id="Grupo_1230647" data-name="Grupo 1230647" transform="translate(41.338 5.83)">
          <line id="Línea_3773" data-name="Línea 3773" y1="5.172" transform="translate(0 6.29)" fill="none" stroke="#000" stroke-linecap="round" stroke-linejoin="round" stroke-miterlimit="10" stroke-width="1.3"/>
          <path id="Trazado_1181197" data-name="Trazado 1181197" d="M424.619,71.344c-3,2.016-6-2.016-9,0V65.636c3-2.016,6,2.016,9,0Z" transform="translate(-415.616 -65.054)" fill="none" stroke="#000" stroke-linecap="round" stroke-linejoin="round" stroke-miterlimit="10" stroke-width="1.3"/>
        </g>
        <g id="Grupo_1230648" data-name="Grupo 1230648" transform="translate(0 5.83)">
          <line id="Línea_3774" data-name="Línea 3774" y1="5.172" transform="translate(9.003 6.29)" fill="none" stroke="#000" stroke-linecap="round" stroke-linejoin="round" stroke-miterlimit="10" stroke-width="1.3"/>
          <path id="Trazado_1181198" data-name="Trazado 1181198" d="M10.677,66.042A3.715,3.715,0,0,1,7.5,65.636v5.708c3,2.016,6-2.016,9,0V65.636a3.392,3.392,0,0,0-2.372-.555" transform="translate(-7.5 -65.054)" fill="none" stroke="#000" stroke-linecap="round" stroke-linejoin="round" stroke-miterlimit="10" stroke-width="1.3"/>
        </g>
        <g id="Grupo_1230649" data-name="Grupo 1230649" transform="translate(13.948 10.596)">
          <path id="Trazado_1181199" data-name="Trazado 1181199" d="M342.6,118.845V115.09a1.013,1.013,0,0,0-.323-.742l-2.4-2.236" transform="translate(-320.158 -112.113)" fill="none" stroke="#000" stroke-linecap="round" stroke-linejoin="round" stroke-miterlimit="10" stroke-width="1.3"/>
          <path id="Trazado_1181200" data-name="Trazado 1181200" d="M145.208,118.845V115.09a1.013,1.013,0,0,1,.323-.742l2.4-2.236" transform="translate(-145.208 -112.113)" fill="none" stroke="#000" stroke-linecap="round" stroke-linejoin="round" stroke-miterlimit="10" stroke-width="1.3"/>
        </g>
      </g>
    </g>
  </g>
</svg>
